<?xml version="1.0" encoding="UTF-8"?><svg id="Layer_2" xmlns="http://www.w3.org/2000/svg" viewBox="0 0 360.25 218.13"><defs><style>.cls-1{fill:#231f20;stroke-width:0px;}</style></defs><g id="Layer_1-2"><path class="cls-1" d="M63.15,68.6c0,17.34,9.69,28.56,24.86,28.56,11.48,0,18.74-5.99,18.74-15.43,0-9.95-6.76-17.21-25.25-27.03-16.58-8.8-23.33-17.21-23.33-29.58,0-15.3,12.11-25.12,31.11-25.12,17.09,0,29.58,6.63,29.58,15.81,0,4.46-2.55,8.29-7.27,11.22-1.53,1.02-2.42.89-2.55-.38-1.78-13.51-10.07-21.8-21.55-21.8-9.44,0-15.68,5.74-15.68,14.15,0,9.31,5.74,16.07,20.53,23.97,20.27,10.71,28.69,20.53,28.69,33.66,0,16.45-12.24,25.37-34.04,25.37s-35.06-8.29-35.06-20.02c0-6.12,3.32-10.96,9.18-13.9,1.4-.76,2.04-.51,2.04.51Z"/><path class="cls-1" d="M117.46,32.26c4.46-3.57,7.52-4.72,12.75-4.72,14.03,0,27.8,26.14,32.13,61.07,11.09-29.2,12.5-51.51,3.95-59.42-.89-.89-.89-1.66.25-1.66,9.69,0,12.88,2.42,12.88,9.44,0,10.71-7.27,38.63-14.41,55.85-9.95,23.46-21.93,36.21-34.17,36.21-7.91,0-14.28-5.1-14.28-11.22,0-5.48,4.21-9.94,9.44-9.94,1.15,0,1.66.64,1.79,1.91.64,6.38,3.95,9.69,9.44,9.69,8.8,0,14.15-8.16,14.15-21.68,0-29.58-18.1-63.5-33.92-63.5-1.27,0-1.27-1.02,0-2.04Z"/><path class="cls-1" d="M216.15,98.56c3.06.38,2.29,2.55-.25,2.55-5.23,0-8.03-.77-13.26-.77s-7.78.77-13.26.77c-2.55,0-2.8-2.17-.25-2.55,6.89-.76,7.65-4.21,7.65-34.04,0-23.59-1.79-29.83-8.16-29.07-1.91.25-2.3-.64-.51-1.66,7.14-3.95,10.46-5.1,14.28-5.1,4.85.13,7.01,2.81,7.01,8.54,0,5.36-1.15,16.19-.89,30.98.51,27.54,1.02,29.58,7.65,30.34ZM254.14,101.11c-5.48,0-8.16-.77-13.26-.77s-7.91.77-13.26.77c-2.68,0-2.93-2.17-.25-2.55,6.88-.89,7.65-3.82,7.9-30.73.26-23.46-1.66-31.24-7.78-31.24-2.42,0-4.72,1.02-10.58,4.59-2.04,1.28-3.83-.76-1.02-3.06,9.05-7.65,14.54-10.58,19.89-10.58,7.65,0,11.99,4.59,11.99,12.75,0,3.32-.38,10.97-.64,25.37-.51,29.2.13,32.13,7.27,32.9,2.93.38,2.17,2.55-.25,2.55ZM292.65,98.56c2.93.38,2.17,2.55-.25,2.55-5.36,0-8.16-.77-13.26-.77s-7.91.77-13.26.77c-2.68,0-2.93-2.17-.26-2.55,6.89-.76,7.65-3.82,7.91-30.73.26-22.44-2.17-31.37-8.29-31.37-2.04,0-4.08,1.02-9.82,4.59-2.04,1.27-3.83-.77-1.02-3.06,8.92-7.52,14.41-10.46,19.64-10.46,7.65,0,11.86,4.59,11.86,12.75,0,3.32-.25,10.97-.51,25.37-.51,29.2.13,32.13,7.27,32.9Z"/><path class="cls-1" d="M302.08,64.9c-.25-1.28,1.02-2.17,6.76-4.84l18.36-8.42c2.17-1.02,3.06.26,2.42,3.57-.51,2.68-1.91,4.08-5.99,5.36l-16.32,4.97c-2.68.76-4.97.51-5.23-.64Z"/><path class="cls-1" d="M41.35,211.27c12.37,0,19.89-12.24,19.89-32.51,0-17.98-6.38-30.22-19.38-30.22-5.61,0-9.31,1.66-12.88,6.12-.89,1.02-1.66.64-1.66-.38,0-5.87,9.05-12.75,19-12.75,17.47,0,28.05,13.77,28.05,34.68,0,25.12-11.6,39.78-31.49,39.78-16.19,0-14.41-6.38-24.1-6.38-4.08,0-7.14,2.3-8.67,6.25-1.27,3.44-3.57,2.8-2.93-.76,2.17-11.48,2.81-21.68,3.19-47.56.38-35.96-2.04-49.85-8.93-50.87-1.79-.25-1.91-1.4-.38-2.04,3.44-1.4,7.27-2.29,10.58-2.29,7.27,0,10.84,4.85,10.84,14.79,0,10.96-.51,31.88-.51,49.09,0,23.46,6.38,35.06,19.38,35.06Z"/><path class="cls-1" d="M80.49,149.43c-1.91.25-2.29-.64-.51-1.66,7.14-3.95,10.46-5.1,14.28-5.1,4.85.13,7.01,2.81,7.01,8.54,0,5.1-.51,15.17-.51,27.29,0,30.35.38,32,7.14,34.04,2.81.89,2.17,2.55-.25,2.55-5.48,0-8.03-.77-13.26-.77s-7.78.77-13.26.77c-2.68,0-2.81-1.79-.25-2.55,6.76-2.17,7.65-5.86,7.65-34.04,0-23.46-1.78-29.83-8.03-29.07ZM93.11,131.07c-5.35,0-9.56-4.21-9.56-9.56s4.21-9.56,9.56-9.56,9.56,4.21,9.56,9.56-4.21,9.56-9.56,9.56Z"/><path class="cls-1" d="M175.1,203.24c-4.46,5.99-11.86,10.97-16.19,10.97-.77,0-1.15-.38-1.15-.89,0-1.28,2.17-1.66,5.35-6.76,4.21-6.76,6.25-15.43,6.25-25.88,0-9.44-1.79-17.72-5.1-23.59-3.95-7.14-9.69-10.97-16.19-10.97-11.35,0-19.38,11.73-19.38,28.43,0,13.26,4.72,25.25,12.88,32.51,6.25,5.61,11.09,5.74,11.09,7.4,0,1.53-2.17,1.66-9.31.64-17.09-3.06-28.94-18.11-28.94-36.85,0-21.55,14.54-36.72,34.17-36.72,20.78,0,34.04,15.04,34.04,37.49,0,9.05-2.68,17.47-7.52,24.22Z"/><path class="cls-1" d="M216.02,212.54c3.06.38,2.29,2.55-.25,2.55-5.23,0-8.03-.77-13.26-.77s-7.78.77-13.26.77c-2.55,0-2.8-2.17-.25-2.55,6.89-.76,7.65-4.21,7.65-34.04,0-23.59-1.79-29.83-8.16-29.07-1.91.25-2.3-.64-.51-1.66,7.14-3.95,10.46-5.1,14.28-5.1,4.85.13,7.01,2.81,7.01,8.54,0,5.35-1.15,16.19-.89,30.98.51,27.54,1.02,29.58,7.65,30.34ZM254.02,215.09c-5.48,0-8.16-.77-13.26-.77s-7.91.77-13.26.77c-2.68,0-2.93-2.17-.26-2.55,6.88-.89,7.65-3.82,7.91-30.73.25-23.46-1.66-31.24-7.78-31.24-2.42,0-4.72,1.02-10.58,4.59-2.04,1.28-3.82-.76-1.02-3.06,9.05-7.65,14.54-10.58,19.89-10.58,7.65,0,11.98,4.59,11.98,12.75,0,3.32-.38,10.97-.64,25.37-.51,29.2.13,32.13,7.27,32.9,2.93.38,2.17,2.55-.26,2.55ZM292.52,212.54c2.93.38,2.17,2.55-.25,2.55-5.35,0-8.16-.77-13.26-.77s-7.91.77-13.26.77c-2.68,0-2.93-2.17-.25-2.55,6.88-.76,7.65-3.82,7.91-30.73.25-22.44-2.17-31.37-8.29-31.37-2.04,0-4.08,1.02-9.82,4.59-2.04,1.27-3.83-.77-1.02-3.06,8.92-7.52,14.41-10.46,19.63-10.46,7.65,0,11.86,4.59,11.86,12.75,0,3.32-.25,10.97-.51,25.37-.51,29.2.13,32.13,7.27,32.9Z"/><path class="cls-1" d="M359.2,163.07c0,11.35-9.44,18.36-24.48,18.36-6.76,0-11.99-1.4-14.66-3.95-2.17-2.04-1.4-3.19,1.02-2.29,2.55,1.02,5.36,1.53,8.54,1.53,9.69.13,15.94-5.86,15.94-15.43s-5.36-15.68-13.39-15.68c-10.97,0-18.49,12.24-18.49,30.09,0,21.42,10.58,35.96,26.01,35.96,6.5,0,12.88-3.44,17.6-9.69,1.4-1.91,3.95-.51,2.55,1.79-4.46,7.78-13.52,12.24-24.48,12.24-21.68,0-36.21-15.3-36.21-38,0-21.04,14.28-36.47,33.53-36.47,15.04,0,26.52,9.31,26.52,21.55Z"/></g></svg>