<?xml version="1.0" encoding="utf-8"?>
<!-- Generator: Adobe Illustrator 28.1.0, SVG Export Plug-In . SVG Version: 6.00 Build 0)  -->
<svg version="1.1" id="Layer_2_00000166673906604474764350000001809136655813168274_"
	 xmlns="http://www.w3.org/2000/svg" xmlns:xlink="http://www.w3.org/1999/xlink" x="0px" y="0px" viewBox="0 0 360.2 218.1"
	 style="enable-background:new 0 0 360.2 218.1;" xml:space="preserve">
<g id="Layer_1-2">
	<path d="M63.2,68.6c0,17.3,9.7,28.6,24.9,28.6c11.5,0,18.7-6,18.7-15.4c0-9.9-6.8-17.2-25.2-27c-16.6-8.8-23.3-17.2-23.3-29.6
		C58.2,9.8,70.3,0,89.3,0c17.1,0,29.6,6.6,29.6,15.8c0,4.5-2.6,8.3-7.3,11.2c-1.5,1-2.4,0.9-2.6-0.4C107.3,13.1,99,4.8,87.5,4.8
		c-9.4,0-15.7,5.7-15.7,14.1c0,9.3,5.7,16.1,20.5,24C112.6,53.7,121,63.5,121,76.6c0,16.5-12.2,25.4-34,25.4s-35.1-8.3-35.1-20
		c0-6.1,3.3-11,9.2-13.9C62.5,67.3,63.2,67.6,63.2,68.6L63.2,68.6z"/>
	<path d="M117.5,32.3c4.5-3.6,7.5-4.7,12.7-4.7c14,0,27.8,26.1,32.1,61.1c11.1-29.2,12.5-51.5,3.9-59.4c-0.9-0.9-0.9-1.7,0.2-1.7
		c9.7,0,12.9,2.4,12.9,9.4c0,10.7-7.3,38.6-14.4,55.8c-9.9,23.5-21.9,36.2-34.2,36.2c-7.9,0-14.3-5.1-14.3-11.2
		c0-5.5,4.2-9.9,9.4-9.9c1.2,0,1.7,0.6,1.8,1.9c0.6,6.4,4,9.7,9.4,9.7c8.8,0,14.1-8.2,14.1-21.7c0-29.6-18.1-63.5-33.9-63.5
		C116.2,34.3,116.2,33.3,117.5,32.3L117.5,32.3z"/>
	<path d="M216.1,98.6c3.1,0.4,2.3,2.6-0.2,2.6c-5.2,0-8-0.8-13.3-0.8s-7.8,0.8-13.3,0.8c-2.6,0-2.8-2.2-0.2-2.6
		c6.9-0.8,7.6-4.2,7.6-34c0-23.6-1.8-29.8-8.2-29.1c-1.9,0.2-2.3-0.6-0.5-1.7c7.1-4,10.5-5.1,14.3-5.1c4.9,0.1,7,2.8,7,8.5
		c0,5.4-1.1,16.2-0.9,31C209,95.7,209.5,97.8,216.1,98.6L216.1,98.6z M254.1,101.1c-5.5,0-8.2-0.8-13.3-0.8s-7.9,0.8-13.3,0.8
		c-2.7,0-2.9-2.2-0.2-2.6c6.9-0.9,7.6-3.8,7.9-30.7c0.3-23.5-1.7-31.2-7.8-31.2c-2.4,0-4.7,1-10.6,4.6c-2,1.3-3.8-0.8-1-3.1
		c9.1-7.6,14.5-10.6,19.9-10.6c7.6,0,12,4.6,12,12.7c0,3.3-0.4,11-0.6,25.4c-0.5,29.2,0.1,32.1,7.3,32.9
		C257.3,98.9,256.6,101.1,254.1,101.1L254.1,101.1z M292.6,98.6c2.9,0.4,2.2,2.6-0.2,2.6c-5.4,0-8.2-0.8-13.3-0.8s-7.9,0.8-13.3,0.8
		c-2.7,0-2.9-2.2-0.3-2.6c6.9-0.8,7.6-3.8,7.9-30.7c0.3-22.4-2.2-31.4-8.3-31.4c-2,0-4.1,1-9.8,4.6c-2,1.3-3.8-0.8-1-3.1
		c8.9-7.5,14.4-10.5,19.6-10.5c7.6,0,11.9,4.6,11.9,12.8c0,3.3-0.2,11-0.5,25.4C284.9,94.9,285.5,97.8,292.6,98.6L292.6,98.6z"/>
	<path d="M302.1,64.9c-0.2-1.3,1-2.2,6.8-4.8l18.4-8.4c2.2-1,3.1,0.3,2.4,3.6c-0.5,2.7-1.9,4.1-6,5.4l-16.3,5
		C304.6,66.3,302.3,66.1,302.1,64.9L302.1,64.9z"/>
	<path d="M41.3,211.3c12.4,0,19.9-12.2,19.9-32.5c0-18-6.4-30.2-19.4-30.2c-5.6,0-9.3,1.7-12.9,6.1c-0.9,1-1.7,0.6-1.7-0.4
		c0-5.9,9-12.8,19-12.8c17.5,0,28,13.8,28,34.7c0,25.1-11.6,39.8-31.5,39.8c-16.2,0-14.4-6.4-24.1-6.4c-4.1,0-7.1,2.3-8.7,6.2
		c-1.3,3.4-3.6,2.8-2.9-0.8c2.2-11.5,2.8-21.7,3.2-47.6c0.4-36-2-49.8-8.9-50.9c-1.8-0.2-1.9-1.4-0.4-2c3.4-1.4,7.3-2.3,10.6-2.3
		c7.3,0,10.8,4.8,10.8,14.8c0,11-0.5,31.9-0.5,49.1C22,199.7,28.3,211.3,41.3,211.3L41.3,211.3z"/>
	<path d="M80.5,149.4c-1.9,0.2-2.3-0.6-0.5-1.7c7.1-3.9,10.5-5.1,14.3-5.1c4.8,0.1,7,2.8,7,8.5c0,5.1-0.5,15.2-0.5,27.3
		c0,30.4,0.4,32,7.1,34c2.8,0.9,2.2,2.6-0.2,2.6c-5.5,0-8-0.8-13.3-0.8s-7.8,0.8-13.3,0.8c-2.7,0-2.8-1.8-0.2-2.6
		c6.8-2.2,7.7-5.9,7.7-34C88.5,155,86.7,148.7,80.5,149.4L80.5,149.4z M93.1,131.1c-5.3,0-9.6-4.2-9.6-9.6s4.2-9.6,9.6-9.6
		s9.6,4.2,9.6,9.6S98.5,131.1,93.1,131.1z"/>
	<path d="M175.1,203.2c-4.5,6-11.9,11-16.2,11c-0.8,0-1.1-0.4-1.1-0.9c0-1.3,2.2-1.7,5.4-6.8c4.2-6.8,6.2-15.4,6.2-25.9
		c0-9.4-1.8-17.7-5.1-23.6c-3.9-7.1-9.7-11-16.2-11c-11.4,0-19.4,11.7-19.4,28.4c0,13.3,4.7,25.2,12.9,32.5
		c6.2,5.6,11.1,5.7,11.1,7.4c0,1.5-2.2,1.7-9.3,0.6c-17.1-3.1-28.9-18.1-28.9-36.9c0-21.6,14.5-36.7,34.2-36.7c20.8,0,34,15,34,37.5
		C182.6,188.1,179.9,196.5,175.1,203.2L175.1,203.2z"/>
	<path d="M216,212.5c3.1,0.4,2.3,2.6-0.2,2.6c-5.2,0-8-0.8-13.3-0.8s-7.8,0.8-13.3,0.8c-2.6,0-2.8-2.2-0.2-2.6
		c6.9-0.8,7.6-4.2,7.6-34c0-23.6-1.8-29.8-8.2-29.1c-1.9,0.2-2.3-0.6-0.5-1.7c7.1-3.9,10.5-5.1,14.3-5.1c4.9,0.1,7,2.8,7,8.5
		c0,5.4-1.1,16.2-0.9,31C208.9,209.7,209.4,211.8,216,212.5L216,212.5z M254,215.1c-5.5,0-8.2-0.8-13.3-0.8s-7.9,0.8-13.3,0.8
		c-2.7,0-2.9-2.2-0.3-2.6c6.9-0.9,7.6-3.8,7.9-30.7c0.2-23.5-1.7-31.2-7.8-31.2c-2.4,0-4.7,1-10.6,4.6c-2,1.3-3.8-0.8-1-3.1
		c9.1-7.6,14.5-10.6,19.9-10.6c7.6,0,12,4.6,12,12.8c0,3.3-0.4,11-0.6,25.4c-0.5,29.2,0.1,32.1,7.3,32.9
		C257.2,212.9,256.4,215.1,254,215.1L254,215.1z M292.5,212.5c2.9,0.4,2.2,2.6-0.2,2.6c-5.4,0-8.2-0.8-13.3-0.8s-7.9,0.8-13.3,0.8
		c-2.7,0-2.9-2.2-0.2-2.6c6.9-0.8,7.6-3.8,7.9-30.7c0.2-22.4-2.2-31.4-8.3-31.4c-2,0-4.1,1-9.8,4.6c-2,1.3-3.8-0.8-1-3.1
		c8.9-7.5,14.4-10.5,19.6-10.5c7.6,0,11.9,4.6,11.9,12.8c0,3.3-0.2,11-0.5,25.4C284.7,208.8,285.4,211.8,292.5,212.5L292.5,212.5z"
		/>
	<path d="M359.2,163.1c0,11.4-9.4,18.4-24.5,18.4c-6.8,0-12-1.4-14.7-3.9c-2.2-2-1.4-3.2,1-2.3c2.5,1,5.4,1.5,8.5,1.5
		c9.7,0.1,15.9-5.9,15.9-15.4s-5.4-15.7-13.4-15.7c-11,0-18.5,12.2-18.5,30.1c0,21.4,10.6,36,26,36c6.5,0,12.9-3.4,17.6-9.7
		c1.4-1.9,4-0.5,2.5,1.8c-4.5,7.8-13.5,12.2-24.5,12.2c-21.7,0-36.2-15.3-36.2-38c0-21,14.3-36.5,33.5-36.5
		C347.7,141.5,359.2,150.8,359.2,163.1L359.2,163.1z"/>
</g>
</svg>
