<?xml version="1.0" encoding="utf-8"?>
<!-- Generator: Adobe Illustrator 28.1.0, SVG Export Plug-In . SVG Version: 6.00 Build 0)  -->
<svg version="1.1" id="Layer_1" xmlns="http://www.w3.org/2000/svg" xmlns:xlink="http://www.w3.org/1999/xlink" x="0px" y="0px"
	 viewBox="0 0 1607.1 1196.9" style="enable-background:new 0 0 1607.1 1196.9;" xml:space="preserve">
<g id="Layer_2_00000062184388440223273690000009098891740956017087_">
	<g id="Layer_1-2">
		<path d="M536.8,63.3c0-36-31.2-63.3-72.9-63.3C441.4,0,431,16,431,52.1c0,35.2,3.2,63.3,3.2,81.7c0,20.8-4,29.6-14.4,29.6
			c-24,0-72.1-69.7-212.3-69.7C91.3,93.7,0,168.2,0,262.8c0,104.1,88.9,169.8,230.7,169.8c73.7,0,104.2-19.2,150.6-19.2
			c25.6,0,40.9,4.8,64.1,4.8c44.1,0,76.1-28,76.1-68.1c0-27.2-4.8-46.5-4.8-87.3C516.7,192.3,536.8,152.2,536.8,63.3z M346.1,336.5
			c-39.3,0-71.3-27.2-71.3-60.1c0-32,26.4-53.7,65.7-53.7s71.3,27.2,71.3,60.1C411.8,313.2,383.8,336.5,346.1,336.5z"/>
		<path d="M892.5,119.4c-177.8,0-503.1,385.4-503.1,596.1c0,56.9,27.2,90.5,73.7,90.5c180.3,0,506.3-384.6,506.3-596.1
			C969.4,152.2,941.3,119.4,892.5,119.4z M615.3,568c-16,0-24.8-10.4-24.8-28c0-63.3,100.1-182.7,153-182.7
			c16.8,0,24.8,10.4,24.8,30.5C768.3,448.6,666.6,568,615.3,568z"/>
		<path d="M1117.6,647.3c-78.5,0.8-100.9,5.6-100.9,21.6c0,10.4,7.2,14.4,23.2,14.4c26.4,0,72.9-11.2,125-11.2
			c87.3,0,146.6,60.9,146.6,150.6c0,137.8-276.4,374.1-437.4,374.1c-87.3,0-145.8-56.9-145.8-143.4c0-100.9,70.5-157.8,244.4-197.9
			c126.6-28,141-33.7,141-49.7c0-8.8-6.4-13.6-18.4-13.6c-23.2,0-101.7,32.8-188.3,32.8c-96.1,0-156.2-48.9-156.2-127.4
			c0-92.1,100.9-145,276.4-145c106.6,0,167.4,22.4,167.4,60.9C1194.5,636.1,1171.3,646.5,1117.6,647.3z"/>
		<path d="M1457.3,137c0,79.3-37.7,116.2-188.3,142.6c-48.9,8.8-81.7,8-100.9,11.2c-16.8,3.2-23.2,8-23.2,16.8c0,10.4,8,16,24,15.2
			c9.7,0,19.4-1,28.8-3.2c79.3-16,116.2-20.8,161-20.8c96.1,0,158.6,54.5,158.6,138.6c0,79.3-74.5,125.8-201.1,125.8
			c-160.2,0-235.5-24.8-235.5-77.7c0-20.8,16.8-32,47.3-32c27.2,0,59.3,7.2,83.3,7.2c21.6,0,29.6-4,29.6-15.2
			c0-12-10.4-17.6-32.8-17.6c-19.2,0-44.1,3.2-68.1,3.2c-84.1,0-139.4-56.1-139.4-135.4c0-121.8,221.1-264.4,360.5-264.4
			C1422.8,31.2,1457.3,74.5,1457.3,137z"/>
		<path d="M1559.6,29.6c-26.2,0-47.5,21.3-47.5,47.5s21.3,47.5,47.5,47.5s47.5-21.3,47.5-47.5C1607,50.9,1585.8,29.7,1559.6,29.6z
			 M1559.6,117.9c-22.1,0-40.1-18.1-40.1-40.8s18.1-40.8,40.1-40.8s40.1,18.1,40.1,40.8S1581.7,117.9,1559.6,117.9z"/>
		<path d="M1560.3,49.7c12.7,0,21.4,8.7,22.1,18.7h-8c-0.7-6.7-6.7-11.4-14-11.4c-10.7,0-16.7,7.4-16.7,20.1s6,20.1,16.7,20.1
			c7.4,0,13.4-4.7,14-11.4h8c-0.7,10-9.4,18.7-22.1,18.7c-15.4,0-24.8-10.7-24.8-27.4S1544.9,49.7,1560.3,49.7z"/>
	</g>
</g>
</svg>
