<svg xmlns="http://www.w3.org/2000/svg" viewBox="0 0 612.89 1059.72"><defs><style>.cls-1{fill:#fff;}</style></defs><title>authentic-sans-data-plus</title><g id="Layer_2" data-name="Layer 2"><g id="_2" data-name="2"><path class="cls-1" d="M548,0H64.9A65,65,0,0,0,0,64.9V994.82a65,65,0,0,0,64.9,64.9H548a65,65,0,0,0,64.9-64.9V64.9A65,65,0,0,0,548,0Zm62.9,994.82a63,63,0,0,1-62.9,62.9H64.9A63,63,0,0,1,2,994.82V64.9A63,63,0,0,1,64.9,2H548a63,63,0,0,1,62.9,62.9Z"/><polygon class="cls-1" points="152.34 669.84 128.06 726.84 152.34 783.84 176.62 726.84 152.34 669.84"/><path class="cls-1" d="M290.11,566.22c3.29,0,5.64-2,5.64-5.84V550h-3.17v10.48a2.31,2.31,0,0,1-2.44,2.62,2.26,2.26,0,0,1-2.41-2.13l-3.1.36A5.16,5.16,0,0,0,290.11,566.22Z"/><path class="cls-1" d="M305.67,566.22c4.54,0,7.75-3.5,7.75-8.26s-3-8.38-7.75-8.38-7.8,3.67-7.8,8.38S301.12,566.22,305.67,566.22Zm0-13.47c2.75,0,4.46,2.25,4.46,5.18s-1.9,5.15-4.46,5.15-4.47-2.13-4.47-5.15S302.93,552.75,305.67,552.75Z"/><polygon class="cls-1" points="319.82 565.82 323.01 565.82 323.01 558.23 328.51 549.96 324.97 549.96 321.4 555.32 317.9 549.96 314.3 549.96 319.82 558.25 319.82 565.82"/><polygon class="cls-1" points="81.93 478.97 69.15 482.37 69.15 484.39 77.53 486.81 69.15 489.15 69.15 491.16 81.93 494.56 81.93 491.94 74.57 490.12 81.93 488.01 81.93 485.53 74.54 483.46 81.93 481.6 81.93 478.97"/><path class="cls-1" d="M81.93,499.84l-12.78-5v2.68l3.18,1.24v5L69.15,505v2.65l12.78-5Zm-7.09,3v-3.1l4,1.55Z"/><polygon class="cls-1" points="69.15 517.74 71.7 517.74 71.7 511.4 81.93 511.4 81.93 508.84 69.15 508.84 69.15 517.74"/><polygon class="cls-1" points="71.7 521.81 81.93 521.81 81.93 519.24 69.15 519.24 69.15 528.15 71.7 528.15 71.7 521.81"/><path class="cls-1" d="M75.1,294.89a6.17,6.17,0,0,0,6.55-6.31,6,6,0,0,0-4.22-5.87l-.59,2.55a3.43,3.43,0,0,1,2.24,3.34c0,2.12-1.66,3.62-4,3.62s-4.22-1.57-4.22-3.79a3.16,3.16,0,0,1,1.94-3l-.87-2.64a5.93,5.93,0,0,0-3.65,5.61A6.53,6.53,0,0,0,75.1,294.89Z"/><polygon class="cls-1" points="81.33 273.42 81.33 270.87 68.54 270.87 68.54 273.42 73.54 273.42 73.54 278.35 68.54 278.35 68.54 280.89 81.33 280.89 81.33 278.35 76.06 278.35 76.06 273.42 81.33 273.42"/><path class="cls-1" d="M81.33,259.54v-2.65l-12.79,5v2.82l12.79,5V267l-3.18-1.24v-5Zm-5.7,5.26-4-1.55,4-1.55Z"/><rect class="cls-1" x="68.54" y="252.85" width="12.78" height="2.58"/><path class="cls-1" d="M68.54,245.13v5.3H81.33v-2.55H75.82v-1.31c0-2.17,4.23-2.17,5.51-3v-2.84c-2.79,1.44-5,.88-5.92,2.51A3.32,3.32,0,0,0,72.22,241C70.18,241,68.54,242.58,68.54,245.13Zm4.75,0v2.72H71.08v-2.72c0-1,.44-1.54,1.07-1.54S73.29,244.24,73.29,245.16Z"/><polygon class="cls-1" points="531.65 296.04 534.18 296.04 534.18 292.17 544.43 292.17 544.43 289.62 534.18 289.62 534.18 285.74 531.65 285.74 531.65 296.04"/><path class="cls-1" d="M531.65,280.45l12.78,5v-2.68l-3.18-1.25v-5l3.18-1.21v-2.65l-12.78,5Zm7.09-3v3.09l-4-1.54Z"/><path class="cls-1" d="M531.65,271.46h12.78V266c0-2.75-1.6-4.71-3.88-4.71a2.94,2.94,0,0,0-2.89,1.82,2.85,2.85,0,0,0-2.6-1.27c-2.21,0-3.41,1.58-3.41,4.42ZM539,266c0-1.42.42-2.09,1.46-2.09s1.46.67,1.46,2.09v2.91H539Zm-4.78.62c0-1.45.36-2.23,1.14-2.23s1.14.78,1.14,2.23v2.29h-2.28Z"/><polygon class="cls-1" points="531.65 259.49 544.43 259.49 544.43 250.59 541.88 250.59 541.88 256.93 531.65 256.93 531.65 259.49"/><polygon class="cls-1" points="531.65 249.09 544.43 249.09 544.43 240.03 541.88 240.03 541.88 246.54 539.13 246.54 539.13 240.74 536.59 240.74 536.59 246.54 534.18 246.54 534.18 240.18 531.65 240.18 531.65 249.09"/><polygon class="cls-1" points="547.39 466.06 534.61 469.45 534.61 471.48 542.99 473.89 534.61 476.24 534.61 478.24 547.39 481.64 547.39 479.02 540.03 477.21 547.39 475.1 547.39 472.62 540 470.54 547.39 468.69 547.39 466.06"/><rect class="cls-1" x="534.61" y="483.14" width="12.78" height="2.58"/><polygon class="cls-1" points="547.39 488.14 534.61 488.14 534.61 490.7 542.7 490.7 534.61 495.94 534.61 498.29 547.39 498.29 547.39 495.74 539.32 495.74 547.39 490.52 547.39 488.14"/><path class="cls-1" d="M534.61,505c0,4,2.65,6.07,6.46,6.07s6.32-2.11,6.32-6.07v-4.5H534.61Zm2.53-1.95h7.72v1.66c0,2.4-1.19,3.78-3.79,3.78s-3.93-1.38-3.93-3.78Z"/><path class="cls-1" d="M541,512.4c-3.84,0-6.67,2.61-6.67,6.29s2.83,6.23,6.67,6.23,6.75-2.44,6.75-6.23S544.74,512.4,541,512.4Zm0,9.87c-2.44,0-4.14-1.53-4.14-3.58s1.71-3.61,4.14-3.61,4.19,1.4,4.19,3.61S543.33,522.27,541,522.27Z"/><polygon class="cls-1" points="547.39 525.73 534.61 529.12 534.61 531.15 542.99 533.56 534.61 535.91 534.61 537.91 547.39 541.31 547.39 538.69 540.03 536.88 547.39 534.77 547.39 532.29 540 530.21 547.39 528.36 547.39 525.73"/><polygon class="cls-1" points="69.8 139.71 69.8 123.85 67.9 123.85 67.9 136.38 59.53 123.85 57.5 123.85 57.5 139.71 59.4 139.71 59.4 127.12 67.79 139.71 69.8 139.71"/><path class="cls-1" d="M72.47,123.85v9.87c0,4.18,2.28,6.39,6.12,6.39s6.22-2.26,6.22-6.37v-9.89H82.89v9.89c0,2.95-1.54,4.47-4.3,4.47s-4.2-1.54-4.2-4.49v-9.87Z"/><polygon class="cls-1" points="95.12 137.01 89.89 123.85 87.49 123.85 87.49 139.71 89.39 139.71 89.39 127.52 94.23 139.71 96.01 139.71 100.77 127.52 100.77 139.71 102.67 139.71 102.67 123.85 100.27 123.85 95.12 137.01"/><path class="cls-1" d="M116.61,127.82c0-2.51-1.78-4-4.85-4h-6.43v15.86h6.51c3.23,0,5.44-1.86,5.44-4.6a3.79,3.79,0,0,0-2.68-3.79A3.78,3.78,0,0,0,116.61,127.82Zm-1.29,7.29c0,1.69-1.35,2.7-3.63,2.7h-4.47v-5.52h4.26C113.87,132.29,115.34,133.36,115.32,135.11Zm-4.13-4.66h-4v-4.72h4.45c1.92,0,3.06.8,3.06,2.19C114.73,129.48,113.34,130.45,111.19,130.45Z"/><polygon class="cls-1" points="130.59 125.73 130.59 123.85 119.54 123.85 119.54 139.71 130.78 139.71 130.78 137.81 121.44 137.81 121.44 132.5 129.89 132.5 129.89 130.62 121.44 130.62 121.44 125.73 130.59 125.73"/><path class="cls-1" d="M144.67,128.41c0-2.64-2-4.56-5.08-4.56H133v15.86h1.9v-6.83h4.17c2.87,0,2.6,4.47,3.84,6.83h2.15c-1.79-3.46-1.09-6.16-3.12-7.34A4.11,4.11,0,0,0,144.67,128.41ZM139.55,131h-4.64v-5.27h4.64c1.94,0,3.18,1,3.18,2.59S141.42,131,139.55,131Z"/><path class="cls-1" d="M153.08,138.21c-2.38,0-3.81-1.16-4.19-3.41l-1.9.38c.53,3.2,2.7,4.93,6.2,4.93s5.76-1.79,5.76-4.55c0-2.22-1.48-3.78-5.44-5-3-.93-4.09-1.79-4.09-3.06s1.28-2.17,3.35-2.17,3.48,1,3.9,2.85l2-.43c-.65-2.82-2.59-4.3-5.82-4.3s-5.38,1.56-5.38,4.07c0,2.2,1.59,3.76,5.28,4.81,3,.89,4.28,1.83,4.28,3.21C157,137.12,155.38,138.21,153.08,138.21Z"/><polygon class="cls-1" points="64.63 752.11 60.37 754.16 60.87 747.96 58.95 747.96 59.45 754.16 55.2 752.11 54.52 754.09 59.1 755.3 55.73 759.94 57.43 761.18 59.91 755.86 62.39 761.18 64.09 759.94 60.73 755.3 65.3 754.09 64.63 752.11"/><polygon class="cls-1" points="80.65 751.5 76.86 753.45 77.32 747.96 74.48 747.96 74.94 753.45 71.19 751.5 70.3 754.55 74.41 755.58 71.47 759.83 73.81 761.57 75.9 756.78 78.03 761.57 80.37 759.83 77.42 755.58 81.54 754.55 80.65 751.5"/><polygon class="cls-1" points="87.74 759.69 90.72 761.92 92.49 757.67 94.23 761.92 97.21 759.69 94.69 755.9 98.34 754.98 97.24 750.94 93.94 752.71 94.37 747.96 90.61 747.96 91.04 752.71 87.71 750.94 86.61 754.98 90.26 755.9 87.74 759.69"/><polygon class="cls-1" points="108.23 762.31 109.62 758.59 111 762.31 114.61 759.59 112.52 756.18 115.71 755.44 114.4 750.33 111.56 752 111.95 747.96 107.28 747.96 107.67 752 104.83 750.33 103.52 755.44 106.71 756.18 104.62 759.59 108.23 762.31"/><polygon class="cls-1" points="54.17 778.77 54.38 772.99 52.47 772.99 52.72 778.77 47.15 776.86 46.58 778.66 52.36 779.94 48.6 784.9 50.16 786 53.42 780.86 56.69 786 58.24 784.9 54.52 779.94 60.27 778.66 59.7 776.86 54.17 778.77"/><polygon class="cls-1" points="71.29 786.46 74.06 781.78 76.79 786.46 79.3 784.65 75.97 780.37 81.15 779.27 80.22 776.36 75.33 778.2 75.65 772.99 72.43 772.99 72.78 778.2 67.85 776.36 66.93 779.27 72.14 780.37 68.77 784.65 71.29 786.46"/><polygon class="cls-1" points="92.81 786.89 95.04 782.71 97.31 786.89 100.79 784.44 97.84 780.79 102.42 779.87 101.14 775.86 96.92 777.6 97.31 772.99 92.81 772.99 93.2 777.6 88.98 775.86 87.71 779.87 92.28 780.79 89.34 784.44 92.81 786.89"/><polygon class="cls-1" points="114.76 787.35 116.49 783.63 118.23 787.35 122.66 784.19 120.11 781.22 124.11 780.47 122.48 775.37 118.9 777.03 119.4 772.99 113.59 772.99 114.08 777.03 110.5 775.37 108.87 780.47 112.88 781.22 110.33 784.19 114.76 787.35"/><polygon class="cls-1" points="85.93 701.34 85.93 691.66 95.75 691.66 95.75 690.1 85.93 690.1 85.93 680.42 84.55 680.42 84.55 690.1 74.77 690.1 74.77 691.66 84.55 691.66 84.55 701.34 85.93 701.34"/><path class="cls-1" d="M346.11,266.3h-4.26v9.47a23.6,23.6,0,0,0-.46,4.63,23.36,23.36,0,0,0,5.55,15.14h-1.26V310.8H356.5V309h-9v-5.12h8.13v-1.8h-8.13v-4.71h1.12a23.52,23.52,0,0,0,10,5.71v7.74h1.82v-6.57h4c2.76,0,2.5,4.3,3.69,6.57h2.07c-1.7-3.28-1.07-5.85-2.93-7a23.69,23.69,0,0,0,5.08-1.11v8.12h10.82V309h-9v-5.12h8.14v-1.8h-8.14V302a23.46,23.46,0,0,0,6.94-4.62H383v-1.81h-.18a23.45,23.45,0,0,0-3.53-33.68l93.33-154.72A15.51,15.51,0,0,0,493.6,98.8h71.94V53.89H440.36V98.8h24.37a15.58,15.58,0,0,0,7,7.9L378.52,261.26a23.47,23.47,0,0,0-32.41,5ZM472.43,78l3.46-11.16,3.25,10.67a15.32,15.32,0,0,0-3.79.49Zm8.83,21.47h-2.75V90.17a5.83,5.83,0,0,1-3.37,1.13V88.5a3.88,3.88,0,0,0,3.6-2.89h2.52Zm-12.49-18a15.55,15.55,0,0,0-3.83,5.27V63.19h-2.38v10.7H451.74V63.19h-2.38V88h2.38V76.79h10.82V88h1.88a15.62,15.62,0,0,0-.84,5,15.34,15.34,0,0,0,.65,4.42H441.72V55.25H564.18V97.44h-70.1a15.36,15.36,0,0,0-.19-9.43h7.41V85h-8.79A15.25,15.25,0,0,0,491,83L501.3,65.4V63.19H486.55v2.94h11.39l-8.73,15a15.45,15.45,0,0,0-7.44-3.45l-4.49-14.5h-2.81ZM343.68,268.1h1.2a22.25,22.25,0,0,0-1.2,2.2Zm21.26,34.32h-4.47v-5.07h4.47c1.86,0,3.06,1,3.06,2.49S366.74,302.42,364.94,302.42Zm9.29-1.54v-3.53h5.46A22.71,22.71,0,0,1,374.23,300.88Zm13.18-20.48a22.43,22.43,0,0,1-5.87,15.14H372.4v6.08a22,22,0,0,1-3.46.92,3.91,3.91,0,0,0,.93-2.61c0-2.54-1.95-4.39-4.89-4.39h-6.33V302a22.54,22.54,0,0,1-8.54-4.67h6.2v-1.81h-8.05a22.45,22.45,0,0,1-5.84-14h10.25v-1.83h-9v-5.11h8.14v-1.81h-8.11a22.56,22.56,0,0,1,2.36-4.71h6.42v-1.8h-5.11a22.5,22.5,0,0,1,40,14.1Z"/><path class="cls-1" d="M333.87,545.71H279.75v24.73h54.12Zm-1.36,23.37h-51.4v-22h51.4Z"/><path class="cls-1" d="M170.66,53.89H45.48V98.8H170.66ZM169.3,97.44H46.83V55.25H169.3Z"/><rect class="cls-1" x="85.24" y="622.73" width="133.22" height="1.36"/><rect class="cls-1" x="85.24" y="375.45" width="133.22" height="1.36"/><rect class="cls-1" x="400.12" y="375.45" width="133.22" height="1.36"/><rect class="cls-1" x="400.12" y="879.5" width="133.22" height="1.36" transform="translate(-404.5 396.96) rotate(-33.05)"/><rect class="cls-1" x="280.43" y="1002.9" width="52.76" height="1.36"/><rect class="cls-1" x="476.12" y="1002.9" width="52.76" height="1.36"/><rect class="cls-1" x="101.23" y="1002.9" width="52.76" height="1.36"/><polygon class="cls-1" points="477.53 714.76 458.4 669.84 439.27 714.76 440.75 714.76 458.4 673.31 476.06 714.76 477.53 714.76"/><polygon class="cls-1" points="475.27 740.78 458.4 780.38 441.54 740.78 440.06 740.78 458.4 783.84 476.75 740.78 475.27 740.78"/><path class="cls-1" d="M507.44,80.85h8.75L518.4,88h2.54l-7.69-24.82h-2.81L502.69,88h2.57Zm4.42-14.06L515.26,78H508.4Z"/><path class="cls-1" d="M525.13,77.32h5.25c3.59,0,3.23,7,4.78,10.69h2.71c-2.25-5.41-1.39-9.63-3.9-11.48a6.59,6.59,0,0,0,3.4-6.21c0-4.12-2.54-7.13-6.37-7.13h-8.25V88h2.38Zm0-11.19h5.81a3.78,3.78,0,0,1,4,4.06,3.9,3.9,0,0,1-4,4.19h-5.81Z"/><path class="cls-1" d="M557.07,75.47c0-7.52-3.26-12.28-9.44-12.28h-7V88h7C553.81,88,557.07,82.86,557.07,75.47ZM543,85.07V66.13h4.2c4.75,0,7.42,2.9,7.42,9.34s-2.67,9.6-7.42,9.6Z"/><polygon class="cls-1" points="439.03 658.11 441.4 658.11 441.4 651.94 446.46 651.94 446.46 649 441.4 649 441.4 646.19 447.23 646.19 447.23 643.25 439.03 643.25 439.03 658.11"/><path class="cls-1" d="M455.94,654.41l1.11,3.7h2.47l-4.6-14.86h-2.63l-4.64,14.86h2.48l1.15-3.7Zm-2.33-7.58,1.45,4.66h-2.89Z"/><path class="cls-1" d="M466.2,645.9c1.26,0,2.15.69,2.81,2.25l2.45-1c-.93-2.66-2.85-4.25-5.22-4.25-3.46,0-6.05,3.42-6.05,8,0,4,1.9,6.85,4.71,7.49v2.09c1,0,1.66.28,1.66.81s-.34.59-.91.59a3,3,0,0,1-1-.19v2.05a4.38,4.38,0,0,0,1.48.3c1.74,0,2.35-1.39,2.35-2.85s-.59-2.31-1.58-2.47v-.27c2.18-.36,3.8-2.1,4.61-4.85l-2.38-.69a3.26,3.26,0,0,1-3.1,2.61c-2,0-3.36-1.94-3.36-4.7S464.15,645.9,466.2,645.9Z"/><path class="cls-1" d="M480.57,654.41l1.1,3.7h2.47l-4.6-14.86h-2.63l-4.64,14.86h2.49l1.14-3.7Zm-2.34-7.58,1.45,4.66h-2.89Z"/><path class="cls-1" d="M489.4,643.25h-4.19v14.86h4.19c3.69,0,5.65-3.08,5.65-7.51S493.09,643.25,489.4,643.25Zm-.26,11.92h-1.56v-9h1.56c2.24,0,3.5,1.39,3.5,4.41S491.38,655.17,489.14,655.17Z"/><polygon class="cls-1" points="505.01 646.19 505.01 643.25 496.71 643.25 496.71 658.11 505.15 658.11 505.15 655.15 499.08 655.15 499.08 651.94 504.48 651.94 504.48 649 499.08 649 499.08 646.19 505.01 646.19"/><path class="cls-1" d="M511.35,655.58c-1.38,0-2.15-.73-2.45-2.37l-2.33.67c.42,3,2.16,4.61,4.86,4.61a4.22,4.22,0,0,0,4.55-4.41c0-2.29-1.37-3.91-4.27-5.06-2-.77-2.53-1.24-2.53-2s.71-1.22,1.84-1.22a2,2,0,0,1,2.19,1.74l2.49-.67c-.59-2.69-2-4-4.54-4-2.75,0-4.43,1.57-4.43,4.07,0,2.26,1.34,3.8,4.21,4.85,1.82.69,2.63,1.34,2.63,2.19S512.66,655.58,511.35,655.58Z"/><polygon class="cls-1" points="487.08 697.11 487.08 685.19 490.69 685.19 490.69 682.25 481.11 682.25 481.11 685.19 484.71 685.19 484.71 697.11 487.08 697.11"/><path class="cls-1" d="M491.44,689.74c0,4.47,2.45,7.75,5.85,7.75s5.81-3.28,5.81-7.75-2.27-7.85-5.81-7.85S491.44,685.33,491.44,689.74Zm5.85-4.88c2.06,0,3.34,2.11,3.34,4.86s-1.42,4.82-3.34,4.82-3.34-2-3.34-4.82S495.24,684.86,497.29,684.86Z"/><polygon class="cls-1" points="503.85 682.25 507.02 697.11 508.89 697.11 511.15 687.37 513.32 697.11 515.2 697.11 518.36 682.25 515.91 682.25 514.23 690.81 512.27 682.25 509.96 682.25 508.02 690.85 506.31 682.25 503.85 682.25"/><polygon class="cls-1" points="528.95 697.11 528.95 682.25 526.58 682.25 526.58 691.64 521.72 682.25 519.51 682.25 519.51 697.11 521.9 697.11 521.9 687.7 526.78 697.11 528.95 697.11"/><path class="cls-1" d="M535.47,694.58c-1.38,0-2.15-.73-2.45-2.37l-2.33.67c.42,3,2.15,4.61,4.86,4.61a4.22,4.22,0,0,0,4.55-4.41c0-2.29-1.37-3.91-4.27-5.06-2-.77-2.53-1.24-2.53-2s.71-1.22,1.84-1.22a2,2,0,0,1,2.19,1.74l2.49-.67c-.59-2.69-2-4-4.55-4-2.74,0-4.42,1.57-4.42,4.07,0,2.26,1.34,3.8,4.21,4.85,1.82.69,2.63,1.34,2.63,2.19S536.78,694.58,535.47,694.58Z"/><path class="cls-1" d="M443.83,736.49a3.49,3.49,0,0,0,3-1.55l.14,1.17h2.16v-8h-4.76V731h2.35c-.46,1.8-1.56,2.51-2.63,2.51-1.68,0-3-1.7-3-4.68,0-2.77,1.13-5,3.13-5a2.54,2.54,0,0,1,2.43,2l2.35-.69c-.77-2.65-2.45-4.29-4.8-4.29-3.5,0-5.54,3.64-5.54,8S440.83,736.49,443.83,736.49Z"/><path class="cls-1" d="M454.72,721.25l-4.64,14.86h2.49l1.14-3.7h4.67l1.1,3.7H462l-4.6-14.86Zm-.12,8.24,1.44-4.66,1.45,4.66Z"/><path class="cls-1" d="M471.77,725.52c0-2.37-1.44-4.27-3.81-4.27H463v14.86h2.37v-6.4h1.23c2,0,2,4.92,2.8,6.4h2.65c-1.34-3.24-.83-5.77-2.33-6.88A3.94,3.94,0,0,0,471.77,725.52Zm-3.85,1.24h-2.53v-2.57h2.53a1.27,1.27,0,0,1,1.44,1.25A1.31,1.31,0,0,1,467.92,726.76Z"/><path class="cls-1" d="M483.57,728.6c0-4.5-2-7.35-5.65-7.35h-4.19v14.86h4.19C481.61,736.11,483.57,733,483.57,728.6Zm-7.47,4.57v-9h1.56c2.23,0,3.5,1.39,3.5,4.41s-1.27,4.57-3.5,4.57Z"/><polygon class="cls-1" points="493.67 733.15 487.6 733.15 487.6 729.94 493 729.94 493 727 487.6 727 487.6 724.19 493.53 724.19 493.53 721.25 485.23 721.25 485.23 736.11 493.67 736.11 493.67 733.15"/><polygon class="cls-1" points="502.4 730.64 497.54 721.25 495.33 721.25 495.33 736.11 497.72 736.11 497.72 726.7 502.6 736.11 504.77 736.11 504.77 721.25 502.4 721.25 502.4 730.64"/><path class="cls-1" d="M515.92,732.08c0-2.29-1.36-3.91-4.27-5.06-1.95-.77-2.53-1.24-2.53-2s.71-1.22,1.84-1.22a2,2,0,0,1,2.19,1.74l2.49-.67c-.59-2.69-2-4-4.54-4-2.75,0-4.43,1.57-4.43,4.07,0,2.26,1.35,3.8,4.21,4.85,1.82.69,2.63,1.34,2.63,2.19s-.91,1.58-2.21,1.58-2.16-.73-2.45-2.37l-2.34.67c.42,3,2.16,4.61,4.87,4.61A4.22,4.22,0,0,0,515.92,732.08Z"/><path class="cls-1" d="M490.57,764.78c0-2.48-1.38-4.53-3.81-4.53h-4.82v14.86h2.39v-5.77h2.43C489.13,769.34,490.57,767.28,490.57,764.78Zm-6.24-1.59h2.43a1.41,1.41,0,0,1,1.4,1.59,1.44,1.44,0,0,1-1.4,1.62h-2.43Z"/><path class="cls-1" d="M500.55,775.11H503l-4.6-14.86h-2.63l-4.64,14.86h2.49l1.14-3.7h4.67Zm-4.88-6.62,1.45-4.66,1.44,4.66Z"/><path class="cls-1" d="M510.49,775.11h2.65c-1.34-3.24-.83-5.77-2.33-6.88a3.94,3.94,0,0,0,2-3.71c0-2.37-1.45-4.27-3.82-4.27h-4.94v14.86h2.37v-6.4h1.23C509.7,768.71,509.7,773.63,510.49,775.11Zm-4-11.92H509a1.27,1.27,0,0,1,1.44,1.25,1.31,1.31,0,0,1-1.44,1.32h-2.53Z"/><polygon class="cls-1" points="517.19 769.66 518.38 768.25 522.51 775.11 525.49 775.11 520.12 766.18 525.1 760.25 521.8 760.25 517.19 765.68 517.19 760.25 514.8 760.25 514.8 775.11 517.19 775.11 517.19 769.66"/><path class="cls-1" d="M535.73,771.08c0-2.29-1.36-3.91-4.27-5.06-2-.77-2.53-1.24-2.53-2s.71-1.22,1.84-1.22a2,2,0,0,1,2.19,1.74l2.49-.67c-.59-2.69-2-4-4.54-4-2.75,0-4.43,1.57-4.43,4.07,0,2.26,1.35,3.8,4.21,4.85,1.82.69,2.63,1.34,2.63,2.19s-.91,1.58-2.21,1.58-2.16-.73-2.45-2.37l-2.34.67c.42,3,2.16,4.61,4.86,4.61A4.22,4.22,0,0,0,535.73,771.08Z"/><polygon class="cls-1" points="444.17 814.11 444.17 802.19 447.78 802.19 447.78 799.25 438.2 799.25 438.2 802.19 441.8 802.19 441.8 814.11 444.17 814.11"/><path class="cls-1" d="M454.38,798.89c-3.53,0-5.85,3.44-5.85,7.85s2.45,7.75,5.85,7.75,5.81-3.28,5.81-7.75S457.92,798.89,454.38,798.89Zm0,12.65c-1.91,0-3.34-2-3.34-4.82s1.29-4.86,3.34-4.86,3.34,2.11,3.34,4.86S456.3,811.54,454.38,811.54Z"/><polygon class="cls-1" points="469.36 799.25 467.05 799.25 465.11 807.85 463.39 799.25 460.94 799.25 464.11 814.11 465.98 814.11 468.24 804.37 470.41 814.11 472.29 814.11 475.45 799.25 473 799.25 471.32 807.81 469.36 799.25"/><polygon class="cls-1" points="485.03 811.15 478.97 811.15 478.97 807.94 484.36 807.94 484.36 805 478.97 805 478.97 802.19 484.89 802.19 484.89 799.25 476.6 799.25 476.6 814.11 485.03 814.11 485.03 811.15"/><path class="cls-1" d="M489.06,807.71h1.23c2,0,2,4.92,2.81,6.4h2.64c-1.34-3.24-.83-5.77-2.33-6.88a3.94,3.94,0,0,0,2-3.71c0-2.37-1.45-4.27-3.82-4.27h-4.94v14.86h2.37Zm0-5.52h2.53a1.28,1.28,0,0,1,1.45,1.25,1.31,1.31,0,0,1-1.45,1.32h-2.53Z"/><path class="cls-1" d="M502,811.58c-1.38,0-2.16-.73-2.45-2.37l-2.33.67c.41,3,2.15,4.61,4.86,4.61a4.22,4.22,0,0,0,4.54-4.41c0-2.29-1.36-3.91-4.27-5.06-1.95-.77-2.52-1.24-2.52-2s.71-1.22,1.83-1.22a2,2,0,0,1,2.2,1.74l2.49-.67c-.6-2.69-2-4-4.55-4-2.75,0-4.42,1.57-4.42,4.07,0,2.26,1.34,3.8,4.2,4.85,1.82.69,2.63,1.34,2.63,2.19S503.25,811.58,502,811.58Z"/><polygon class="cls-1" points="442.94 978.47 445.32 978.47 445.32 967.18 455.35 967.18 455.35 964.24 445.32 964.24 445.32 956.59 456.64 956.59 456.64 953.65 442.94 953.65 442.94 978.47"/><path class="cls-1" d="M468,953.05c-5.91,0-9.77,5.75-9.77,13.11s4.09,12.93,9.77,12.93,9.7-5.47,9.7-12.93S473.87,953.05,468,953.05Zm0,23.11c-4.13,0-7.16-4.16-7.16-10S463.6,956,468,956s7.16,4.36,7.16,10.1C475.12,972,472.08,976.16,468,976.16Z"/><path class="cls-1" d="M494.92,960.78c0-4.13-2.54-7.13-6.37-7.13H480.3v24.82h2.38v-10.7h5.24c3.6,0,3.24,7,4.79,10.7h2.71c-2.25-5.42-1.39-9.64-3.9-11.49A6.58,6.58,0,0,0,494.92,960.78Zm-6.43,4.06h-5.81v-8.26h5.81a3.78,3.78,0,0,1,4,4.06A3.91,3.91,0,0,1,488.49,964.84Z"/><polygon class="cls-1" points="505.98 978.47 505.98 956.59 512.81 956.59 512.81 953.65 496.8 953.65 496.8 956.59 503.6 956.59 503.6 978.47 505.98 978.47"/><path class="cls-1" d="M527.79,969.13c0,4.62-1.95,7-5.41,7s-5.25-2.41-5.25-7V953.65h-2.41v15.44c0,6.54,2.87,10,7.66,10s7.79-3.53,7.79-10V953.65h-2.38Z"/><polygon class="cls-1" points="546.5 973.25 536 953.65 533.46 953.65 533.46 978.47 535.84 978.47 535.84 958.76 546.37 978.47 548.88 978.47 548.88 953.65 546.5 953.65 546.5 973.25"/><polygon class="cls-1" points="554.55 967.18 565.14 967.18 565.14 964.24 554.55 964.24 554.55 956.59 566.03 956.59 566.03 953.65 552.17 953.65 552.17 978.47 566.27 978.47 566.27 975.5 554.55 975.5 554.55 967.18"/><path class="cls-1" d="M69.77,75.47c0-7.52-3.26-12.28-9.44-12.28h-7V88h7C66.51,88,69.77,82.86,69.77,75.47Zm-14.06,9.6V66.13h4.2c4.75,0,7.42,2.9,7.42,9.34s-2.67,9.6-7.42,9.6Z"/><polygon class="cls-1" points="86.64 85.04 74.92 85.04 74.92 76.72 85.51 76.72 85.51 73.79 74.92 73.79 74.92 66.13 86.4 66.13 86.4 63.19 72.54 63.19 72.54 88.01 86.64 88.01 86.64 85.04"/><path class="cls-1" d="M96.6,85.67c-3,0-4.75-1.82-5.25-5.35l-2.37.6c.66,5,3.4,7.72,7.75,7.72S104,85.83,104,81.51c0-3.47-1.85-5.91-6.83-7.79C93.4,72.27,92,70.92,92,68.94c0-2.15,1.62-3.4,4.19-3.4,2.81,0,4.36,1.48,4.92,4.45l2.44-.66c-.82-4.42-3.23-6.73-7.29-6.73S89.54,65,89.54,69c0,3.43,2,5.87,6.6,7.52,3.79,1.39,5.35,2.87,5.35,5C101.49,84,99.5,85.67,96.6,85.67Z"/><polygon class="cls-1" points="112.27 88.01 114.65 88.01 114.65 66.13 121.48 66.13 121.48 63.19 105.48 63.19 105.48 66.13 112.27 66.13 112.27 88.01"/><rect class="cls-1" x="123.73" y="63.19" width="2.44" height="24.82"/><polygon class="cls-1" points="132.17 68.31 142.7 88.01 145.21 88.01 145.21 63.19 142.83 63.19 142.83 82.8 132.34 63.19 129.8 63.19 129.8 88.01 132.17 88.01 132.17 68.31"/><polygon class="cls-1" points="154.45 88.01 156.86 88.01 156.86 77.25 164.28 63.19 161.61 63.19 155.67 74.41 149.79 63.19 146.99 63.19 154.45 77.25 154.45 88.01"/><path class="cls-1" d="M49.69,957.41a5.09,5.09,0,0,1,2.18-2.77l-1.52-2.31a8.11,8.11,0,0,0-3.27,6.7c0,2.54.9,4.82,2.78,4.82,1.52,0,2.67-1.46,2.67-3.3S51.24,957.25,49.69,957.41Z"/><path class="cls-1" d="M57.35,957.41a5,5,0,0,1,2.18-2.77L58,952.33a8.09,8.09,0,0,0-3.27,6.7c0,2.54.89,4.82,2.77,4.82,1.52,0,2.68-1.46,2.68-3.3S58.9,957.25,57.35,957.41Z"/><rect class="cls-1" x="62.36" y="953.65" width="4.03" height="24.82"/><polygon class="cls-1" points="81.83 969.33 73.72 953.65 70.02 953.65 70.02 978.47 74.01 978.47 74.01 962.76 82.17 978.47 85.8 978.47 85.8 953.65 81.83 953.65 81.83 969.33"/><polygon class="cls-1" points="103.71 953.65 87.71 953.65 87.71 958.57 93.71 958.57 93.71 978.47 97.67 978.47 97.67 958.57 103.71 958.57 103.71 953.65"/><path class="cls-1" d="M105.63,953.65v15.68c0,6.56,3.13,9.76,7.65,9.76s7.79-3.23,7.79-9.73V953.65h-4v15.77c0,3.27-1.48,4.72-3.83,4.72s-3.66-1.51-3.66-4.75V953.65Z"/><rect class="cls-1" x="124.7" y="953.65" width="4.03" height="24.82"/><polygon class="cls-1" points="140.94 978.47 140.94 958.57 146.98 958.57 146.98 953.65 130.97 953.65 130.97 958.57 136.98 958.57 136.98 978.47 140.94 978.47"/><rect class="cls-1" x="149.22" y="953.65" width="4.03" height="24.82"/><path class="cls-1" d="M166,953.05c-5.9,0-9.77,5.75-9.77,13.11s4.1,12.93,9.77,12.93,9.71-5.47,9.71-12.93S171.89,953.05,166,953.05Zm0,21.13c-3.2,0-5.57-3.34-5.57-8.06S162.55,958,166,958s5.58,3.54,5.58,8.12C171.56,970.88,169.18,974.18,166,974.18Z"/><polygon class="cls-1" points="190.14 969.33 182.02 953.65 178.32 953.65 178.32 978.47 182.32 978.47 182.32 962.76 190.47 978.47 194.1 978.47 194.1 953.65 190.14 953.65 190.14 969.33"/><path class="cls-1" d="M206.31,952.33c-1.52,0-2.68,1.45-2.68,3.3s1.29,3.3,2.84,3.13a5.09,5.09,0,0,1-2.18,2.78l1.52,2.31a8.1,8.1,0,0,0,3.27-6.7C209.08,954.6,208.19,952.33,206.31,952.33Z"/><path class="cls-1" d="M198.65,952.33c-1.52,0-2.67,1.45-2.67,3.3s1.28,3.3,2.84,3.13a5.19,5.19,0,0,1-2.18,2.78l1.52,2.31a8.12,8.12,0,0,0,3.26-6.7C201.42,954.6,200.53,952.33,198.65,952.33Z"/><path class="cls-1" d="M302.45,84.19c4.49,0,6.7-4.45,6.7-12.44s-2.21-12.51-6.7-12.51-6.7,4.46-6.7,12.51S298,84.19,302.45,84.19Zm0-22.11c2.64,0,4.33,2.91,4.33,9.67,0,6.6-1.69,9.61-4.33,9.61s-4.29-3-4.29-9.61C298.16,65,299.81,62.08,302.45,62.08Z"/><path class="cls-1" d="M314.7,84.13a2.3,2.3,0,1,0-1.79-2.25A2.07,2.07,0,0,0,314.7,84.13Z"/><path class="cls-1" d="M159.72,218.52h11.12v8c0,4.69,2.84,8,6.9,8s6.8-3.24,6.8-8V216.5H159.72Zm13.07,0h9.8v8c0,3.63-1.84,5.91-4.85,5.91s-5-2.35-5-5.91Z"/><path class="cls-1" d="M159.72,255.48v2.18L184.54,248v-2.51l-24.82-9.7v2.24l7.66,2.91v11.52Zm9.57-13.66,12.84,5-12.84,4.85Z"/><path class="cls-1" d="M179,260.39c-3.27,0-5.65,2.31-7.27,8-1.48,5.25-3.16,7.33-5.67,7.33-2.91,0-4.95-2.81-4.95-6.87s2.14-6.7,6-7.29l-.33-2c-5,.83-7.73,4.13-7.73,9.48s2.74,8.77,7,8.77c3.3,0,5.61-2,7.49-8.31,1.52-5,3.17-7,5.55-7,2.54,0,4.06,2.28,4.06,5.94,0,3.93-1.78,6.21-5.22,6.9l.43,2c4.36-.89,6.73-4,6.73-8.88S182.76,260.39,179,260.39Z"/><path class="cls-1" d="M167.15,282.93l-.33-2c-5,.82-7.73,4.13-7.73,9.47s2.74,8.78,7,8.78c3.3,0,5.61-2.05,7.49-8.32,1.52-5,3.17-7,5.55-7,2.54,0,4.06,2.28,4.06,5.94,0,3.93-1.78,6.21-5.22,6.9l.43,2c4.36-.89,6.73-4,6.73-8.88s-2.37-8-6.13-8c-3.27,0-5.65,2.31-7.27,8-1.48,5.24-3.16,7.32-5.67,7.32-2.91,0-4.95-2.8-4.95-6.86S163.25,283.53,167.15,282.93Z"/><polygon class="cls-1" points="184.54 320.13 184.54 302.83 159.72 302.83 159.72 320.42 161.7 320.42 161.7 304.81 171.5 304.81 171.5 319.04 173.45 319.04 173.45 304.81 182.59 304.81 182.59 320.13 184.54 320.13"/><path class="cls-1" d="M120.12,225.52h24.59V223c-2.38-.43-5.12-2.87-5.15-7.4h-2.77c-.1,2.25.72,5.48,2.38,7h-19Z"/><path class="cls-1" d="M136.46,230.89c-4.62,0-8.05,3.11-8.05,7.79a6.86,6.86,0,0,0,3.26,6c-4.95-.33-9.11-1.92-9.11-6,0-2.17,1.19-3.63,3.37-4.42l-.63-2.8c-3.43,1-5.58,3.43-5.58,7.36,0,5.61,4.49,8.78,12.94,8.78,8.22,0,12.18-3.11,12.18-8.39A8,8,0,0,0,136.46,230.89Zm-.83,13.34a5.67,5.67,0,0,1-4.25-5.35c0-3,2.4-4.92,5.34-4.92a4.94,4.94,0,0,1,5.25,5C142,242.05,139.59,244.19,135.63,244.23Z"/><rect class="cls-1" x="129.99" y="252.08" width="2.54" height="27.49"/><path class="cls-1" d="M138.27,283.66l-.49,3a4.67,4.67,0,0,1,4.16,5c0,2.6-1.36,4.19-3.73,4.19a3.78,3.78,0,0,1-4-4v-2.54h-2.77v2.44c0,3.27-2,5.08-4.59,5.08-2.9,0-4.42-2.24-4.42-5.24,0-2.51,1-4.72,4.65-5.42l-.56-3.07c-4.49,1-6.83,3.93-6.83,8.52,0,4.79,2.61,8.28,7.09,8.28a6.36,6.36,0,0,0,6.24-4.19,5.69,5.69,0,0,0,5.32,3.17c3.76,0,6.47-2.7,6.47-7.36S142.13,284.39,138.27,283.66Z"/><path class="cls-1" d="M138.57,316.63l.63,2.8c3.43-1.09,5.58-3.43,5.58-7.39,0-5.61-4.49-8.75-12.94-8.75-8.22,0-12.18,3.07-12.18,8.39a8,8,0,0,0,8.28,8.35,7.5,7.5,0,0,0,7.86-7.92,6.85,6.85,0,0,0-3-5.91c4.95.36,9.11,1.95,9.11,6A4.52,4.52,0,0,1,138.57,316.63Zm-10.79.33a4.94,4.94,0,0,1-5.25-5c0-3.1,2.38-5.25,6.34-5.25a5.58,5.58,0,0,1,4,5.42A4.69,4.69,0,0,1,127.78,317Z"/><polygon class="cls-1" points="466.72 221.56 491.54 221.56 491.54 218.29 469.69 209.74 491.54 201.06 491.54 197.79 466.72 197.79 466.72 199.77 489.53 199.77 466.72 208.85 466.72 210.63 489.59 219.58 466.72 219.58 466.72 221.56"/><path class="cls-1" d="M466.72,243.53v2.18l24.82-9.63v-2.51l-24.82-9.71v2.25l7.66,2.9v11.52Zm9.57-13.66,12.84,5-12.84,4.86Z"/><polygon class="cls-1" points="466.72 267.06 491.54 267.06 491.54 265.08 469.95 265.08 491.54 250.5 491.54 248.05 466.72 248.05 466.72 250.03 488.44 250.03 466.72 264.65 466.72 267.06"/><path class="cls-1" d="M466.26,294.32c1.22-1.12,2.28-2.14,3.3-3.17a13.23,13.23,0,0,0,9.47,3.6c7.33,0,13.1-4.75,13.1-12.11s-5.74-12.21-13.1-12.21-12.94,5.08-12.94,12.21a12,12,0,0,0,2.08,6.9c-1.05,1.08-2.17,2.14-3.36,3.26ZM468,282.64c0-5.74,4.56-10,11-10s11.09,3.93,11.09,10-4.78,9.93-11.09,9.93a11.5,11.5,0,0,1-8.05-2.94c.86-.92,1.72-1.88,2.64-2.93l-1.45-1.45c-.89,1-1.72,1.91-2.58,2.8A9.76,9.76,0,0,1,468,282.64Z"/><path class="cls-1" d="M476.26,300.06h15.28v-2H476.19c-6.5,0-10.1,3.4-10.1,9.57s3.67,9.73,10.07,9.73h15.38v-2H476.23c-5.32,0-8.16-2.7-8.16-7.72S471,300.06,476.26,300.06Z"/><polygon class="cls-1" points="491.54 338.84 491.54 321.54 466.72 321.54 466.72 339.13 468.7 339.13 468.7 323.52 478.5 323.52 478.5 337.75 480.45 337.75 480.45 323.52 489.59 323.52 489.59 338.84 491.54 338.84"/><path class="cls-1" d="M427.12,238.09h24.59v-2.51c-2.38-.43-5.12-2.87-5.15-7.39h-2.77c-.1,2.24.72,5.48,2.38,7H427.12Z"/><rect class="cls-1" x="436.99" y="244.03" width="2.54" height="27.49"/><path class="cls-1" d="M427.12,284.65h24.59v-2.51c-2.38-.43-5.12-2.87-5.15-7.39h-2.77c-.1,2.24.72,5.48,2.38,7H427.12Z"/><path class="cls-1" d="M434,306.83c2.47,0,4.62-1.16,6.3-4a5.88,5.88,0,0,0,5.21,3.23c3.6,0,6.24-3.1,6.24-7.62s-2.64-7.63-6.24-7.63a6,6,0,0,0-5.21,3.24c-1.68-2.78-3.83-4-6.3-4-4.3,0-7.27,3.43-7.27,8.35S429.69,306.83,434,306.83Zm11.42-12.94c2,0,3.49,1.85,3.49,4.59s-1.48,4.58-3.49,4.58-3.8-2-3.8-4.58S443.26,293.89,445.41,293.89ZM434,293.13c2.83,0,4.85,2.28,4.85,5.35s-2,5.34-4.85,5.34-4.39-2.08-4.39-5.34S431.28,293.13,434,293.13Z"/><rect class="cls-1" x="441.04" y="413.68" width="52.03" height="3.46"/><polygon class="cls-1" points="441.04 464.6 493.07 464.6 493.07 459.13 447.27 444.81 493.07 430.28 493.07 424.75 441.04 424.75 441.04 428.07 488.85 428.07 441.04 443.29 441.04 446.33 488.99 461.28 441.04 461.28 441.04 464.6"/><path class="cls-1" d="M441,475h23.32v13.49c0,7.89,5.95,13.35,14.46,13.35s14.25-5.39,14.25-13.35V471.58H441Zm27.4,0H489v13.49c0,6.09-3.88,9.89-10.17,9.89s-10.38-3.94-10.38-9.89Z"/><path class="cls-1" d="M441,536.75v3.66l52-16.12v-4.22l-52-16.26v3.74l16,4.84v19.37Zm20.06-22.9L488,522.22l-26.92,8.16Z"/><rect class="cls-1" x="441.04" y="544.9" width="52.03" height="3.46"/><path class="cls-1" d="M441,583.78v3.88c11.35-4.71,20.2-2.91,24.08-8.17,2.35,4.57,7.05,7.13,13,7.13,8.79,0,14.95-5.47,14.95-13.35V556H441v3.32h22.42v14.39C463.46,581.43,450,580.32,441,583.78Zm26.5-24.49H489v13.84c0,6.09-4.23,10-10.59,10s-10.86-4.08-10.86-10Z"/><path class="cls-1" d="M136.83,527c-8.44,0-14.25,5.39-14.25,13.35v16.88h52v-3.39H151.29V540.37C151.29,532.48,145.34,527,136.83,527Zm10.38,26.84H126.66V540.37c0-6.09,3.87-9.89,10.17-9.89s10.38,3.94,10.38,9.89Z"/><path class="cls-1" d="M174.6,492.09v-3.67l-52,16.12v4.22l52,16.26v-3.74l-16-4.84V497.07ZM154.54,515l-26.91-8.37,26.91-8.16Z"/><rect class="cls-1" x="122.58" y="480.47" width="52.03" height="3.46"/><path class="cls-1" d="M174.6,445.05v-3.88c-11.34,4.71-20.2,2.91-24.07,8.17-2.35-4.57-7.06-7.13-13-7.13-8.78,0-14.94,5.47-14.94,13.35v17.3h52v-3.32H152.19V455.15C152.19,447.4,165.61,448.51,174.6,445.05Zm-26.49,24.49H126.66V455.7c0-6.09,4.22-10,10.58-10s10.87,4.08,10.87,10Z"/><path class="cls-1" d="M394.13,144.42a15.56,15.56,0,1,0-15.56-15.56A15.56,15.56,0,0,0,394.13,144.42Zm-.54-15.7a2.18,2.18,0,0,0-1.95,1.37l-2.17-1.19.47-7.3h7.6v2.69h-5.12l-.13,1.9a6.37,6.37,0,0,1,1.6-.22,4.41,4.41,0,0,1,4.48,4.71,4.81,4.81,0,0,1-9.4,1.48l2.77-.66a1.92,1.92,0,0,0,1.9,1.29,1.82,1.82,0,0,0,1.91-2A1.93,1.93,0,0,0,393.59,128.72Z"/><path class="cls-1" d="M98.57,196.86a15.56,15.56,0,1,0,15.56-15.56A15.56,15.56,0,0,0,98.57,196.86Zm14.86-7.49c3.34,0,5.17,2.47,5.17,6.85,0,4.57-1.94,7.26-5.43,7.26a4,4,0,0,1-4.19-3.13l2.65-.63a1.46,1.46,0,0,0,1.5,1.06c1.08,0,2.27-.69,2.54-3.27a4.34,4.34,0,0,1-7-3.48A4.45,4.45,0,0,1,113.43,189.37Z"/><path class="cls-1" d="M113.34,195.66a2.52,2.52,0,0,0,2.15-1.24,2.32,2.32,0,0,0-2.17-2.32,1.78,1.78,0,0,0-1.84,1.84A1.69,1.69,0,0,0,113.34,195.66Z"/><path class="cls-1" d="M412.79,558.84a15.56,15.56,0,1,0-15.56,15.56A15.56,15.56,0,0,0,412.79,558.84Zm-16.22,6.66a4.49,4.49,0,0,1-4.78-3.83l2.84-.45a1.8,1.8,0,0,0,1.89,1.63,1.65,1.65,0,0,0,1.87-1.68,1.63,1.63,0,0,0-1.74-1.71h-1.37v-2.67h1.42a1.15,1.15,0,0,0,1.15-1.24,1.41,1.41,0,0,0-1.43-1.45,1.57,1.57,0,0,0-1.53,1.32l-2.77-.37a4.14,4.14,0,0,1,4.4-3.65c2.56,0,4.13,1.46,4.13,3.85a3.08,3.08,0,0,1-1.22,2.76,3.38,3.38,0,0,1,1.8,3.34C401.23,563.91,399.43,565.5,396.57,565.5Z"/><polygon class="cls-1" points="363.44 684.1 363.44 680.86 361.05 684.1 363.44 684.1"/><path class="cls-1" d="M378.57,683.08A15.55,15.55,0,0,0,348,678.91h-7V681h4.36v11.35h2.15v-7.51a15.56,15.56,0,0,0,31-1.8Zm-31-1.81V681h0Zm19.88,5.52h-1.26v2.69h-2.74v-2.69h-5.69v-2.28l6.32-8.77h2.11v8.36h1.26Z"/><path class="cls-1" d="M394,809.24a2.48,2.48,0,0,0-2.15,1.24A2.31,2.31,0,0,0,394,812.8a1.78,1.78,0,0,0,1.84-1.84A1.67,1.67,0,0,0,394,809.24Z"/><path class="cls-1" d="M394.13,793.3a15.52,15.52,0,0,0-8.95,2.84c-.29-1.64-1.74-2.84-4.67-3.76-2.38-.74-3.19-1.33-3.19-2.19s1-1.47,2.47-1.47a2.64,2.64,0,0,1,2.93,2l2.22-.48c-.59-2.41-2.26-3.64-5-3.64-3,0-4.8,1.38-4.8,3.57,0,2,1.45,3.31,4.62,4.24,2.33.69,3.32,1.39,3.32,2.35s-1.2,1.87-2.92,1.87a2.9,2.9,0,0,1-3.18-2.53l-2.11.47c.46,2.7,2.36,4.17,5.38,4.17.24,0,.46,0,.69,0a15.55,15.55,0,1,0,13.23-7.39Zm-.22,22.22c-3.33,0-5.17-2.46-5.17-6.84,0-4.58,1.95-7.27,5.43-7.27a4,4,0,0,1,4.19,3.14l-2.65.63a1.45,1.45,0,0,0-1.5-1.06c-1.08,0-2.26.69-2.54,3.26a4.37,4.37,0,0,1,2.69-.92,4.23,4.23,0,0,1,4.34,4.41A4.45,4.45,0,0,1,393.91,815.52Z"/><path class="cls-1" d="M518.51,914.72A15.56,15.56,0,1,0,503,930.28,15.56,15.56,0,0,0,518.51,914.72Zm-11.07-5.42c-2.91,3.43-4.66,5.84-5,11.83h-2.87a19.51,19.51,0,0,1,3.91-11h-5.36v-2.69h9.33Z"/><path class="cls-1" d="M114.13,391.48A15.56,15.56,0,1,0,129.69,407,15.56,15.56,0,0,0,114.13,391.48Zm-1,22.19a4,4,0,0,1-4.19-3.14l2.65-.63a1.46,1.46,0,0,0,1.5,1.06c1.08,0,2.27-.69,2.54-3.26a4.32,4.32,0,0,1-2.68.92,4.23,4.23,0,0,1-4.34-4.41,4.44,4.44,0,0,1,4.78-4.65c3.34,0,5.17,2.46,5.17,6.84C118.6,411,116.66,413.67,113.17,413.67Z"/><path class="cls-1" d="M113.32,402.28a1.78,1.78,0,0,0-1.84,1.84,1.69,1.69,0,0,0,1.86,1.72,2.5,2.5,0,0,0,2.15-1.24A2.32,2.32,0,0,0,113.32,402.28Z"/><path class="cls-1" d="M113.32,651a1.78,1.78,0,0,0-1.84,1.84,1.69,1.69,0,0,0,1.86,1.72,2.52,2.52,0,0,0,2.15-1.24C115.32,651.89,114.49,651,113.32,651Z"/><path class="cls-1" d="M114.13,640.15a15.56,15.56,0,1,0,15.56,15.56A15.55,15.55,0,0,0,114.13,640.15Zm-1,22.18A4,4,0,0,1,109,659.2l2.65-.63a1.46,1.46,0,0,0,1.5,1.06c1.08,0,2.27-.69,2.54-3.27a4.34,4.34,0,0,1-7-3.48,4.45,4.45,0,0,1,4.78-4.66c3.34,0,5.17,2.47,5.17,6.85C118.6,659.64,116.66,662.33,113.17,662.33Z"/><path class="cls-1" d="M127.61,840.46a1.74,1.74,0,0,0,1.89-1.78,1.9,1.9,0,0,0-3.78,0A1.74,1.74,0,0,0,127.61,840.46Z"/><path class="cls-1" d="M127.61,834.27c.85,0,1.46-.47,1.46-1.15a1.48,1.48,0,0,0-2.93,0C126.14,833.8,126.76,834.27,127.61,834.27Z"/><path class="cls-1" d="M128.07,852.12a15.56,15.56,0,1,0-15.57-15.56A15.56,15.56,0,0,0,128.07,852.12Zm-4.74-19.21c0-2.2,1.74-3.78,4.28-3.78s4.28,1.58,4.28,3.78a2.91,2.91,0,0,1-1.26,2.65,3.55,3.55,0,0,1,1.67,3.27c0,2.59-1.93,4.35-4.69,4.35s-4.69-1.76-4.69-4.35a3.55,3.55,0,0,1,1.67-3.27A2.91,2.91,0,0,1,123.33,832.91Z"/><polygon class="cls-1" points="101.6 894.68 103.41 894.68 103.41 873.89 111.59 873.89 111.59 872.12 93.42 872.12 93.42 873.89 101.6 873.89 101.6 894.68"/><rect class="cls-1" x="114.24" y="872.12" width="1.86" height="22.56"/><polygon class="cls-1" points="122.16 873.95 130.4 894.68 132.02 894.68 140.15 873.89 140.15 894.68 141.95 894.68 141.95 872.12 138.98 872.12 131.21 891.98 123.33 872.12 120.35 872.12 120.35 894.68 122.16 894.68 122.16 873.95"/><polygon class="cls-1" points="161.45 873.89 161.45 872.12 145.74 872.12 145.74 894.68 161.72 894.68 161.72 892.88 147.53 892.88 147.53 883.97 160.46 883.97 160.46 882.2 147.53 882.2 147.53 873.89 161.45 873.89"/><polygon class="cls-1" points="93.76 935.68 96.46 935.68 96.46 913.12 93.04 913.12 85.72 931.84 78.28 913.12 74.86 913.12 74.86 935.68 77.56 935.68 77.56 918.34 84.46 935.68 86.98 935.68 93.76 918.34 93.76 935.68"/><path class="cls-1" d="M110.59,912.58c-6.72,0-11.1,5.22-11.1,11.91s4.62,11.76,11.1,11.76,11-5,11-11.76S117.28,912.58,110.59,912.58Zm0,21c-4.71,0-8.16-3.78-8.16-9.12s3.21-9.18,8.16-9.18,8.13,4,8.13,9.18S115.27,933.58,110.59,933.58Z"/><polygon class="cls-1" points="142.09 935.68 142.09 913.12 139.39 913.12 139.39 930.94 127.48 913.12 124.6 913.12 124.6 935.68 127.3 935.68 127.3 917.77 139.24 935.68 142.09 935.68"/><polygon class="cls-1" points="161.89 932.98 148.6 932.98 148.6 925.42 160.63 925.42 160.63 922.75 148.6 922.75 148.6 915.79 161.62 915.79 161.62 913.12 145.9 913.12 145.9 935.68 161.89 935.68 161.89 932.98"/><polygon class="cls-1" points="174.55 935.68 174.55 925.9 182.98 913.12 179.95 913.12 173.17 923.32 166.51 913.12 163.33 913.12 171.82 925.9 171.82 935.68 174.55 935.68"/><rect class="cls-1" x="272.15" y="120.08" width="1.87" height="15.26"/><polygon class="cls-1" points="281.06 135.34 282.89 135.34 282.89 121.89 288.12 121.89 288.12 120.08 275.82 120.08 275.82 121.89 281.06 121.89 281.06 135.34"/><polygon class="cls-1" points="300.34 135.34 303.83 123.25 307.24 135.34 308.9 135.34 312.96 120.08 311.05 120.08 308.09 132.02 304.66 120.08 302.91 120.08 299.55 132.08 296.54 120.08 294.61 120.08 298.67 135.34 300.34 135.34"/><rect class="cls-1" x="314.74" y="120.08" width="1.87" height="15.26"/><polygon class="cls-1" points="330.13 133.52 321.34 133.52 321.34 120.08 319.49 120.08 319.49 135.34 330.13 135.34 330.13 133.52"/><polygon class="cls-1" points="342.55 133.52 333.76 133.52 333.76 120.08 331.91 120.08 331.91 135.34 342.55 135.34 342.55 133.52"/><path class="cls-1" d="M255.23,158h4c2.76,0,2.5,4.3,3.7,6.58H265c-1.73-3.33-1.06-5.93-3-7.07a4,4,0,0,0,2.62-3.81c0-2.54-1.95-4.38-4.89-4.38H253.4v15.26h1.83Zm0-6.88h4.46c1.87,0,3.06,1,3.06,2.5s-1.25,2.58-3.06,2.58h-4.46Z"/><polygon class="cls-1" points="277.97 162.76 268.98 162.76 268.98 157.65 277.12 157.65 277.12 155.84 268.98 155.84 268.98 151.13 277.79 151.13 277.79 149.33 267.16 149.33 267.16 164.59 277.97 164.59 277.97 162.76"/><path class="cls-1" d="M280.25,152.88c0,2.11,1.52,3.61,5.07,4.62,2.92.86,4.12,1.77,4.12,3.09,0,1.5-1.54,2.56-3.76,2.56a3.65,3.65,0,0,1-4-3.29l-1.83.36c.51,3.09,2.6,4.75,6,4.75s5.54-1.72,5.54-4.38c0-2.13-1.42-3.63-5.24-4.79-2.9-.89-3.94-1.73-3.94-2.94s1.24-2.09,3.23-2.09,3.35.91,3.76,2.74l1.88-.41c-.63-2.72-2.49-4.14-5.6-4.14S280.25,150.46,280.25,152.88Z"/><polygon class="cls-1" points="304.4 162.76 295.4 162.76 295.4 157.65 303.54 157.65 303.54 155.84 295.4 155.84 295.4 151.13 304.21 151.13 304.21 149.33 293.58 149.33 293.58 164.59 304.4 164.59 304.4 162.76"/><polygon class="cls-1" points="308.86 149.33 306.54 149.33 306.54 164.59 308.37 164.59 308.37 152.86 313.04 164.59 314.74 164.59 319.33 152.86 319.33 164.59 321.16 164.59 321.16 149.33 318.84 149.33 313.89 161.99 308.86 149.33"/><path class="cls-1" d="M334.57,153.14c0-2.41-1.7-3.81-4.67-3.81h-6.19v15.26H330c3.11,0,5.24-1.79,5.24-4.43a3.65,3.65,0,0,0-2.58-3.65A3.64,3.64,0,0,0,334.57,153.14Zm-1.24,7c0,1.63-1.3,2.6-3.49,2.6h-4.3v-5.32h4.1C331.93,157.44,333.35,158.48,333.33,160.16Zm-4-4.48h-3.81v-4.55h4.28c1.85,0,2.94.77,2.94,2.11C332.76,154.74,331.42,155.68,329.35,155.68Z"/><polygon class="cls-1" points="339.24 149.33 337.39 149.33 337.39 164.59 348.02 164.59 348.02 162.76 339.24 162.76 339.24 149.33"/><polygon class="cls-1" points="360.63 162.76 351.64 162.76 351.64 157.65 359.77 157.65 359.77 155.84 351.64 155.84 351.64 151.13 360.44 151.13 360.44 149.33 349.81 149.33 349.81 164.59 360.63 164.59 360.63 162.76"/><path class="cls-1" d="M261.66,178.57l-6,15.26h2l1.69-4.4h6.71l1.71,4.4h1.95l-5.93-15.26Zm-1.56,9.07,2.65-6.86,2.6,6.86Z"/><path class="cls-1" d="M284.47,180.07a5.21,5.21,0,0,1,4.81,2.92l1.93-.42a7.08,7.08,0,0,0-6.7-4.37c-4.45,0-7.75,3.51-7.75,8.2s3.12,7.82,7.53,7.82a7.16,7.16,0,0,0,7-5l-1.83-.4a5.45,5.45,0,0,1-5.2,3.59c-3.24,0-5.54-2.5-5.54-6.05S281.1,180.07,284.47,180.07Z"/><path class="cls-1" d="M296,189.43h6.72l1.71,4.4h1.94l-5.92-15.26h-2.15l-6,15.26h2Zm3.39-8.65,2.6,6.86h-5.26Z"/><path class="cls-1" d="M313.36,192.39a3.65,3.65,0,0,1-4-3.29l-1.83.37c.5,3.08,2.6,4.75,6,4.75s5.54-1.73,5.54-4.39c0-2.13-1.42-3.63-5.23-4.79-2.9-.89-3.94-1.72-3.94-2.94s1.24-2.09,3.23-2.09,3.35.91,3.75,2.74l1.89-.41c-.63-2.72-2.5-4.14-5.6-4.14s-5.18,1.51-5.18,3.92c0,2.11,1.53,3.61,5.08,4.63,2.92.85,4.12,1.76,4.12,3.08C317.12,191.33,315.58,192.39,313.36,192.39Z"/><polygon class="cls-1" points="320.18 180.38 325.42 180.38 325.42 193.83 327.24 193.83 327.24 180.38 332.48 180.38 332.48 178.57 320.18 178.57 320.18 180.38"/><polygon class="cls-1" points="333.96 178.57 333.96 193.83 344.6 193.83 344.6 192 335.81 192 335.81 178.57 333.96 178.57"/><polygon class="cls-1" points="357.01 180.38 357.01 178.57 346.38 178.57 346.38 193.83 357.2 193.83 357.2 192 348.21 192 348.21 186.89 356.34 186.89 356.34 185.08 348.21 185.08 348.21 180.38 357.01 180.38"/><path class="cls-1" d="M268.35,215.5c0,4.59,3.13,8,7.51,8s7.45-3.37,7.45-8-2.92-8.05-7.45-8.05S268.35,211,268.35,215.5Zm13,0c0,3.64-2.33,6.17-5.5,6.17s-5.52-2.55-5.52-6.17,2.17-6.21,5.52-6.21S281.36,212,281.36,215.48Z"/><path class="cls-1" d="M295.36,217.33c0,2.84-1.48,4.3-4.13,4.3s-4-1.48-4-4.32v-9.5h-1.85v9.5c0,4,2.19,6.15,5.89,6.15s6-2.17,6-6.13v-9.52h-1.85Z"/><polygon class="cls-1" points="298.71 209.62 303.95 209.62 303.95 223.07 305.77 223.07 305.77 209.62 311.01 209.62 311.01 207.81 298.71 207.81 298.71 209.62"/><path class="cls-1" d="M318.07,215.5c0,4.59,3.13,8,7.51,8s7.45-3.37,7.45-8-2.93-8.05-7.45-8.05S318.07,211,318.07,215.5Zm7.51-6.23c3.35,0,5.5,2.68,5.5,6.21s-2.33,6.17-5.5,6.17-5.52-2.55-5.52-6.17S322.23,209.27,325.58,209.27Z"/><polygon class="cls-1" points="345.57 209.62 345.57 207.81 335.06 207.81 335.06 223.07 336.88 223.07 336.88 216.13 344.59 216.13 344.59 214.33 336.88 214.33 336.88 209.62 345.57 209.62"/><path class="cls-1" d="M242.84,247.91h6.71l1.71,4.41h2l-5.93-15.26h-2.15l-6,15.26h2Zm3.39-8.64,2.59,6.86h-5.25Z"/><polygon class="cls-1" points="266.72 252.32 266.72 238.86 271.96 238.86 271.96 237.06 259.66 237.06 259.66 238.86 264.9 238.86 264.9 252.32 266.72 252.32"/><polygon class="cls-1" points="273.44 237.06 273.44 252.32 275.26 252.32 275.26 245.42 283.58 245.42 283.58 252.32 285.41 252.32 285.41 237.06 283.58 237.06 283.58 243.63 275.26 243.63 275.26 237.06 273.44 237.06"/><path class="cls-1" d="M287.46,244.75c0,4.58,3.12,7.95,7.51,7.95s7.45-3.37,7.45-7.95-2.93-8.06-7.45-8.06S287.46,240.22,287.46,244.75Zm13,0c0,3.63-2.34,6.17-5.5,6.17s-5.52-2.56-5.52-6.17,2.17-6.21,5.52-6.21S300.47,241.2,300.47,244.73Z"/><path class="cls-1" d="M304.44,237.06v9.49c0,4,2.2,6.15,5.89,6.15s6-2.17,6-6.13v-9.51h-1.85v9.51c0,2.84-1.48,4.31-4.14,4.31s-4-1.49-4-4.33v-9.49Z"/><path class="cls-1" d="M324.45,250.88a3.65,3.65,0,0,1-4-3.29l-1.83.36c.5,3.09,2.6,4.75,6,4.75s5.54-1.72,5.54-4.38c0-2.13-1.42-3.63-5.23-4.79-2.9-.89-3.94-1.73-3.94-2.94s1.24-2.09,3.23-2.09,3.35.91,3.75,2.74l1.89-.41c-.63-2.72-2.5-4.14-5.6-4.14s-5.18,1.5-5.18,3.92c0,2.11,1.53,3.61,5.08,4.62,2.92.86,4.12,1.77,4.12,3.09C328.21,249.82,326.67,250.88,324.45,250.88Z"/><path class="cls-1" d="M343.31,252.32h1.94l-5.92-15.26h-2.15l-6,15.26h2l1.68-4.41h6.72Zm-7.7-6.19,2.66-6.86,2.6,6.86Z"/><polygon class="cls-1" points="356.7 249.11 348.64 237.06 346.69 237.06 346.69 252.32 348.52 252.32 348.52 240.2 356.6 252.32 358.52 252.32 358.52 237.06 356.7 237.06 356.7 249.11"/><path class="cls-1" d="M373.72,244.6c0-4.62-2.51-7.54-7.24-7.54H361.1v15.26h5.38C371.21,252.32,373.72,249.15,373.72,244.6Zm-10.79,5.91V238.86h3.2c3.66,0,5.73,1.79,5.73,5.74s-2.07,5.91-5.73,5.91Z"/><path class="cls-1" d="M263.89,277.16h6.72l1.7,4.4h1.95l-5.93-15.26h-2.15l-6,15.26h2Zm3.39-8.65,2.6,6.86h-5.26Z"/><polygon class="cls-1" points="285.71 278.35 277.65 266.3 275.7 266.3 275.7 281.56 277.53 281.56 277.53 269.44 285.6 281.56 287.53 281.56 287.53 266.3 285.71 266.3 285.71 278.35"/><path class="cls-1" d="M295.49,266.3h-5.38v15.26h5.38c4.72,0,7.24-3.17,7.24-7.71S300.21,266.3,295.49,266.3Zm-.35,13.45h-3.21V268.1h3.21c3.65,0,5.72,1.79,5.72,5.75S298.79,279.75,295.14,279.75Z"/><path class="cls-1" d="M310.46,274c0,4.59,3.13,8,7.51,8s7.45-3.37,7.45-8-2.92-8.06-7.45-8.06S310.46,269.46,310.46,274Zm13,0c0,3.63-2.33,6.17-5.5,6.17s-5.52-2.56-5.52-6.17,2.17-6.21,5.52-6.21S323.47,270.44,323.47,274Z"/><polygon class="cls-1" points="339.28 281.56 339.28 266.3 337.45 266.3 337.45 278.35 329.39 266.3 327.45 266.3 327.45 281.56 329.27 281.56 329.27 269.44 337.35 281.56 339.28 281.56"/><polygon class="cls-1" points="232.63 298.69 240.71 310.8 242.64 310.8 242.64 295.54 240.81 295.54 240.81 307.6 232.75 295.54 230.8 295.54 230.8 310.8 232.63 310.8 232.63 298.69"/><rect class="cls-1" x="245.52" y="295.54" width="1.87" height="15.26"/><path class="cls-1" d="M249.76,303.36c0,4.6,2.76,7.83,6.75,7.83a5.78,5.78,0,0,0,4.86-2.38l.2,2h1.6v-8.11h-6.11v1.8h4.28a4.78,4.78,0,0,1-4.72,4.87c-2.74,0-5-2.21-5-6,0-3.58,1.91-6.34,5.2-6.34a4.47,4.47,0,0,1,4.36,3l1.81-.41a6.27,6.27,0,0,0-6.17-4.4C252.35,295.18,249.76,298.89,249.76,303.36Z"/><polygon class="cls-1" points="265.63 295.54 265.63 310.8 267.45 310.8 267.45 303.9 275.77 303.9 275.77 310.8 277.6 310.8 277.6 295.54 275.77 295.54 275.77 302.12 267.45 302.12 267.45 295.54 265.63 295.54"/><polygon class="cls-1" points="279.08 297.35 284.31 297.35 284.31 310.8 286.14 310.8 286.14 297.35 291.38 297.35 291.38 295.54 279.08 295.54 279.08 297.35"/><path class="cls-1" d="M298.11,297c2.14,0,3.35.92,3.76,2.74l1.89-.4c-.63-2.72-2.5-4.14-5.6-4.14s-5.18,1.5-5.18,3.91c0,2.11,1.52,3.62,5.07,4.63,2.93.85,4.12,1.77,4.12,3.09,0,1.5-1.54,2.55-3.75,2.55a3.66,3.66,0,0,1-4-3.29l-1.83.37c.51,3.08,2.6,4.75,6,4.75s5.54-1.73,5.54-4.38c0-2.14-1.42-3.64-5.23-4.79-2.91-.9-3.94-1.73-3.94-2.95S296.13,297,298.11,297Z"/><polygon class="cls-1" points="324.8 307.48 321.37 295.54 319.62 295.54 316.26 307.54 313.25 295.54 311.32 295.54 315.38 310.8 317.05 310.8 320.54 298.71 323.95 310.8 325.61 310.8 329.67 295.54 327.76 295.54 324.8 307.48"/><polygon class="cls-1" points="341.3 302.12 332.98 302.12 332.98 295.54 331.15 295.54 331.15 310.8 332.98 310.8 332.98 303.9 341.3 303.9 341.3 310.8 343.12 310.8 343.12 295.54 341.3 295.54 341.3 302.12"/><path class="cls-1" d="M252.42,324.79v15.26h5.37c4.73,0,7.25-3.17,7.25-7.72s-2.52-7.54-7.25-7.54Zm10.75,7.54c0,3.9-2.07,5.91-5.72,5.91h-3.21V326.59h3.21C261.1,326.59,263.17,328.38,263.17,332.33Z"/><path class="cls-1" d="M269.73,335.64h6.71l1.71,4.41h2l-5.93-15.26H272l-6,15.26h2Zm3.38-8.64,2.6,6.86h-5.25Z"/><path class="cls-1" d="M292.76,329.17c0-2.54-1.95-4.38-4.89-4.38h-6.34v15.26h1.83v-6.58h4c2.76,0,2.5,4.3,3.69,6.58h2.07c-1.72-3.33-1.05-5.93-3-7.07A4,4,0,0,0,292.76,329.17Zm-4.93,2.5h-4.47v-5.08h4.47c1.86,0,3.06,1,3.06,2.5S289.63,331.67,287.83,331.67Z"/><polygon class="cls-1" points="297.14 324.79 295.29 324.79 295.29 340.05 297.14 340.05 297.14 334.59 299.8 332.09 305.79 340.05 308.1 340.05 301.14 330.79 307.47 324.79 305.01 324.79 297.14 332.23 297.14 324.79"/><polygon class="cls-1" points="319.48 336.84 311.43 324.79 309.48 324.79 309.48 340.05 311.31 340.05 311.31 327.93 319.38 340.05 321.31 340.05 321.31 324.79 319.48 324.79 319.48 336.84"/><polygon class="cls-1" points="334.52 326.59 334.52 324.79 323.89 324.79 323.89 340.05 334.7 340.05 334.7 338.22 325.71 338.22 325.71 333.11 333.85 333.11 333.85 331.3 325.71 331.3 325.71 326.59 334.52 326.59"/><path class="cls-1" d="M342.11,326.23c2.13,0,3.35.91,3.75,2.74l1.89-.41c-.63-2.72-2.5-4.14-5.6-4.14s-5.18,1.5-5.18,3.92c0,2.11,1.53,3.61,5.08,4.62,2.92.86,4.12,1.77,4.12,3.09,0,1.5-1.55,2.56-3.76,2.56a3.67,3.67,0,0,1-4-3.29l-1.82.36c.51,3.09,2.6,4.75,6,4.75s5.54-1.72,5.54-4.38c0-2.13-1.42-3.63-5.23-4.79-2.9-.89-3.94-1.73-3.94-2.94S340.12,326.23,342.11,326.23Z"/><path class="cls-1" d="M355.87,338.61a3.66,3.66,0,0,1-4-3.29l-1.83.36c.51,3.09,2.6,4.75,6,4.75s5.54-1.72,5.54-4.38c0-2.13-1.42-3.63-5.24-4.79-2.9-.89-3.94-1.73-3.94-2.94s1.24-2.09,3.23-2.09,3.35.91,3.76,2.74l1.88-.41c-.62-2.72-2.49-4.14-5.6-4.14s-5.17,1.5-5.17,3.92c0,2.11,1.52,3.61,5.07,4.62,2.92.86,4.12,1.77,4.12,3.09C359.62,337.55,358.08,338.61,355.87,338.61Z"/><polygon class="cls-1" points="272.05 369.29 275.54 357.19 278.95 369.29 280.61 369.29 284.67 354.03 282.76 354.03 279.8 365.96 276.37 354.03 274.63 354.03 271.26 366.02 268.25 354.03 266.32 354.03 270.38 369.29 272.05 369.29"/><rect class="cls-1" x="286.46" y="354.03" width="1.87" height="15.26"/><polygon class="cls-1" points="293.05 354.03 291.2 354.03 291.2 369.29 301.84 369.29 301.84 367.46 293.05 367.46 293.05 354.03"/><polygon class="cls-1" points="303.62 354.03 303.62 369.29 314.26 369.29 314.26 367.46 305.47 367.46 305.47 354.03 303.62 354.03"/><path class="cls-1" d="M333,357.84c0-2.41-1.71-3.81-4.67-3.81h-6.19v15.26h6.27c3.1,0,5.24-1.79,5.24-4.42a3.66,3.66,0,0,0-2.58-3.66A3.63,3.63,0,0,0,333,357.84Zm-1.24,7c0,1.62-1.3,2.59-3.49,2.59H324v-5.31h4.1C330.35,362.15,331.77,363.18,331.75,364.87Zm-4-4.49H324v-4.55h4.28c1.84,0,2.94.78,2.94,2.12C331.18,359.45,329.84,360.38,327.77,360.38Z"/><polygon class="cls-1" points="346.44 355.83 346.44 354.03 335.81 354.03 335.81 369.29 346.62 369.29 346.62 367.46 337.63 367.46 337.63 362.35 345.77 362.35 345.77 360.54 337.63 360.54 337.63 355.83 346.44 355.83"/><path class="cls-1" d="M252.17,398.53h5.38c4.73,0,7.24-3.16,7.24-7.71s-2.51-7.55-7.24-7.55h-5.38ZM254,385.08h3.2c3.66,0,5.73,1.78,5.73,5.74s-2.07,5.91-5.73,5.91H254Z"/><rect class="cls-1" x="267.25" y="383.27" width="1.87" height="15.26"/><path class="cls-1" d="M277.56,397.09a3.66,3.66,0,0,1-4-3.29l-1.83.37c.51,3.08,2.6,4.75,6,4.75s5.54-1.73,5.54-4.39c0-2.13-1.42-3.63-5.24-4.78-2.9-.9-3.93-1.73-3.93-2.95s1.23-2.09,3.22-2.09,3.35.92,3.76,2.74l1.89-.4c-.63-2.72-2.5-4.14-5.61-4.14s-5.17,1.5-5.17,3.91c0,2.11,1.52,3.62,5.07,4.63,2.93.85,4.12,1.77,4.12,3.08C281.31,396,279.77,397.09,277.56,397.09Z"/><path class="cls-1" d="M285.45,398.53h1.85V392h4.34c2.94,0,4.89-1.87,4.89-4.39s-1.93-4.34-4.89-4.34h-6.19Zm1.85-13.45h4.32c1.85,0,3,1,3,2.53s-1.19,2.58-3,2.58H287.3Z"/><polygon class="cls-1" points="298.46 398.53 309.28 398.53 309.28 396.71 300.29 396.71 300.29 391.59 308.42 391.59 308.42 389.79 300.29 389.79 300.29 385.08 309.09 385.08 309.09 383.27 298.46 383.27 298.46 398.53"/><polygon class="cls-1" points="313.27 383.27 311.43 383.27 311.43 398.53 322.06 398.53 322.06 396.71 313.27 396.71 313.27 383.27"/><polygon class="cls-1" points="334.48 396.71 325.69 396.71 325.69 383.27 323.85 383.27 323.85 398.53 334.48 398.53 334.48 396.71"/><path class="cls-1" d="M349.23,392.62a15.5,15.5,0,0,0-8.64,4.09h-2.5v-5.12h8.14v-1.8h-8.14v-4.71h8.81v-1.81H336.26v15.26h2.67a15.49,15.49,0,0,0-2.6,14h-4.47v15.27h10.82V426h-9v-5.11h8.14v-.42a15.55,15.55,0,1,0,18.75-24.8,8.67,8.67,0,0,0,1.27-4.8c0-4.63-2.51-7.55-7.24-7.55h-5.38ZM333.69,419v-4.71H337a15.47,15.47,0,0,0,3.22,4.71Zm17.37-33.95h3.2c3.66,0,5.73,1.78,5.73,5.74a6.55,6.55,0,0,1-1,3.75,15.46,15.46,0,0,0-7.77-2.09h-.17Zm4,19.43c0,1.11-.33,2.65-2.89,4.59a8,8,0,0,0-2.43,2.53h5.41v2.81h-9.1a8,8,0,0,1,3.3-6.39c2.35-1.8,2.87-2.62,2.87-3.47s-.59-1.35-1.48-1.35c-1.21,0-1.85.74-1.93,2.09l-2.78-.59a4.47,4.47,0,0,1,4.75-4.23C353.58,400.5,355.06,402.24,355.06,404.51Z"/><path class="cls-1" d="M271.35,427.78h6.27c3.1,0,5.23-1.79,5.23-4.43a3.65,3.65,0,0,0-2.57-3.65,3.64,3.64,0,0,0,1.93-3.37c0-2.41-1.71-3.82-4.67-3.82h-6.19Zm1.82-13.46h4.29c1.84,0,2.94.77,2.94,2.11,0,1.5-1.34,2.44-3.41,2.44h-3.82Zm0,6.31h4.1c2.3,0,3.72,1,3.7,2.72s-1.3,2.6-3.49,2.6h-4.31Z"/><polygon class="cls-1" points="289.59 421.16 289.59 427.78 291.44 427.78 291.44 421.16 297.14 412.51 295.09 412.51 290.5 419.42 286 412.51 283.85 412.51 289.59 421.16"/><polygon class="cls-1" points="315.85 412.51 303.55 412.51 303.55 414.32 308.79 414.32 308.79 427.78 310.61 427.78 310.61 414.32 315.85 414.32 315.85 412.51"/><polygon class="cls-1" points="327.48 419.09 319.16 419.09 319.16 412.51 317.33 412.51 317.33 427.78 319.16 427.78 319.16 420.88 327.48 420.88 327.48 427.78 329.3 427.78 329.3 412.51 327.48 412.51 327.48 419.09"/><polygon class="cls-1" points="239.84 441.76 239.84 457.02 241.67 457.02 241.67 445.29 246.34 457.02 248.04 457.02 252.63 445.29 252.63 457.02 254.46 457.02 254.46 441.76 252.14 441.76 247.19 454.42 242.16 441.76 239.84 441.76"/><path class="cls-1" d="M259.55,452.62h6.71L268,457h1.95L264,441.76h-2.15l-6,15.26h2Zm3.39-8.65,2.59,6.86h-5.25Z"/><path class="cls-1" d="M277.61,457.4a5.78,5.78,0,0,0,4.85-2.37l.2,2h1.6V448.9h-6.1v1.81h4.28a4.78,4.78,0,0,1-4.73,4.87c-2.74,0-5-2.21-5-6,0-3.57,1.91-6.33,5.19-6.33a4.48,4.48,0,0,1,4.37,3l1.8-.4a6.26,6.26,0,0,0-6.17-4.41c-4.48,0-7.08,3.72-7.08,8.18C270.85,454.18,273.61,457.4,277.61,457.4Z"/><rect class="cls-1" x="287.02" y="441.76" width="1.87" height="15.26"/><path class="cls-1" d="M291.26,449.59c0,4.61,3.13,7.81,7.53,7.81a7.16,7.16,0,0,0,7-5L304,452a5.45,5.45,0,0,1-5.2,3.59c-3.24,0-5.54-2.5-5.54-6.05s2.38-6.25,5.75-6.25a5.19,5.19,0,0,1,4.81,2.92l1.92-.42a7.06,7.06,0,0,0-6.69-4.37C294.57,441.39,291.26,444.9,291.26,449.59Z"/><polygon class="cls-1" points="331.32 441.76 329.42 441.76 326.45 453.69 323.02 441.76 321.28 441.76 317.91 453.75 314.9 441.76 312.98 441.76 317.04 457.02 318.7 457.02 322.19 444.92 325.6 457.02 327.26 457.02 331.32 441.76"/><path class="cls-1" d="M337.63,441.76l-6,15.26h2l1.68-4.4h6.72l1.7,4.4h1.95l-5.93-15.26Zm-1.56,9.07,2.66-6.86,2.6,6.86Z"/><polygon class="cls-1" points="357.15 453.81 349.1 441.76 347.15 441.76 347.15 457.02 348.98 457.02 348.98 444.9 357.05 457.02 358.98 457.02 358.98 441.76 357.15 441.76 357.15 453.81"/><path class="cls-1" d="M366.94,441.76h-5.38V457h5.38c4.73,0,7.24-3.17,7.24-7.71S371.67,441.76,366.94,441.76Zm-.35,13.45h-3.2V443.56h3.2c3.66,0,5.72,1.79,5.72,5.75S370.25,455.21,366.59,455.21Z"/><path class="cls-1" d="M300.72,470.64c-4.54,0-7.51,3.53-7.51,8.05s3.13,8,7.51,8,7.45-3.37,7.45-8S305.25,470.64,300.72,470.64Zm0,14.2c-3.18,0-5.52-2.55-5.52-6.17s2.17-6.21,5.52-6.21,5.5,2.68,5.5,6.21S303.89,484.84,300.72,484.84Z"/><polygon class="cls-1" points="320.71 471 310.2 471 310.2 486.26 312.02 486.26 312.02 479.32 319.74 479.32 319.74 477.52 312.02 477.52 312.02 472.81 320.71 472.81 320.71 471"/><polygon class="cls-1" points="251.96 502.05 251.96 500.24 241.32 500.24 241.32 515.51 252.14 515.51 252.14 513.68 243.15 513.68 243.15 508.56 251.29 508.56 251.29 506.76 243.15 506.76 243.15 502.05 251.96 502.05"/><polygon class="cls-1" points="254.29 515.51 264.93 515.51 264.93 513.68 256.14 513.68 256.14 500.24 254.29 500.24 254.29 515.51"/><polygon class="cls-1" points="266.71 515.51 277.53 515.51 277.53 513.68 268.54 513.68 268.54 508.56 276.68 508.56 276.68 506.76 268.54 506.76 268.54 502.05 277.35 502.05 277.35 500.24 266.71 500.24 266.71 515.51"/><path class="cls-1" d="M279.17,508.08c0,4.6,3.13,7.81,7.53,7.81a7.16,7.16,0,0,0,7-5l-1.82-.41a5.46,5.46,0,0,1-5.2,3.59c-3.25,0-5.54-2.49-5.54-6s2.37-6.25,5.74-6.25a5.18,5.18,0,0,1,4.81,2.92l1.93-.43a7.06,7.06,0,0,0-6.7-4.36C282.48,499.88,279.17,503.39,279.17,508.08Z"/><polygon class="cls-1" points="301.86 515.51 301.86 502.05 307.1 502.05 307.1 500.24 294.8 500.24 294.8 502.05 300.03 502.05 300.03 515.51 301.86 515.51"/><path class="cls-1" d="M319.8,504.63c0-2.54-1.95-4.39-4.89-4.39h-6.33v15.27h1.82v-6.58h4c2.76,0,2.5,4.3,3.69,6.58h2.07c-1.72-3.33-1.05-5.93-3-7.07A4,4,0,0,0,319.8,504.63Zm-4.93,2.49H310.4v-5.07h4.47c1.86,0,3.06,1,3.06,2.5S316.67,507.12,314.87,507.12Z"/><rect class="cls-1" x="322.64" y="500.24" width="1.87" height="15.26"/><path class="cls-1" d="M334.39,514c-3.25,0-5.54-2.49-5.54-6s2.37-6.25,5.74-6.25a5.18,5.18,0,0,1,4.81,2.92l1.93-.43a7.07,7.07,0,0,0-6.7-4.36c-4.44,0-7.75,3.51-7.75,8.2s3.12,7.81,7.53,7.81a7.16,7.16,0,0,0,7-5l-1.83-.41A5.44,5.44,0,0,1,334.39,514Z"/><rect class="cls-1" x="343.88" y="500.24" width="1.87" height="15.26"/><polygon class="cls-1" points="354.62 515.51 354.62 502.05 359.85 502.05 359.85 500.24 347.56 500.24 347.56 502.05 352.79 502.05 352.79 515.51 354.62 515.51"/><polygon class="cls-1" points="371.4 500.24 366.81 507.14 362.31 500.24 360.16 500.24 365.9 508.89 365.9 515.51 367.75 515.51 367.75 508.89 373.45 500.24 371.4 500.24"/><polygon class="cls-1" points="238.02 611.39 238.02 600.04 242.38 600.04 242.38 597.91 231.51 597.91 231.51 600.04 235.87 600.04 235.87 611.39 238.02 611.39"/><polygon class="cls-1" points="245.84 605.57 252.11 605.57 252.11 611.39 254.27 611.39 254.27 597.91 252.11 597.91 252.11 603.45 245.84 603.45 245.84 597.91 243.69 597.91 243.69 611.39 245.84 611.39 245.84 605.57"/><polygon class="cls-1" points="266.08 609.24 258.68 609.24 258.68 605.53 265.33 605.53 265.33 603.4 258.68 603.4 258.68 600.04 265.92 600.04 265.92 597.91 256.52 597.91 256.52 611.39 266.08 611.39 266.08 609.24"/><path class="cls-1" d="M279.54,597.59c-4,0-6.63,3.12-6.63,7.12s2.76,7,6.63,7,6.58-3,6.58-7S283.54,597.59,279.54,597.59Zm0,12c-2.49,0-4.34-2-4.34-4.91s1.69-5,4.34-5,4.32,2.15,4.32,5S282,609.6,279.54,609.6Z"/><path class="cls-1" d="M290.08,605.89h3.3a4,4,0,0,0,4.32-4c0-2.22-1.63-4-4.32-4h-5.46v13.48h2.16Zm0-5.85h3.29c1.3,0,2.13.7,2.13,1.83a1.9,1.9,0,0,1-2.13,1.88h-3.29Z"/><polygon class="cls-1" points="308.8 600.04 308.8 597.91 299.41 597.91 299.41 611.39 308.96 611.39 308.96 609.24 301.56 609.24 301.56 605.53 308.21 605.53 308.21 603.4 301.56 603.4 301.56 600.04 308.8 600.04"/><polygon class="cls-1" points="313.03 601.76 319.36 611.39 321.44 611.39 321.44 597.91 319.29 597.91 319.29 607.5 312.98 597.91 310.86 597.91 310.86 611.39 313.03 611.39 313.03 601.76"/><path class="cls-1" d="M340.25,604.58c0-4.09-2.23-6.67-6.41-6.67h-4.75v13.48h4.75C338,611.39,340.25,608.6,340.25,604.58Zm-9,4.68V600h2.29c2.89,0,4.52,1.42,4.52,4.54s-1.63,4.68-4.52,4.68Z"/><path class="cls-1" d="M354.91,604.71c0-4-2.58-7.12-6.58-7.12s-6.63,3.12-6.63,7.12,2.76,7,6.63,7S354.91,608.76,354.91,604.71Zm-10.92,0c0-2.8,1.69-5,4.34-5s4.32,2.15,4.32,5-1.85,4.91-4.32,4.91S344,607.57,344,604.69Z"/><path class="cls-1" d="M362.89,597.59c-4,0-6.64,3.12-6.64,7.12s2.77,7,6.64,7,6.58-3,6.58-7S366.89,597.59,362.89,597.59Zm0,12c-2.49,0-4.34-2-4.34-4.91s1.68-5,4.34-5,4.32,2.15,4.32,5S365.36,609.6,362.89,609.6Z"/><path class="cls-1" d="M378.86,605.15a3.49,3.49,0,0,0,2.31-3.37c0-2.18-1.68-3.87-4.32-3.87h-5.59v13.48h2.15v-5.81h2.47c2.37,0,2.25,4.15,3.21,5.81h2.42C380,608.45,380.58,606.16,378.86,605.15Zm-2-1.7h-3.41V600h3.41c1.32,0,2.17.68,2.17,1.67S378.11,603.45,376.82,603.45Z"/><path class="cls-1" d="M247.14,628.16c0,2,1.45,3.31,4.62,4.24,2.33.69,3.32,1.39,3.32,2.35s-1.2,1.87-2.92,1.87a2.89,2.89,0,0,1-3.17-2.53l-2.12.47c.47,2.7,2.37,4.17,5.38,4.17s5-1.56,5-3.92c0-2-1.42-3.39-4.74-4.43-2.38-.74-3.19-1.33-3.19-2.19s1-1.47,2.48-1.47a2.63,2.63,0,0,1,2.92,2l2.22-.48c-.59-2.41-2.26-3.64-5-3.64C249,624.59,247.14,626,247.14,628.16Z"/><polygon class="cls-1" points="261.43 632.57 267.7 632.57 267.7 638.39 269.85 638.39 269.85 624.91 267.7 624.91 267.7 630.45 261.43 630.45 261.43 624.91 259.27 624.91 259.27 638.39 261.43 638.39 261.43 632.57"/><path class="cls-1" d="M278.3,624.59c-4,0-6.64,3.12-6.64,7.12s2.76,7,6.64,7,6.58-3,6.58-7S282.29,624.59,278.3,624.59Zm0,12c-2.5,0-4.34-2-4.34-4.91s1.68-5,4.34-5,4.32,2.15,4.32,5S280.77,636.6,278.3,636.6Z"/><polygon class="cls-1" points="299.81 624.91 297.55 634.05 294.93 624.91 292.85 624.91 290.25 634.11 287.96 624.91 285.72 624.91 289.3 638.39 291.12 638.39 293.93 628.62 296.67 638.39 298.45 638.39 302.03 624.91 299.81 624.91"/><polygon class="cls-1" points="303.34 638.39 312.9 638.39 312.9 636.24 305.49 636.24 305.49 632.53 312.14 632.53 312.14 630.4 305.49 630.4 305.49 627.04 312.74 627.04 312.74 624.91 303.34 624.91 303.34 638.39"/><path class="cls-1" d="M326,631.58c0-4.09-2.22-6.67-6.4-6.67H314.8v13.48h4.75C323.73,638.39,326,635.6,326,631.58Zm-6.71,4.68H317V627h2.29c2.89,0,4.52,1.42,4.52,4.54S322.13,636.26,319.24,636.26Z"/><polygon class="cls-1" points="338.78 638.39 338.78 627.04 343.14 627.04 343.14 624.91 332.28 624.91 332.28 627.04 336.63 627.04 336.63 638.39 338.78 638.39"/><polygon class="cls-1" points="346.6 632.57 352.88 632.57 352.88 638.39 355.03 638.39 355.03 624.91 352.88 624.91 352.88 630.45 346.6 630.45 346.6 624.91 344.45 624.91 344.45 638.39 346.6 638.39 346.6 632.57"/><polygon class="cls-1" points="366.68 627.04 366.68 624.91 357.29 624.91 357.29 638.39 366.84 638.39 366.84 636.24 359.44 636.24 359.44 632.53 366.09 632.53 366.09 630.4 359.44 630.4 359.44 627.04 366.68 627.04"/><path class="cls-1" d="M204.88,657.38c-2.38-.74-3.19-1.33-3.19-2.19s1-1.47,2.48-1.47a2.63,2.63,0,0,1,2.92,2l2.22-.48c-.59-2.41-2.26-3.64-5-3.64-3,0-4.8,1.38-4.8,3.57,0,2,1.45,3.31,4.62,4.24,2.33.69,3.32,1.39,3.32,2.35s-1.2,1.87-2.92,1.87a2.89,2.89,0,0,1-3.17-2.53l-2.12.47c.47,2.7,2.37,4.17,5.38,4.17s5-1.56,5-3.92C209.62,659.82,208.2,658.42,204.88,657.38Z"/><path class="cls-1" d="M219.92,660.39c0,2.15-1.16,3.19-3.12,3.19s-3-1.07-3-3.21v-8.46h-2.16v8.46c0,3.55,2,5.36,5.19,5.36s5.29-1.83,5.29-5.34v-8.48h-2.17Z"/><polygon class="cls-1" points="226.54 655.76 232.87 665.39 234.95 665.39 234.95 651.91 232.8 651.91 232.8 661.5 226.49 651.91 224.37 651.91 224.37 665.39 226.54 665.39 226.54 655.76"/><rect class="cls-1" x="237.44" y="658.38" width="8.53" height="1.92"/><path class="cls-1" d="M253.47,663.62a2.9,2.9,0,0,1-3.18-2.53l-2.11.47c.46,2.7,2.36,4.17,5.38,4.17s5-1.56,5-3.92c0-2-1.41-3.39-4.73-4.43-2.38-.74-3.19-1.33-3.19-2.19s1-1.47,2.47-1.47a2.64,2.64,0,0,1,2.93,2l2.22-.48c-.59-2.41-2.26-3.64-5-3.64-3,0-4.8,1.38-4.8,3.57,0,2,1.45,3.31,4.62,4.24,2.33.69,3.32,1.39,3.32,2.35S255.19,663.62,253.47,663.62Z"/><path class="cls-1" d="M266.77,665.73c3.85,0,6.58-3,6.58-7s-2.58-7.12-6.58-7.12-6.63,3.12-6.63,7.12S262.9,665.73,266.77,665.73Zm0-12c2.65,0,4.32,2.15,4.32,5s-1.85,4.91-4.32,4.91-4.34-2-4.34-4.91S264.12,653.74,266.77,653.74Z"/><path class="cls-1" d="M284.82,665.39h2.26l-5.23-13.48h-2.44l-5.27,13.48h2.29l1.4-3.62h5.59Zm-6.17-5.73,2-5.15,2,5.15Z"/><polygon class="cls-1" points="293.95 657.25 299.58 651.91 296.62 651.91 290.52 657.66 290.52 651.91 288.35 651.91 288.35 665.39 290.52 665.39 290.52 660.52 292.37 658.76 297.35 665.39 300.08 665.39 293.95 657.25"/><polygon class="cls-1" points="310.85 663.24 303.45 663.24 303.45 659.53 310.1 659.53 310.1 657.4 303.45 657.4 303.45 654.04 310.69 654.04 310.69 651.91 301.3 651.91 301.3 665.39 310.85 665.39 310.85 663.24"/><path class="cls-1" d="M323.9,658.58c0-4.09-2.22-6.67-6.4-6.67h-4.75v13.48h4.75C321.68,665.39,323.9,662.6,323.9,658.58Zm-9,4.68V654h2.3c2.89,0,4.52,1.42,4.52,4.54s-1.63,4.68-4.52,4.68Z"/><polygon class="cls-1" points="344.09 665.39 344.09 651.91 341.78 651.91 337.67 662.4 333.5 651.91 331.18 651.91 331.18 665.39 333.33 665.39 333.33 657.07 336.65 665.39 338.69 665.39 341.94 657.09 341.94 665.39 344.09 665.39"/><polygon class="cls-1" points="352.36 665.39 352.36 659.24 357.23 651.91 354.81 651.91 351.28 657.23 347.8 651.91 345.31 651.91 350.19 659.24 350.19 665.39 352.36 665.39"/><path class="cls-1" d="M360.62,659.58h2.47c2.37,0,2.24,4.15,3.21,5.81h2.42c-1.52-2.94-.93-5.23-2.65-6.24a3.49,3.49,0,0,0,2.31-3.37c0-2.18-1.68-3.87-4.32-3.87h-5.59v13.48h2.15Zm0-5.54H364c1.32,0,2.17.68,2.17,1.67s-.88,1.74-2.17,1.74h-3.41Z"/><polygon class="cls-1" points="380.54 651.91 369.67 651.91 369.67 654.04 374.03 654.04 374.03 665.39 376.18 665.39 376.18 654.04 380.54 654.04 380.54 651.91"/><polygon class="cls-1" points="381.85 651.91 381.85 665.39 391.24 665.39 391.24 663.24 384.01 663.24 384.01 651.91 381.85 651.91"/><polygon class="cls-1" points="402.21 654.04 402.21 651.91 392.82 651.91 392.82 665.39 402.37 665.39 402.37 663.24 394.97 663.24 394.97 659.53 401.62 659.53 401.62 657.4 394.97 657.4 394.97 654.04 402.21 654.04"/><path class="cls-1" d="M409.29,663.62a2.89,2.89,0,0,1-3.17-2.53l-2.12.47c.47,2.7,2.37,4.17,5.38,4.17s5-1.56,5-3.92c0-2-1.42-3.39-4.73-4.43-2.39-.74-3.19-1.33-3.19-2.19s1-1.47,2.47-1.47a2.63,2.63,0,0,1,2.92,2l2.23-.48c-.6-2.41-2.26-3.64-5-3.64-3,0-4.81,1.38-4.81,3.57,0,2,1.46,3.31,4.63,4.24,2.33.69,3.32,1.39,3.32,2.35S411,663.62,409.29,663.62Z"/><rect class="cls-1" x="262.92" y="678.91" width="2.19" height="13.48"/><polygon class="cls-1" points="278.23 692.39 278.23 678.91 276.08 678.91 276.08 688.5 269.77 678.91 267.66 678.91 267.66 692.39 269.82 692.39 269.82 682.76 276.15 692.39 278.23 692.39"/><path class="cls-1" d="M290.16,678.91l-5.28,13.48h2.3l1.4-3.62h5.59l1.4,3.62h2.26l-5.24-13.48Zm-.76,7.75,2-5.15,2,5.15Z"/><path class="cls-1" d="M309.89,684.38c-2.38-.74-3.19-1.33-3.19-2.19s1-1.47,2.48-1.47a2.63,2.63,0,0,1,2.92,2l2.22-.48c-.59-2.41-2.26-3.64-5-3.64-2.95,0-4.8,1.38-4.8,3.57,0,2,1.45,3.31,4.62,4.24,2.34.69,3.32,1.39,3.32,2.35s-1.2,1.87-2.92,1.87a2.89,2.89,0,0,1-3.17-2.53l-2.12.47c.47,2.7,2.37,4.17,5.38,4.17s5-1.56,5-3.92C314.63,686.82,313.21,685.42,309.89,684.38Z"/><path class="cls-1" d="M329.38,685.71c0-4-2.58-7.12-6.58-7.12s-6.63,3.12-6.63,7.12,2.76,7,6.63,7S329.38,689.76,329.38,685.71Zm-6.58,4.89c-2.49,0-4.34-2-4.34-4.91s1.69-5,4.34-5,4.32,2.15,4.32,5S325.28,690.6,322.8,690.6Z"/><polygon class="cls-1" points="331.17 692.39 333.32 692.39 333.32 686.53 339.6 686.53 339.6 684.4 333.32 684.4 333.32 681.04 340.46 681.04 340.46 678.91 331.17 678.91 331.17 692.39"/><path class="cls-1" d="M246,719.66a6.26,6.26,0,0,0,4.14-1.59c.56.44,1.15.93,1.72,1.36l1.6-1.2c-.73-.52-1.4-1-2-1.56a8.93,8.93,0,0,0,1.38-4.54h-2a6,6,0,0,1-.95,3.17,30.36,30.36,0,0,1-2.89-2.92c1.52-1.07,2.78-2.24,2.78-3.82a3.17,3.17,0,0,0-3.41-3,3.14,3.14,0,0,0-3.39,3,6.67,6.67,0,0,0,1.33,3.43c-1.52,1.07-2.6,2.2-2.6,3.94C241.66,718.16,243.51,719.66,246,719.66Zm.36-12.17a1.22,1.22,0,0,1,1.36,1.18c0,.81-.79,1.51-1.9,2.22a3.87,3.87,0,0,1-.8-2.09A1.23,1.23,0,0,1,246.34,707.49Zm-.93,6a38.23,38.23,0,0,0,3.06,3.23,4.08,4.08,0,0,1-2.49.89c-1.4,0-2.29-.79-2.29-1.77C243.69,715,244.31,714.26,245.41,713.46Z"/><path class="cls-1" d="M262.94,713.89h3.3a4,4,0,0,0,4.32-4c0-2.22-1.63-4-4.32-4h-5.47v13.48h2.17Zm0-5.85h3.28c1.31,0,2.14.7,2.14,1.83a1.9,1.9,0,0,1-2.14,1.88h-3.28Z"/><path class="cls-1" d="M277.46,719.73c3.21,0,5.29-1.83,5.29-5.34v-8.48h-2.17v8.48c0,2.15-1.16,3.19-3.12,3.19s-3-1.07-3-3.21v-8.46h-2.17v8.46C272.26,717.92,274.29,719.73,277.46,719.73Z"/><path class="cls-1" d="M287.18,713.58h2.47c2.37,0,2.24,4.15,3.21,5.81h2.42c-1.52-2.94-.93-5.23-2.65-6.24a3.49,3.49,0,0,0,2.31-3.37c0-2.18-1.68-3.87-4.32-3.87H285v13.48h2.15Zm0-5.54h3.41c1.32,0,2.17.68,2.17,1.67s-.88,1.74-2.17,1.74h-3.41Z"/><polygon class="cls-1" points="306.74 717.24 299.33 717.24 299.33 713.53 305.99 713.53 305.99 711.4 299.33 711.4 299.33 708.04 306.58 708.04 306.58 705.91 297.18 705.91 297.18 719.39 306.74 719.39 306.74 717.24"/><polygon class="cls-1" points="314.02 705.91 314.02 719.39 323.41 719.39 323.41 717.24 316.19 717.24 316.19 705.91 314.02 705.91"/><rect class="cls-1" x="325.26" y="705.91" width="2.19" height="13.48"/><path class="cls-1" d="M335.82,707.76a3.37,3.37,0,0,1,3.3,2.2l2.13-.48a5.54,5.54,0,0,0-5.45-3.89c-4,0-6.26,3.3-6.26,7.22,0,4.07,2.46,6.92,5.92,6.92a4.68,4.68,0,0,0,3.83-1.74l.17,1.4h1.93v-7.22H336v2.13h3.21a3.59,3.59,0,0,1-3.57,3.28c-2.15,0-3.89-1.74-3.89-4.79C331.75,710,333.22,707.76,335.82,707.76Z"/><polygon class="cls-1" points="343.56 705.91 343.56 719.39 345.71 719.39 345.71 713.57 351.99 713.57 351.99 719.39 354.14 719.39 354.14 705.91 351.99 705.91 351.99 711.45 345.71 711.45 345.71 705.91 343.56 705.91"/><polygon class="cls-1" points="361.95 719.39 361.95 708.04 366.31 708.04 366.31 705.91 355.45 705.91 355.45 708.04 359.8 708.04 359.8 719.39 361.95 719.39"/><path class="cls-1" d="M368.57,721.19l.79,1a3.8,3.8,0,0,0,2-3.34c0-1.41-.7-2.2-1.61-2.2a1.5,1.5,0,0,0-1.53,1.51,1.47,1.47,0,0,0,1.76,1.43A2.6,2.6,0,0,1,368.57,721.19Z"/><path class="cls-1" d="M234.44,741.37c0,3.55,2,5.36,5.2,5.36s5.28-1.83,5.28-5.34v-8.48h-2.17v8.48c0,2.15-1.16,3.19-3.11,3.19s-3-1.07-3-3.21v-8.46h-2.17Z"/><polygon class="cls-1" points="249.37 736.76 255.7 746.39 257.78 746.39 257.78 732.91 255.63 732.91 255.63 742.5 249.32 732.91 247.2 732.91 247.2 746.39 249.37 746.39 249.37 736.76"/><path class="cls-1" d="M272.44,742.29l-2.15-.5a4.2,4.2,0,0,1-4.05,2.77c-2.55,0-4.36-2-4.36-4.8s1.89-5,4.54-5a4,4,0,0,1,3.71,2.32l2.24-.65a6.24,6.24,0,0,0-5.91-3.85c-3.93,0-6.85,3.1-6.85,7.24s2.76,6.9,6.65,6.9A6.31,6.31,0,0,0,272.44,742.29Z"/><path class="cls-1" d="M287.13,739.71c0-4-2.59-7.12-6.58-7.12s-6.64,3.12-6.64,7.12,2.76,7,6.64,7S287.13,743.76,287.13,739.71Zm-6.58,4.89c-2.5,0-4.34-2-4.34-4.91s1.68-5,4.34-5,4.32,2.15,4.32,5S283,744.6,280.55,744.6Z"/><path class="cls-1" d="M291.07,740.58h2.47c2.37,0,2.25,4.15,3.21,5.81h2.42c-1.52-2.94-.93-5.23-2.65-6.24a3.49,3.49,0,0,0,2.31-3.37c0-2.18-1.68-3.87-4.32-3.87h-5.59v13.48h2.15Zm0-5.54h3.41c1.32,0,2.17.68,2.17,1.67s-.88,1.74-2.17,1.74h-3.41Z"/><polygon class="cls-1" points="303.24 741.52 305.09 739.76 310.07 746.39 312.8 746.39 306.67 738.25 312.3 732.91 309.34 732.91 303.24 738.66 303.24 732.91 301.07 732.91 301.07 746.39 303.24 746.39 303.24 741.52"/><polygon class="cls-1" points="323.41 735.04 323.41 732.91 314.02 732.91 314.02 746.39 323.57 746.39 323.57 744.24 316.17 744.24 316.17 740.53 322.82 740.53 322.82 738.4 316.17 738.4 316.17 735.04 323.41 735.04"/><path class="cls-1" d="M336.62,739.58c0-4.09-2.22-6.67-6.4-6.67h-4.75v13.48h4.75C334.4,746.39,336.62,743.6,336.62,739.58Zm-6.7,4.68h-2.3V735h2.3c2.89,0,4.52,1.42,4.52,4.54S332.81,744.26,329.92,744.26Z"/><polygon class="cls-1" points="353.19 735.04 353.19 732.91 343.9 732.91 343.9 746.39 346.05 746.39 346.05 740.53 352.33 740.53 352.33 738.4 346.05 738.4 346.05 735.04 353.19 735.04"/><path class="cls-1" d="M367.5,739.71c0-4-2.59-7.12-6.58-7.12s-6.64,3.12-6.64,7.12,2.76,7,6.64,7S367.5,743.76,367.5,739.71Zm-6.58,4.89c-2.5,0-4.34-2-4.34-4.91s1.68-5,4.34-5,4.32,2.15,4.32,5S363.39,744.6,360.92,744.6Z"/><path class="cls-1" d="M371.44,740.58h2.47c2.37,0,2.24,4.15,3.21,5.81h2.42c-1.52-2.94-.93-5.23-2.65-6.24a3.49,3.49,0,0,0,2.31-3.37c0-2.18-1.68-3.87-4.32-3.87h-5.59v13.48h2.15Zm0-5.54h3.41c1.32,0,2.17.68,2.17,1.67s-.88,1.74-2.17,1.74h-3.41Z"/><polygon class="cls-1" points="295.74 773.39 295.74 762.04 300.1 762.04 300.1 759.91 289.23 759.91 289.23 762.04 293.59 762.04 293.59 773.39 295.74 773.39"/><polygon class="cls-1" points="303.56 767.57 309.83 767.57 309.83 773.39 311.98 773.39 311.98 759.91 309.83 759.91 309.83 765.45 303.56 765.45 303.56 759.91 301.4 759.91 301.4 773.39 303.56 773.39 303.56 767.57"/><polygon class="cls-1" points="323.8 771.24 316.39 771.24 316.39 767.53 323.04 767.53 323.04 765.4 316.39 765.4 316.39 762.04 323.64 762.04 323.64 759.91 314.24 759.91 314.24 773.39 323.8 773.39 323.8 771.24"/><polygon class="cls-1" points="244.01 786.91 241.79 786.91 239.53 796.05 236.91 786.91 234.83 786.91 232.23 796.11 229.94 786.91 227.7 786.91 231.28 800.39 233.09 800.39 235.91 790.62 238.65 800.39 240.43 800.39 244.01 786.91"/><rect class="cls-1" x="245.59" y="786.91" width="2.19" height="13.48"/><polygon class="cls-1" points="252.49 790.76 258.82 800.39 260.9 800.39 260.9 786.91 258.75 786.91 258.75 796.5 252.44 786.91 250.32 786.91 250.32 800.39 252.49 800.39 252.49 790.76"/><polygon class="cls-1" points="273.09 786.91 262.23 786.91 262.23 789.04 266.58 789.04 266.58 800.39 268.73 800.39 268.73 789.04 273.09 789.04 273.09 786.91"/><polygon class="cls-1" points="283.79 789.04 283.79 786.91 274.4 786.91 274.4 800.39 283.95 800.39 283.95 798.24 276.55 798.24 276.55 794.53 283.2 794.53 283.2 792.4 276.55 792.4 276.55 789.04 283.79 789.04"/><path class="cls-1" d="M288,794.58h2.48c2.37,0,2.24,4.15,3.21,5.81h2.42c-1.53-2.94-.93-5.23-2.65-6.24a3.5,3.5,0,0,0,2.31-3.37c0-2.18-1.69-3.87-4.32-3.87h-5.6v13.48H288Zm0-5.54h3.41c1.33,0,2.17.68,2.17,1.67s-.88,1.74-2.17,1.74H288Z"/><polygon class="cls-1" points="308.85 800.39 313.71 786.91 311.42 786.91 308.08 796.36 304.73 786.91 302.44 786.91 307.33 800.39 308.85 800.39"/><rect class="cls-1" x="315.29" y="786.91" width="2.19" height="13.48"/><path class="cls-1" d="M330.17,796.81c0-2-1.42-3.39-4.73-4.43-2.39-.74-3.19-1.33-3.19-2.19s1-1.47,2.47-1.47a2.63,2.63,0,0,1,2.92,2l2.23-.48c-.6-2.41-2.26-3.64-5-3.64-3,0-4.81,1.38-4.81,3.57,0,2,1.46,3.31,4.63,4.24,2.33.69,3.32,1.39,3.32,2.35s-1.21,1.87-2.93,1.87a2.89,2.89,0,0,1-3.17-2.53l-2.12.47c.47,2.7,2.37,4.17,5.38,4.17S330.17,799.17,330.17,796.81Z"/><rect class="cls-1" x="332.43" y="786.91" width="2.19" height="13.48"/><polygon class="cls-1" points="340.57 800.39 342.72 800.39 342.72 789.04 347.07 789.04 347.07 786.91 336.21 786.91 336.21 789.04 340.57 789.04 340.57 800.39"/><path class="cls-1" d="M361.15,793.71c0-4-2.58-7.12-6.58-7.12s-6.63,3.12-6.63,7.12,2.76,7,6.63,7S361.15,797.76,361.15,793.71Zm-10.92,0c0-2.8,1.69-5,4.34-5s4.32,2.15,4.32,5-1.85,4.91-4.32,4.91S350.23,796.57,350.23,793.69Z"/><path class="cls-1" d="M370.78,800.39h2.42c-1.53-2.94-.94-5.23-2.66-6.24a3.5,3.5,0,0,0,2.32-3.37c0-2.18-1.69-3.87-4.32-3.87h-5.6v13.48h2.15v-5.81h2.48C369.93,794.58,369.81,798.73,370.78,800.39ZM365.09,789h3.41c1.33,0,2.17.68,2.17,1.67s-.88,1.74-2.17,1.74h-3.41Z"/><path class="cls-1" d="M277.51,823.77h5.59l1.4,3.62h2.26l-5.24-13.48h-2.44l-5.27,13.48h2.3Zm2.81-7.26,2,5.15h-4Z"/><path class="cls-1" d="M293.14,827.73c3.05,0,5-1.56,5-3.92,0-2-1.42-3.39-4.73-4.43-2.39-.74-3.2-1.33-3.2-2.19s1-1.47,2.48-1.47a2.63,2.63,0,0,1,2.92,2l2.22-.48c-.59-2.41-2.25-3.64-5-3.64-3,0-4.81,1.38-4.81,3.57,0,2,1.45,3.31,4.63,4.24,2.33.69,3.31,1.39,3.31,2.35s-1.2,1.87-2.92,1.87a2.89,2.89,0,0,1-3.17-2.53l-2.12.47C288.23,826.26,290.13,827.73,293.14,827.73Z"/><polygon class="cls-1" points="311.1 827.39 311.1 816.04 315.46 816.04 315.46 813.91 304.6 813.91 304.6 816.04 308.95 816.04 308.95 827.39 311.1 827.39"/><polygon class="cls-1" points="327.35 827.39 327.35 813.91 325.19 813.91 325.19 819.45 318.92 819.45 318.92 813.91 316.77 813.91 316.77 827.39 318.92 827.39 318.92 821.57 325.19 821.57 325.19 827.39 327.35 827.39"/><polygon class="cls-1" points="339.16 825.24 331.76 825.24 331.76 821.53 338.41 821.53 338.41 819.4 331.76 819.4 331.76 816.04 339 816.04 339 813.91 329.6 813.91 329.6 827.39 339.16 827.39 339.16 825.24"/><path class="cls-1" d="M230.52,840.91h-5.47v13.48h2.17v-5.5h3.3a4,4,0,0,0,4.32-4C234.84,842.65,233.21,840.91,230.52,840.91Zm0,5.84h-3.28V843h3.28c1.31,0,2.14.7,2.14,1.83A1.91,1.91,0,0,1,230.5,846.75Z"/><rect class="cls-1" x="236.81" y="840.91" width="2.19" height="13.48"/><path class="cls-1" d="M244.23,850.77h5.6l1.4,3.62h2.26l-5.24-13.48h-2.44l-5.27,13.48h2.3Zm2.82-7.26,2,5.15h-4Z"/><polygon class="cls-1" points="256.93 844.76 263.26 854.39 265.34 854.39 265.34 840.91 263.19 840.91 263.19 850.5 256.87 840.91 254.76 840.91 254.76 854.39 256.93 854.39 256.93 844.76"/><rect class="cls-1" x="267.88" y="840.91" width="2.19" height="13.48"/><path class="cls-1" d="M277.63,852.62a2.89,2.89,0,0,1-3.17-2.53l-2.12.47c.47,2.7,2.37,4.17,5.38,4.17s5-1.56,5-3.92c0-2-1.42-3.39-4.73-4.43-2.39-.74-3.19-1.33-3.19-2.19s1-1.47,2.47-1.47a2.63,2.63,0,0,1,2.92,2l2.23-.48c-.6-2.41-2.26-3.64-5-3.64-3,0-4.81,1.38-4.81,3.57,0,2,1.46,3.31,4.63,4.24,2.33.69,3.32,1.39,3.32,2.35S279.35,852.62,277.63,852.62Z"/><polygon class="cls-1" points="288.16 854.39 290.31 854.39 290.31 843.04 294.66 843.04 294.66 840.91 283.8 840.91 283.8 843.04 288.16 843.04 288.16 854.39"/><path class="cls-1" d="M303.5,848.58H306c2.36,0,2.24,4.15,3.21,5.81h2.42c-1.53-2.94-.94-5.23-2.66-6.24a3.5,3.5,0,0,0,2.32-3.37c0-2.18-1.69-3.87-4.32-3.87h-5.6v13.48h2.15Zm0-5.54h3.41c1.33,0,2.17.68,2.17,1.67s-.88,1.74-2.17,1.74H303.5Z"/><polygon class="cls-1" points="323.06 852.24 315.66 852.24 315.66 848.53 322.31 848.53 322.31 846.4 315.66 846.4 315.66 843.04 322.9 843.04 322.9 840.91 313.51 840.91 313.51 854.39 323.06 854.39 323.06 852.24"/><polygon class="cls-1" points="337.87 854.39 337.87 840.91 335.56 840.91 331.45 851.4 327.27 840.91 324.96 840.91 324.96 854.39 327.11 854.39 327.11 846.07 330.43 854.39 332.47 854.39 335.72 846.09 335.72 854.39 337.87 854.39"/><path class="cls-1" d="M346.31,840.59c-4,0-6.63,3.12-6.63,7.12s2.76,7,6.63,7,6.58-3,6.58-7S350.31,840.59,346.31,840.59Zm0,12c-2.49,0-4.33-2-4.33-4.91s1.68-5,4.33-5,4.32,2.15,4.32,5S348.79,852.6,346.31,852.6Z"/><polygon class="cls-1" points="359.38 850.36 356.03 840.91 353.74 840.91 358.63 854.39 360.15 854.39 365.01 840.91 362.72 840.91 359.38 850.36"/><polygon class="cls-1" points="375.71 843.04 375.71 840.91 366.32 840.91 366.32 854.39 375.88 854.39 375.88 852.24 368.47 852.24 368.47 848.53 375.12 848.53 375.12 846.4 368.47 846.4 368.47 843.04 375.71 843.04"/><path class="cls-1" d="M382.53,840.91h-4.75v13.48h4.75c4.18,0,6.4-2.79,6.4-6.81S386.71,840.91,382.53,840.91Zm-.31,11.35h-2.29V843h2.29c2.89,0,4.52,1.42,4.52,4.54S385.11,852.26,382.22,852.26Z"/><polygon class="cls-1" points="260.44 881.39 260.44 867.91 258.29 867.91 258.29 873.45 252.01 873.45 252.01 867.91 249.86 867.91 249.86 881.39 252.01 881.39 252.01 875.57 258.29 875.57 258.29 881.39 260.44 881.39"/><polygon class="cls-1" points="272.25 879.24 264.85 879.24 264.85 875.53 271.5 875.53 271.5 873.4 264.85 873.4 264.85 870.04 272.09 870.04 272.09 867.91 262.7 867.91 262.7 881.39 272.25 881.39 272.25 879.24"/><path class="cls-1" d="M276.31,875.58h2.47c2.37,0,2.24,4.15,3.21,5.81h2.42c-1.52-2.94-.93-5.23-2.65-6.24a3.5,3.5,0,0,0,2.31-3.37c0-2.18-1.69-3.87-4.32-3.87h-5.59v13.48h2.15Zm0-5.54h3.4c1.33,0,2.17.68,2.17,1.67s-.88,1.74-2.17,1.74h-3.4Z"/><path class="cls-1" d="M291.24,874.81c0,4.07,2.46,6.92,5.92,6.92A4.68,4.68,0,0,0,301,880l.16,1.4h1.94v-7.22h-5.4v2.13h3.21a3.58,3.58,0,0,1-3.56,3.28c-2.16,0-3.89-1.74-3.89-4.79,0-2.81,1.47-5,4.06-5a3.35,3.35,0,0,1,3.3,2.2l2.14-.48a5.54,5.54,0,0,0-5.45-3.89C293.54,867.59,291.24,870.89,291.24,874.81Z"/><polygon class="cls-1" points="314.65 879.24 307.43 879.24 307.43 867.91 305.26 867.91 305.26 881.39 314.65 881.39 314.65 879.24"/><path class="cls-1" d="M329,874.71c0-4-2.58-7.12-6.58-7.12s-6.64,3.12-6.64,7.12,2.76,7,6.64,7S329,878.76,329,874.71Zm-6.58,4.89c-2.5,0-4.34-2-4.34-4.91s1.68-5,4.34-5,4.32,2.15,4.32,5S324.89,879.6,322.42,879.6Z"/><polygon class="cls-1" points="338.82 867.91 335.49 877.36 332.13 867.91 329.84 867.91 334.73 881.39 336.26 881.39 341.12 867.91 338.82 867.91"/><polygon class="cls-1" points="351.82 870.04 351.82 867.91 342.42 867.91 342.42 881.39 351.98 881.39 351.98 879.24 344.57 879.24 344.57 875.53 351.23 875.53 351.23 873.4 344.57 873.4 344.57 870.04 351.82 870.04"/><path class="cls-1" d="M358.9,879.62a2.89,2.89,0,0,1-3.17-2.53l-2.12.47c.47,2.7,2.37,4.17,5.38,4.17s5-1.56,5-3.92c0-2-1.42-3.39-4.74-4.43-2.38-.74-3.19-1.33-3.19-2.19s1-1.47,2.48-1.47a2.63,2.63,0,0,1,2.92,2l2.22-.48c-.59-2.41-2.26-3.64-5-3.64-2.95,0-4.8,1.38-4.8,3.57,0,2,1.45,3.31,4.62,4.24,2.33.69,3.32,1.39,3.32,2.35S360.62,879.62,358.9,879.62Z"/><polygon class="cls-1" points="298.46 908.39 300.61 908.39 300.61 897.04 304.96 897.04 304.96 894.91 294.1 894.91 294.1 897.04 298.46 897.04 298.46 908.39"/><path class="cls-1" d="M319,901.71c0-4-2.58-7.12-6.58-7.12s-6.64,3.12-6.64,7.12,2.76,7,6.64,7S319,905.76,319,901.71Zm-10.92,0c0-2.8,1.68-5,4.34-5s4.32,2.15,4.32,5-1.85,4.91-4.32,4.91S308.12,904.57,308.12,901.69Z"/><path class="cls-1" d="M243.05,929.15a3.49,3.49,0,0,0,2.31-3.37c0-2.18-1.68-3.87-4.32-3.87h-5.59v13.48h2.15v-5.81h2.47c2.37,0,2.25,4.15,3.21,5.81h2.42C244.18,932.45,244.77,930.16,243.05,929.15Zm-2-1.7H237.6V924H241c1.32,0,2.17.68,2.17,1.67S242.3,927.45,241,927.45Z"/><polygon class="cls-1" points="257.16 933.24 249.76 933.24 249.76 929.53 256.41 929.53 256.41 927.4 249.76 927.4 249.76 924.04 257 924.04 257 921.91 247.6 921.91 247.6 935.39 257.16 935.39 257.16 933.24"/><path class="cls-1" d="M264.08,933.62a2.89,2.89,0,0,1-3.17-2.53l-2.12.47c.47,2.7,2.37,4.17,5.38,4.17s5-1.56,5-3.92c0-2-1.42-3.39-4.74-4.43-2.38-.74-3.19-1.33-3.19-2.19s1-1.47,2.48-1.47a2.63,2.63,0,0,1,2.92,2l2.22-.48c-.59-2.41-2.26-3.64-5-3.64-2.95,0-4.8,1.38-4.8,3.57,0,2,1.45,3.31,4.62,4.24,2.34.69,3.32,1.39,3.32,2.35S265.8,933.62,264.08,933.62Z"/><polygon class="cls-1" points="281.11 921.91 270.25 921.91 270.25 924.04 274.6 924.04 274.6 935.39 276.75 935.39 276.75 924.04 281.11 924.04 281.11 921.91"/><polygon class="cls-1" points="289.95 929.53 296.23 929.53 296.23 927.4 289.95 927.4 289.95 924.04 297.08 924.04 297.08 921.91 287.8 921.91 287.8 935.39 289.95 935.39 289.95 929.53"/><path class="cls-1" d="M304.81,921.59c-4,0-6.63,3.12-6.63,7.12s2.76,7,6.63,7,6.58-3,6.58-7S308.81,921.59,304.81,921.59Zm0,12c-2.49,0-4.34-2-4.34-4.91s1.69-5,4.34-5,4.32,2.15,4.32,5S307.29,933.6,304.81,933.6Z"/><path class="cls-1" d="M320.78,929.15a3.5,3.5,0,0,0,2.32-3.37c0-2.18-1.69-3.87-4.32-3.87h-5.6v13.48h2.15v-5.81h2.48c2.36,0,2.24,4.15,3.21,5.81h2.42C321.91,932.45,322.51,930.16,320.78,929.15Zm-2-1.7h-3.41V924h3.41c1.33,0,2.17.68,2.17,1.67S320,927.45,318.74,927.45Z"/><path class="cls-1" d="M330.07,924.83v2.1a5.44,5.44,0,0,0,3.53-1.18v9.64h2.12V922h-1.9A3.77,3.77,0,0,1,330.07,924.83Z"/><path class="cls-1" d="M342.78,922.09c-3,0-4.55,2.42-4.55,6.79s1.5,6.76,4.55,6.76,4.56-2.42,4.56-6.76S345.83,922.09,342.78,922.09Zm0,11.47c-1.47,0-2.38-1.47-2.38-4.68s.91-4.71,2.38-4.71,2.39,1.41,2.39,4.71S344.25,933.56,342.78,933.56Z"/><polygon class="cls-1" points="353.7 924.04 358.06 924.04 358.06 935.39 360.21 935.39 360.21 924.04 364.56 924.04 364.56 921.91 353.7 921.91 353.7 924.04"/><path class="cls-1" d="M372.06,921.59c-4,0-6.64,3.12-6.64,7.12s2.76,7,6.64,7,6.58-3,6.58-7S376.06,921.59,372.06,921.59Zm0,12c-2.49,0-4.34-2-4.34-4.91s1.68-5,4.34-5,4.32,2.15,4.32,5S374.53,933.6,372.06,933.6Z"/><path class="cls-1" d="M254.91,951.83v2.1a5.44,5.44,0,0,0,3.53-1.18v9.64h2.12V949h-1.9A3.77,3.77,0,0,1,254.91,951.83Z"/><path class="cls-1" d="M267.94,953.41a4.7,4.7,0,0,0-2.09.52l.17-2.69h5.46v-2.06h-7.36l-.43,6.85,1.8.86a2.49,2.49,0,0,1,2.22-1.36,2.32,2.32,0,0,1,2.38,2.49,2.35,2.35,0,0,1-2.45,2.53,2.33,2.33,0,0,1-2.31-1.67l-2.14.52a4.33,4.33,0,0,0,4.45,3.24,4.4,4.4,0,0,0,4.64-4.68A4.26,4.26,0,0,0,267.94,953.41Z"/><polygon class="cls-1" points="281.87 954.07 285.19 962.39 287.23 962.39 290.48 954.09 290.48 962.39 292.63 962.39 292.63 948.91 290.32 948.91 286.21 959.4 282.03 948.91 279.72 948.91 279.72 962.39 281.87 962.39 281.87 954.07"/><rect class="cls-1" x="295.16" y="948.91" width="2.19" height="13.48"/><polygon class="cls-1" points="308.32 958.5 302.01 948.91 299.89 948.91 299.89 962.39 302.06 962.39 302.06 952.76 308.39 962.39 310.47 962.39 310.47 948.91 308.32 948.91 308.32 958.5"/><path class="cls-1" d="M317.94,962.73c3.21,0,5.29-1.83,5.29-5.34v-8.48h-2.17v8.48c0,2.15-1.16,3.19-3.12,3.19s-3-1.07-3-3.21v-8.46h-2.17v8.46C312.74,960.92,314.77,962.73,317.94,962.73Z"/><polygon class="cls-1" points="324.56 951.04 328.92 951.04 328.92 962.39 331.07 962.39 331.07 951.04 335.42 951.04 335.42 948.91 324.56 948.91 324.56 951.04"/><polygon class="cls-1" points="338.88 956.53 345.53 956.53 345.53 954.4 338.88 954.4 338.88 951.04 346.13 951.04 346.13 948.91 336.73 948.91 336.73 962.39 346.29 962.39 346.29 960.24 338.88 960.24 338.88 956.53"/><path class="cls-1" d="M353.6,954.38c-2.38-.74-3.19-1.33-3.19-2.19s1-1.47,2.47-1.47a2.64,2.64,0,0,1,2.93,2l2.22-.48c-.59-2.41-2.26-3.64-5-3.64-3,0-4.8,1.38-4.8,3.57,0,2,1.45,3.31,4.62,4.24,2.33.69,3.32,1.39,3.32,2.35s-1.2,1.87-2.92,1.87a2.9,2.9,0,0,1-3.18-2.53l-2.11.47c.46,2.7,2.37,4.17,5.38,4.17s5-1.56,5-3.92C358.33,956.82,356.92,955.42,353.6,954.38Z"/><path class="cls-1" d="M467.6,123.85h1.54v14h7.32v1.9H467.6Z"/><path class="cls-1" d="M477.91,123.85h8.86v1.88h-7.34v4.89h6.77v1.88h-6.77v5.31h7.49v1.9h-9Z"/><path class="cls-1" d="M492.13,125.73h-4.35v-1.88H498v1.88h-4.36v14h-1.52Z"/><path class="cls-1" d="M502.69,125.73h-4.34v-1.88h10.22v1.88h-4.36v14h-1.52Z"/><path class="cls-1" d="M509.8,123.85h8.85v1.88h-7.34v4.89h6.77v1.88h-6.77v5.31h7.49v1.9h-9Z"/><path class="cls-1" d="M520.55,123.85h5.27c2.45,0,4.07,1.92,4.07,4.56a4.2,4.2,0,0,1-2.17,4c1.6,1.18,1,3.88,2.49,7.34h-1.73c-1-2.36-.76-6.83-3.06-6.83h-3.35v6.83h-1.52Zm5.23,7.15a2.49,2.49,0,0,0,2.55-2.68,2.41,2.41,0,0,0-2.55-2.59h-3.71V131Z"/><path class="cls-1" d="M531.73,135.18l1.51-.38c.32,2.25,1.46,3.41,3.36,3.41s3.12-1.09,3.12-2.65c0-1.38-1-2.32-3.42-3.21-2.95-1-4.22-2.61-4.22-4.81,0-2.51,1.67-4.07,4.31-4.07s4.13,1.48,4.66,4.3l-1.56.43c-.36-1.9-1.35-2.85-3.15-2.85-1.64,0-2.67.8-2.67,2.17s.88,2.13,3.26,3.06c3.19,1.2,4.37,2.76,4.37,5a4.3,4.3,0,0,1-4.62,4.55C533.9,140.11,532.15,138.38,531.73,135.18Z"/></g></g></svg>