<svg xmlns="http://www.w3.org/2000/svg" viewBox="0 0 696.04 912.71"><defs><style>.cls-1{fill:#fff;}</style></defs><title>Asset 3</title><g id="Layer_2" data-name="Layer 2"><g id="Layer_1-2" data-name="Layer 1"><path class="cls-1" d="M11,108.06C11,36.11,36.11,0,80.49,0c33.91,0,52.93,19.85,61.2,46.59l-15.44,3c-7.71-21.5-22.32-34.18-44.38-34.18-42.73,0-53.75,47.14-56,89.86C43,77.74,66.16,75,79.94,75c42.18,0,66.71,28.39,66.71,65.61,0,36.66-25.91,69.19-68.91,69.19C36.11,209.78,11,178.63,11,108.06ZM129.29,142c0-28.95-17.92-50.45-46.87-50.45C51.55,91.52,32.53,114.4,30.6,132c-1.1,39.42,19.57,62,49.62,62C109.16,194.07,129.29,172.29,129.29,142Z"/><path class="cls-1" d="M178.07,105.86c0-67.27,23.16-104.48,70-104.48s70,37.21,70,104.48c0,66.71-23.15,103.92-70,103.92S178.07,172.57,178.07,105.86Zm123.23,0c0-62.3-20.4-89-53.21-89s-53.2,26.74-53.2,89c0,60.92,21,88.48,53.2,88.48S301.3,166.78,301.3,105.86Z"/><path class="cls-1" d="M385.65,68.36A61.29,61.29,0,0,1,345.4,85.18V43.56c21.78-1.66,37.77-19.3,42.73-43h30.05V205.92H385.65Z"/><path class="cls-1" d="M449,159.89,481.85,150c4.68,14.89,14.33,19.3,22.88,19.3,14.06,0,22.6-11.86,22.6-29.77,0-20.13-11.3-30.88-23.43-30.88-11,0-17.92,8.27-23.15,20.4l-25.64-17.64L460.62,2.76H551v40H490.12l-1.66,28.39c8.83-2.76,14.06-3.31,19-3.31,31.43,0,53.48,29,53.48,70,0,40.25-19.84,71.95-56.78,71.95C478.26,209.78,457.59,194.07,449,159.89Z"/><path class="cls-1" d="M583.84,105.86c0-67.27,18.47-104.48,56-104.48s56,37.21,56,104.48c0,66.71-18.47,103.92-56,103.92S583.84,172.57,583.84,105.86Zm78.84,0c0-44.94-8.82-64.23-22.88-64.23-13.78,0-22.6,19.29-22.6,64.23,0,43.55,8.54,63.67,22.6,63.67S662.68,149.41,662.68,105.86Z"/><path class="cls-1" d="M13.51,397l23.43-5.24c6.62,18.19,18.74,28.12,36.94,28.12,33.91,0,47.14-34.74,49.89-76.09C108.06,366.07,90.14,371,73.6,371c-39.14,0-65-28.66-65-67.26,0-39.42,27-70,69.74-70,44.11,0,70,33.08,70,101.72,0,70.57-26.47,108.06-73.33,108.06C42.18,443.53,22.33,425.62,13.51,397Zm106.4-86.29c-.27-33.08-18.19-52.92-43.83-52.92-24.53,0-41.9,18.19-41.9,43.83,0,24.53,15.72,44.66,41.08,44.66C99,346.23,115.23,328,119.91,310.66Z"/><path class="cls-1" d="M184.42,340.16c0-67.26,23.15-104.48,70-104.48s70,37.22,70,104.48c0,66.71-23.15,103.93-70,103.93S184.42,406.87,184.42,340.16Zm115,0c0-56.51-17.37-80.77-44.93-80.77s-44.94,24.26-44.94,80.77c0,55.13,17.64,80.22,44.94,80.22S299.37,395.29,299.37,340.16Z"/><path class="cls-1" d="M395.3,291.92c-11,12.4-28.67,18.47-43.56,18.19V277.86c25.92-.83,42.18-21.23,46-43h23.43V440.23H395.3Z"/><path class="cls-1" d="M446.29,387l27.29-5.51c3.59,22.88,14.89,31.43,29.22,31.43,16.82,0,28.67-11.31,28.67-31.15,0-18.2-9.92-31.71-27.29-31.71H487.92V318.66h16.81c13,0,20.4-11.58,20.4-25.91,0-16-8.82-26.47-22.6-26.47-14.61,0-23.71,11.86-25.64,27l-26.46-4.69c5-33.63,22.6-54.3,52.1-54.3,30.87,0,49.34,22.05,49.34,55.68,0,19.3-6.34,34.18-17.92,42.73,15.17,7.44,24.81,25.63,24.81,51,0,37.76-22.6,60.37-55.4,60.37C472.76,444.09,453.18,424.51,446.29,387Z"/><path class="cls-1" d="M583.57,340.16c0-67.26,18.47-104.48,56-104.48s56,37.22,56,104.48c0,66.71-18.47,103.93-56,103.93S583.57,406.87,583.57,340.16Zm85.46,0c0-50.72-11.31-72.5-29.5-72.5-17.92,0-29.22,21.78-29.22,72.5,0,49.34,11.3,71.95,29.22,71.95S669,389.5,669,340.16Z"/><path class="cls-1" d="M54.31,526.23C40.52,538.64,18.47,544.7,0,544.42V512.17c32.25-.82,52.65-21.22,57.61-43H86.83V674.54H54.31Z"/><path class="cls-1" d="M118,621.34l33.91-5.52c4.68,22.88,18.74,31.43,36.66,31.43,20.95,0,35.84-11.3,35.84-31.15,0-18.2-12.68-31.7-34.18-31.7h-20.4V553H191c16.27,0,25.36-11.58,25.36-25.91,0-16-11-26.47-28.11-26.47-18.47,0-29.78,11.86-32.26,27l-33.08-4.69c6.34-33.63,28.4-54.3,65.34-54.3,38.31,0,61.47,22.05,61.47,55.68,0,19.3-7.72,34.18-22.33,42.73,18.75,7.44,30.87,25.64,30.87,51,0,37.76-27.84,60.37-69.19,60.37C150.79,678.4,126.53,658.83,118,621.34Z"/><path class="cls-1" d="M285.58,574.47c0-67.26,23.16-104.47,70-104.47s70,37.21,70,104.47c0,66.71-23.16,103.93-70,103.93S285.58,641.18,285.58,574.47Zm106.68,0c0-50.72-14.05-72.5-36.66-72.5s-36.66,21.78-36.66,72.5c0,49.35,14.06,71.95,36.66,71.95S392.26,623.82,392.26,574.47Z"/><path class="cls-1" d="M453.74,631.26,472.48,626c5.24,18.2,15.16,28.12,29.77,28.12,27,0,37.5-34.73,39.7-76.08-12.4,22.33-27,27.29-40.25,27.29-31.15,0-51.82-28.67-51.82-67.27,0-39.42,21.5-70,55.68-70,35.29,0,56,33.08,56,101.72,0,70.57-20.95,108.06-58.44,108.06C476.62,677.85,460.9,659.93,453.74,631.26ZM538.64,545c.28-33.08-14.06-52.93-35-52.93-19.57,0-33.35,18.19-33.35,43.83,0,24.53,12.4,44.66,32.8,44.66C522.1,580.54,535.06,562.34,538.64,545Z"/><path class="cls-1" d="M584.12,574.47c0-67.26,18.47-104.47,56-104.47s56,37.21,56,104.47c0,66.71-18.47,103.93-56,103.93S584.12,641.18,584.12,574.47Zm92.08,0c0-56.51-14.06-80.77-36.12-80.77S604.25,518,604.25,574.47c0,55.14,14.06,80.22,35.83,80.22C662.14,654.69,676.2,629.61,676.2,574.47Z"/><path class="cls-1" d="M51,771.29C36.66,782.05,19.57,787.56.83,788.11V746.48c27.29-1.65,47.14-19.29,53.48-43H91.8V908.85H51Z"/><path class="cls-1" d="M125.7,862.81l41.07-9.92c5.79,14.89,17.92,19.3,28.4,19.3,17.64,0,28.39-11.86,28.39-29.77,0-20.13-14.06-30.88-29.22-30.88-13.78,0-22.33,8.27-29,20.4L133.14,814.3,140,705.69h113v40H177L175,774.05c11-2.76,17.65-3.31,23.71-3.31,39.14,0,66.71,29,66.71,70,0,40.25-24.81,72-70.85,72C162.09,912.71,136.45,897,125.7,862.81Z"/><path class="cls-1" d="M290.26,808.79c0-67.27,23.16-104.48,70-104.48s70,37.21,70,104.48c0,66.71-23.15,103.92-70,103.92S290.26,875.5,290.26,808.79Zm98.42,0c0-44.94-11-64.23-28.4-64.23s-28.39,19.29-28.39,64.23c0,43.55,10.75,63.67,28.39,63.67S388.68,852.34,388.68,808.79Z"/><path class="cls-1" d="M456.49,811c0-72,19.85-108.06,55.41-108.06,27.29,0,42.45,19.85,49.07,46.59l-12.41,3c-6.06-21.5-17.92-34.18-35.56-34.18-34.18,0-43,47.14-44.66,89.86,13.51-27.56,32.26-30.32,43.28-30.32,33.63,0,53.21,28.39,53.21,65.61,0,36.66-20.68,69.19-55.14,69.19C476.34,912.71,456.49,881.56,456.49,811ZM551,844.9c0-28.95-14.33-50.45-37.49-50.45-24.81,0-40,22.88-41.62,40.52-.83,39.42,15.71,62,39.69,62C534.78,897,551,875.22,551,844.9Z"/><path class="cls-1" d="M583.84,808.79c0-67.27,18.47-104.48,56-104.48s56,37.21,56,104.48c0,66.71-18.47,103.92-56,103.92S583.84,875.5,583.84,808.79Zm98.69,0c0-62.31-16.54-89-42.73-89s-42.45,26.74-42.45,89c0,60.92,16.81,88.48,42.45,88.48C665.71,897.27,682.53,869.71,682.53,808.79Z"/></g></g></svg>