<svg xmlns="http://www.w3.org/2000/svg" viewBox="0 0 103.16 104.44"><defs><style>.cls-1{fill:#fff;}</style></defs><title>Asset 3</title><g id="Layer_2" data-name="Layer 2"><g id="Layer_1-2" data-name="Layer 1"><path class="cls-1" d="M3.06,3.07a.18.18,0,0,0,.19-.19V1.73a.19.19,0,0,1,.19-.19h.39A.19.19,0,0,0,4,1.34V1A.18.18,0,0,1,4.21.77h.38a.19.19,0,0,1,.2.19v.38a.19.19,0,0,0,.19.2h.38a.18.18,0,0,1,.19.19V2.88a.19.19,0,0,0,.2.19h.38a.18.18,0,0,1,.19.19V5.18a.19.19,0,0,0,.19.19H6.9a.19.19,0,0,1,.19.19V6a.18.18,0,0,1-.19.19H5A.18.18,0,0,1,4.79,6V5.56A.19.19,0,0,1,5,5.37h.38a.18.18,0,0,0,.19-.19V4.8a.18.18,0,0,0-.19-.19H3.44a.19.19,0,0,0-.19.19v.38a.19.19,0,0,0,.19.19h.39A.19.19,0,0,1,4,5.56V6a.18.18,0,0,1-.19.19H1.91A.18.18,0,0,1,1.72,6V5.56a.19.19,0,0,1,.19-.19h.38a.18.18,0,0,0,.19-.19V3.26a.19.19,0,0,1,.2-.19Zm.4.6a.12.12,0,0,0,.1.17H5.24a.12.12,0,0,0,.11-.17L4.49,1.81a.1.1,0,0,0-.17,0Z"/><path class="cls-1" d="M10.36,7.68a.19.19,0,0,1,.19.19v.38a.19.19,0,0,1-.19.19H8.44a.19.19,0,0,1-.2-.19V7.87a.19.19,0,0,1,.2-.19h.38A.19.19,0,0,0,9,7.48V4a.18.18,0,0,0-.19-.19H8.44a.2.2,0,0,1-.2-.19V3.26a.19.19,0,0,1,.2-.19H9.59a.18.18,0,0,0,.19-.19V2.49A.19.19,0,0,1,10,2.3h1.15a.19.19,0,0,1,.19.19v.39a.19.19,0,0,0,.2.19h.38a.18.18,0,0,1,.19.19V5.18a.18.18,0,0,1-.19.19h-.38a.2.2,0,0,0-.2.19V6a.18.18,0,0,1-.19.19H10a.18.18,0,0,0-.19.19V7.48a.19.19,0,0,0,.19.2Zm1-3.45c0-.86-.34-1.16-.75-1.16s-.78.3-.78,1.16.35,1.14.78,1.14S11.31,5.1,11.31,4.23Z"/><path class="cls-1" d="M17.46,6a.19.19,0,0,1-.19.19H13.81A.18.18,0,0,1,13.62,6V4a.18.18,0,0,1,.19-.19h1.94a.17.17,0,0,0,.15-.19c-.07-.36-.38-.58-1-.58H13.81a.18.18,0,0,1-.19-.19V2.49a.19.19,0,0,1,.19-.19h1.92a.19.19,0,0,1,.19.19v.39a.19.19,0,0,0,.2.19h.38a.18.18,0,0,1,.19.19V5.18a.18.18,0,0,0,.19.19h.39a.2.2,0,0,1,.19.19ZM16.13,5c0-.32-.27-.52-1-.52s-1,.2-1,.52.27.5,1,.5S16.13,5.33,16.13,5Z"/><path class="cls-1" d="M22.07,6a.19.19,0,0,1-.19.19H20a.19.19,0,0,1-.2-.19V5.56a.19.19,0,0,0-.19-.19h-.38A.18.18,0,0,1,19,5.18V4a.18.18,0,0,1,.19-.19h.38a.19.19,0,0,0,.19-.19V3.26a.18.18,0,0,0-.19-.19h-.38A.18.18,0,0,1,19,2.88V1.73a.18.18,0,0,1,.19-.19h.38a.19.19,0,0,0,.19-.2V1A.19.19,0,0,1,20,.77h1.92a.19.19,0,0,1,.19.19v.38a.19.19,0,0,0,.19.2h.38a.18.18,0,0,1,.19.19V2.88a.18.18,0,0,1-.19.19h-.38a.18.18,0,0,0-.19.19v.39a.19.19,0,0,0,.19.19h.38a.18.18,0,0,1,.19.19V5.18a.18.18,0,0,1-.19.19h-.38a.19.19,0,0,0-.19.19ZM20.92,1.5c-.71,0-1.16.29-1.16.8s.45.81,1.16.81,1.15-.29,1.15-.81S21.62,1.5,20.92,1.5Zm1.15,3.11c0-.52-.45-.81-1.15-.81s-1.16.29-1.16.81.45.8,1.16.8S22.07,5.12,22.07,4.61Z"/><path class="cls-1" d="M28.4,5.37a.19.19,0,0,0-.19.19V6a.18.18,0,0,1-.19.19H24.56A.19.19,0,0,1,24.37,6V5.56a.2.2,0,0,1,.19-.19H25a.18.18,0,0,0,.19-.19V1.73A.18.18,0,0,0,25,1.54h-.39a.2.2,0,0,1-.19-.2V1a.19.19,0,0,1,.19-.19H28a.18.18,0,0,1,.19.19v.38a.19.19,0,0,0,.19.2h.39a.19.19,0,0,1,.19.19V2.88a.19.19,0,0,1-.19.19H28.4a.18.18,0,0,0-.19.19v.39a.19.19,0,0,0,.19.19h.39A.19.19,0,0,1,29,4V5.18a.19.19,0,0,1-.19.19ZM27.06,1.54h-1a.18.18,0,0,0-.19.19V2.88a.18.18,0,0,0,.19.19h1c.78,0,1.15-.23,1.15-.77S27.84,1.54,27.06,1.54Zm0,3.83c.78,0,1.15-.22,1.15-.76s-.37-.77-1.15-.77h-1a.18.18,0,0,0-.19.19V5.18a.18.18,0,0,0,.19.19Z"/><path class="cls-1" d="M33.59,6a.19.19,0,0,1-.2.19H31.48a.19.19,0,0,1-.2-.19V5.56a.19.19,0,0,0-.19-.19h-.38a.18.18,0,0,1-.19-.19V1.73a.18.18,0,0,1,.19-.19h.38a.19.19,0,0,0,.19-.2V1a.19.19,0,0,1,.2-.19h1.91a.19.19,0,0,1,.2.19v.38a.19.19,0,0,0,.19.2h.38a.18.18,0,0,1,.19.19V5.18a.18.18,0,0,1-.19.19h-.38a.19.19,0,0,0-.19.19Zm0-2.5c0-1.39-.42-2-1.15-2s-1.16.62-1.16,2,.42,2,1.16,2S33.59,4.85,33.59,3.45Z"/><path class="cls-1" d="M36.85,0A.18.18,0,0,1,37,.19V2.11a.19.19,0,0,0,.2.19h1.15a.19.19,0,0,1,.19.19v.39a.18.18,0,0,0,.19.19h.38a.19.19,0,0,1,.2.19V5.18a.19.19,0,0,1-.2.19h-.38a.19.19,0,0,0-.19.19V6a.18.18,0,0,1-.19.19H37.24A.19.19,0,0,1,37,6V5.56a.19.19,0,0,0-.19-.19H35.7a.18.18,0,0,1-.19-.19V4.8a.18.18,0,0,1,.19-.19h.38a.2.2,0,0,0,.2-.2V1a.19.19,0,0,0-.2-.19H35.7a.19.19,0,0,1-.19-.19V.19A.18.18,0,0,1,35.7,0Zm1.73,4.21c0-.86-.35-1.14-.76-1.14S37,3.35,37,4.21s.35,1.16.78,1.16S38.58,5.07,38.58,4.21Z"/><path class="cls-1" d="M42.8,6a.18.18,0,0,1-.19.19h-.77A.19.19,0,0,1,41.65,6V5.56a.19.19,0,0,0-.19-.19h-.38a.19.19,0,0,1-.2-.19V1a.19.19,0,0,1,.2-.19h.38a.19.19,0,0,0,.19-.19V.19A.19.19,0,0,1,41.84,0h.77a.18.18,0,0,1,.19.19V.55a.22.22,0,0,1-.19.24c-.65.15-1.08.88-1.08,2.28S42,5.21,42.61,5.35a.22.22,0,0,1,.19.24Z"/><path class="cls-1" d="M47.79,6a.18.18,0,0,1-.19.19h-.38A.18.18,0,0,1,47,6V5.56a.2.2,0,0,0-.2-.19h-.38a.19.19,0,0,0-.19.19V6a.19.19,0,0,1-.19.19h-.39A.19.19,0,0,1,45.49,6V4.8a.18.18,0,0,0-.19-.19h-.38a.2.2,0,0,1-.2-.2V3.26a.18.18,0,0,0-.19-.19h-.38A.18.18,0,0,1,44,2.88V2.49a.19.19,0,0,1,.19-.19h.77a.3.3,0,0,1,.26.18l1,2.33c0,.05.07,0,.07,0l0-1.53a.18.18,0,0,1,.19-.19h.38a.19.19,0,0,1,.2.19l0,1.53s.06.07.07,0l1-2.33a.28.28,0,0,1,.26-.18h.77a.19.19,0,0,1,.19.19v.39a.18.18,0,0,1-.19.19h-.39a.19.19,0,0,0-.19.19V4.41a.19.19,0,0,1-.19.2H48a.19.19,0,0,0-.2.19Z"/><path class="cls-1" d="M55.86,5.18a.19.19,0,0,1-.19.19h-.39a.19.19,0,0,0-.19.19V6a.19.19,0,0,1-.19.19H51.44A.18.18,0,0,1,51.25,6V5.56a.19.19,0,0,0-.19-.19h-.38a.19.19,0,0,1-.2-.19V1.73a.19.19,0,0,1,.2-.19h.38a.19.19,0,0,0,.19-.2V1a.18.18,0,0,1,.19-.19H54.9a.19.19,0,0,1,.19.19v.38a.19.19,0,0,0,.19.2h.39a.19.19,0,0,1,.19.19Zm-.47-1.73a2.21,2.21,0,1,0-4.41,0,2.21,2.21,0,1,0,4.41,0ZM54.13,4.61H52.21a.19.19,0,0,1-.19-.2V2.49a.19.19,0,0,1,.19-.19h1.92a.19.19,0,0,1,.19.19v.39a.18.18,0,0,1-.19.19H54a.42.42,0,0,1-.36-.16.72.72,0,0,0-.51-.21.7.7,0,0,0-.7.75.7.7,0,0,0,.7.76A.67.67,0,0,0,53.67,4a.42.42,0,0,1,.38-.15h.08a.18.18,0,0,1,.19.19v.38A.19.19,0,0,1,54.13,4.61Z"/><path class="cls-1" d="M59.51,5.37a.2.2,0,0,1,.19.19V6a.19.19,0,0,1-.19.19H57.59A.18.18,0,0,1,57.4,6V5.56a.19.19,0,0,1,.19-.19H58a.18.18,0,0,0,.19-.19V1.73A.18.18,0,0,0,58,1.54h-.38a.19.19,0,0,1-.19-.2V1a.18.18,0,0,1,.19-.19h1.92A.19.19,0,0,1,59.7,1v.38a.2.2,0,0,1-.19.2h-.39a.18.18,0,0,0-.19.19V2.88a.18.18,0,0,0,.19.19H61a.18.18,0,0,0,.19-.19V1.73A.18.18,0,0,0,61,1.54h-.38a.19.19,0,0,1-.19-.2V1a.18.18,0,0,1,.19-.19h1.92a.19.19,0,0,1,.19.19v.38a.2.2,0,0,1-.19.2h-.39a.18.18,0,0,0-.19.19V5.18a.18.18,0,0,0,.19.19h.39a.2.2,0,0,1,.19.19V6a.19.19,0,0,1-.19.19H60.66A.18.18,0,0,1,60.47,6V5.56a.19.19,0,0,1,.19-.19H61a.18.18,0,0,0,.19-.19V4A.18.18,0,0,0,61,3.84H59.12a.18.18,0,0,0-.19.19V5.18a.18.18,0,0,0,.19.19Z"/><path class="cls-1" d="M65.16,6.72a.19.19,0,0,1-.19.19h-.24a.19.19,0,0,1-.19-.19V6.37a.24.24,0,0,0-.2-.27.61.61,0,0,1-.42-.58.62.62,0,0,1,1.24,0Z"/><path class="cls-1" d="M69.11,5a.31.31,0,0,1,.31-.18h.35A.19.19,0,0,1,70,5v.19a.19.19,0,0,1-.19.19h-.2a.2.2,0,0,0-.19.19V6a.18.18,0,0,1-.19.19H67.27A.18.18,0,0,1,67.08,6V5.56a.19.19,0,0,0-.19-.19H66.5a.19.19,0,0,1-.19-.19V3.26a.19.19,0,0,1,.19-.19h.39a.18.18,0,0,0,.19-.19V2.49a.19.19,0,0,1,.19-.19h1.92a.19.19,0,0,1,.19.19v.39a.19.19,0,0,0,.19.19h.2a.19.19,0,0,1,.19.19v.19a.2.2,0,0,1-.19.2h-.35a.31.31,0,0,1-.31-.18.9.9,0,0,0-.88-.4,1,1,0,0,0-1.15,1.15,1,1,0,0,0,1.15,1.15A.91.91,0,0,0,69.11,5Z"/><path class="cls-1" d="M72.84,3.84A.19.19,0,0,0,73,3.65V3.26a.18.18,0,0,1,.19-.19h.39a.19.19,0,0,0,.19-.19V2.49A.19.19,0,0,1,74,2.3h.38a.19.19,0,0,0,.2-.19V1.73a.19.19,0,0,0-.2-.19H72.46a.19.19,0,0,0-.2.19v.38a.18.18,0,0,1-.19.19h-.38a.18.18,0,0,1-.19-.19V1a.18.18,0,0,1,.19-.19h3.45a.18.18,0,0,1,.19.19V2.11a.42.42,0,0,1-.13.32l-2,2A.51.51,0,0,0,73,4.8V6a.18.18,0,0,1-.19.19h-.38a.19.19,0,0,1-.2-.19V4a.19.19,0,0,1,.2-.19Z"/><path class="cls-1" d="M79.17,6a.18.18,0,0,1-.19.19H77.06A.19.19,0,0,1,76.87,6V5.56a.2.2,0,0,1,.19-.19h.39a.19.19,0,0,0,.19-.19V1a.19.19,0,0,0-.19-.19h-.39a.2.2,0,0,1-.19-.19V.19A.19.19,0,0,1,77.06,0h1.15a.19.19,0,0,1,.2.19v5a.18.18,0,0,0,.19.19H79a.19.19,0,0,1,.19.19Z"/><path class="cls-1" d="M84.74,5.37a.19.19,0,0,0-.19.19V6a.19.19,0,0,1-.19.19H80.9A.18.18,0,0,1,80.71,6V5.56a.19.19,0,0,1,.19-.19h.39a.19.19,0,0,0,.19-.19V1.73a.19.19,0,0,0-.19-.19H80.9a.19.19,0,0,1-.19-.2V1A.18.18,0,0,1,80.9.77h3.46a.19.19,0,0,1,.19.19v.38a.19.19,0,0,0,.19.2h.38a.19.19,0,0,1,.2.19v.38a.18.18,0,0,0,.19.19h.38a.19.19,0,0,1,.19.19V4.41a.19.19,0,0,1-.19.2h-.38a.18.18,0,0,0-.19.19v.38a.19.19,0,0,1-.2.19Zm.46-1.92c0-1.38-1-1.91-2.19-1.91h-.57a.18.18,0,0,0-.19.19V5.18a.18.18,0,0,0,.19.19H83C84.15,5.37,85.2,4.83,85.2,3.45Z"/><path class="cls-1" d="M90.88,5.37a.2.2,0,0,0-.19.19V6a.18.18,0,0,1-.19.19H88.58A.18.18,0,0,1,88.39,6V5.56a.19.19,0,0,0-.19-.19h-.39a.19.19,0,0,1-.19-.19V1.73a.19.19,0,0,1,.19-.19h.39a.19.19,0,0,0,.19-.2V1a.18.18,0,0,1,.19-.19h2.3a.19.19,0,0,1,.2.19V2.11a.19.19,0,0,1-.2.19H90.5a.18.18,0,0,1-.19-.19v-.4a.18.18,0,0,0-.18-.17h-.2c-1,0-1.49.33-1.54,1.34a.2.2,0,0,0,.19.19H90.5a.18.18,0,0,1,.19.19v.39a.2.2,0,0,0,.19.19h.39a.18.18,0,0,1,.19.19V5.18a.18.18,0,0,1-.19.19Zm-.19-.76c0-.48-.44-.77-1.15-.77s-1.15.29-1.15.77.44.76,1.15.76S90.69,5.09,90.69,4.61Z"/><path class="cls-1" d="M96.45,6a.18.18,0,0,1-.19.19h-.38A.18.18,0,0,1,95.69,6V5.56a.2.2,0,0,0-.2-.19h-.38a.19.19,0,0,0-.19.19V6a.19.19,0,0,1-.19.19h-.39A.18.18,0,0,1,94.15,6V4.8A.18.18,0,0,0,94,4.61h-.39a.2.2,0,0,1-.19-.2V3.26a.18.18,0,0,0-.19-.19h-.38a.18.18,0,0,1-.19-.19V2.49a.19.19,0,0,1,.19-.19h.76a.3.3,0,0,1,.27.18l1,2.33c0,.05.07,0,.07,0l0-1.53a.18.18,0,0,1,.19-.19h.38a.19.19,0,0,1,.2.19l0,1.53s.06.07.07,0l1-2.33A.3.3,0,0,1,97,2.3h.77a.2.2,0,0,1,.19.19v.39a.19.19,0,0,1-.19.19h-.39a.18.18,0,0,0-.19.19V4.41a.19.19,0,0,1-.19.2h-.39a.19.19,0,0,0-.19.19Z"/><path class="cls-1" d="M99.33,6.14A.19.19,0,0,1,99.14,6V.19A.19.19,0,0,1,99.33,0h1.16a.19.19,0,0,1,.19.19V.58a.2.2,0,0,1-.19.19h-.39a.18.18,0,0,0-.19.19V5.18a.18.18,0,0,0,.19.19h.39a.2.2,0,0,1,.19.19V6a.19.19,0,0,1-.19.19Z"/><path class="cls-1" d="M2.67,12.19a.19.19,0,0,1,.2-.19H4a.18.18,0,0,1,.19.19v4.22a.19.19,0,0,0,.19.2h.39A.19.19,0,0,1,5,16.8v.38a.19.19,0,0,1-.19.19H3.63a.2.2,0,0,0-.19.19V18a.18.18,0,0,1-.19.19H2.1A.18.18,0,0,1,1.91,18v-.39a.2.2,0,0,0-.19-.19H1.33a.18.18,0,0,1-.19-.19V15.26a.18.18,0,0,1,.19-.19h.39a.19.19,0,0,0,.19-.19v-.39a.19.19,0,0,1,.19-.19H3.25a.18.18,0,0,0,.19-.19V13a.18.18,0,0,0-.19-.19H2.87a.2.2,0,0,1-.2-.19Zm.77,4c0-.86-.35-1.14-.78-1.14s-.75.28-.75,1.14.34,1.16.75,1.16S3.44,17.07,3.44,16.21Z"/><path class="cls-1" d="M9.59,16.08c0-.7-.36-1-.77-1s-.77.31-.77,1v1.1a.18.18,0,0,0,.19.19h.39a.2.2,0,0,1,.19.19V18a.19.19,0,0,1-.19.19H6.71A.18.18,0,0,1,6.52,18v-.39a.19.19,0,0,1,.19-.19h.38a.18.18,0,0,0,.19-.19V13a.18.18,0,0,0-.19-.19H6.71a.19.19,0,0,1-.19-.19v-.39A.18.18,0,0,1,6.71,12H7.86a.18.18,0,0,1,.19.19v1.92a.18.18,0,0,0,.19.19H9.39a.2.2,0,0,1,.2.19v.39a.18.18,0,0,0,.19.19h.38a.18.18,0,0,1,.19.19v1.92a.19.19,0,0,0,.2.19h.38a.19.19,0,0,1,.19.19V18a.18.18,0,0,1-.19.19H9.78A.18.18,0,0,1,9.59,18Z"/><path class="cls-1" d="M13.24,15.07a.19.19,0,0,0,.19-.19v-.39a.19.19,0,0,1,.19-.19h1.92a.19.19,0,0,1,.19.19v.39a.18.18,0,0,0,.19.19h.19a.19.19,0,0,1,.2.19v.39a.2.2,0,0,1-.2.19h-.19a.18.18,0,0,0-.19.19v.38a.19.19,0,0,1-.19.2H13.6a.16.16,0,0,0-.15.19c.07.36.38.57,1,.57h1.09a.19.19,0,0,1,.19.19V18a.18.18,0,0,1-.19.19H13.62a.18.18,0,0,1-.19-.19v-.39a.2.2,0,0,0-.19-.19h-.39a.18.18,0,0,1-.19-.19V15.26a.18.18,0,0,1,.19-.19Zm1.95.77a.17.17,0,0,0,.16-.19,1,1,0,0,0-1.9,0,.17.17,0,0,0,.16.19Z"/><path class="cls-1" d="M20.91,18a.18.18,0,0,1-.19.19H18.8a.19.19,0,0,1-.19-.19v-.39a.19.19,0,0,0-.19-.19H18a.19.19,0,0,1-.2-.19V16.8a.19.19,0,0,1,.2-.19h.34a.26.26,0,0,1,.28.19c.13.37.54.57,1.1.57s1.15-.21,1.15-.76-.38-.77-1.52-.77h-.2a.19.19,0,0,1-.19-.19v-.4a.18.18,0,0,1,.19-.18h.2c1.14,0,1.52-.22,1.52-.77s-.5-.76-1.15-.76-1,.2-1.1.57a.26.26,0,0,1-.28.19H18a.19.19,0,0,1-.2-.19v-.38a.19.19,0,0,1,.2-.19h.38a.19.19,0,0,0,.19-.2V13a.19.19,0,0,1,.19-.19h1.92a.18.18,0,0,1,.19.19v.38a.2.2,0,0,0,.2.2h.38a.18.18,0,0,1,.19.19v1.15a.18.18,0,0,1-.19.19h-.38a.19.19,0,0,0-.2.19v.39a.2.2,0,0,0,.2.19h.38a.18.18,0,0,1,.19.19v1.15a.18.18,0,0,1-.19.19h-.38a.2.2,0,0,0-.2.19Z"/><path class="cls-1" d="M27.63,16.61a.19.19,0,0,1,.2.19V18a.19.19,0,0,1-.2.19H23.41a.18.18,0,0,1-.19-.19v-.39a.19.19,0,0,1,.19-.19h.38a.19.19,0,0,0,.2-.19V13.73a.19.19,0,0,0-.2-.19h-.38a.19.19,0,0,1-.19-.2V13a.18.18,0,0,1,.19-.19h4.22a.19.19,0,0,1,.2.19v1.15a.19.19,0,0,1-.2.19h-.38a.18.18,0,0,1-.19-.19v-.38a.19.19,0,0,0-.19-.19H25a.19.19,0,0,0-.2.19v1.15a.19.19,0,0,0,.2.19h.38a.18.18,0,0,0,.19-.19v-.39a.2.2,0,0,1,.19-.19h.39a.19.19,0,0,1,.19.19v1.92a.19.19,0,0,1-.19.2h-.39a.2.2,0,0,1-.19-.2V16a.18.18,0,0,0-.19-.19H25a.19.19,0,0,0-.2.19v1.15a.19.19,0,0,0,.2.19h1.92a.19.19,0,0,0,.19-.19V16.8a.18.18,0,0,1,.19-.19Z"/><path class="cls-1" d="M31.86,14.3a.19.19,0,0,1,.19.19v.39a.18.18,0,0,1-.19.19H29.17a.18.18,0,0,1-.19-.19v-.39a.19.19,0,0,1,.19-.19Zm0,1.54a.18.18,0,0,1,.19.19v.38a.19.19,0,0,1-.19.2H29.17a.19.19,0,0,1-.19-.2V16a.18.18,0,0,1,.19-.19Z"/><path class="cls-1" d="M34.05,18.72a.19.19,0,0,1-.19.19h-.24a.2.2,0,0,1-.19-.19v-.35a.24.24,0,0,0-.19-.27.61.61,0,1,1,.81-.58Z"/><path class="cls-1" d="M36.74,17.18a.19.19,0,0,0,.19.19h.39a.19.19,0,0,1,.19.19V18a.18.18,0,0,1-.19.19H35.4a.18.18,0,0,1-.19-.19v-.39a.19.19,0,0,1,.19-.19h.38a.18.18,0,0,0,.19-.19V13.73a.18.18,0,0,0-.19-.19H35.4a.19.19,0,0,1-.19-.2V13a.18.18,0,0,1,.19-.19h4.22a.18.18,0,0,1,.19.19v1.15a.18.18,0,0,1-.19.19h-.38a.19.19,0,0,1-.2-.19v-.38a.18.18,0,0,0-.19-.19H36.93a.19.19,0,0,0-.19.19v1.15a.19.19,0,0,0,.19.19h.39a.18.18,0,0,0,.19-.19v-.39a.19.19,0,0,1,.19-.19h.39a.2.2,0,0,1,.19.19v1.92a.2.2,0,0,1-.19.2H37.7a.19.19,0,0,1-.19-.2V16a.18.18,0,0,0-.19-.19h-.39a.19.19,0,0,0-.19.19Z"/><path class="cls-1" d="M45.19,18a.18.18,0,0,1-.19.19H43.08a.18.18,0,0,1-.19-.19v-.39a.19.19,0,0,1,.19-.19h.38a.18.18,0,0,0,.19-.19V16a.18.18,0,0,0-.19-.19H41.54a.2.2,0,0,1-.19-.19V13a.19.19,0,0,1,.19-.19h.39a.18.18,0,0,1,.19.19v1.92a.18.18,0,0,0,.19.19h1.15a.18.18,0,0,0,.19-.19V13a.19.19,0,0,1,.2-.19h.38a.18.18,0,0,1,.19.19v1.92a.19.19,0,0,0,.19.19H45a.18.18,0,0,1,.19.19v.39a.19.19,0,0,1-.19.19h-.39a.19.19,0,0,0-.19.19v1.15a.19.19,0,0,0,.19.19H45a.19.19,0,0,1,.19.19Z"/><path class="cls-1" d="M48.05,18.14h-.36A.18.18,0,0,1,47.5,18V16.8a.19.19,0,0,0-.2-.19h-.38a.19.19,0,0,1-.19-.2v-.36a.19.19,0,0,1,.19-.19h.38a.19.19,0,0,0,.2-.19v-.43a.19.19,0,0,0-.2-.19h-.38a.19.19,0,0,1-.19-.2v-.36a.19.19,0,0,1,.19-.19h.38a.19.19,0,0,0,.2-.19V13a.18.18,0,0,1,.19-.19h.36a.19.19,0,0,1,.19.19v1.15a.18.18,0,0,0,.19.19h.43a.18.18,0,0,0,.19-.19V13a.19.19,0,0,1,.2-.19h.36a.19.19,0,0,1,.19.19v1.15a.18.18,0,0,0,.19.19h.38a.2.2,0,0,1,.2.19v.36a.2.2,0,0,1-.2.2H50a.18.18,0,0,0-.19.19v.43a.18.18,0,0,0,.19.19h.38a.2.2,0,0,1,.2.19v.36a.2.2,0,0,1-.2.2H50a.18.18,0,0,0-.19.19V18a.19.19,0,0,1-.19.19h-.36a.19.19,0,0,1-.2-.19V16.8a.18.18,0,0,0-.19-.19h-.43a.18.18,0,0,0-.19.19V18A.19.19,0,0,1,48.05,18.14Zm1.05-2.93a.23.23,0,0,0-.21-.21h-.48a.24.24,0,0,0-.22.21v.48a.24.24,0,0,0,.22.22h.48a.24.24,0,0,0,.21-.22Z"/><path class="cls-1" d="M55.17,18a.18.18,0,0,1-.19.19H53.06a.19.19,0,0,1-.19-.19v-.39a.19.19,0,0,0-.19-.19h-.39a.19.19,0,0,1-.19-.19V13.73a.19.19,0,0,1,.19-.19h.39a.19.19,0,0,0,.19-.2V13a.19.19,0,0,1,.19-.19H55a.18.18,0,0,1,.19.19v.38a.2.2,0,0,0,.2.2h.38a.18.18,0,0,1,.19.19v3.45a.18.18,0,0,1-.19.19h-.38a.2.2,0,0,0-.2.19Zm0-2.5c0-1.39-.42-2-1.15-2s-1.15.62-1.15,2,.42,2,1.15,2S55.17,16.85,55.17,15.45Z"/><path class="cls-1" d="M59,16V18a.18.18,0,0,1-.19.19H57.67a.18.18,0,0,1-.19-.19v-.39a.19.19,0,0,1,.19-.19h.38a.19.19,0,0,0,.2-.19V16a.19.19,0,0,0-.2-.19h-.38a.19.19,0,0,1-.19-.19v-.39a.18.18,0,0,1,.19-.19h1.15a.18.18,0,0,0,.19-.19v-.39a.2.2,0,0,1,.2-.19h.38a.19.19,0,0,1,.19.19v.39a.19.19,0,0,0,.19.19h.39a.18.18,0,0,0,.19-.19v-.39a.19.19,0,0,1,.19-.19h.38a.2.2,0,0,1,.2.19v.39a.18.18,0,0,0,.19.19h.38a.18.18,0,0,1,.19.19v1.92a.19.19,0,0,0,.2.19h.38a.19.19,0,0,1,.19.19V18a.18.18,0,0,1-.19.19H61.51a.18.18,0,0,1-.19-.19V16c0-.49-.12-.69-.39-.69s-.38.2-.38.69V18a.18.18,0,0,1-.19.19H60a.19.19,0,0,1-.19-.19V16c0-.49-.12-.69-.38-.69S59,15.53,59,16Z"/><path class="cls-1" d="M65.73,15.84a.2.2,0,0,0,.2-.19v-.39a.18.18,0,0,1,.19-.19h.38a.18.18,0,0,0,.19-.19v-.39a.2.2,0,0,1,.2-.19h.38a.18.18,0,0,0,.19-.19v-.38a.18.18,0,0,0-.19-.19H65.35a.18.18,0,0,0-.19.19v.38a.18.18,0,0,1-.19.19h-.39a.19.19,0,0,1-.19-.19V13a.19.19,0,0,1,.19-.19H68a.18.18,0,0,1,.19.19v1.15a.46.46,0,0,1-.13.32l-2,2a.46.46,0,0,0-.13.33V18a.19.19,0,0,1-.2.19h-.38a.18.18,0,0,1-.19-.19V16a.18.18,0,0,1,.19-.19Z"/><path class="cls-1" d="M72.84,12.58a.19.19,0,0,0,.19.19h.38a.19.19,0,0,1,.2.19v.38a.2.2,0,0,1-.2.2h-.36a.21.21,0,0,1-.22-.2.7.7,0,0,0-.76-.57.7.7,0,0,0-.77.77v.57a.19.19,0,0,0,.19.19h1.16a.2.2,0,0,1,.19.19v.39a.19.19,0,0,1-.19.19H71.49a.19.19,0,0,0-.19.19v1.92a.19.19,0,0,0,.19.19h.39a.19.19,0,0,1,.19.19V18a.18.18,0,0,1-.19.19H70a.18.18,0,0,1-.19-.19v-.39a.19.19,0,0,1,.19-.19h.38a.19.19,0,0,0,.2-.19V15.26a.19.19,0,0,0-.2-.19H70a.18.18,0,0,1-.19-.19v-.39A.19.19,0,0,1,70,14.3h.38a.19.19,0,0,0,.2-.19V13a.18.18,0,0,1,.19-.19h.38a.19.19,0,0,0,.19-.19v-.39a.19.19,0,0,1,.19-.19h1.16a.19.19,0,0,1,.19.19Z"/><path class="cls-1" d="M76.29,18a.18.18,0,0,1-.19.19H74.18A.19.19,0,0,1,74,18v-.39a.2.2,0,0,1,.19-.19h.39a.19.19,0,0,0,.19-.19V13.73a.19.19,0,0,0-.19-.19h-.39a.2.2,0,0,1-.19-.2V13a.19.19,0,0,1,.19-.19h1.15a.19.19,0,0,1,.2.19v.38a.19.19,0,0,0,.19.2h.38a.18.18,0,0,1,.19.19v.38a.19.19,0,0,0,.2.19h.38a.19.19,0,0,1,.19.19v.39a.19.19,0,0,0,.19.19h.39a.18.18,0,0,1,.19.19v.39a.19.19,0,0,0,.19.19h.38a.2.2,0,0,0,.2-.19V13.73a.19.19,0,0,0-.2-.19H78a.19.19,0,0,1-.19-.2V13a.18.18,0,0,1,.19-.19h1.92a.18.18,0,0,1,.19.19v.38a.19.19,0,0,1-.19.2h-.38a.19.19,0,0,0-.2.19v3.45a.19.19,0,0,0,.2.19h.38a.19.19,0,0,1,.19.19V18a.18.18,0,0,1-.19.19H78.79A.18.18,0,0,1,78.6,18v-.39a.45.45,0,0,0-.14-.32l-2.8-2.81a.08.08,0,0,0-.13.06v2.69a.18.18,0,0,0,.19.19h.38a.19.19,0,0,1,.19.19Z"/><path class="cls-1" d="M84.74,16.61c0-.48-.48-.77-1.15-.77h-1a.19.19,0,0,1-.19-.19v-.39a.19.19,0,0,0-.19-.19h-.39a.18.18,0,0,1-.19-.19V13a.18.18,0,0,1,.19-.19h3.46a.19.19,0,0,1,.19.19v1.15a.19.19,0,0,1-.19.19h-.39a.19.19,0,0,1-.19-.19v-.38a.18.18,0,0,0-.19-.19H82.63a.18.18,0,0,0-.19.19v.45a.83.83,0,0,0,.89.89h1.22a.18.18,0,0,1,.19.19v.39a.2.2,0,0,0,.19.19h.39a.19.19,0,0,1,.19.19v1.15a.19.19,0,0,1-.19.19h-.39a.2.2,0,0,0-.19.19V18a.18.18,0,0,1-.19.19H82.63a.18.18,0,0,1-.19-.19v-.39a.2.2,0,0,0-.19-.19h-.39a.18.18,0,0,1-.19-.19V16.8a.18.18,0,0,1,.19-.19h.36a.29.29,0,0,1,.28.18,1.09,1.09,0,0,0,1.09.58C84.21,17.37,84.74,17.11,84.74,16.61Z"/><path class="cls-1" d="M90.12,18a.19.19,0,0,1-.19.19H88a.19.19,0,0,1-.2-.19v-.39a.19.19,0,0,0-.19-.19h-.38a.18.18,0,0,1-.19-.19V16a.18.18,0,0,1,.19-.19h.38a.19.19,0,0,0,.19-.19v-.39a.18.18,0,0,0-.19-.19h-.38a.18.18,0,0,1-.19-.19V13.73a.18.18,0,0,1,.19-.19h.38a.19.19,0,0,0,.19-.2V13a.19.19,0,0,1,.2-.19h1.92a.19.19,0,0,1,.19.19v.38a.19.19,0,0,0,.19.2h.38a.18.18,0,0,1,.19.19v1.15a.18.18,0,0,1-.19.19h-.38a.18.18,0,0,0-.19.19v.39a.19.19,0,0,0,.19.19h.38a.18.18,0,0,1,.19.19v1.15a.18.18,0,0,1-.19.19h-.38a.19.19,0,0,0-.19.19ZM89,13.5c-.71,0-1.16.29-1.16.8s.45.81,1.16.81,1.15-.29,1.15-.81S89.67,13.5,89,13.5Zm1.15,3.11c0-.52-.45-.81-1.15-.81s-1.16.29-1.16.81.45.8,1.16.8S90.12,17.12,90.12,16.61Z"/><path class="cls-1" d="M96.26,18a.18.18,0,0,1-.19.19H92.62a.19.19,0,0,1-.2-.19V16a.19.19,0,0,1,.2-.19h1.94a.16.16,0,0,0,.14-.19c-.07-.36-.38-.58-1-.58H92.62a.19.19,0,0,1-.2-.19v-.39a.2.2,0,0,1,.2-.19h1.91a.2.2,0,0,1,.2.19v.39a.18.18,0,0,0,.19.19h.38a.18.18,0,0,1,.19.19v1.92a.19.19,0,0,0,.2.19h.38a.19.19,0,0,1,.19.19Zm-1.33-1c0-.32-.26-.52-1-.52s-1,.2-1,.52.26.5,1,.5S94.93,17.33,94.93,17Z"/><path class="cls-1" d="M99.91,17.37a.19.19,0,0,1,.19.19V18a.18.18,0,0,1-.19.19H98A.18.18,0,0,1,97.8,18v-.39a.19.19,0,0,1,.19-.19h.39a.19.19,0,0,0,.19-.19V16a.19.19,0,0,0-.19-.19H98a.19.19,0,0,1-.19-.19v-.39a.18.18,0,0,1,.19-.19h1.15a.18.18,0,0,0,.19-.19v-.39a.2.2,0,0,1,.2-.19h1.15a.19.19,0,0,1,.19.19v.39a.18.18,0,0,0,.19.19h.39a.19.19,0,0,1,.19.19v.39a.2.2,0,0,1-.19.19h-.37a.2.2,0,0,1-.22-.19.7.7,0,0,0-.76-.58.7.7,0,0,0-.77.77v1.34a.19.19,0,0,0,.2.19Z"/><path class="cls-1" d="M6.34,28.08c0-.7-.36-1-.77-1s-.76.31-.76,1v1.1a.18.18,0,0,0,.19.19h.38a.19.19,0,0,1,.19.19V30a.18.18,0,0,1-.19.19H3.46A.18.18,0,0,1,3.27,30v-.39a.19.19,0,0,1,.19-.19h.39A.19.19,0,0,0,4,29.18V28a.19.19,0,0,0-.19-.19H3.46a.19.19,0,0,1-.19-.19v-.39a.18.18,0,0,1,.19-.19H4.61a.19.19,0,0,0,.2-.19v-.39A.19.19,0,0,1,5,26.3H6.15a.19.19,0,0,1,.19.19v.39a.18.18,0,0,0,.19.19h.39a.19.19,0,0,1,.19.19v1.92a.18.18,0,0,0,.19.19h.38a.2.2,0,0,1,.2.19V30a.19.19,0,0,1-.2.19H6.53A.18.18,0,0,1,6.34,30Z"/><path class="cls-1" d="M13.44,29.37a.2.2,0,0,0-.19.19V30a.18.18,0,0,1-.19.19H10.37a.19.19,0,0,1-.19-.19v-.39a.19.19,0,0,0-.19-.19H9.61a.19.19,0,0,1-.2-.19V25.73a.19.19,0,0,1,.2-.19H10a.19.19,0,0,0,.19-.2V25a.19.19,0,0,1,.19-.19h2.69a.18.18,0,0,1,.19.19v.38a.2.2,0,0,0,.19.2h.27a.18.18,0,0,1,.19.19v.38a.18.18,0,0,1-.19.19h-.42a.3.3,0,0,1-.3-.18,1.29,1.29,0,0,0-1.18-.58c-.87,0-1.63.55-1.63,1.91s.77,1.92,1.6,1.92,1.42-.46,1.42-1a.17.17,0,0,0-.18-.19h-.73A.18.18,0,0,1,12.1,28v-.38a.19.19,0,0,1,.19-.2h1.54a.19.19,0,0,1,.19.2v1.53a.18.18,0,0,1-.19.19Z"/><path class="cls-1" d="M18.25,30a.19.19,0,0,1-.2.19h-.38a.18.18,0,0,1-.19-.19v-.39a.2.2,0,0,0-.19-.19H16.9a.18.18,0,0,1-.19-.19V27.26a.18.18,0,0,0-.19-.19h-.39a.19.19,0,0,1-.19-.19V25.73a.18.18,0,0,0-.19-.19h-.38a.2.2,0,0,1-.2-.2V25a.19.19,0,0,1,.2-.19h.88a.28.28,0,0,1,.26.18l1.29,4.24a.06.06,0,0,0,.12,0L19.22,25a.26.26,0,0,1,.25-.18h.89a.19.19,0,0,1,.19.19v.38a.2.2,0,0,1-.19.2H20a.18.18,0,0,0-.19.19v1.15a.18.18,0,0,1-.19.19H19.2a.19.19,0,0,0-.19.19v1.92a.18.18,0,0,1-.19.19h-.38a.19.19,0,0,0-.19.19Z"/><path class="cls-1" d="M24.77,28.61c0-.48-.48-.77-1.15-.77h-1a.19.19,0,0,1-.19-.19v-.39a.18.18,0,0,0-.19-.19h-.39a.19.19,0,0,1-.19-.19V25a.19.19,0,0,1,.19-.19h3.46a.18.18,0,0,1,.19.19v1.15a.18.18,0,0,1-.19.19H25a.19.19,0,0,1-.19-.19v-.38a.18.18,0,0,0-.19-.19H22.66a.18.18,0,0,0-.19.19v.45a.83.83,0,0,0,.89.89h1.22a.18.18,0,0,1,.19.19v.39a.2.2,0,0,0,.19.19h.39a.18.18,0,0,1,.19.19v1.15a.18.18,0,0,1-.19.19H25a.2.2,0,0,0-.19.19V30a.18.18,0,0,1-.19.19H22.66a.18.18,0,0,1-.19-.19v-.39a.19.19,0,0,0-.19-.19h-.39a.19.19,0,0,1-.19-.19V28.8a.19.19,0,0,1,.19-.19h.36a.28.28,0,0,1,.28.18,1.09,1.09,0,0,0,1.09.58C24.24,29.37,24.77,29.11,24.77,28.61Z"/><path class="cls-1" d="M28,32.44a.18.18,0,0,1-.19-.19v-.38a.19.19,0,0,0-.2-.19h-.38a.19.19,0,0,1-.19-.2V31.1a.18.18,0,0,1,.19-.19h.36a.33.33,0,0,1,.3.18,1.13,1.13,0,0,0,1,.59,1.17,1.17,0,0,0,1.21-1.12v-.23a.19.19,0,0,0-.19-.19H28a.18.18,0,0,1-.19-.19v-.39a.2.2,0,0,0-.2-.19h-.38a.18.18,0,0,1-.19-.19V27.26a.18.18,0,0,1,.19-.19h.38a.19.19,0,0,0,.2-.19v-.39A.19.19,0,0,1,28,26.3H30a.2.2,0,0,1,.19.19v.39a.18.18,0,0,0,.19.19h1.15a.18.18,0,0,1,.19.19v.39a.19.19,0,0,1-.19.19h-.38a.18.18,0,0,0-.19.19v3.45a.2.2,0,0,1-.2.2h-.38a.18.18,0,0,0-.19.19v.38a.19.19,0,0,1-.19.19Zm1-3a1.25,1.25,0,1,0-1.15-1.25A1.12,1.12,0,0,0,29,29.47Z"/><path class="cls-1" d="M36.48,29.37a.2.2,0,0,0-.19.19V30a.18.18,0,0,1-.19.19H34.18A.18.18,0,0,1,34,30v-.39a.19.19,0,0,0-.19-.19h-.39a.19.19,0,0,1-.19-.19V25.73a.19.19,0,0,1,.19-.19h.39a.19.19,0,0,0,.19-.2V25a.18.18,0,0,1,.19-.19h2.3a.19.19,0,0,1,.2.19v1.15a.19.19,0,0,1-.2.19H36.1a.18.18,0,0,1-.19-.19v-.4a.18.18,0,0,0-.18-.17h-.21c-1,0-1.48.33-1.53,1.34a.2.2,0,0,0,.19.19H36.1a.18.18,0,0,1,.19.19v.39a.2.2,0,0,0,.19.19h.39a.18.18,0,0,1,.19.19v1.15a.18.18,0,0,1-.19.19Zm-.19-.76c0-.48-.44-.77-1.15-.77s-1.15.29-1.15.77.44.76,1.15.76S36.29,29.09,36.29,28.61Z"/><path class="cls-1" d="M40.71,29.37a.19.19,0,0,1,.19.19V30a.18.18,0,0,1-.19.19H38.79A.18.18,0,0,1,38.6,30v-.39a.19.19,0,0,1,.19-.19h.38a.19.19,0,0,0,.2-.19V25.73a.19.19,0,0,0-.2-.19h-.38a.19.19,0,0,1-.19-.2V25a.18.18,0,0,1,.19-.19h1.92a.18.18,0,0,1,.19.19v.38a.19.19,0,0,1-.19.2h-.38a.19.19,0,0,0-.2.19v1.15a.19.19,0,0,0,.2.19h1.91a.19.19,0,0,0,.2-.19V25.73a.19.19,0,0,0-.2-.19h-.38a.19.19,0,0,1-.19-.2V25a.18.18,0,0,1,.19-.19h1.92A.18.18,0,0,1,44,25v.38a.19.19,0,0,1-.19.2H43.4a.19.19,0,0,0-.2.19v3.45a.19.19,0,0,0,.2.19h.38a.19.19,0,0,1,.19.19V30a.18.18,0,0,1-.19.19H41.86a.18.18,0,0,1-.19-.19v-.39a.19.19,0,0,1,.19-.19h.38a.19.19,0,0,0,.2-.19V28a.19.19,0,0,0-.2-.19H40.33a.19.19,0,0,0-.2.19v1.15a.19.19,0,0,0,.2.19Z"/><path class="cls-1" d="M49.54,29.37a.19.19,0,0,0-.19.19V30a.19.19,0,0,1-.19.19H45.7a.18.18,0,0,1-.19-.19v-.39a.19.19,0,0,1,.19-.19h.38a.19.19,0,0,0,.2-.19V25.73a.19.19,0,0,0-.2-.19H45.7a.19.19,0,0,1-.19-.2V25a.18.18,0,0,1,.19-.19h3.46a.19.19,0,0,1,.19.19v.38a.19.19,0,0,0,.19.2h.38a.19.19,0,0,1,.2.19v.38a.18.18,0,0,0,.19.19h.38a.19.19,0,0,1,.19.19v1.92a.19.19,0,0,1-.19.2h-.38a.18.18,0,0,0-.19.19v.38a.19.19,0,0,1-.2.19ZM50,27.45c0-1.38-1-1.91-2.19-1.91h-.57a.19.19,0,0,0-.2.19v3.45a.19.19,0,0,0,.2.19h.57C49,29.37,50,28.83,50,27.45Z"/><path class="cls-1" d="M54.92,26.3a.2.2,0,0,1,.19.19v.39a.19.19,0,0,1-.19.19H52.23a.18.18,0,0,1-.19-.19v-.39a.19.19,0,0,1,.19-.19Zm0,1.54a.19.19,0,0,1,.19.19v.38a.2.2,0,0,1-.19.2H52.23a.19.19,0,0,1-.19-.2V28a.18.18,0,0,1,.19-.19Z"/><path class="cls-1" d="M59.33,28.08c0-.7-.36-1-.77-1s-.76.31-.76,1v1.1a.18.18,0,0,0,.19.19h.38a.19.19,0,0,1,.19.19V30a.18.18,0,0,1-.19.19H56.45a.19.19,0,0,1-.19-.19v-.39a.2.2,0,0,1,.19-.19h.39a.18.18,0,0,0,.19-.19V25a.18.18,0,0,0-.19-.19h-.39a.2.2,0,0,1-.19-.19v-.39a.19.19,0,0,1,.19-.19H57.6a.19.19,0,0,1,.2.19v1.92a.18.18,0,0,0,.19.19h1.15a.19.19,0,0,1,.19.19v.39a.19.19,0,0,0,.19.19h.39a.18.18,0,0,1,.19.19v1.92a.18.18,0,0,0,.19.19h.38a.2.2,0,0,1,.2.19V30a.19.19,0,0,1-.2.19H59.52a.19.19,0,0,1-.19-.19Z"/><path class="cls-1" d="M63.94,28.37c0,.69.36,1,.77,1s.77-.31.77-1V27.26a.19.19,0,0,0-.2-.19H64.9a.18.18,0,0,1-.19-.19v-.39a.19.19,0,0,1,.19-.19h1.15a.19.19,0,0,1,.19.19v1.92a.2.2,0,0,0,.2.2h.38a.18.18,0,0,1,.19.19v.38a.18.18,0,0,1-.19.19H65.67a.19.19,0,0,0-.19.19V30a.19.19,0,0,1-.2.19H64.13a.18.18,0,0,1-.19-.19v-.39a.19.19,0,0,0-.19-.19h-.38a.19.19,0,0,1-.2-.19V27.26a.18.18,0,0,0-.19-.19H62.6a.18.18,0,0,1-.19-.19v-.39a.19.19,0,0,1,.19-.19h1.15a.19.19,0,0,1,.19.19Z"/><path class="cls-1" d="M69.89,27.84a.19.19,0,0,0,.19-.19v-.39a.19.19,0,0,1,.2-.19h.38a.18.18,0,0,0,.19-.19v-.39A.2.2,0,0,1,71,26.3h.39a.18.18,0,0,0,.19-.19v-.38a.18.18,0,0,0-.19-.19H69.51a.18.18,0,0,0-.19.19v.38a.19.19,0,0,1-.2.19h-.38a.18.18,0,0,1-.19-.19V25a.18.18,0,0,1,.19-.19H72.2a.19.19,0,0,1,.19.19v1.15a.46.46,0,0,1-.13.32l-2,2a.47.47,0,0,0-.14.33V30a.18.18,0,0,1-.19.19h-.38a.18.18,0,0,1-.19-.19V28a.18.18,0,0,1,.19-.19Z"/><path class="cls-1" d="M74.12,30.14a.18.18,0,0,1-.19-.19v-.39a.19.19,0,0,1,.19-.19h.38a.18.18,0,0,0,.19-.19V28a.18.18,0,0,0-.19-.19h-.38a.19.19,0,0,1-.19-.19v-.39a.18.18,0,0,1,.19-.19h1.15a.18.18,0,0,1,.19.19v1.92a.18.18,0,0,0,.19.19H76a.2.2,0,0,1,.19.19V30a.19.19,0,0,1-.19.19ZM75,26.3a.62.62,0,1,1,.62-.62A.61.61,0,0,1,75,26.3Z"/><path class="cls-1" d="M79.68,30a.18.18,0,0,1-.19.19h-.77a.19.19,0,0,1-.19-.19v-.39a.19.19,0,0,0-.19-.19H78a.18.18,0,0,1-.19-.19V25a.18.18,0,0,1,.19-.19h.38a.19.19,0,0,0,.19-.19v-.39a.19.19,0,0,1,.19-.19h.77a.18.18,0,0,1,.19.19v.36a.22.22,0,0,1-.19.24c-.65.15-1.08.88-1.08,2.28s.43,2.14,1.08,2.28a.22.22,0,0,1,.19.24Z"/><path class="cls-1" d="M81.22,24.19a.19.19,0,0,1,.19-.19h.77a.18.18,0,0,1,.19.19v.39a.2.2,0,0,0,.19.19H83a.18.18,0,0,1,.19.19v4.22a.18.18,0,0,1-.19.19h-.39a.2.2,0,0,0-.19.19V30a.18.18,0,0,1-.19.19h-.77a.19.19,0,0,1-.19-.19v-.36a.22.22,0,0,1,.19-.24c.65-.14,1.08-.88,1.08-2.28s-.43-2.13-1.08-2.28a.22.22,0,0,1-.19-.24Z"/><path class="cls-1" d="M87,30a.18.18,0,0,1-.19.19H84.87a.18.18,0,0,1-.19-.19v-.39a.19.19,0,0,1,.19-.19h.38a.18.18,0,0,0,.19-.19V25.73a.18.18,0,0,0-.19-.19h-.38a.19.19,0,0,1-.19-.2V25a.18.18,0,0,1,.19-.19h1.92A.18.18,0,0,1,87,25v.38a.19.19,0,0,1-.19.2H86.4a.19.19,0,0,0-.19.19v3.45a.19.19,0,0,0,.19.19h.39a.19.19,0,0,1,.19.19Z"/><path class="cls-1" d="M92.35,30a.18.18,0,0,1-.19.19H90.24a.19.19,0,0,1-.19-.19v-.39a.2.2,0,0,1,.19-.19h.39a.18.18,0,0,0,.19-.19V28a.18.18,0,0,0-.19-.19H88.71a.19.19,0,0,1-.19-.19V25a.18.18,0,0,1,.19-.19h.38a.18.18,0,0,1,.19.19v1.92a.19.19,0,0,0,.2.19h1.15a.18.18,0,0,0,.19-.19V25a.18.18,0,0,1,.19-.19h.39a.19.19,0,0,1,.19.19v1.92a.18.18,0,0,0,.19.19h.38a.18.18,0,0,1,.19.19v.39a.19.19,0,0,1-.19.19h-.38a.18.18,0,0,0-.19.19v1.15a.18.18,0,0,0,.19.19h.38a.19.19,0,0,1,.19.19Z"/><path class="cls-1" d="M93.32,32.44a.19.19,0,0,1-.2-.19v-.38a.18.18,0,0,0-.19-.19h-.38a.19.19,0,0,1-.19-.2V31.1a.18.18,0,0,1,.19-.19h.36a.22.22,0,0,1,.23.19.69.69,0,0,0,.75.58.7.7,0,0,0,.77-.77V28a.18.18,0,0,0-.19-.19h-.39a.2.2,0,0,1-.19-.19v-.39a.19.19,0,0,1,.19-.19h1.16a.19.19,0,0,1,.19.19v4.22a.2.2,0,0,1-.19.2h-.39a.18.18,0,0,0-.19.19v.38a.18.18,0,0,1-.19.19ZM95,25.07a.62.62,0,1,1-.61.61A.62.62,0,0,1,95,25.07Z"/><path class="cls-1" d="M99.7,27.07a.18.18,0,0,1,.19.19v.39a.19.19,0,0,1-.19.19H97a.2.2,0,0,1-.19-.19v-.39a.19.19,0,0,1,.19-.19Z"/><path class="cls-1" d="M3.51,40.61c0-.48-.48-.77-1.15-.77h-1a.19.19,0,0,1-.19-.19v-.39a.19.19,0,0,0-.2-.19H.63a.18.18,0,0,1-.19-.19V37a.18.18,0,0,1,.19-.19H4.08a.19.19,0,0,1,.2.19v1.15a.19.19,0,0,1-.2.19H3.7a.18.18,0,0,1-.19-.19v-.38a.19.19,0,0,0-.19-.19H1.4a.18.18,0,0,0-.19.19v.45a.83.83,0,0,0,.88.89H3.32a.19.19,0,0,1,.19.19v.39a.19.19,0,0,0,.19.19h.38a.19.19,0,0,1,.2.19v1.15a.19.19,0,0,1-.2.19H3.7a.19.19,0,0,0-.19.19V42a.19.19,0,0,1-.19.19H1.4A.18.18,0,0,1,1.21,42v-.39a.2.2,0,0,0-.2-.19H.63a.18.18,0,0,1-.19-.19V40.8a.18.18,0,0,1,.19-.19H1a.29.29,0,0,1,.28.18,1.08,1.08,0,0,0,1.09.58C3,41.37,3.51,41.11,3.51,40.61Z"/><path class="cls-1" d="M7.92,41.37a.2.2,0,0,1,.2.19V42a.19.19,0,0,1-.2.19H6a.19.19,0,0,1-.2-.19v-.39a.2.2,0,0,1,.2-.19h.38a.18.18,0,0,0,.19-.19V40a.18.18,0,0,0-.19-.19H6a.2.2,0,0,1-.2-.19v-.39a.19.19,0,0,1,.2-.19H7.16a.19.19,0,0,0,.19-.19v-.39a.19.19,0,0,1,.19-.19H8.69a.19.19,0,0,1,.19.19v.39a.19.19,0,0,0,.2.19h.38a.18.18,0,0,1,.19.19v.39a.19.19,0,0,1-.19.19H9.1a.22.22,0,0,1-.23-.19.69.69,0,0,0-.75-.58.7.7,0,0,0-.77.77v1.34a.18.18,0,0,0,.19.19Z"/><path class="cls-1" d="M13.3,41.37a.19.19,0,0,1,.19.19V42a.18.18,0,0,1-.19.19H11.38a.18.18,0,0,1-.19-.19v-.39a.19.19,0,0,1,.19-.19h.39a.19.19,0,0,0,.19-.19V37a.19.19,0,0,0-.19-.19h-.39a.19.19,0,0,1-.19-.19v-.39a.18.18,0,0,1,.19-.19h1.15a.18.18,0,0,1,.19.19v1.92a.19.19,0,0,0,.2.19h.38a.18.18,0,0,0,.19-.19v-.38a.19.19,0,0,1,.19-.19h1.16a.19.19,0,0,1,.19.19v.39a.19.19,0,0,1-.18.18h-.21c-.69,0-1.12.34-1.12.59a.16.16,0,0,0,.14.18h.41a.18.18,0,0,1,.19.19v.39a.19.19,0,0,0,.19.19h.39A.19.19,0,0,1,15,40v1.15a.18.18,0,0,0,.19.19h.38a.19.19,0,0,1,.19.19V42a.18.18,0,0,1-.19.19H14.45a.18.18,0,0,1-.19-.19v-.84a1.82,1.82,0,0,0-1.37-1.75.17.17,0,0,0-.17.15v1.67a.19.19,0,0,0,.2.19Z"/><path class="cls-1" d="M21,41.37a.19.19,0,0,0-.19.19V42a.19.19,0,0,1-.19.19H17.91a.18.18,0,0,1-.19-.19v-.39a.2.2,0,0,0-.19-.19h-.39a.18.18,0,0,1-.19-.19V37.73a.18.18,0,0,1,.19-.19h.39a.2.2,0,0,0,.19-.2V37a.18.18,0,0,1,.19-.19H20.6a.19.19,0,0,1,.19.19v.38a.19.19,0,0,0,.19.2h.26a.18.18,0,0,1,.19.19v.38a.18.18,0,0,1-.19.19h-.42a.31.31,0,0,1-.3-.18,1.26,1.26,0,0,0-1.17-.58c-.88,0-1.63.55-1.63,1.91s.76,1.92,1.59,1.92,1.43-.46,1.43-1a.17.17,0,0,0-.18-.19h-.73a.18.18,0,0,1-.19-.19v-.38a.19.19,0,0,1,.19-.2h1.53a.19.19,0,0,1,.19.2v1.53a.18.18,0,0,1-.19.19Z"/><path class="cls-1" d="M25.4,37.34a.2.2,0,0,1-.2.2h-.38a.18.18,0,0,0-.19.19v1.11c0,.16.08.23.19.23a.43.43,0,0,0,.31-.18l1.31-2a.38.38,0,0,1,.3-.15h.77a.18.18,0,0,1,.19.19v.38a.19.19,0,0,1-.19.2h-.39a.19.19,0,0,0-.19.19v.38a.18.18,0,0,1-.19.19h-.38a.2.2,0,0,0-.2.19v1.16a.2.2,0,0,0,.2.19h.38a.18.18,0,0,1,.19.19v1.15a.19.19,0,0,0,.19.19h.39a.19.19,0,0,1,.19.19V42a.18.18,0,0,1-.19.19H26.36a.19.19,0,0,1-.2-.19V40.8a.18.18,0,0,0-.19-.19h-.38a.19.19,0,0,1-.19-.2V40a.19.19,0,0,0-.2-.19h-.38a.18.18,0,0,0-.19.19v1.15a.18.18,0,0,0,.19.19h.38a.2.2,0,0,1,.2.19V42a.19.19,0,0,1-.2.19H23.29a.19.19,0,0,1-.2-.19v-.39a.2.2,0,0,1,.2-.19h.38a.18.18,0,0,0,.19-.19V37.73a.18.18,0,0,0-.19-.19h-.38a.2.2,0,0,1-.2-.2V37a.19.19,0,0,1,.2-.19H25.2a.19.19,0,0,1,.2.19Z"/><path class="cls-1" d="M33.08,42a.19.19,0,0,1-.2.19H29.43a.18.18,0,0,1-.19-.19v-.39a.19.19,0,0,1,.19-.19h1.15a.18.18,0,0,0,.19-.19V38.49c0-.07-.14-.1-.19,0l-.44.48a.52.52,0,0,1-.33.14h-.38a.18.18,0,0,1-.19-.19v-.39a.19.19,0,0,1,.19-.19h.38a.18.18,0,0,0,.19-.19v-.38a.19.19,0,0,1,.2-.19h.38a.19.19,0,0,0,.19-.2V37a.19.19,0,0,1,.19-.19h.39a.18.18,0,0,1,.19.19v4.22a.18.18,0,0,0,.19.19h1.15a.2.2,0,0,1,.2.19Z"/><path class="cls-1" d="M38.64,41.37a.2.2,0,0,0-.19.19V42a.18.18,0,0,1-.19.19H35.57a.18.18,0,0,1-.19-.19v-.39a.19.19,0,0,0-.19-.19h-.38a.19.19,0,0,1-.2-.19V37.73a.19.19,0,0,1,.2-.19h.38a.19.19,0,0,0,.19-.2V37a.18.18,0,0,1,.19-.19h2.69a.18.18,0,0,1,.19.19v.38a.2.2,0,0,0,.19.2h.27a.19.19,0,0,1,.19.19v.38a.19.19,0,0,1-.19.19h-.42a.3.3,0,0,1-.3-.18A1.29,1.29,0,0,0,37,37.54c-.87,0-1.63.55-1.63,1.91s.76,1.92,1.63,1.92a1.29,1.29,0,0,0,1.18-.58.28.28,0,0,1,.3-.18h.42a.19.19,0,0,1,.19.19v.38a.19.19,0,0,1-.19.19Z"/><path class="cls-1" d="M41,40.61a.2.2,0,0,0,.2-.2V39.26a.18.18,0,0,1,.19-.19h.14a.18.18,0,0,0,.19-.19V37.73a.19.19,0,0,1,.19-.19H42a.19.19,0,0,0,.19-.2V36.19a.18.18,0,0,1,.19-.19h.46a.14.14,0,0,1,.13.19L41.24,42a.28.28,0,0,1-.25.18h-.16a.18.18,0,0,1-.19-.19V40.8a.18.18,0,0,1,.19-.19Z"/><path class="cls-1" d="M46.9,40.61c0-.48-.48-.77-1.15-.77h-1a.19.19,0,0,1-.19-.19v-.39a.19.19,0,0,0-.19-.19H44a.18.18,0,0,1-.19-.19V37a.18.18,0,0,1,.19-.19h3.46a.19.19,0,0,1,.19.19v1.15a.19.19,0,0,1-.19.19h-.39a.18.18,0,0,1-.19-.19v-.38a.18.18,0,0,0-.19-.19H44.79a.18.18,0,0,0-.19.19v.45a.83.83,0,0,0,.88.89h1.23a.18.18,0,0,1,.19.19v.39a.19.19,0,0,0,.19.19h.39a.19.19,0,0,1,.19.19v1.15a.19.19,0,0,1-.19.19h-.39a.19.19,0,0,0-.19.19V42a.18.18,0,0,1-.19.19H44.79A.18.18,0,0,1,44.6,42v-.39a.2.2,0,0,0-.19-.19H44a.18.18,0,0,1-.19-.19V40.8a.18.18,0,0,1,.19-.19h.36a.29.29,0,0,1,.28.18,1.09,1.09,0,0,0,1.09.58C46.37,41.37,46.9,41.11,46.9,40.61Z"/><path class="cls-1" d="M52.28,40.61c0-.48-.48-.77-1.16-.77h-.95a.2.2,0,0,1-.2-.19v-.39a.18.18,0,0,0-.19-.19H49.4a.18.18,0,0,1-.19-.19V37a.18.18,0,0,1,.19-.19h3.45A.18.18,0,0,1,53,37v1.15a.18.18,0,0,1-.19.19h-.38a.18.18,0,0,1-.19-.19v-.38a.19.19,0,0,0-.2-.19H50.17a.19.19,0,0,0-.2.19v.45a.83.83,0,0,0,.89.89h1.22a.19.19,0,0,1,.2.19v.39a.19.19,0,0,0,.19.19h.38A.18.18,0,0,1,53,40v1.15a.18.18,0,0,1-.19.19h-.38a.19.19,0,0,0-.19.19V42a.19.19,0,0,1-.2.19H50.17A.19.19,0,0,1,50,42v-.39a.19.19,0,0,0-.19-.19H49.4a.18.18,0,0,1-.19-.19V40.8a.18.18,0,0,1,.19-.19h.36a.28.28,0,0,1,.27.18,1.09,1.09,0,0,0,1.09.58C51.75,41.37,52.28,41.11,52.28,40.61Z"/><path class="cls-1" d="M56.88,42a.18.18,0,0,1-.19.19H54.77a.19.19,0,0,1-.19-.19v-.39a.2.2,0,0,1,.19-.19h.39a.19.19,0,0,0,.19-.19V37.73a.19.19,0,0,0-.19-.19h-.39a.2.2,0,0,1-.19-.2V37a.19.19,0,0,1,.19-.19h1.15a.19.19,0,0,1,.2.19v.38a.19.19,0,0,0,.19.2h.38a.18.18,0,0,1,.19.19v.38a.19.19,0,0,0,.2.19h.38a.19.19,0,0,1,.19.19v.39a.19.19,0,0,0,.19.19h.39a.19.19,0,0,1,.19.19v.39a.19.19,0,0,0,.19.19H59a.2.2,0,0,0,.19-.19V37.73a.19.19,0,0,0-.19-.19h-.39a.19.19,0,0,1-.19-.2V37a.18.18,0,0,1,.19-.19h1.92a.18.18,0,0,1,.19.19v.38a.19.19,0,0,1-.19.2h-.38a.19.19,0,0,0-.2.19v3.45a.19.19,0,0,0,.2.19h.38a.19.19,0,0,1,.19.19V42a.18.18,0,0,1-.19.19H59.38a.18.18,0,0,1-.19-.19v-.39a.45.45,0,0,0-.14-.32l-2.8-2.81a.08.08,0,0,0-.13.06v2.69a.18.18,0,0,0,.19.19h.38a.19.19,0,0,1,.19.19Z"/><path class="cls-1" d="M65.33,42a.18.18,0,0,1-.19.19H63.22A.18.18,0,0,1,63,42v-.39a.19.19,0,0,0-.19-.19h-.39a.19.19,0,0,1-.19-.19V40a.19.19,0,0,1,.19-.19h.39a.19.19,0,0,0,.19-.19v-.39a.18.18,0,0,0-.19-.19h-.39a.19.19,0,0,1-.19-.19V37.73a.19.19,0,0,1,.19-.19h.39a.19.19,0,0,0,.19-.2V37a.18.18,0,0,1,.19-.19h1.92a.18.18,0,0,1,.19.19v.38a.2.2,0,0,0,.19.2h.39a.18.18,0,0,1,.19.19v1.15a.18.18,0,0,1-.19.19h-.39a.19.19,0,0,0-.19.19v.39a.2.2,0,0,0,.19.19h.39a.18.18,0,0,1,.19.19v1.15a.18.18,0,0,1-.19.19h-.39a.2.2,0,0,0-.19.19ZM64.18,37.5c-.71,0-1.15.29-1.15.8s.44.81,1.15.81,1.15-.29,1.15-.81S64.89,37.5,64.18,37.5Zm1.15,3.11c0-.52-.44-.81-1.15-.81s-1.15.29-1.15.81.44.8,1.15.8S65.33,41.12,65.33,40.61Z"/><path class="cls-1" d="M69.46,40.55c-.77-.12-1.76-.58-1.76-1.3a.16.16,0,0,1,.15-.18h.28a.18.18,0,0,0,.19-.19v-.39a.2.2,0,0,1,.19-.19H70.4a.2.2,0,0,1,.19.19v.39a.18.18,0,0,0,.19.19h.08a.19.19,0,0,1,.2.19v.27a.2.2,0,0,1-.2.19h-.33a.21.21,0,0,1-.23-.19.82.82,0,0,0-.89-.63c-.36,0-.68.13-.68.47s.27.46.73.53c.72.11,1.75.56,1.75,1.31a.15.15,0,0,1-.15.16h-.22a.19.19,0,0,0-.19.19V42a.19.19,0,0,1-.19.19h-2a.18.18,0,0,1-.19-.19v-.39a.2.2,0,0,0-.2-.19h-.26a.18.18,0,0,1-.19-.19v-.26a.18.18,0,0,1,.19-.19h.56a.2.2,0,0,1,.23.19c.07.41.4.62.89.62s.71-.15.71-.45S70,40.63,69.46,40.55Z"/><path class="cls-1" d="M74.31,36.19A.18.18,0,0,1,74.5,36h1.15a.18.18,0,0,1,.19.19v4.22a.2.2,0,0,0,.2.2h.38a.18.18,0,0,1,.19.19v.38a.18.18,0,0,1-.19.19H75.27a.19.19,0,0,0-.19.19V42a.19.19,0,0,1-.2.19H73.73a.18.18,0,0,1-.19-.19v-.39a.19.19,0,0,0-.19-.19H73a.19.19,0,0,1-.19-.19V39.26a.19.19,0,0,1,.19-.19h.39a.18.18,0,0,0,.19-.19v-.39a.19.19,0,0,1,.19-.19h1.15a.19.19,0,0,0,.2-.19V37a.19.19,0,0,0-.2-.19H74.5a.19.19,0,0,1-.19-.19Zm.77,4c0-.86-.35-1.14-.78-1.14s-.76.28-.76,1.14.35,1.16.76,1.16S75.08,41.07,75.08,40.21Z"/><path class="cls-1" d="M79.13,36.36a.34.34,0,0,1,.34,0l0,0a.29.29,0,0,1,.13.29L79.6,37a.07.07,0,0,0,.12.07l.2-.15a.65.65,0,0,1,.33-.11h0a.18.18,0,0,1,.18.18v.13a.26.26,0,0,1-.18.25l-.38.15c-.06,0-.06.1,0,.12l.38.14a.26.26,0,0,1,.18.25v.13a.18.18,0,0,1-.18.18h0a.65.65,0,0,1-.33-.11l-.2-.15a.07.07,0,0,0-.12.07l.05.26a.29.29,0,0,1-.13.29l0,.05a.34.34,0,0,1-.34,0l0-.05a.29.29,0,0,1-.13-.29l0-.26a.07.07,0,0,0-.12-.07l-.2.15a.65.65,0,0,1-.33.11h0a.18.18,0,0,1-.18-.18V38a.26.26,0,0,1,.18-.25l.38-.14c.06,0,.06-.11,0-.12l-.38-.15a.26.26,0,0,1-.18-.25V37a.18.18,0,0,1,.18-.18h0a.65.65,0,0,1,.33.11l.2.15A.07.07,0,0,0,79,37l0-.26a.29.29,0,0,1,.13-.29Z"/><path class="cls-1" d="M85.06,42a.18.18,0,0,1-.19.19H83a.18.18,0,0,1-.19-.19v-.39a.2.2,0,0,0-.2-.19h-.38a.18.18,0,0,1-.19-.19V40.8a.18.18,0,0,1,.19-.19h.35a.25.25,0,0,1,.27.19c.14.37.54.57,1.11.57s1.15-.21,1.15-.76-.38-.77-1.52-.77h-.21a.19.19,0,0,1-.19-.19v-.4a.18.18,0,0,1,.19-.18h.21c1.14,0,1.52-.22,1.52-.77s-.5-.76-1.15-.76-1,.2-1.11.57a.25.25,0,0,1-.27.19h-.35a.18.18,0,0,1-.19-.19v-.38a.18.18,0,0,1,.19-.19h.38a.2.2,0,0,0,.2-.2V37a.18.18,0,0,1,.19-.19h1.92a.18.18,0,0,1,.19.19v.38a.19.19,0,0,0,.19.2h.38a.19.19,0,0,1,.2.19v1.15a.19.19,0,0,1-.2.19h-.38a.18.18,0,0,0-.19.19v.39a.19.19,0,0,0,.19.19h.38a.19.19,0,0,1,.2.19v1.15a.19.19,0,0,1-.2.19h-.38a.19.19,0,0,0-.19.19Z"/><path class="cls-1" d="M89.48,41.37a.2.2,0,0,1,.19.19V42a.19.19,0,0,1-.19.19H87.56a.18.18,0,0,1-.19-.19v-.39a.19.19,0,0,1,.19-.19h.38a.18.18,0,0,0,.19-.19V40a.18.18,0,0,0-.19-.19h-.38a.19.19,0,0,1-.19-.19v-.39a.18.18,0,0,1,.19-.19h1.15a.18.18,0,0,0,.19-.19v-.39a.19.19,0,0,1,.19-.19h1.15a.2.2,0,0,1,.2.19v.39a.18.18,0,0,0,.19.19H91a.18.18,0,0,1,.19.19v.39a.19.19,0,0,1-.19.19h-.36a.22.22,0,0,1-.23-.19.69.69,0,0,0-.75-.58.7.7,0,0,0-.77.77v1.34a.18.18,0,0,0,.19.19Z"/><path class="cls-1" d="M97.15,40.61a.19.19,0,0,1,.2.19V42a.19.19,0,0,1-.2.19H92.93a.19.19,0,0,1-.19-.19v-.39a.2.2,0,0,1,.19-.19h.39a.19.19,0,0,0,.19-.19V37.73a.19.19,0,0,0-.19-.19h-.39a.2.2,0,0,1-.19-.2V37a.19.19,0,0,1,.19-.19h1.92A.18.18,0,0,1,95,37v.38a.19.19,0,0,1-.19.2h-.38a.18.18,0,0,0-.19.19v3.45a.18.18,0,0,0,.19.19h1.92a.18.18,0,0,0,.19-.19V40.8a.18.18,0,0,1,.19-.19Z"/><path class="cls-1" d="M99.08,37.54a.2.2,0,0,0,.19-.2V37a.18.18,0,0,1,.19-.19h1.92a.18.18,0,0,1,.19.19v.38a.2.2,0,0,0,.19.2h.39a.19.19,0,0,1,.19.19v3.45a.19.19,0,0,1-.19.19h-.39a.2.2,0,0,0-.19.19V42a.18.18,0,0,1-.19.19h-2.3a.19.19,0,0,1-.2-.19v-.39a.2.2,0,0,1,.2-.19h1c1,0,1.48-.33,1.53-1.34a.19.19,0,0,0-.19-.19H99.46a.19.19,0,0,1-.19-.19v-.39a.19.19,0,0,0-.19-.19h-.39a.18.18,0,0,1-.19-.19V37.73a.18.18,0,0,1,.19-.19Zm2.49.76c0-.48-.44-.76-1.15-.76s-1.15.28-1.15.76.44.77,1.15.77S101.57,38.78,101.57,38.3Z"/><path class="cls-1" d="M7.23,54a.19.19,0,0,1-.19.19H5.12a.19.19,0,0,1-.2-.19v-.39a.2.2,0,0,1,.2-.19H5.5a.18.18,0,0,0,.19-.19V52a.18.18,0,0,0-.19-.19H3.58a.19.19,0,0,1-.19-.19V49a.18.18,0,0,1,.19-.19H4a.19.19,0,0,1,.19.19v1.92a.18.18,0,0,0,.19.19H5.5a.18.18,0,0,0,.19-.19V49a.19.19,0,0,1,.19-.19h.39a.18.18,0,0,1,.19.19v1.92a.18.18,0,0,0,.19.19H7a.19.19,0,0,1,.19.19v.39a.2.2,0,0,1-.19.19H6.65a.18.18,0,0,0-.19.19v1.15a.18.18,0,0,0,.19.19H7a.2.2,0,0,1,.19.19Z"/><path class="cls-1" d="M11.07,54a.19.19,0,0,1-.19.19H9A.18.18,0,0,1,8.77,54v-.39A.19.19,0,0,1,9,53.37h.38a.18.18,0,0,0,.19-.19V49a.18.18,0,0,0-.19-.19H9a.19.19,0,0,1-.19-.19v-.39A.18.18,0,0,1,9,48h1.15a.18.18,0,0,1,.19.19v5a.18.18,0,0,0,.19.19h.39a.2.2,0,0,1,.19.19Z"/><path class="cls-1" d="M18,53.18a.19.19,0,0,1-.19.19H17.4a.19.19,0,0,0-.19.19v.33a.18.18,0,0,1-.19.19h-.91a.18.18,0,0,1-.19-.19v-.33a.2.2,0,0,0-.2-.19H14.33a.18.18,0,0,1-.19-.19V51.26a.18.18,0,0,1,.19-.19h1.92a.18.18,0,0,1,.19.18v2c0,.1.09.14.17.14.4,0,.84-.78.84-1.52a1.92,1.92,0,0,0-2.16-1.83,2,2,0,0,0-2.16,2.16,1.91,1.91,0,0,0,1.59,2,.24.24,0,0,1,.19.24v.26a.2.2,0,0,1-.19.19H13.57a.2.2,0,0,1-.2-.19v-.39a.18.18,0,0,0-.19-.19H12.8a.18.18,0,0,1-.19-.19V50.49a.19.19,0,0,1,.19-.19h.38a.18.18,0,0,0,.19-.19v-.38a.19.19,0,0,1,.2-.19H17a.18.18,0,0,1,.19.19v.38a.18.18,0,0,0,.19.19h.39a.2.2,0,0,1,.19.19Zm-2.69-1.64a.64.64,0,0,0-.62.68.63.63,0,0,0,.62.67.64.64,0,0,0,.63-.67A.65.65,0,0,0,15.29,51.54Z"/><path class="cls-1" d="M21.63,49.54a.18.18,0,0,1,.19.19v1.15a.18.18,0,0,0,.19.19h.39a.19.19,0,0,0,.19-.19V49.73a.18.18,0,0,1,.19-.19h.38a.2.2,0,0,0,.2-.2V49a.18.18,0,0,1,.19-.19H24.7a.18.18,0,0,1,.19.19v.38a.19.19,0,0,1-.19.2h-.38a.19.19,0,0,0-.2.19v3.45a.19.19,0,0,0,.2.19h.38a.19.19,0,0,1,.19.19V54a.18.18,0,0,1-.19.19H22.78a.18.18,0,0,1-.19-.19v-.39a.19.19,0,0,1,.19-.19h.38a.19.19,0,0,0,.2-.19V50.49s-.09-.07-.11,0L22.41,52a.23.23,0,0,1-.21.12A.23.23,0,0,1,22,52l-.84-1.49s-.11,0-.11,0v2.69a.19.19,0,0,0,.2.19h.38a.19.19,0,0,1,.19.19V54a.18.18,0,0,1-.19.19H19.71a.18.18,0,0,1-.19-.19v-.39a.19.19,0,0,1,.19-.19h.38a.19.19,0,0,0,.2-.19V49.73a.19.19,0,0,0-.2-.19h-.38a.19.19,0,0,1-.19-.2V49a.18.18,0,0,1,.19-.19h1.15a.18.18,0,0,1,.19.19v.38a.2.2,0,0,0,.2.2Z"/><path class="cls-1" d="M29.5,54a.18.18,0,0,1-.19.19H27.39A.18.18,0,0,1,27.2,54v-.39a.2.2,0,0,0-.2-.19h-.38a.18.18,0,0,1-.19-.19V52.8a.18.18,0,0,1,.19-.19H27a.27.27,0,0,1,.28.19c.13.37.54.57,1.1.57s1.15-.21,1.15-.76-.38-.77-1.52-.77h-.21a.2.2,0,0,1-.19-.19v-.4a.19.19,0,0,1,.19-.18H28c1.14,0,1.52-.22,1.52-.77s-.5-.76-1.15-.76-1,.2-1.1.57a.27.27,0,0,1-.28.19h-.35a.18.18,0,0,1-.19-.19v-.38a.18.18,0,0,1,.19-.19H27a.2.2,0,0,0,.2-.2V49a.18.18,0,0,1,.19-.19h1.92a.18.18,0,0,1,.19.19v.38a.19.19,0,0,0,.19.2h.39a.19.19,0,0,1,.19.19v1.15a.19.19,0,0,1-.19.19h-.39a.18.18,0,0,0-.19.19v.39a.19.19,0,0,0,.19.19h.39a.19.19,0,0,1,.19.19v1.15a.19.19,0,0,1-.19.19h-.39a.19.19,0,0,0-.19.19Z"/><path class="cls-1" d="M35.07,53.37a.19.19,0,0,0-.19.19V54a.19.19,0,0,1-.2.19H32.76a.19.19,0,0,1-.19-.19v-.39a.19.19,0,0,0-.19-.19H32a.18.18,0,0,1-.19-.19V49.73a.18.18,0,0,1,.19-.19h.38a.19.19,0,0,0,.19-.2V49a.19.19,0,0,1,.19-.19h2.31a.18.18,0,0,1,.19.19v1.15a.18.18,0,0,1-.19.19h-.39a.19.19,0,0,1-.19-.19v-.4a.18.18,0,0,0-.18-.17h-.2c-1,0-1.49.33-1.54,1.34a.2.2,0,0,0,.19.19h1.92a.19.19,0,0,1,.2.19v.39a.19.19,0,0,0,.19.19h.38a.18.18,0,0,1,.19.19v1.15a.18.18,0,0,1-.19.19Zm-.19-.76c0-.48-.45-.77-1.16-.77s-1.15.29-1.15.77.45.76,1.15.76S34.88,53.09,34.88,52.61Z"/><path class="cls-1" d="M38.72,52V54a.19.19,0,0,1-.2.19H37.37a.19.19,0,0,1-.19-.19v-.39a.2.2,0,0,1,.19-.19h.39a.18.18,0,0,0,.19-.19V52a.18.18,0,0,0-.19-.19h-.39a.2.2,0,0,1-.19-.19v-.39a.19.19,0,0,1,.19-.19h1.15a.19.19,0,0,0,.2-.19v-.39a.19.19,0,0,1,.19-.19h.38a.19.19,0,0,1,.19.19v.39a.19.19,0,0,0,.2.19h.38a.18.18,0,0,0,.19-.19v-.39a.2.2,0,0,1,.19-.19h.39a.19.19,0,0,1,.19.19v.39a.18.18,0,0,0,.19.19h.38a.19.19,0,0,1,.2.19v1.92a.18.18,0,0,0,.19.19h.38a.19.19,0,0,1,.19.19V54a.18.18,0,0,1-.19.19H41.21A.18.18,0,0,1,41,54V52c0-.49-.12-.69-.38-.69s-.39.2-.39.69V54a.18.18,0,0,1-.19.19h-.38a.19.19,0,0,1-.2-.19V52c0-.49-.12-.69-.38-.69S38.72,51.53,38.72,52Z"/><path class="cls-1" d="M46.78,54a.18.18,0,0,1-.19.19H46.2A.19.19,0,0,1,46,54v-.39a.19.19,0,0,0-.19-.19h-.38a.18.18,0,0,1-.19-.19V51.26a.19.19,0,0,0-.2-.19h-.38a.18.18,0,0,1-.19-.19V49.73a.19.19,0,0,0-.19-.19H43.9a.19.19,0,0,1-.19-.2V49a.18.18,0,0,1,.19-.19h.89A.27.27,0,0,1,45,49l1.3,4.24s0,.05.06.05,0,0,.06-.05L47.75,49a.28.28,0,0,1,.25-.18h.89a.18.18,0,0,1,.19.19v.38a.19.19,0,0,1-.19.2h-.38a.18.18,0,0,0-.19.19v1.15a.19.19,0,0,1-.2.19h-.38a.18.18,0,0,0-.19.19v1.92a.19.19,0,0,1-.19.19H47a.19.19,0,0,0-.19.19Z"/><path class="cls-1" d="M51.77,48.19A.19.19,0,0,1,52,48h1.16a.19.19,0,0,1,.19.19v4.22a.19.19,0,0,0,.19.2h.38a.19.19,0,0,1,.2.19v.38a.19.19,0,0,1-.2.19H52.73a.19.19,0,0,0-.19.19V54a.18.18,0,0,1-.19.19H51.2A.19.19,0,0,1,51,54v-.39a.19.19,0,0,0-.19-.19h-.38a.18.18,0,0,1-.19-.19V51.26a.18.18,0,0,1,.19-.19h.38a.18.18,0,0,0,.19-.19v-.39a.2.2,0,0,1,.2-.19h1.15a.18.18,0,0,0,.19-.19V49a.18.18,0,0,0-.19-.19H52a.2.2,0,0,1-.19-.19Zm.77,4c0-.86-.35-1.14-.78-1.14s-.76.28-.76,1.14.35,1.16.76,1.16S52.54,53.07,52.54,52.21Z"/><path class="cls-1" d="M57.92,54a.19.19,0,0,1-.2.19H55.8a.19.19,0,0,1-.19-.19v-.39a.2.2,0,0,1,.19-.19h.39a.18.18,0,0,0,.19-.19V49.73a.18.18,0,0,0-.19-.19H55.8a.2.2,0,0,1-.19-.2V49a.19.19,0,0,1,.19-.19H57a.19.19,0,0,1,.19.19v.38a.19.19,0,0,0,.19.2h.38a.19.19,0,0,1,.2.19v.38a.18.18,0,0,0,.19.19h.38a.19.19,0,0,1,.19.19v.39a.19.19,0,0,0,.2.19h.38a.18.18,0,0,1,.19.19v.39a.2.2,0,0,0,.19.19H60a.2.2,0,0,0,.19-.19V49.73a.19.19,0,0,0-.19-.19h-.39a.2.2,0,0,1-.19-.2V49a.19.19,0,0,1,.19-.19h1.92a.18.18,0,0,1,.19.19v.38a.19.19,0,0,1-.19.2h-.38a.18.18,0,0,0-.19.19v3.45a.18.18,0,0,0,.19.19h.38a.19.19,0,0,1,.19.19V54a.18.18,0,0,1-.19.19H60.41a.18.18,0,0,1-.19-.19v-.39a.48.48,0,0,0-.13-.32l-2.81-2.81a.08.08,0,0,0-.13.06v2.69a.18.18,0,0,0,.19.19h.38a.2.2,0,0,1,.2.19Z"/><path class="cls-1" d="M66.36,54a.18.18,0,0,1-.19.19H64.25a.18.18,0,0,1-.19-.19v-.39a.19.19,0,0,0-.19-.19h-.38a.19.19,0,0,1-.2-.19V49.73a.19.19,0,0,1,.2-.19h.38a.19.19,0,0,0,.19-.2V49a.18.18,0,0,1,.19-.19h1.92a.18.18,0,0,1,.19.19v.38a.2.2,0,0,0,.2.2h.38a.18.18,0,0,1,.19.19v3.45a.18.18,0,0,1-.19.19h-.38a.2.2,0,0,0-.2.19Zm0-2.5c0-1.39-.42-2-1.15-2s-1.15.62-1.15,2,.42,2,1.15,2S66.36,52.85,66.36,51.45Z"/><path class="cls-1" d="M71.74,52.61c0-.48-.48-.77-1.15-.77h-1a.19.19,0,0,1-.19-.19v-.39a.19.19,0,0,0-.19-.19h-.39a.18.18,0,0,1-.19-.19V49a.18.18,0,0,1,.19-.19h3.46a.19.19,0,0,1,.19.19v1.15a.19.19,0,0,1-.19.19h-.39a.18.18,0,0,1-.19-.19v-.38a.18.18,0,0,0-.19-.19H69.63a.18.18,0,0,0-.19.19v.45a.83.83,0,0,0,.88.89h1.23a.18.18,0,0,1,.19.19v.39a.19.19,0,0,0,.19.19h.39a.19.19,0,0,1,.19.19v1.15a.19.19,0,0,1-.19.19h-.39a.19.19,0,0,0-.19.19V54a.18.18,0,0,1-.19.19H69.63a.18.18,0,0,1-.19-.19v-.39a.2.2,0,0,0-.19-.19h-.39a.18.18,0,0,1-.19-.19V52.8a.18.18,0,0,1,.19-.19h.36a.29.29,0,0,1,.28.18,1.09,1.09,0,0,0,1.09.58C71.21,53.37,71.74,53.11,71.74,52.61Z"/><path class="cls-1" d="M77.12,52.08c0-.7-.36-1-.77-1s-.77.31-.77,1v1.1a.18.18,0,0,0,.19.19h.39a.2.2,0,0,1,.19.19V54a.19.19,0,0,1-.19.19H74.24A.19.19,0,0,1,74,54v-.39a.2.2,0,0,1,.2-.19h.38a.18.18,0,0,0,.19-.19V52a.18.18,0,0,0-.19-.19h-.38a.2.2,0,0,1-.2-.19v-.39a.19.19,0,0,1,.2-.19h1.15a.18.18,0,0,0,.19-.19v-.39a.19.19,0,0,1,.19-.19h1.15a.2.2,0,0,1,.2.19v.39a.18.18,0,0,0,.19.19h.38a.18.18,0,0,1,.19.19v1.92a.19.19,0,0,0,.2.19h.38a.19.19,0,0,1,.19.19V54a.18.18,0,0,1-.19.19H77.31a.18.18,0,0,1-.19-.19Z"/><path class="cls-1" d="M82.3,53.37a.19.19,0,0,1,.19.19V54a.18.18,0,0,1-.19.19H80.38a.18.18,0,0,1-.19-.19v-.39a.19.19,0,0,1,.19-.19h.38a.19.19,0,0,0,.2-.19V52a.19.19,0,0,0-.2-.19h-.38a.19.19,0,0,1-.19-.19v-.39a.18.18,0,0,1,.19-.19h1.15a.18.18,0,0,0,.19-.19v-.39a.2.2,0,0,1,.2-.19h1.15a.19.19,0,0,1,.19.19v.39a.18.18,0,0,0,.19.19h.38a.19.19,0,0,1,.2.19v.39a.2.2,0,0,1-.2.19h-.35a.21.21,0,0,1-.23-.19.7.7,0,0,0-.76-.58.7.7,0,0,0-.77.77v1.34a.19.19,0,0,0,.2.19Z"/><path class="cls-1" d="M86.14,48a.18.18,0,0,1,.19.19V54a.18.18,0,0,1-.19.19h-.38a.18.18,0,0,1-.19-.19V48.19a.18.18,0,0,1,.19-.19Z"/><path class="cls-1" d="M92.47,53.18a.18.18,0,0,1-.19.19H91.9a.19.19,0,0,0-.19.19V54a.19.19,0,0,1-.2.19H88.83a.18.18,0,0,1-.19-.19v-.39a.2.2,0,0,0-.2-.19h-.38a.18.18,0,0,1-.19-.19V49.73a.18.18,0,0,1,.19-.19h.38a.2.2,0,0,0,.2-.2V49a.18.18,0,0,1,.19-.19h2.68a.19.19,0,0,1,.2.19v.38a.19.19,0,0,0,.19.2h.38a.18.18,0,0,1,.19.19Zm-.76-1.73c0-1.4-.63-2-1.54-2s-1.53.61-1.53,2,.62,2,1.53,2S91.71,52.86,91.71,51.45Z"/><path class="cls-1" d="M96.12,49.54a.19.19,0,0,1,.2.19v1.15a.18.18,0,0,0,.19.19h.38a.18.18,0,0,0,.19-.19V49.73a.19.19,0,0,1,.2-.19h.38a.19.19,0,0,0,.19-.2V49a.18.18,0,0,1,.19-.19h1.15a.19.19,0,0,1,.2.19v.38a.2.2,0,0,1-.2.2h-.38a.18.18,0,0,0-.19.19v3.45a.18.18,0,0,0,.19.19h.38a.2.2,0,0,1,.2.19V54a.19.19,0,0,1-.2.19H97.28a.19.19,0,0,1-.2-.19v-.39a.2.2,0,0,1,.2-.19h.38a.18.18,0,0,0,.19-.19V50.49a.06.06,0,0,0-.11,0L96.9,52a.23.23,0,0,1-.4,0l-.84-1.49a.06.06,0,0,0-.11,0v2.69a.18.18,0,0,0,.19.19h.38a.2.2,0,0,1,.2.19V54a.19.19,0,0,1-.2.19H94.21A.19.19,0,0,1,94,54v-.39a.2.2,0,0,1,.2-.19h.38a.18.18,0,0,0,.19-.19V49.73a.18.18,0,0,0-.19-.19h-.38a.2.2,0,0,1-.2-.2V49a.19.19,0,0,1,.2-.19h1.15a.19.19,0,0,1,.19.19v.38a.19.19,0,0,0,.19.2Z"/><path class="cls-1" d="M4.63,66a.18.18,0,0,1-.19.19H1A.19.19,0,0,1,.79,66v-.39A.2.2,0,0,1,1,65.37H2.14a.19.19,0,0,0,.19-.19V62.49c0-.07-.15-.1-.19,0l-.45.48a.47.47,0,0,1-.32.14H1a.19.19,0,0,1-.19-.19v-.39A.2.2,0,0,1,1,62.3h.39a.18.18,0,0,0,.19-.19v-.38a.18.18,0,0,1,.19-.19h.39a.2.2,0,0,0,.19-.2V61a.18.18,0,0,1,.19-.19H2.9a.18.18,0,0,1,.19.19v4.22a.19.19,0,0,0,.2.19H4.44a.19.19,0,0,1,.19.19Z"/><path class="cls-1" d="M10,63.65a.2.2,0,0,1-.2.19H7.9a.19.19,0,0,0-.2.19v1.15a.19.19,0,0,0,.2.19h.38a.19.19,0,0,1,.19.19V66a.18.18,0,0,1-.19.19H6.36A.18.18,0,0,1,6.17,66v-.39a.19.19,0,0,1,.19-.19h.38a.19.19,0,0,0,.2-.19V61.73a.19.19,0,0,0-.2-.19H6.36a.19.19,0,0,1-.19-.2V61a.18.18,0,0,1,.19-.19H9.81A.19.19,0,0,1,10,61v.38a.19.19,0,0,0,.19.2h.38a.18.18,0,0,1,.19.19v1.15a.18.18,0,0,1-.19.19H10.2a.18.18,0,0,0-.19.19ZM8.85,61.54H7.9a.19.19,0,0,0-.2.19v1.15a.19.19,0,0,0,.2.19h.95c.78,0,1.16-.23,1.16-.77S9.63,61.54,8.85,61.54Z"/><path class="cls-1" d="M12.12,66.14a.18.18,0,0,1-.19-.19v-.39a.48.48,0,0,1,.13-.32l3.57-3.55s0-.14-.07-.14H13a.18.18,0,0,0-.19.18v.38a.19.19,0,0,1-.2.19h-.38a.18.18,0,0,1-.19-.19V61a.18.18,0,0,1,.19-.19h4.1a.18.18,0,0,1,.19.19v1.15a.18.18,0,0,1-.19.19H16a.19.19,0,0,0-.19.19v.39a.19.19,0,0,1-.2.19h-.38a.18.18,0,0,0-.19.19v.39a.2.2,0,0,1-.19.19h-.39a.18.18,0,0,0-.19.19v.38a.19.19,0,0,1-.19.2h-.5a.19.19,0,0,0-.2.19v.38a.19.19,0,0,0,.2.19h2.15a.19.19,0,0,0,.2-.19V64.8a.18.18,0,0,1,.19-.19h.38a.18.18,0,0,1,.19.19V66a.18.18,0,0,1-.19.19Z"/><path class="cls-1" d="M20.88,66a.19.19,0,0,1-.19.19H20.3a.19.19,0,0,1-.19-.19v-.39a.19.19,0,0,0-.19-.19h-.38a.19.19,0,0,1-.2-.19V63.26a.18.18,0,0,0-.19-.19h-.38a.18.18,0,0,1-.19-.19V61.73a.19.19,0,0,0-.2-.19H18a.19.19,0,0,1-.19-.2V61a.18.18,0,0,1,.19-.19h.89a.27.27,0,0,1,.25.18l1.29,4.24s0,0,.07,0,0,0,.05,0L21.85,61a.27.27,0,0,1,.25-.18H23a.18.18,0,0,1,.19.19v.38a.19.19,0,0,1-.19.2h-.38a.19.19,0,0,0-.2.19v1.15a.18.18,0,0,1-.19.19h-.38a.18.18,0,0,0-.19.19v1.92a.19.19,0,0,1-.2.19h-.38a.19.19,0,0,0-.19.19Z"/><path class="cls-1" d="M27.41,66a.19.19,0,0,1-.2.19H25.29A.19.19,0,0,1,25.1,66v-.39a.19.19,0,0,0-.19-.19h-.38a.18.18,0,0,1-.19-.19V63.26a.18.18,0,0,1,.19-.19h.38a.18.18,0,0,0,.19-.19v-.39a.2.2,0,0,1,.19-.19h1.92a.2.2,0,0,1,.2.19v.39a.18.18,0,0,0,.19.19H28a.18.18,0,0,1,.19.19v1.92a.18.18,0,0,1-.19.19H27.6a.19.19,0,0,0-.19.19Zm0-1.73a1.16,1.16,0,1,0-1.16,1.25A1.12,1.12,0,0,0,27.41,64.22Z"/><path class="cls-1" d="M29.33,65.52a.62.62,0,0,1,1.23,0,.62.62,0,1,1-1.23,0ZM29.56,61a.18.18,0,0,1,.19-.19h.38a.18.18,0,0,1,.19.19V64a.18.18,0,0,1-.19.19h-.38a.18.18,0,0,1-.19-.19Z"/><path class="cls-1" d="M34.79,64.08c0-.7-.36-1-.77-1s-.77.31-.77,1v1.1a.18.18,0,0,0,.19.19h.39a.2.2,0,0,1,.19.19V66a.19.19,0,0,1-.19.19H31.91a.18.18,0,0,1-.19-.19v-.39a.19.19,0,0,1,.19-.19h.38a.18.18,0,0,0,.19-.19V61a.18.18,0,0,0-.19-.19h-.38a.19.19,0,0,1-.19-.19v-.39a.18.18,0,0,1,.19-.19h1.15a.18.18,0,0,1,.19.19v1.92a.18.18,0,0,0,.19.19h1.15a.2.2,0,0,1,.2.19v.39a.18.18,0,0,0,.19.19h.38a.18.18,0,0,1,.19.19v1.92a.19.19,0,0,0,.2.19h.38a.19.19,0,0,1,.19.19V66a.18.18,0,0,1-.19.19H35a.18.18,0,0,1-.19-.19Z"/><path class="cls-1" d="M40,67.68a.18.18,0,0,1,.19.19v.38a.18.18,0,0,1-.19.19H38.05a.18.18,0,0,1-.19-.19v-.38a.18.18,0,0,1,.19-.19h.39a.2.2,0,0,0,.19-.2V64a.19.19,0,0,0-.19-.19h-.39a.19.19,0,0,1-.19-.19v-.39a.18.18,0,0,1,.19-.19H39.2a.18.18,0,0,0,.19-.19v-.39a.2.2,0,0,1,.2-.19h1.15a.19.19,0,0,1,.19.19v.39a.18.18,0,0,0,.19.19h.39a.19.19,0,0,1,.19.19v1.92a.19.19,0,0,1-.19.19h-.39a.19.19,0,0,0-.19.19V66a.18.18,0,0,1-.19.19H39.59a.19.19,0,0,0-.2.19v1.15a.2.2,0,0,0,.2.2Zm1-3.45c0-.86-.35-1.16-.76-1.16s-.78.3-.78,1.16.35,1.14.78,1.14S40.93,65.1,40.93,64.23Z"/><path class="cls-1" d="M47.07,66a.18.18,0,0,1-.19.19H45a.18.18,0,0,1-.19-.19v-.39a.19.19,0,0,1,.19-.19h.39a.19.19,0,0,0,.19-.19V64a.19.19,0,0,0-.19-.19H43.43a.19.19,0,0,1-.19-.19V61a.18.18,0,0,1,.19-.19h.38A.18.18,0,0,1,44,61v1.92a.19.19,0,0,0,.2.19h1.15a.19.19,0,0,0,.19-.19V61a.18.18,0,0,1,.19-.19h.38a.19.19,0,0,1,.2.19v1.92a.18.18,0,0,0,.19.19h.38a.18.18,0,0,1,.19.19v.39a.19.19,0,0,1-.19.19H46.5a.18.18,0,0,0-.19.19v1.15a.18.18,0,0,0,.19.19h.38a.19.19,0,0,1,.19.19Z"/><path class="cls-1" d="M51.87,67.68a.2.2,0,0,1-.19-.2V66.33a.18.18,0,0,0-.19-.19H49.57a.18.18,0,0,1-.19-.19v-.39a.2.2,0,0,0-.19-.19H48.8a.19.19,0,0,1-.19-.19V61.73a.19.19,0,0,1,.19-.19h.39a.2.2,0,0,0,.19-.2V61a.18.18,0,0,1,.19-.19h2.69a.18.18,0,0,1,.19.19v.38a.19.19,0,0,0,.19.2H53a.19.19,0,0,1,.19.19v3.45a.19.19,0,0,1-.19.19h-.39a.19.19,0,0,0-.19.19v1.16a.19.19,0,0,0,.19.19H53a.19.19,0,0,1,.19.19v.38a.2.2,0,0,1-.19.2Zm-1-2.47V64.8a.19.19,0,0,1,.2-.19h.38a.19.19,0,0,1,.2.19v.39a.09.09,0,0,0,.15.06,2.37,2.37,0,0,0,.61-1.8c0-1.4-.62-2-1.54-2s-1.53.61-1.53,2,.59,2,1.26,2C50.84,65.44,50.91,65.37,50.91,65.21Z"/><path class="cls-1" d="M55.71,68.44a.19.19,0,0,1-.19-.19v-.38a.18.18,0,0,0-.19-.19H55a.19.19,0,0,1-.19-.2V67.1a.18.18,0,0,1,.19-.19h.36a.33.33,0,0,1,.3.18,1.11,1.11,0,0,0,1,.59,1.17,1.17,0,0,0,1.22-1.12v-.23a.19.19,0,0,0-.2-.19H55.71a.19.19,0,0,1-.19-.19v-.39a.19.19,0,0,0-.19-.19H55a.18.18,0,0,1-.19-.19V63.26a.18.18,0,0,1,.19-.19h.38a.18.18,0,0,0,.19-.19v-.39a.2.2,0,0,1,.19-.19h1.92a.2.2,0,0,1,.2.19v.39a.18.18,0,0,0,.19.19h1.15a.18.18,0,0,1,.19.19v.39a.19.19,0,0,1-.19.19h-.38a.19.19,0,0,0-.2.19v3.45a.19.19,0,0,1-.19.2H58a.18.18,0,0,0-.19.19v.38a.19.19,0,0,1-.2.19Zm1-3a1.25,1.25,0,1,0-1.15-1.25A1.12,1.12,0,0,0,56.67,65.47Z"/><path class="cls-1" d="M64.93,66.14a.18.18,0,0,1,.19.19v.39a.19.19,0,0,1-.19.19H60.71a.19.19,0,0,1-.19-.19v-.39a.18.18,0,0,1,.19-.19Z"/><path class="cls-1" d="M69.35,66a.19.19,0,0,1-.2.19H67.24A.19.19,0,0,1,67,66v-.39a.19.19,0,0,0-.19-.19h-.38a.18.18,0,0,1-.19-.19V64.8a.18.18,0,0,1,.19-.19h.35a.26.26,0,0,1,.27.19c.13.37.54.57,1.1.57s1.16-.21,1.16-.76-.39-.77-1.53-.77h-.2a.19.19,0,0,1-.19-.19v-.4a.18.18,0,0,1,.19-.18h.2c1.14,0,1.53-.22,1.53-.77s-.51-.76-1.16-.76-1,.2-1.1.57a.26.26,0,0,1-.27.19h-.35a.18.18,0,0,1-.19-.19v-.38a.18.18,0,0,1,.19-.19h.38a.19.19,0,0,0,.19-.2V61a.19.19,0,0,1,.2-.19h1.91a.19.19,0,0,1,.2.19v.38a.19.19,0,0,0,.19.2h.38a.18.18,0,0,1,.19.19v1.15a.18.18,0,0,1-.19.19h-.38a.18.18,0,0,0-.19.19v.39a.19.19,0,0,0,.19.19h.38a.18.18,0,0,1,.19.19v1.15a.18.18,0,0,1-.19.19h-.38a.19.19,0,0,0-.19.19Z"/><path class="cls-1" d="M74,68.25V66.33a.18.18,0,0,0-.19-.19H72.61a.18.18,0,0,1-.19-.19v-.39a.2.2,0,0,0-.19-.19h-.39a.19.19,0,0,1-.19-.19V63.26a.19.19,0,0,1,.19-.19h.39a.19.19,0,0,0,.19-.19v-.39a.19.19,0,0,1,.19-.19h1.15a.19.19,0,0,1,.19.19v.39a.19.19,0,0,0,.2.19H75.3a.18.18,0,0,1,.19.19v.39a.19.19,0,0,1-.19.19h-.39a.19.19,0,0,0-.19.19v3.45a.2.2,0,0,0,.19.2h.39a.18.18,0,0,1,.19.19v.38a.18.18,0,0,1-.19.19H74.15A.19.19,0,0,1,74,68.25Zm-1.53-4c0,.87.35,1.14.75,1.14s.78-.27.78-1.14-.34-1.16-.78-1.16S72.42,63.37,72.42,64.23Z"/><path class="cls-1" d="M79.91,66.14h-2a.19.19,0,0,1-.2-.19v-.26a.19.19,0,0,0-.19-.2h-.26A.18.18,0,0,1,77,65.3v-2a.18.18,0,0,1,.19-.19h.38a.18.18,0,0,0,.19-.19v-.39a.19.19,0,0,0-.19-.19h-.26a.18.18,0,0,1-.19-.19v-.38a.18.18,0,0,1,.19-.19h.26a.19.19,0,0,0,.19-.2V61a.19.19,0,0,1,.2-.19h1.15a.18.18,0,0,1,.19.19v.38a.19.19,0,0,0,.19.2h.27a.19.19,0,0,1,.19.19v.38a.19.19,0,0,1-.19.19h-.27a.19.19,0,0,0-.19.19v.39a.18.18,0,0,0,.19.19h.39a.19.19,0,0,1,.19.19v.39a.19.19,0,0,0,.19.19h.38a.2.2,0,0,0,.2-.19v-.39a.18.18,0,0,1,.19-.19h.38a.18.18,0,0,1,.19.19v.39a.33.33,0,0,1-.17.28l-.92.48a.15.15,0,0,0-.06.11.09.09,0,0,0,.09.09h.49a.18.18,0,0,1,.19.19v.38a.18.18,0,0,0,.19.19h.39a.2.2,0,0,1,.19.19V66a.19.19,0,0,1-.19.19h-.39a.43.43,0,0,1-.31-.14l-.83-1a.17.17,0,0,0-.13-.07.07.07,0,0,0-.07.08V66A.19.19,0,0,1,79.91,66.14Zm-.22-1.65a1,1,0,1,0-1,1A1,1,0,0,0,79.69,64.49Zm-1.13-3.07a.55.55,0,0,0-.59.5.6.6,0,1,0,.59-.5Z"/><path class="cls-1" d="M88.54,65.18a.18.18,0,0,1-.19.19H88a.19.19,0,0,0-.19.19v.33a.19.19,0,0,1-.2.19h-.91a.19.19,0,0,1-.19-.19v-.33a.19.19,0,0,0-.19-.19H84.9a.18.18,0,0,1-.19-.19V63.26a.18.18,0,0,1,.19-.19h1.92a.18.18,0,0,1,.19.18v2c0,.1.08.14.17.14.39,0,.84-.78.84-1.52a1.92,1.92,0,0,0-2.16-1.83,2,2,0,0,0-2.16,2.16,1.9,1.9,0,0,0,1.58,2,.24.24,0,0,1,.19.24v.26a.19.19,0,0,1-.19.19H84.13a.19.19,0,0,1-.19-.19v-.39a.18.18,0,0,0-.19-.19h-.39a.19.19,0,0,1-.19-.19V62.49a.2.2,0,0,1,.19-.19h.39a.18.18,0,0,0,.19-.19v-.38a.18.18,0,0,1,.19-.19h3.45a.19.19,0,0,1,.2.19v.38a.18.18,0,0,0,.19.19h.38a.19.19,0,0,1,.19.19Zm-2.68-1.64a.65.65,0,0,0-.63.68.64.64,0,0,0,.63.67.63.63,0,0,0,.62-.67A.64.64,0,0,0,85.86,63.54Z"/><path class="cls-1" d="M92.19,66.14H90.28a.19.19,0,0,1-.2-.19v-.39a.2.2,0,0,1,.2-.19h.38a.18.18,0,0,0,.19-.19V61.73a.18.18,0,0,0-.19-.19h-.38a.2.2,0,0,1-.2-.2V61a.19.19,0,0,1,.2-.19h3.45a.18.18,0,0,1,.19.19v.38a.19.19,0,0,0,.19.2h.39a.19.19,0,0,1,.19.19v1.15a.19.19,0,0,1-.19.19h-.39a.18.18,0,0,0-.19.19v.39a.19.19,0,0,1-.19.19h-.38a.19.19,0,0,0-.2.19v.38a.2.2,0,0,0,.2.2h.38a.18.18,0,0,1,.19.19v.38a.18.18,0,0,0,.19.19h.39a.2.2,0,0,1,.19.19V66a.19.19,0,0,1-.19.19h-.77a.37.37,0,0,1-.3-.16L92.1,64a.37.37,0,0,0-.28-.14.18.18,0,0,0-.2.18v1.16a.18.18,0,0,0,.19.19h.38a.2.2,0,0,1,.2.19V66A.19.19,0,0,1,92.19,66.14Zm.58-4.6h-1a.18.18,0,0,0-.19.19v1.15a.18.18,0,0,0,.19.19h1c.78,0,1.15-.23,1.15-.77S93.55,61.54,92.77,61.54Z"/><path class="cls-1" d="M98.91,66a.18.18,0,0,1-.19.19H97.57a.18.18,0,0,1-.19-.19v-.39a.2.2,0,0,0-.19-.19H96.8a.19.19,0,0,1-.19-.19V63.26a.18.18,0,0,0-.19-.19H96a.19.19,0,0,1-.2-.19v-.39a.2.2,0,0,1,.2-.19h.38a.18.18,0,0,0,.19-.19V61a.19.19,0,0,1,.19-.19h.39a.19.19,0,0,1,.19.19v1.15a.18.18,0,0,0,.19.19h1.15a.19.19,0,0,1,.19.19v.39a.18.18,0,0,1-.19.19H97.57a.18.18,0,0,0-.19.19v1.35a.7.7,0,0,0,.77.76h.57a.19.19,0,0,1,.19.19Z"/><path class="cls-1" d="M100.07,60.19a.18.18,0,0,1,.19-.19H101a.19.19,0,0,1,.19.19v.39a.19.19,0,0,0,.19.19h.38a.19.19,0,0,1,.2.19v4.22a.19.19,0,0,1-.2.19h-.38a.19.19,0,0,0-.19.19V66a.19.19,0,0,1-.19.19h-.77a.18.18,0,0,1-.19-.19v-.36a.22.22,0,0,1,.19-.24c.65-.14,1.08-.88,1.08-2.28s-.43-2.13-1.08-2.28a.22.22,0,0,1-.19-.24Z"/><path class="cls-1" d="M3.84,78a.19.19,0,0,1-.19.19H1A.18.18,0,0,1,.77,78v-.39a.2.2,0,0,0-.19-.19H.19A.18.18,0,0,1,0,77.18V76.8a.18.18,0,0,1,.19-.19H.53a.24.24,0,0,1,.27.19c.11.31.52.57,1.5.57,1.15,0,1.42-.4,1.42-.76,0-.56-.61-.87-2.76-.89a.19.19,0,0,1-.19-.19v-.27a.19.19,0,0,0-.19-.19H.19A.18.18,0,0,1,0,74.88V73.73a.18.18,0,0,1,.19-.19H.58a.2.2,0,0,0,.19-.2V73A.18.18,0,0,1,1,72.77H3.65a.19.19,0,0,1,.19.19v.38a.19.19,0,0,0,.19.2h.38a.19.19,0,0,1,.2.19v.38a.19.19,0,0,1-.2.19H4.08a.25.25,0,0,1-.28-.19c-.11-.31-.51-.57-1.5-.57-1.15,0-1.41.4-1.41.76,0,.55.61.87,2.76.89a.19.19,0,0,1,.19.19v.27a.19.19,0,0,0,.19.19h.38a.19.19,0,0,1,.2.19v1.15a.19.19,0,0,1-.2.19H4a.19.19,0,0,0-.19.19Z"/><path class="cls-1" d="M8.83,78a.18.18,0,0,1-.19.19H7.49A.18.18,0,0,1,7.3,78v-.39a.2.2,0,0,0-.2-.19H6.72a.18.18,0,0,1-.19-.19V75.26a.19.19,0,0,0-.19-.19H6a.18.18,0,0,1-.19-.19v-.39A.19.19,0,0,1,6,74.3h.39a.19.19,0,0,0,.19-.19V73a.18.18,0,0,1,.19-.19H7.1a.19.19,0,0,1,.2.19v1.15a.18.18,0,0,0,.19.19H8.64a.19.19,0,0,1,.19.19v.39a.18.18,0,0,1-.19.19H7.49a.18.18,0,0,0-.19.19v1.35a.69.69,0,0,0,.76.76h.58a.19.19,0,0,1,.19.19Z"/><path class="cls-1" d="M12.78,77a.32.32,0,0,1,.31-.18h.35a.18.18,0,0,1,.19.19v.19a.18.18,0,0,1-.19.19h-.19a.2.2,0,0,0-.2.19V78a.18.18,0,0,1-.19.19H10.94a.19.19,0,0,1-.19-.19v-.39a.19.19,0,0,0-.19-.19h-.38a.19.19,0,0,1-.2-.19V75.26a.19.19,0,0,1,.2-.19h.38a.18.18,0,0,0,.19-.19v-.39a.2.2,0,0,1,.19-.19h1.92a.19.19,0,0,1,.19.19v.39a.19.19,0,0,0,.2.19h.19a.18.18,0,0,1,.19.19v.19a.19.19,0,0,1-.19.2h-.35a.32.32,0,0,1-.31-.18.9.9,0,0,0-.88-.4,1.15,1.15,0,1,0,0,2.3A.91.91,0,0,0,12.78,77Z"/><path class="cls-1" d="M16.89,75.45a.2.2,0,0,0-.19.2V76a.18.18,0,0,1-.19.19H16a.05.05,0,0,1-.06-.06v-.08c0-1.25,1.41-1.25,1.41-2,0-.38-.41-.57-.84-.57a.89.89,0,0,0-.93.57.24.24,0,0,1-.26.19H15a.19.19,0,0,1-.2-.19v-.38a.19.19,0,0,1,.2-.19h.38a.19.19,0,0,0,.19-.2V73a.19.19,0,0,1,.19-.19h1.54a.18.18,0,0,1,.19.19v.38a.19.19,0,0,0,.19.2h.19a.19.19,0,0,1,.2.19v.76a.2.2,0,0,1-.2.2h-.19a.18.18,0,0,0-.19.19v.38a.18.18,0,0,1-.19.19Zm-1.18,2.07a.62.62,0,0,1,1.23,0,.62.62,0,1,1-1.23,0Z"/><path class="cls-1" d="M22.46,77.37a.19.19,0,0,1,.19.19V78a.18.18,0,0,1-.19.19H20.54a.19.19,0,0,1-.19-.19v-.39a.2.2,0,0,1,.19-.19h.39a.18.18,0,0,0,.19-.19V73.73a.18.18,0,0,0-.19-.19H19.78a.19.19,0,0,0-.2.19v.38a.18.18,0,0,1-.19.19H19a.18.18,0,0,1-.19-.19V73a.18.18,0,0,1,.19-.19h5a.18.18,0,0,1,.19.19v1.15a.18.18,0,0,1-.19.19h-.39a.19.19,0,0,1-.19-.19v-.38a.18.18,0,0,0-.19-.19H22.08a.18.18,0,0,0-.19.19v3.45a.18.18,0,0,0,.19.19Z"/><path class="cls-1" d="M25.92,73.54a.19.19,0,0,0,.19-.2V73a.19.19,0,0,1,.19-.19h1.92a.18.18,0,0,1,.19.19v.38a.2.2,0,0,0,.2.2H29a.18.18,0,0,1,.19.19v3.45a.18.18,0,0,1-.19.19h-.38a.2.2,0,0,0-.2.19V78a.18.18,0,0,1-.19.19h-2.3a.18.18,0,0,1-.19-.19v-.39a.19.19,0,0,1,.19-.19h1c1,0,1.49-.33,1.53-1.34a.19.19,0,0,0-.19-.19H26.3a.2.2,0,0,1-.19-.19v-.39a.18.18,0,0,0-.19-.19h-.38a.19.19,0,0,1-.2-.19V73.73a.19.19,0,0,1,.2-.19Zm2.49.76c0-.48-.44-.76-1.15-.76s-1.15.28-1.15.76.45.77,1.15.77S28.41,74.78,28.41,74.3Z"/><path class="cls-1" d="M33.41,78a.19.19,0,0,1-.2.19H32.06a.19.19,0,0,1-.19-.19v-.39a.19.19,0,0,0-.19-.19H31.3a.19.19,0,0,1-.2-.19V75.26a.18.18,0,0,0-.19-.19h-.38a.18.18,0,0,1-.19-.19v-.39a.19.19,0,0,1,.19-.19h.38a.18.18,0,0,0,.19-.19V73a.19.19,0,0,1,.2-.19h.38a.18.18,0,0,1,.19.19v1.15a.19.19,0,0,0,.19.19h1.15a.2.2,0,0,1,.2.19v.39a.19.19,0,0,1-.2.19H32.06a.19.19,0,0,0-.19.19v1.35a.7.7,0,0,0,.77.76h.57a.2.2,0,0,1,.2.19Z"/><path class="cls-1" d="M37.63,78a.18.18,0,0,1-.19.19H35.52a.18.18,0,0,1-.19-.19v-.39a.2.2,0,0,0-.19-.19h-.39a.18.18,0,0,1-.19-.19V76a.18.18,0,0,1,.19-.19h.39a.2.2,0,0,0,.19-.19v-.39a.19.19,0,0,0-.19-.19h-.39a.18.18,0,0,1-.19-.19V73.73a.18.18,0,0,1,.19-.19h.39a.2.2,0,0,0,.19-.2V73a.18.18,0,0,1,.19-.19h1.92a.18.18,0,0,1,.19.19v.38a.19.19,0,0,0,.19.2h.39a.19.19,0,0,1,.19.19v1.15a.19.19,0,0,1-.19.19h-.39a.18.18,0,0,0-.19.19v.39a.19.19,0,0,0,.19.19h.39a.19.19,0,0,1,.19.19v1.15a.19.19,0,0,1-.19.19h-.39a.19.19,0,0,0-.19.19ZM36.48,73.5c-.71,0-1.15.29-1.15.8s.44.81,1.15.81,1.15-.29,1.15-.81S37.19,73.5,36.48,73.5Zm1.15,3.11c0-.52-.44-.81-1.15-.81s-1.15.29-1.15.81.44.8,1.15.8S37.63,77.12,37.63,76.61Z"/><path class="cls-1" d="M41.47,72.19a.18.18,0,0,1,.19-.19h1.15a.19.19,0,0,1,.2.19v4.22a.19.19,0,0,0,.19.2h.38a.18.18,0,0,1,.19.19v.38a.18.18,0,0,1-.19.19H42.43a.19.19,0,0,0-.19.19V78a.19.19,0,0,1-.19.19H40.9a.19.19,0,0,1-.2-.19v-.39a.19.19,0,0,0-.19-.19h-.38a.18.18,0,0,1-.19-.19V75.26a.18.18,0,0,1,.19-.19h.38a.18.18,0,0,0,.19-.19v-.39a.2.2,0,0,1,.2-.19h1.15a.19.19,0,0,0,.19-.19V73a.19.19,0,0,0-.19-.19h-.39a.19.19,0,0,1-.19-.19Zm.77,4c0-.86-.35-1.14-.78-1.14s-.76.28-.76,1.14.35,1.16.76,1.16S42.24,77.07,42.24,76.21Z"/><path class="cls-1" d="M46.85,76.37c0,.69.36,1,.76,1s.77-.31.77-1V75.26a.18.18,0,0,0-.19-.19h-.38a.19.19,0,0,1-.2-.19v-.39a.2.2,0,0,1,.2-.19H49a.19.19,0,0,1,.19.19v1.92a.19.19,0,0,0,.19.2h.39a.19.19,0,0,1,.19.19v.38a.19.19,0,0,1-.19.19H48.57a.2.2,0,0,0-.19.19V78a.18.18,0,0,1-.19.19H47a.18.18,0,0,1-.19-.19v-.39a.2.2,0,0,0-.19-.19h-.39a.18.18,0,0,1-.19-.19V75.26a.18.18,0,0,0-.19-.19H45.5a.19.19,0,0,1-.19-.19v-.39a.2.2,0,0,1,.19-.19h1.16a.2.2,0,0,1,.19.19Z"/><path class="cls-1" d="M54.53,78a.19.19,0,0,1-.2.19H52.42a.19.19,0,0,1-.2-.19v-.39a.19.19,0,0,0-.19-.19h-.38a.18.18,0,0,1-.19-.19V76a.18.18,0,0,1,.19-.19H52a.19.19,0,0,0,.19-.19v-.39a.18.18,0,0,0-.19-.19h-.38a.18.18,0,0,1-.19-.19V73.73a.18.18,0,0,1,.19-.19H52a.19.19,0,0,0,.19-.2V73a.19.19,0,0,1,.2-.19h1.91a.19.19,0,0,1,.2.19v.38a.19.19,0,0,0,.19.2h.38a.18.18,0,0,1,.19.19v1.15a.18.18,0,0,1-.19.19h-.38a.18.18,0,0,0-.19.19v.39a.19.19,0,0,0,.19.19h.38a.18.18,0,0,1,.19.19v1.15a.18.18,0,0,1-.19.19h-.38a.19.19,0,0,0-.19.19ZM53.38,73.5c-.71,0-1.16.29-1.16.8s.45.81,1.16.81,1.15-.29,1.15-.81S54.08,73.5,53.38,73.5Zm1.15,3.11c0-.52-.45-.81-1.15-.81s-1.16.29-1.16.81.45.8,1.16.8S54.53,77.12,54.53,76.61Z"/><path class="cls-1" d="M57,78.14a.19.19,0,0,1-.19-.19v-.39a.2.2,0,0,1,.19-.19h.39a.18.18,0,0,0,.19-.19V76a.18.18,0,0,0-.19-.19H57a.2.2,0,0,1-.19-.19v-.39a.19.19,0,0,1,.19-.19h1.15a.19.19,0,0,1,.2.19v1.92a.18.18,0,0,0,.19.19h.38a.19.19,0,0,1,.19.19V78a.18.18,0,0,1-.19.19Zm.9-3.84a.62.62,0,1,1,.63-.62A.61.61,0,0,1,57.92,74.3Z"/><path class="cls-1" d="M64.7,77.37a.19.19,0,0,0-.19.19V78a.18.18,0,0,1-.19.19H62.4a.18.18,0,0,1-.19-.19v-.39a.2.2,0,0,0-.2-.19h-.38a.18.18,0,0,1-.19-.19V73.73a.18.18,0,0,0-.19-.19h-.39a.2.2,0,0,1-.19-.2V73a.19.19,0,0,1,.19-.19h1.92A.18.18,0,0,1,63,73v.38a.19.19,0,0,1-.19.2H62.4a.18.18,0,0,0-.19.19v1.72c0,1.41.24,2,1.15,2s1.15-.61,1.15-2V73.73a.18.18,0,0,0-.19-.19h-.39a.2.2,0,0,1-.19-.2V73a.19.19,0,0,1,.19-.19h1.92A.18.18,0,0,1,66,73v.38a.19.19,0,0,1-.19.2h-.38a.18.18,0,0,0-.19.19v3.45a.19.19,0,0,1-.2.19Z"/><path class="cls-1" d="M69.45,77.36s0,0,0,0,0,0,0,0l1-2.88a.3.3,0,0,1,.27-.18h.76a.19.19,0,0,1,.19.19v.39a.18.18,0,0,1-.19.19h-.38a.18.18,0,0,0-.19.19v1.15a.2.2,0,0,1-.19.2h-.39a.18.18,0,0,0-.19.19V78a.18.18,0,0,1-.19.19H68.93a.19.19,0,0,1-.2-.19V76.8a.18.18,0,0,0-.19-.19h-.38a.19.19,0,0,1-.19-.2V75.26a.19.19,0,0,0-.19-.19h-.39a.18.18,0,0,1-.19-.19v-.39a.19.19,0,0,1,.19-.19h.77a.28.28,0,0,1,.26.18Z"/><path class="cls-1" d="M73.81,73.81a.18.18,0,0,1-.19.19h-.24a.18.18,0,0,1-.19-.19v-.35A.24.24,0,0,0,73,73.2a.6.6,0,0,1-.42-.59.62.62,0,0,1,1.23,0Zm1.84,0a.19.19,0,0,1-.2.19h-.24a.19.19,0,0,1-.19-.19v-.35a.24.24,0,0,0-.19-.26.61.61,0,0,1-.42-.59.62.62,0,0,1,1.24,0Z"/><path class="cls-1" d="M77,76.91a.61.61,0,0,1,.62.61.62.62,0,1,1-1.23,0A.61.61,0,0,1,77,76.91Z"/><path class="cls-1" d="M79,78.14a.19.19,0,0,1-.2-.19v-.39a.2.2,0,0,1,.2-.19h.38a.18.18,0,0,0,.19-.19V76a.18.18,0,0,0-.19-.19H79a.2.2,0,0,1-.2-.19v-.39a.19.19,0,0,1,.2-.19h1.15a.19.19,0,0,1,.19.19v1.92a.18.18,0,0,0,.19.19h.38a.2.2,0,0,1,.2.19V78a.19.19,0,0,1-.2.19Zm.89-3.84a.62.62,0,1,1,.63-.62A.61.61,0,0,1,79.89,74.3Z"/><path class="cls-1" d="M85.33,78a.18.18,0,0,1-.19.19h-.39a.19.19,0,0,1-.19-.19v-.39a.19.19,0,0,0-.19-.19H84a.19.19,0,0,1-.2-.19V75.26a.18.18,0,0,0-.19-.19h-.38a.18.18,0,0,1-.19-.19V73.73a.19.19,0,0,0-.2-.19h-.38a.19.19,0,0,1-.19-.2V73a.18.18,0,0,1,.19-.19h.89a.27.27,0,0,1,.25.18l1.3,4.24s0,0,.06,0,0,0,.06,0L86.3,73a.28.28,0,0,1,.25-.18h.89a.18.18,0,0,1,.19.19v.38a.19.19,0,0,1-.19.2h-.38a.18.18,0,0,0-.19.19v1.15a.19.19,0,0,1-.2.19h-.38a.18.18,0,0,0-.19.19v1.92a.19.19,0,0,1-.19.19h-.39a.19.19,0,0,0-.19.19Z"/><path class="cls-1" d="M91.86,78a.19.19,0,0,1-.19.19H89.75a.19.19,0,0,1-.2-.19v-.39a.19.19,0,0,0-.19-.19H89a.18.18,0,0,1-.19-.19V76.8a.18.18,0,0,1,.19-.19h.35a.26.26,0,0,1,.27.19c.13.37.54.57,1.11.57s1.15-.21,1.15-.76-.39-.77-1.53-.77h-.2a.19.19,0,0,1-.19-.19v-.4a.18.18,0,0,1,.19-.18h.2c1.14,0,1.53-.22,1.53-.77s-.51-.76-1.15-.76-1,.2-1.11.57a.26.26,0,0,1-.27.19H89a.18.18,0,0,1-.19-.19v-.38a.18.18,0,0,1,.19-.19h.38a.19.19,0,0,0,.19-.2V73a.19.19,0,0,1,.2-.19h1.92a.19.19,0,0,1,.19.19v.38a.19.19,0,0,0,.19.2h.38a.18.18,0,0,1,.19.19v1.15a.18.18,0,0,1-.19.19h-.38a.18.18,0,0,0-.19.19v.39a.19.19,0,0,0,.19.19h.38a.18.18,0,0,1,.19.19v1.15a.18.18,0,0,1-.19.19h-.38a.19.19,0,0,0-.19.19Z"/><path class="cls-1" d="M94.39,76.91a.61.61,0,0,1,.62.61.62.62,0,1,1-1.23,0A.61.61,0,0,1,94.39,76.91Z"/><path class="cls-1" d="M99.62,78a.18.18,0,0,1-.19.19H99a.19.19,0,0,1-.19-.19v-.39a.19.19,0,0,0-.19-.19h-.38a.19.19,0,0,0-.19.19V78a.19.19,0,0,1-.2.19h-.38a.18.18,0,0,1-.19-.19V76.8a.19.19,0,0,0-.19-.19h-.39a.19.19,0,0,1-.19-.2V75.26a.18.18,0,0,0-.19-.19H96a.19.19,0,0,1-.19-.19v-.39A.2.2,0,0,1,96,74.3h.77a.3.3,0,0,1,.27.18l1,2.33s.07,0,.07,0l0-1.53a.18.18,0,0,1,.19-.19h.38a.18.18,0,0,1,.19.19l0,1.53s.06.07.07,0l1-2.33a.3.3,0,0,1,.27-.18H101a.2.2,0,0,1,.2.19v.39a.19.19,0,0,1-.2.19h-.38a.18.18,0,0,0-.19.19v1.15a.2.2,0,0,1-.19.2h-.39a.19.19,0,0,0-.19.19Z"/><path class="cls-1" d="M103.16,78.72a.19.19,0,0,1-.19.19h-.24a.19.19,0,0,1-.19-.19v-.35a.24.24,0,0,0-.19-.27.61.61,0,1,1,.81-.58Z"/><path class="cls-1" d="M6.58,88.61a.18.18,0,0,1,.19.19V90a.18.18,0,0,1-.19.19H2.36A.18.18,0,0,1,2.17,90v-.39a.19.19,0,0,1,.19-.19h.38a.18.18,0,0,0,.19-.19V85.73a.18.18,0,0,0-.19-.19H2.36a.19.19,0,0,1-.19-.2V85a.18.18,0,0,1,.19-.19H6.58a.18.18,0,0,1,.19.19v1.15a.18.18,0,0,1-.19.19H6.2a.19.19,0,0,1-.2-.19v-.38a.18.18,0,0,0-.19-.19H3.89a.19.19,0,0,0-.19.19v1.15a.19.19,0,0,0,.19.19h.39a.19.19,0,0,0,.19-.19v-.39a.19.19,0,0,1,.19-.19H5a.2.2,0,0,1,.2.19v1.92a.2.2,0,0,1-.2.2H4.66a.19.19,0,0,1-.19-.2V88a.19.19,0,0,0-.19-.19H3.89A.19.19,0,0,0,3.7,88v1.15a.19.19,0,0,0,.19.19H5.81A.18.18,0,0,0,6,89.18V88.8a.19.19,0,0,1,.2-.19Z"/><path class="cls-1" d="M12.15,90a.19.19,0,0,1-.19.19H10A.18.18,0,0,1,9.85,90v-.39a.19.19,0,0,1,.19-.19h.38a.18.18,0,0,0,.19-.19V88a.18.18,0,0,0-.19-.19H8.5a.19.19,0,0,1-.19-.19V85a.18.18,0,0,1,.19-.19h.39a.19.19,0,0,1,.19.19v1.92a.18.18,0,0,0,.19.19h1.15a.18.18,0,0,0,.19-.19V85a.19.19,0,0,1,.19-.19h.39a.18.18,0,0,1,.19.19v1.92a.18.18,0,0,0,.19.19H12a.19.19,0,0,1,.19.19v.39a.2.2,0,0,1-.19.19h-.39a.18.18,0,0,0-.19.19v1.15a.18.18,0,0,0,.19.19H12a.2.2,0,0,1,.19.19Z"/><path class="cls-1" d="M16,89.19a.18.18,0,0,1-.2.18.19.19,0,0,0-.18.18V90a.19.19,0,0,1-.2.19H15a.18.18,0,0,1-.19-.19v-.4a.19.19,0,0,0-.18-.18.19.19,0,0,1-.21-.18V88a.18.18,0,0,0-.18-.18.19.19,0,0,1-.2-.18V85.73a.18.18,0,0,0-.19-.19h-.39a.2.2,0,0,1-.19-.2V85a.19.19,0,0,1,.19-.19h1.8a.19.19,0,0,1,.2.19v.38a.2.2,0,0,1-.2.2h-.38a.17.17,0,0,0-.17.19l.47,3.07c0,.06.08.07.11,0l.86-2a.19.19,0,0,1,.19-.12.17.17,0,0,1,.19.12l.87,2c0,.06.09,0,.11,0L18,85.73a.17.17,0,0,0-.16-.19h-.39a.19.19,0,0,1-.19-.2V85a.18.18,0,0,1,.19-.19h1.8a.18.18,0,0,1,.19.19v.38a.19.19,0,0,1-.19.2h-.38a.18.18,0,0,0-.19.19v1.93a.2.2,0,0,1-.21.18.19.19,0,0,0-.18.18v1.17a.18.18,0,0,1-.2.18.19.19,0,0,0-.18.18V90a.19.19,0,0,1-.19.19h-.39a.18.18,0,0,1-.19-.19v-.4a.19.19,0,0,0-.18-.18.18.18,0,0,1-.2-.18v-.78a.2.2,0,0,0-.2-.19h-.38a.19.19,0,0,0-.19.19Z"/><path class="cls-1" d="M21.17,85.54a.2.2,0,0,0,.2-.2V85a.18.18,0,0,1,.19-.19h1.92a.19.19,0,0,1,.19.19v.38a.19.19,0,0,0,.19.2h.38a.19.19,0,0,1,.2.19v3.45a.19.19,0,0,1-.2.19h-.38a.19.19,0,0,0-.19.19V90a.19.19,0,0,1-.19.19H21.17A.19.19,0,0,1,21,90v-.39a.2.2,0,0,1,.19-.19h1c1,0,1.49-.33,1.54-1.34a.2.2,0,0,0-.19-.19H21.56a.19.19,0,0,1-.19-.19v-.39a.19.19,0,0,0-.2-.19h-.38a.18.18,0,0,1-.19-.19V85.73a.18.18,0,0,1,.19-.19Zm2.5.76c0-.48-.45-.76-1.15-.76s-1.15.28-1.15.76.44.77,1.15.77S23.67,86.78,23.67,86.3Z"/><path class="cls-1" d="M28.08,91.68a.19.19,0,0,1,.2.19v.38a.19.19,0,0,1-.2.19H26.17a.19.19,0,0,1-.2-.19v-.38a.19.19,0,0,1,.2-.19h.38a.19.19,0,0,0,.19-.2V88a.18.18,0,0,0-.19-.19h-.38a.2.2,0,0,1-.2-.19v-.39a.19.19,0,0,1,.2-.19h1.15a.19.19,0,0,0,.19-.19v-.39a.19.19,0,0,1,.19-.19h1.15a.19.19,0,0,1,.19.19v.39a.19.19,0,0,0,.2.19h.38a.18.18,0,0,1,.19.19v1.92a.18.18,0,0,1-.19.19h-.38a.2.2,0,0,0-.2.19V90a.18.18,0,0,1-.19.19H27.7a.19.19,0,0,0-.19.19v1.15a.19.19,0,0,0,.19.2Zm1-3.45c0-.86-.34-1.16-.75-1.16s-.78.3-.78,1.16.35,1.14.78,1.14S29,89.1,29,88.23Z"/><path class="cls-1" d="M32.2,85.81A.18.18,0,0,1,32,86h-.24a.18.18,0,0,1-.19-.19v-.35a.24.24,0,0,0-.19-.26.62.62,0,1,1,.81-.59Zm1.84,0a.19.19,0,0,1-.2.19H33.6a.19.19,0,0,1-.19-.19v-.35a.23.23,0,0,0-.19-.26.61.61,0,0,1-.42-.59.62.62,0,0,1,1.24,0Z"/><path class="cls-1" d="M36.72,89.83V90a.15.15,0,0,1-.14.14h-1.2a.18.18,0,0,1-.19-.19v-.39a.19.19,0,0,1,.19-.19h.39a.19.19,0,0,0,.19-.19V88.8a.18.18,0,0,1,.19-.19h.34a.19.19,0,0,0,.18-.18v-.21c0-.71-.6-1.08-1.29-1.14a.2.2,0,0,1-.19-.21v-.38a.19.19,0,0,1,.19-.19h1.15a.19.19,0,0,1,.19.19v.39a.19.19,0,0,0,.2.19h.38a.18.18,0,0,1,.19.19v.51a.15.15,0,0,0,.16.15c.24,0,.61-.48.61-1.31v-.16a.16.16,0,0,1,.14-.15h1.2a.19.19,0,0,1,.19.19v.39a.18.18,0,0,1-.19.19h-.38a.18.18,0,0,0-.19.19v.39a.2.2,0,0,1-.19.19H38.5a.18.18,0,0,0-.18.18v.2c0,.71.6,1.08,1.28,1.14a.21.21,0,0,1,.19.22V90a.18.18,0,0,1-.19.19H38.45a.18.18,0,0,1-.19-.19v-.39a.19.19,0,0,0-.19-.19h-.39a.19.19,0,0,1-.19-.19v-.53a.14.14,0,0,0-.15-.13C37.1,88.52,36.72,89,36.72,89.83Z"/><path class="cls-1" d="M44.4,90a.18.18,0,0,1-.19.19H42.29A.19.19,0,0,1,42.1,90v-.39a.19.19,0,0,0-.19-.19h-.38a.19.19,0,0,1-.2-.19V88.8a.19.19,0,0,1,.2-.19h.34a.26.26,0,0,1,.28.19c.13.37.54.57,1.1.57s1.15-.21,1.15-.76-.38-.77-1.52-.77h-.2a.19.19,0,0,1-.19-.19v-.4a.18.18,0,0,1,.19-.18h.2c1.14,0,1.52-.22,1.52-.77s-.5-.76-1.15-.76-1,.2-1.1.57a.26.26,0,0,1-.28.19h-.34a.19.19,0,0,1-.2-.19v-.38a.19.19,0,0,1,.2-.19h.38a.19.19,0,0,0,.19-.2V85a.19.19,0,0,1,.19-.19h1.92a.18.18,0,0,1,.19.19v.38a.2.2,0,0,0,.2.2H45a.18.18,0,0,1,.19.19v1.15a.18.18,0,0,1-.19.19H44.6a.19.19,0,0,0-.2.19v.39a.2.2,0,0,0,.2.19H45a.18.18,0,0,1,.19.19v1.15a.18.18,0,0,1-.19.19H44.6a.2.2,0,0,0-.2.19Z"/><path class="cls-1" d="M49,90a.18.18,0,0,1-.19.19H46.9a.18.18,0,0,1-.19-.19v-.39a.19.19,0,0,1,.19-.19h.39a.19.19,0,0,0,.19-.19V85a.19.19,0,0,0-.19-.19H46.9a.19.19,0,0,1-.19-.19v-.39A.18.18,0,0,1,46.9,84h1.15a.19.19,0,0,1,.2.19v5a.18.18,0,0,0,.19.19h.38a.19.19,0,0,1,.19.19Z"/><path class="cls-1" d="M51.44,90a.44.44,0,0,1-.32.14h-.76a.18.18,0,0,1-.19-.19v-.39a.19.19,0,0,1,.19-.19h.38a.18.18,0,0,0,.19-.19V88.8a.19.19,0,0,1,.19-.19h.39a.19.19,0,0,0,.19-.2V88a.2.2,0,0,1,.19-.2h.39a.11.11,0,0,0,.08-.17l-1.32-2a.37.37,0,0,0-.3-.15h-.38a.19.19,0,0,1-.19-.2V85a.18.18,0,0,1,.19-.19h1.15a.18.18,0,0,1,.19.19v.38a.2.2,0,0,0,.19.2h.39a.21.21,0,0,1,.21.19v1.15a.07.07,0,0,0,.12.05l1.66-2a.43.43,0,0,1,.31-.14h.77a.18.18,0,0,1,.19.19v.38a.19.19,0,0,1-.19.2H55a.19.19,0,0,0-.19.19v.38a.18.18,0,0,1-.19.19H54.2a.2.2,0,0,0-.2.19v.39a.19.19,0,0,1-.19.2h-.38a.11.11,0,0,0-.09.17l1.32,2a.37.37,0,0,0,.3.15h.39a.19.19,0,0,1,.19.19V90a.18.18,0,0,1-.19.19H54.2A.19.19,0,0,1,54,90v-.39a.19.19,0,0,0-.19-.19h-.38a.18.18,0,0,1-.19-.19V88a.07.07,0,0,0-.12,0Z"/><path class="cls-1" d="M59.19,87.07a.18.18,0,0,1,.19.19v.39a.19.19,0,0,1-.19.19H56.5a.19.19,0,0,1-.19-.19v-.39a.18.18,0,0,1,.19-.19Z"/><path class="cls-1" d="M63.8,89.37a.2.2,0,0,1,.19.19V90a.19.19,0,0,1-.19.19H61.88a.19.19,0,0,1-.2-.19v-.39a.2.2,0,0,1,.2-.19h.38a.18.18,0,0,0,.19-.19V85.73a.18.18,0,0,0-.19-.19H61.11a.18.18,0,0,0-.19.19v.38a.19.19,0,0,1-.19.19h-.39a.18.18,0,0,1-.19-.19V85a.18.18,0,0,1,.19-.19h5a.18.18,0,0,1,.19.19v1.15a.18.18,0,0,1-.19.19H65a.19.19,0,0,1-.2-.19v-.38a.18.18,0,0,0-.19-.19H63.41a.18.18,0,0,0-.19.19v3.45a.18.18,0,0,0,.19.19Z"/><path class="cls-1" d="M69.75,92.25a.19.19,0,0,1-.19.19H67.64a.18.18,0,0,1-.19-.19v-.38a.19.19,0,0,0-.2-.19h-.38a.19.19,0,0,1-.19-.2V91.1a.18.18,0,0,1,.19-.19h.36a.33.33,0,0,1,.3.18,1.12,1.12,0,0,0,1,.59,1.17,1.17,0,0,0,1.21-1.12v-.23a.2.2,0,0,0-.19-.19H68.4a.19.19,0,0,1-.19-.19V88.8a.18.18,0,0,0-.19-.19h-.38a.19.19,0,0,1-.19-.2V87.26a.19.19,0,0,0-.2-.19h-.38a.18.18,0,0,1-.19-.19v-.39a.19.19,0,0,1,.19-.19h.77a.31.31,0,0,1,.26.18l1,2.71a.29.29,0,0,0,.26.18h.39a.19.19,0,0,0,.19-.19V87.26a.19.19,0,0,0-.19-.19h-.39a.18.18,0,0,1-.19-.19v-.39a.19.19,0,0,1,.19-.19h1.15a.2.2,0,0,1,.2.19v5a.2.2,0,0,1-.2.2h-.38a.18.18,0,0,0-.19.19Z"/><path class="cls-1" d="M72.63,85.54a.19.19,0,0,0,.19-.2V85a.19.19,0,0,1,.19-.19h1.92a.18.18,0,0,1,.19.19v.38a.2.2,0,0,0,.2.2h.38a.18.18,0,0,1,.19.19v3.45a.18.18,0,0,1-.19.19h-.38a.2.2,0,0,0-.2.19V90a.18.18,0,0,1-.19.19h-2.3a.18.18,0,0,1-.19-.19v-.39a.19.19,0,0,1,.19-.19h1c1,0,1.49-.33,1.53-1.34a.19.19,0,0,0-.19-.19H73a.2.2,0,0,1-.19-.19v-.39a.18.18,0,0,0-.19-.19h-.38a.19.19,0,0,1-.2-.19V85.73a.19.19,0,0,1,.2-.19Zm2.49.76c0-.48-.44-.76-1.15-.76s-1.15.28-1.15.76.44.77,1.15.77S75.12,86.78,75.12,86.3Z"/><path class="cls-1" d="M77.62,90.14a.18.18,0,0,1-.19-.19v-.39a.5.5,0,0,1,.13-.32l3.58-3.55a.09.09,0,0,0-.08-.14H78.51a.18.18,0,0,0-.19.18v.38a.19.19,0,0,1-.2.19h-.38a.18.18,0,0,1-.19-.19V85a.18.18,0,0,1,.19-.19h4.1A.19.19,0,0,1,82,85v1.15a.19.19,0,0,1-.2.19h-.38a.19.19,0,0,0-.19.19v.39a.19.19,0,0,1-.19.19h-.39a.18.18,0,0,0-.19.19v.39a.19.19,0,0,1-.19.19h-.39a.19.19,0,0,0-.19.19v.38a.19.19,0,0,1-.19.2H79a.19.19,0,0,0-.2.19v.38a.19.19,0,0,0,.2.19H81.2a.19.19,0,0,0,.19-.19V88.8a.18.18,0,0,1,.19-.19H82a.19.19,0,0,1,.2.19V90a.19.19,0,0,1-.2.19Z"/><path class="cls-1" d="M86.76,90a.18.18,0,0,1-.19.19H84.65a.18.18,0,0,1-.19-.19v-.39a.19.19,0,0,0-.19-.19h-.39a.19.19,0,0,1-.19-.19V85.73a.19.19,0,0,1,.19-.19h.39a.19.19,0,0,0,.19-.2V85a.18.18,0,0,1,.19-.19h1.92a.18.18,0,0,1,.19.19v.38a.2.2,0,0,0,.2.2h.38a.18.18,0,0,1,.19.19v3.45a.18.18,0,0,1-.19.19H87a.2.2,0,0,0-.2.19Zm0-2.5c0-1.39-.42-2-1.15-2s-1.15.62-1.15,2,.42,2,1.15,2S86.76,88.85,86.76,87.45Z"/><path class="cls-1" d="M90.8,87.84a.2.2,0,0,0,.19-.19v-.39a.19.19,0,0,0-.19-.19H89.26a.18.18,0,0,1-.19-.19v-.39a.19.19,0,0,1,.19-.19h2.83a.19.19,0,0,1,.19.19v.77a.4.4,0,0,1-.15.31L90,89.24a.07.07,0,0,0,0,.12h1.41a.18.18,0,0,0,.2-.18V88.8a.18.18,0,0,1,.19-.19h.38a.18.18,0,0,1,.19.19V90a.18.18,0,0,1-.19.19H89.26a.18.18,0,0,1-.19-.19V88.8a.18.18,0,0,1,.19-.19h.38a.2.2,0,0,0,.2-.2V88a.18.18,0,0,1,.19-.19Z"/><path class="cls-1" d="M96.44,86.3a.2.2,0,0,1,.19.19v.39a.19.19,0,0,1-.19.19H93.75a.18.18,0,0,1-.19-.19v-.39a.19.19,0,0,1,.19-.19Zm0,1.54a.19.19,0,0,1,.19.19v.38a.2.2,0,0,1-.19.2H93.75a.19.19,0,0,1-.19-.2V88a.18.18,0,0,1,.19-.19Z"/><path class="cls-1" d="M98.24,89.37a.19.19,0,0,1-.2-.19V88.8a.18.18,0,0,0-.19-.19h-.26a.19.19,0,0,1-.19-.2v-.26a.18.18,0,0,1,.19-.19h.56a.2.2,0,0,1,.23.19c.07.41.4.62.89.62s.71-.15.71-.45-.24-.46-.76-.54c-.77-.12-1.76-.58-1.76-1.3a.17.17,0,0,1,.15-.18h.28a.18.18,0,0,0,.19-.19v-.38a.19.19,0,0,1,.19-.19h.39a.2.2,0,0,0,.19-.2v-.5a.18.18,0,0,1,.19-.19h.38a.19.19,0,0,1,.2.19v.5a.19.19,0,0,0,.19.2h.35a.19.19,0,0,1,.19.19v.38a.18.18,0,0,0,.19.19h.08a.2.2,0,0,1,.2.19v.27a.19.19,0,0,1-.2.19h-.33a.21.21,0,0,1-.23-.19.81.81,0,0,0-.89-.62c-.36,0-.68.13-.68.46s.27.46.73.53c.72.11,1.75.56,1.75,1.31a.16.16,0,0,1-.15.17h-.22a.18.18,0,0,0-.19.19v.38a.19.19,0,0,1-.19.19h-.41a.19.19,0,0,0-.19.19v.51a.19.19,0,0,1-.2.19H99a.18.18,0,0,1-.19-.19v-.51a.2.2,0,0,0-.19-.19Z"/><path class="cls-1" d="M5.24,100.61c0-.48-.48-.77-1.16-.77h-1a.2.2,0,0,1-.2-.19v-.39a.18.18,0,0,0-.19-.19H2.36a.18.18,0,0,1-.19-.19V97a.18.18,0,0,1,.19-.19H5.81A.18.18,0,0,1,6,97v1.15a.18.18,0,0,1-.19.19H5.43a.18.18,0,0,1-.19-.19v-.38a.19.19,0,0,0-.2-.19H3.13a.19.19,0,0,0-.2.19v.45a.83.83,0,0,0,.89.89H5a.19.19,0,0,1,.2.19v.39a.19.19,0,0,0,.19.19h.38A.18.18,0,0,1,6,100v1.15a.18.18,0,0,1-.19.19H5.43a.19.19,0,0,0-.19.19V102a.19.19,0,0,1-.2.19H3.13a.19.19,0,0,1-.2-.19v-.39a.19.19,0,0,0-.19-.19H2.36a.18.18,0,0,1-.19-.19v-.38a.18.18,0,0,1,.19-.19h.36a.28.28,0,0,1,.27.18,1.1,1.1,0,0,0,1.09.58C4.71,101.37,5.24,101.11,5.24,100.61Z"/><path class="cls-1" d="M8.5,104.44a.18.18,0,0,1-.19-.19v-.38a.18.18,0,0,0-.19-.19H7.73a.2.2,0,0,1-.19-.2v-.38a.19.19,0,0,1,.19-.19h.36a.32.32,0,0,1,.3.18,1.13,1.13,0,0,0,1,.59,1.17,1.17,0,0,0,1.21-1.12v-.23a.19.19,0,0,0-.19-.19H8.5a.18.18,0,0,1-.19-.19v-.39a.19.19,0,0,0-.19-.19H7.73a.19.19,0,0,1-.19-.19V99.26a.19.19,0,0,1,.19-.19h.39a.18.18,0,0,0,.19-.19v-.39a.19.19,0,0,1,.19-.19h1.92a.19.19,0,0,1,.19.19v.39a.19.19,0,0,0,.19.19H12a.19.19,0,0,1,.19.19v.39a.2.2,0,0,1-.19.19h-.39a.18.18,0,0,0-.19.19v3.45a.19.19,0,0,1-.19.2H10.8a.19.19,0,0,0-.19.19v.38a.18.18,0,0,1-.19.19Zm1-3a1.25,1.25,0,1,0-1.15-1.25A1.12,1.12,0,0,0,9.46,101.47Z"/><path class="cls-1" d="M16.76,102a.19.19,0,0,1-.2.19H14.65a.19.19,0,0,1-.2-.19v-.39a.19.19,0,0,0-.19-.19h-.38a.18.18,0,0,1-.19-.19V97.73a.18.18,0,0,1,.19-.19h.38a.19.19,0,0,0,.19-.2V97a.19.19,0,0,1,.2-.19h1.91a.19.19,0,0,1,.2.19v.38a.19.19,0,0,0,.19.2h.38a.18.18,0,0,1,.19.19v3.45a.18.18,0,0,1-.19.19H17a.19.19,0,0,0-.19.19Zm0-2.5c0-1.39-.42-2-1.15-2s-1.16.62-1.16,2,.42,2,1.16,2S16.76,100.85,16.76,99.45Z"/><path class="cls-1" d="M21.56,98.3a.19.19,0,0,1,.19.19v.39a.18.18,0,0,1-.19.19H18.87a.18.18,0,0,1-.19-.19v-.39a.19.19,0,0,1,.19-.19Zm0,1.54a.18.18,0,0,1,.19.19v.38a.19.19,0,0,1-.19.2H18.87a.19.19,0,0,1-.19-.2V100a.18.18,0,0,1,.19-.19Z"/><path class="cls-1" d="M23.36,101.37a.18.18,0,0,1-.19-.19v-.38a.19.19,0,0,0-.2-.19h-.26a.19.19,0,0,1-.19-.2v-.26a.18.18,0,0,1,.19-.19h.56a.2.2,0,0,1,.23.19c.07.41.4.62.89.62s.71-.15.71-.45-.24-.46-.76-.54c-.77-.12-1.76-.58-1.76-1.3a.17.17,0,0,1,.15-.18H23a.18.18,0,0,0,.19-.19v-.38a.19.19,0,0,1,.19-.19h.39a.19.19,0,0,0,.19-.2v-.5a.18.18,0,0,1,.19-.19h.38a.19.19,0,0,1,.2.19v.5a.19.19,0,0,0,.19.2h.35a.19.19,0,0,1,.19.19v.38a.18.18,0,0,0,.19.19h.08a.2.2,0,0,1,.2.19v.27a.19.19,0,0,1-.2.19h-.33a.22.22,0,0,1-.23-.19.81.81,0,0,0-.89-.62c-.36,0-.68.13-.68.46s.28.46.73.53c.72.11,1.75.56,1.75,1.31a.16.16,0,0,1-.15.17h-.22a.18.18,0,0,0-.19.19v.38a.19.19,0,0,1-.19.19h-.41a.19.19,0,0,0-.19.19v.51a.19.19,0,0,1-.2.19h-.38a.18.18,0,0,1-.19-.19v-.51a.19.19,0,0,0-.19-.19Z"/><path class="cls-1" d="M30.34,102a.18.18,0,0,1-.19.19H28.23A.18.18,0,0,1,28,102v-.39a.2.2,0,0,0-.19-.19h-.39a.18.18,0,0,1-.19-.19V100a.18.18,0,0,1,.19-.19h.39a.2.2,0,0,0,.19-.19v-.39a.19.19,0,0,0-.19-.19h-.39a.18.18,0,0,1-.19-.19V97.73a.18.18,0,0,1,.19-.19h.39a.2.2,0,0,0,.19-.2V97a.18.18,0,0,1,.19-.19h1.92a.18.18,0,0,1,.19.19v.38a.19.19,0,0,0,.19.2h.39a.19.19,0,0,1,.19.19v1.15a.19.19,0,0,1-.19.19h-.39a.18.18,0,0,0-.19.19v.39a.19.19,0,0,0,.19.19h.39a.19.19,0,0,1,.19.19v1.15a.19.19,0,0,1-.19.19h-.39a.19.19,0,0,0-.19.19ZM29.19,97.5c-.71,0-1.15.29-1.15.8s.44.81,1.15.81,1.15-.29,1.15-.81S29.9,97.5,29.19,97.5Zm1.15,3.11c0-.52-.44-.81-1.15-.81s-1.15.29-1.15.81.44.8,1.15.8S30.34,101.12,30.34,100.61Z"/><path class="cls-1" d="M33.22,97.54a.19.19,0,0,0,.19-.2V97a.19.19,0,0,1,.2-.19h1.91a.19.19,0,0,1,.2.19v.38a.19.19,0,0,0,.19.2h.38a.18.18,0,0,1,.19.19v3.45a.18.18,0,0,1-.19.19h-.38a.19.19,0,0,0-.19.19V102a.19.19,0,0,1-.2.19h-2.3A.18.18,0,0,1,33,102v-.39a.19.19,0,0,1,.19-.19h1c1,0,1.49-.33,1.54-1.34a.2.2,0,0,0-.2-.19H33.61a.2.2,0,0,1-.2-.19v-.39a.18.18,0,0,0-.19-.19h-.38a.18.18,0,0,1-.19-.19V97.73a.18.18,0,0,1,.19-.19Zm2.5.76c0-.48-.45-.76-1.15-.76s-1.16.28-1.16.76.45.77,1.16.77S35.72,98.78,35.72,98.3Z"/><path class="cls-1" d="M41.09,96.58a.2.2,0,0,0,.19.19h.39a.18.18,0,0,1,.19.19v.38a.19.19,0,0,1-.19.2h-.36a.22.22,0,0,1-.23-.2.68.68,0,0,0-.75-.57.7.7,0,0,0-.77.77v.57a.18.18,0,0,0,.19.19H40.9a.19.19,0,0,1,.19.19v.39a.18.18,0,0,1-.19.19H39.75a.18.18,0,0,0-.19.19v1.92a.18.18,0,0,0,.19.19h.38a.2.2,0,0,1,.2.19V102a.19.19,0,0,1-.2.19H38.21A.19.19,0,0,1,38,102v-.39a.2.2,0,0,1,.19-.19h.39a.18.18,0,0,0,.19-.19V99.26a.18.18,0,0,0-.19-.19h-.39a.19.19,0,0,1-.19-.19v-.39a.2.2,0,0,1,.19-.19h.39a.18.18,0,0,0,.19-.19V97a.18.18,0,0,1,.19-.19h.39a.2.2,0,0,0,.19-.19v-.39a.18.18,0,0,1,.19-.19H40.9a.18.18,0,0,1,.19.19Z"/><path class="cls-1" d="M44.93,102a.18.18,0,0,1-.19.19H42.82a.18.18,0,0,1-.19-.19v-.39a.19.19,0,0,0-.19-.19h-.39a.19.19,0,0,1-.19-.19v-.38a.19.19,0,0,1,.19-.19h.35a.22.22,0,0,1,.25.19c.11.36.52.57,1.13.57a1,1,0,0,0,1.15-1.15V97.73a.18.18,0,0,0-.19-.19H43.59a.19.19,0,0,1-.19-.2V97a.18.18,0,0,1,.19-.19H47a.19.19,0,0,1,.2.19v.38a.2.2,0,0,1-.2.2H45.89a.18.18,0,0,0-.19.19v3.45a.18.18,0,0,1-.19.19h-.39a.2.2,0,0,0-.19.19Z"/><path class="cls-1" d="M49.54,100V102a.18.18,0,0,1-.19.19H48.2A.18.18,0,0,1,48,102v-.39a.19.19,0,0,1,.19-.19h.38a.18.18,0,0,0,.19-.19V100a.18.18,0,0,0-.19-.19H48.2a.19.19,0,0,1-.19-.19v-.39a.18.18,0,0,1,.19-.19h1.15a.18.18,0,0,0,.19-.19v-.39a.19.19,0,0,1,.19-.19h.39a.2.2,0,0,1,.19.19v.39a.18.18,0,0,0,.19.19h.38a.19.19,0,0,0,.2-.19v-.39a.19.19,0,0,1,.19-.19h.38a.19.19,0,0,1,.19.19v.39a.19.19,0,0,0,.2.19h.38a.18.18,0,0,1,.19.19v1.92a.19.19,0,0,0,.19.19h.39a.2.2,0,0,1,.19.19V102a.19.19,0,0,1-.19.19H52a.19.19,0,0,1-.2-.19V100c0-.49-.12-.69-.38-.69s-.38.2-.38.69V102a.19.19,0,0,1-.2.19H50.5a.18.18,0,0,1-.19-.19V100c0-.49-.12-.69-.39-.69S49.54,99.53,49.54,100Z"/><path class="cls-1" d="M58.76,102a.19.19,0,0,1-.2.19H55.11a.18.18,0,0,1-.19-.19v-.39a.19.19,0,0,1,.19-.19h1.15a.18.18,0,0,0,.19-.19V98.49c0-.07-.14-.1-.19,0l-.44.48a.52.52,0,0,1-.33.14h-.38a.18.18,0,0,1-.19-.19v-.39a.19.19,0,0,1,.19-.19h.38a.19.19,0,0,0,.2-.19v-.38a.18.18,0,0,1,.19-.19h.38a.19.19,0,0,0,.19-.2V97a.19.19,0,0,1,.19-.19H57a.18.18,0,0,1,.19.19v4.22a.18.18,0,0,0,.19.19h1.15a.2.2,0,0,1,.2.19Z"/><path class="cls-1" d="M62.6,97.34a.2.2,0,0,1-.2.2H62a.18.18,0,0,0-.19.19v1.11c0,.16.08.23.19.23a.4.4,0,0,0,.31-.18l1.31-2a.38.38,0,0,1,.3-.15h.77a.18.18,0,0,1,.19.19v.38a.19.19,0,0,1-.19.2h-.39a.19.19,0,0,0-.19.19v.38a.18.18,0,0,1-.19.19h-.38a.2.2,0,0,0-.2.19v1.16a.2.2,0,0,0,.2.19h.38a.18.18,0,0,1,.19.19v1.15a.19.19,0,0,0,.19.19h.39a.19.19,0,0,1,.19.19V102a.18.18,0,0,1-.19.19H63.56a.19.19,0,0,1-.2-.19V100.8a.18.18,0,0,0-.19-.19h-.38a.19.19,0,0,1-.19-.2V100a.19.19,0,0,0-.2-.19H62a.18.18,0,0,0-.19.19v1.15a.18.18,0,0,0,.19.19h.38a.2.2,0,0,1,.2.19V102a.19.19,0,0,1-.2.19H60.49a.19.19,0,0,1-.2-.19v-.39a.2.2,0,0,1,.2-.19h.38a.18.18,0,0,0,.19-.19V97.73a.18.18,0,0,0-.19-.19h-.38a.2.2,0,0,1-.2-.2V97a.19.19,0,0,1,.2-.19H62.4a.19.19,0,0,1,.2.19Z"/><path class="cls-1" d="M67,97.54a.2.2,0,0,0,.2-.2V97a.18.18,0,0,1,.19-.19h1.92a.19.19,0,0,1,.19.19v.38a.19.19,0,0,0,.19.2h.38a.19.19,0,0,1,.2.19v3.45a.19.19,0,0,1-.2.19H69.7a.19.19,0,0,0-.19.19V102a.19.19,0,0,1-.19.19H67a.19.19,0,0,1-.19-.19v-.39a.2.2,0,0,1,.19-.19h1c1,0,1.49-.33,1.54-1.34a.2.2,0,0,0-.19-.19H67.4a.19.19,0,0,1-.19-.19v-.39a.19.19,0,0,0-.2-.19h-.38a.18.18,0,0,1-.19-.19V97.73a.18.18,0,0,1,.19-.19Zm2.5.76c0-.48-.45-.76-1.15-.76s-1.15.28-1.15.76.44.77,1.15.77S69.51,98.78,69.51,98.3Z"/><path class="cls-1" d="M71.81,96.19A.19.19,0,0,1,72,96h.76a.18.18,0,0,1,.19.19v.39a.2.2,0,0,0,.2.19h.38a.18.18,0,0,1,.19.19v4.22a.18.18,0,0,1-.19.19h-.38a.2.2,0,0,0-.2.19V102a.18.18,0,0,1-.19.19H72a.19.19,0,0,1-.2-.19v-.36a.23.23,0,0,1,.2-.24c.64-.14,1.07-.88,1.07-2.28s-.43-2.13-1.07-2.28a.23.23,0,0,1-.2-.24Z"/><path class="cls-1" d="M75.84,96a.19.19,0,0,1,.2.19V102a.19.19,0,0,1-.2.19h-.38a.18.18,0,0,1-.19-.19V96.19a.18.18,0,0,1,.19-.19Z"/><path class="cls-1" d="M79.11,102a.19.19,0,0,1-.19.19H77.77a.19.19,0,0,1-.2-.19v-.39a.2.2,0,0,1,.2-.19h.38a.18.18,0,0,0,.19-.19V97a.18.18,0,0,0-.19-.19h-.38a.2.2,0,0,1-.2-.19v-.39a.19.19,0,0,1,.2-.19h1.15a.19.19,0,0,1,.19.19Z"/><path class="cls-1" d="M83.72,100.61c0-.48-.48-.77-1.16-.77h-1a.2.2,0,0,1-.19-.19v-.39a.18.18,0,0,0-.19-.19h-.38a.18.18,0,0,1-.19-.19V97a.18.18,0,0,1,.19-.19h3.45a.18.18,0,0,1,.19.19v1.15a.18.18,0,0,1-.19.19h-.38a.18.18,0,0,1-.19-.19v-.38a.19.19,0,0,0-.2-.19H81.6a.19.19,0,0,0-.19.19v.45a.83.83,0,0,0,.89.89h1.22a.19.19,0,0,1,.2.19v.39a.19.19,0,0,0,.19.19h.38a.18.18,0,0,1,.19.19v1.15a.18.18,0,0,1-.19.19h-.38a.19.19,0,0,0-.19.19V102a.19.19,0,0,1-.2.19H81.6a.19.19,0,0,1-.19-.19v-.39a.19.19,0,0,0-.19-.19h-.38a.18.18,0,0,1-.19-.19v-.38a.18.18,0,0,1,.19-.19h.36a.28.28,0,0,1,.27.18,1.09,1.09,0,0,0,1.09.58C83.19,101.37,83.72,101.11,83.72,100.61Z"/><path class="cls-1" d="M89.86,102a.18.18,0,0,1-.19.19H86.21A.19.19,0,0,1,86,102V100.8a.19.19,0,0,1,.19-.19h.39a.19.19,0,0,0,.19-.2V100a.18.18,0,0,1,.19-.19h.38a.2.2,0,0,0,.2-.19v-.4a.18.18,0,0,1,.18-.18h.2c.77,0,1.15-.26,1.15-.77s-.36-.76-1.15-.76-1,.19-1.13.57a.22.22,0,0,1-.24.19h-.36a.19.19,0,0,1-.19-.19v-.38a.19.19,0,0,1,.19-.19h.39a.19.19,0,0,0,.19-.2V97a.18.18,0,0,1,.19-.19H88.9a.18.18,0,0,1,.19.19v.38a.2.2,0,0,0,.19.2h.39a.18.18,0,0,1,.19.19v1.15a.18.18,0,0,1-.19.19h-.39a.19.19,0,0,0-.19.19v.37a.2.2,0,0,1-.19.21,2.06,2.06,0,0,0-2,1.34.17.17,0,0,0,.16.19H88.9a.18.18,0,0,0,.19-.19v-.38a.19.19,0,0,1,.19-.19h.39a.18.18,0,0,1,.19.19Z"/><path class="cls-1" d="M93.51,101.37a.19.19,0,0,1,.19.19V102a.18.18,0,0,1-.19.19H91.59a.18.18,0,0,1-.19-.19v-.39a.19.19,0,0,1,.19-.19H92a.19.19,0,0,0,.2-.19V97.73a.19.19,0,0,0-.2-.19h-.38a.19.19,0,0,1-.19-.2V97a.18.18,0,0,1,.19-.19h1.92a.18.18,0,0,1,.19.19v.38a.19.19,0,0,1-.19.2h-.39a.19.19,0,0,0-.19.19v1.15a.19.19,0,0,0,.19.19H95a.19.19,0,0,0,.2-.19V97.73a.19.19,0,0,0-.2-.19h-.38a.19.19,0,0,1-.19-.2V97a.18.18,0,0,1,.19-.19h1.92a.18.18,0,0,1,.19.19v.38a.19.19,0,0,1-.19.2h-.39a.19.19,0,0,0-.19.19v3.45a.19.19,0,0,0,.19.19h.39a.19.19,0,0,1,.19.19V102a.18.18,0,0,1-.19.19H94.66a.18.18,0,0,1-.19-.19v-.39a.19.19,0,0,1,.19-.19H95a.19.19,0,0,0,.2-.19V100a.19.19,0,0,0-.2-.19H93.12a.19.19,0,0,0-.19.19v1.15a.19.19,0,0,0,.19.19Z"/><path class="cls-1" d="M99.29,96.36a.34.34,0,0,1,.34,0l.05,0a.29.29,0,0,1,.13.29l0,.26a.07.07,0,0,0,.12.07l.2-.15a.65.65,0,0,1,.33-.11h0a.18.18,0,0,1,.18.18v.13a.26.26,0,0,1-.18.25l-.38.15c-.06,0-.06.1,0,.12l.38.14a.27.27,0,0,1,.18.25v.13a.18.18,0,0,1-.18.18h0a.57.57,0,0,1-.33-.11l-.2-.15a.07.07,0,0,0-.12.07l0,.27a.29.29,0,0,1-.13.28l-.05,0a.34.34,0,0,1-.34,0l0,0a.28.28,0,0,1-.14-.28l0-.27A.07.07,0,0,0,99,98l-.2.15a.57.57,0,0,1-.33.11h0a.18.18,0,0,1-.18-.18V98a.27.27,0,0,1,.18-.25l.38-.14c.06,0,.06-.11,0-.12l-.38-.15a.26.26,0,0,1-.18-.25V97a.18.18,0,0,1,.18-.18h0a.65.65,0,0,1,.33.11L99,97a.07.07,0,0,0,.12-.07l0-.26a.28.28,0,0,1,.14-.29Z"/></g></g></svg>