<?xml version="1.0" encoding="utf-8"?>
<!-- Generator: Adobe Illustrator 23.0.1, SVG Export Plug-In . SVG Version: 6.00 Build 0)  -->
<svg version="1.1" id="Layer_1" xmlns="http://www.w3.org/2000/svg" xmlns:xlink="http://www.w3.org/1999/xlink" x="0px" y="0px"
	 viewBox="0 0 433 595.2" style="enable-background:new 0 0 433 595.2;" xml:space="preserve">
<style type="text/css">
	.st0{fill:#FFFFFF;}
</style>
<title>untitled</title>
<g>
	<g id="Layer_1-2">
		<path class="st0" d="M432.1,567.1c-3.7-2.8-7.2-5.9-10.4-9.2l-0.3,0.2l5.7,9.1l-5.7,9.1l0.3,0.2c3.2-3.4,6.7-6.5,10.4-9.2V567.1z
			 M418.2,567.1c-3.7-2.8-7.2-5.9-10.4-9.2l-0.3,0.2l5.7,9.1l-5.7,9.1l0.3,0.2c3.2-3.4,6.7-6.5,10.4-9.2V567.1z M408.6,567.1
			c-3.7-2.8-7.2-5.9-10.4-9.2l-0.3,0.2l5.7,9.1l-5.7,9.1l0.3,0.2c3.2-3.4,6.7-6.5,10.4-9.2V567.1z M373.9,567.2
			c3.7,2.8,7.2,5.9,10.4,9.2l0.3-0.2l-5.7-9.1l5.7-9.1l-0.3-0.2c-3.2,3.4-6.7,6.5-10.4,9.2V567.2z M383.5,567.2
			c3.7,2.8,7.2,5.9,10.4,9.2l0.3-0.2l-5.7-9.1l5.7-9.1l-0.3-0.2c-3.2,3.4-6.7,6.5-10.4,9.2V567.2z M360,567.2
			c3.7,2.8,7.2,5.9,10.4,9.2l0.3-0.2l-5.7-9.1l5.7-9.1l-0.3-0.2c-3.2,3.4-6.7,6.5-10.4,9.2L360,567.2z M356.1,555.7l-10.6,10.6
			l-10.6-10.6l-0.8,0.8l10.6,10.6l-10.6,10.6l0.8,0.8l10.6-10.6l10.6,10.6l0.8-0.8l-10.6-10.6l10.6-10.6L356.1,555.7z M333.1,567.1
			l-23.2-14.7l-0.5,0.8l21.7,13.9v0.1L309.3,581l0.5,0.8L333.1,567.1L333.1,567.1z M280.4,567.2l23.2,14.7l0.5-0.8l-21.7-13.9v-0.1
			l21.7-13.9l-0.5-0.8l-23.2,14.7V567.2z M271.9,538.1h-3.5l-0.1,0.1c0.7,2.5,1.2,5.1,1.4,7.7l-0.1,0.1c-2-1.5-3.9-3.2-5.6-5H264
			l-1.8,3v0.1c2.5,0.7,4.9,1.5,7.3,2.5v0.1c-2.4,1-4.8,1.9-7.3,2.5v0.1l1.8,3h0c1.7-1.8,3.6-3.5,5.6-5l0.1,0.1
			c-0.2,2.6-0.7,5.2-1.4,7.7l0.1,0.1h3.5l0.1-0.1c-0.7-2.5-1.2-5.1-1.4-7.7l0.1-0.1c2,1.5,3.9,3.2,5.6,5h0.1l1.8-3v-0.1
			c-2.5-0.7-4.9-1.5-7.3-2.5v-0.1c2.4-1,4.8-1.9,7.3-2.5v-0.1l-1.8-3h-0.1c-1.7,1.8-3.6,3.5-5.6,5l-0.1-0.1c0.2-2.6,0.7-5.2,1.4-7.7
			L271.9,538.1z M260.3,560.1c-5,0.2-9.3-3.7-9.5-8.7c0-0.3,0-0.5,0-0.8h-0.3c0.2,5-3.7,9.3-8.8,9.5c-0.3,0-0.5,0-0.8,0v0.3
			c5-0.2,9.3,3.7,9.5,8.7c0,0.3,0,0.5,0,0.8h0.3c-0.2-5,3.7-9.3,8.7-9.5c0.3,0,0.5,0,0.8,0L260.3,560.1z M225.8,538.4h-0.3
			c-0.1,3-2.6,5.5-5.6,5.6v0.3c2.3-0.1,4.3,1.7,4.4,4c0,0.1,0,0.2,0,0.3c0,1.9-1.1,3.5-3.3,4.8l0.1,0.3c2.6-1,4.7-3,5.8-5.6
			c0.8-1.7,2-3.7,4-3.7s3.7,2,3.7,4.2c0,1.9-1.1,3.5-3.3,4.8l0.1,0.3c2.6-1,4.7-3,5.8-5.6c0.9-1.8,2-3.7,4.4-3.7V544
			c-3-0.1-5.4-2.6-5.6-5.6h-0.3c0,2.7-2.5,5.5-5,5.5S225.8,541.1,225.8,538.4 M207.6,553.4l0.1,0.3c2.6-1,4.7-3,5.8-5.6
			c0.9-1.8,2-3.7,4.4-3.7V544c-3-0.1-5.4-2.6-5.6-5.6H212c-0.1,3-2.6,5.5-5.6,5.6v0.3c2.3-0.1,4.3,1.7,4.4,4c0,0.1,0,0.2,0,0.3
			C210.8,550.4,209.7,552.1,207.6,553.4 M203.4,538.7l-0.1-0.3c-2.6,1-4.7,3-5.8,5.6c-0.9,1.8-2,3.7-4.4,3.7v0.3
			c3,0.1,5.4,2.6,5.6,5.6h0.3c0.1-3,2.6-5.5,5.6-5.6v-0.3c-2.3,0.1-4.3-1.7-4.4-4c0-0.1,0-0.2,0-0.3
			C200.1,541.7,201.3,540,203.4,538.7 M185.2,553.7h0.3c0.1-3,2.6-5.5,5.6-5.6v-0.3c-2.3,0.1-4.3-1.7-4.4-4c0-0.1,0-0.2,0-0.3
			c0-1.9,1.1-3.5,3.3-4.8l-0.1-0.3c-2.6,1-4.7,3-5.8,5.6c-0.8,1.7-2,3.7-4,3.7s-3.7-2-3.7-4.2c0-1.9,1.1-3.5,3.3-4.8l-0.1-0.3
			c-2.6,1-4.7,3-5.8,5.6c-0.9,1.8-2,3.7-4.4,3.7v0.3c3,0.1,5.4,2.6,5.6,5.6h0.3c0-2.7,2.5-5.5,5-5.5S185.2,551,185.2,553.7
			 M162.2,587.2l0.1,0.3c2.6-1,4.7-3,5.8-5.6c0.9-1.8,2-3.7,4.4-3.7v-0.3c-3-0.1-5.4-2.6-5.6-5.6h-0.3c-0.1,3-2.6,5.5-5.6,5.6v0.3
			c2.3-0.1,4.3,1.7,4.4,4c0,0.1,0,0.2,0,0.3C165.5,584.3,164.4,585.9,162.2,587.2 M159.2,577.8c-3-0.1-5.5-2.5-5.6-5.6h-0.3
			c-0.1,3-2.5,5.5-5.6,5.6v0.3c3,0.1,5.5,2.5,5.6,5.6h0.3c0.1-3,2.5-5.5,5.6-5.6V577.8z M135.5,587.2l0.1,0.3c2.6-1,4.7-3,5.8-5.6
			c0.9-1.8,2-3.7,4.4-3.7v-0.3c-3-0.1-5.4-2.6-5.6-5.6H140c-0.1,3-2.6,5.5-5.6,5.6v0.3c2.3-0.1,4.3,1.7,4.4,4c0,0.1,0,0.2,0,0.3
			C138.8,584.3,137.7,585.9,135.5,587.2 M145.9,558.6c-3-0.1-5.5-2.5-5.6-5.6H140c-0.1,3-2.5,5.5-5.6,5.6v0.3c3,0.1,5.5,2.5,5.6,5.6
			h0.3c0.1-3,2.5-5.5,5.6-5.6V558.6z M132.5,577.8c-3-0.1-5.5-2.5-5.6-5.6h-0.3c-0.1,3-2.6,5.5-5.6,5.6v0.3c3,0.1,5.5,2.5,5.6,5.6
			h0.3c0.1-3,2.5-5.5,5.6-5.6L132.5,577.8z M132.5,558.5c-3-0.1-5.5-2.5-5.6-5.5h-0.3c-0.1,3-2.5,5.5-5.6,5.6v0.3
			c3,0.1,5.5,2.5,5.6,5.6h0.3c0.1-3,2.5-5.5,5.6-5.6V558.5z M118.5,577.8c-3-0.1-5.5-2.5-5.6-5.6h-0.3c-0.1,3-2.6,5.5-5.6,5.6v0.3
			c3,0.1,5.5,2.5,5.6,5.6h0.3c0.1-3,2.5-5.5,5.6-5.6L118.5,577.8z M112.7,568.4c0.5-9,1.6-18,3.2-26.9l-0.1-0.1h-6.5l-0.1,0.1
			c1.6,8.9,2.7,17.9,3.2,26.9H112.7z M99.8,577.8c-3-0.1-5.5-2.5-5.6-5.6H94c-0.1,3-2.5,5.5-5.6,5.6v0.3c3,0.1,5.5,2.5,5.6,5.6h0.3
			c0.1-3,2.5-5.5,5.6-5.6L99.8,577.8z M93.3,542.1c3.4,0,4.9,3.5,4.9,7.3c0,6.5-4.7,9.6-4.4,19.1H94c0.6-9.4,10.2-10.6,10.2-19.2
			c0-6-4.7-8.4-9.5-8.4c-4.7,0-6.1,2.3-8.9,2.3c-1.3,0-2.5-0.4-3.5-1.2L82,542c2.5,2.2,4.5,4.8,6,7.8h0.1
			C88.5,544.9,90.3,542.1,93.3,542.1 M66,562.9h16.5v-1.2H66V562.9z M31.7,579.7c-2,0-4.3-1.7-4.3-6.5c0-8.1,6.2-19.2,11.6-19.2
			c3.1,0,3.9,3.7,3.2,6.1l-3.4,11.6C37.7,575.9,34.7,579.7,31.7,579.7 M32.3,595.2c9.6,0,18.9-3.7,25.8-10.3l-0.3-0.3
			c-6.9,5.9-14.7,9.4-23.8,9.4c-16.7,0-21.9-11.4-21.9-21.4c0-16.1,13.2-32,30.2-32c12.4,0,18.8,8.5,18.8,18.5
			c0,11.2-8.1,18.7-14.6,18.7c-2.1,0-3.2-0.8-2.6-2.9l6.5-22.4l-0.1-0.1c-1.8,2-4,3.6-6.4,4.8c-0.8-4-3.5-4.8-5.9-4.8
			c-8.7,0-17.2,11-17.2,20.3c0,6.4,4,9.2,8.2,9.2c3.4,0,6.1-1.9,8-4.5h0.1l-1.3,4.5H36c3.4-1.7,7-2.9,10.8-3.3
			c8.7-1,15.1-9.4,15.1-19.7c0-10.8-7-19.6-20.7-19.6c-18.4,0-34.1,16-34.1,33.2C7.2,585.2,15.7,595.2,32.3,595.2"/>
		<path class="st0" d="M424.9,505.9c-3.6,0-4.7-1.4-4.7-4.3c0-2.5,0.8-4.3,0.8-8.2c0-6.8-3.2-12.7-9-17.8l-0.2,0.2
			c4.3,4.4,6.7,10.3,6.7,16.4c0,4.3-0.8,6.5-0.8,8.8c0,2.6,1,4.2,4.3,4.8v0.1c-3.2,0.6-4.3,2.2-4.3,4.8c0,2.3,0.8,4.6,0.8,8.8
			c0.1,6.2-2.3,12.1-6.7,16.4l0.2,0.2c5.8-5,9-10.9,9-17.8c0-3.9-0.8-5.8-0.8-8.2c0-2.9,1.1-4.3,4.7-4.3V505.9z M394.9,536.2
			l0.2,0.2c16.8-14.7,18.4-40.3,3.7-57c-1.1-1.3-2.4-2.5-3.7-3.7l-0.2,0.2c7.9,8.2,11.1,18.8,11.1,30.1S402.7,527.9,394.9,536.2
			 M384.2,517.8c-3-0.1-5.5-2.5-5.6-5.6h-0.3c0,3.1-2.5,5.6-5.6,5.6c-3.1,0-5.6-2.5-5.6-5.6h-0.3c-0.1,3-2.5,5.5-5.6,5.6v0.3
			c3,0.1,5.5,2.5,5.6,5.6h0.3c0-3.1,2.5-5.6,5.6-5.6c3.1,0,5.6,2.5,5.6,5.6h0.3c0-3.1,2.5-5.6,5.6-5.6c3.1,0,5.6,2.5,5.6,5.6h0.3
			c0.1-3,2.5-5.5,5.6-5.6v-0.3c-3-0.1-5.5-2.5-5.6-5.6h-0.3C389.7,515.3,387.2,517.7,384.2,517.8 M350.9,506
			c0-11.3,3.3-21.9,11.2-30.1l-0.2-0.2c-16.8,14.7-18.4,40.3-3.7,57c1.1,1.3,2.4,2.5,3.7,3.7l0.2-0.2
			C354.2,527.9,350.9,517.3,350.9,506 M332.6,506.1c3.6,0,4.7,1.4,4.7,4.3c0,2.5-0.8,4.3-0.8,8.2c0,6.8,3.2,12.7,9,17.8l0.2-0.2
			c-4.3-4.3-6.7-10.3-6.7-16.4c0-4.3,0.8-6.5,0.8-8.8c0-2.6-1-4.2-4.3-4.8V506c3.2-0.6,4.3-2.2,4.3-4.8c0-2.3-0.8-4.6-0.8-8.8
			c-0.1-6.2,2.3-12.1,6.7-16.4l-0.2-0.2c-5.8,5-9,10.9-9,17.8c0,3.9,0.8,5.8,0.8,8.2c0,2.9-1.1,4.3-4.7,4.3V506.1z M323.6,528.9
			c-3.4,0-4.9-3.5-4.9-7.3c0-6.5,4.7-9.6,4.4-19.1h-0.3c-0.6,9.4-10.2,10.6-10.2,19.2c0,6,4.7,8.4,9.5,8.4c4.7,0,6.1-2.3,8.9-2.3
			c1.3,0,2.5,0.4,3.5,1.2l0.2-0.1c-2.4-2.2-4.4-4.8-5.9-7.7h-0.1C328.4,526.1,326.6,528.9,323.6,528.9 M317,493.3
			c3,0.1,5.5,2.5,5.6,5.6h0.3c0.1-3,2.5-5.5,5.6-5.6V493c-3-0.1-5.5-2.5-5.6-5.6h-0.3c-0.1,3-2.5,5.5-5.6,5.6V493.3z M287,519.1
			c-2.3,0-4.3-2-4.3-5.8v-19h11.2v19.2C291.5,517.1,289.3,519.1,287,519.1 M268,517.3v-0.2c-1.9,0-2.9-0.5-3.6-1.3l5.4-17.2
			c1.3-4,3.3-5,6.9-5V513c0,4.9,2.3,8.9,7.1,8.9c4.3,0,7.6-3.1,10.1-7.6h0.1c0.4,4.4,2.7,7.6,7,7.6s7.9-3.5,10.4-8.2l-0.4-0.2
			c-2.4,3.6-4.6,5.6-6.9,5.6s-4.3-2-4.3-5.8v-19c2.2,0,4.3,0.5,6.4,1.3h0.1l3.4-5l-0.1-0.1c-3,1.5-6.3,2.4-9.7,2.5v-7.6h-0.1
			c-2.6,5.5-5.9,7.6-13.1,7.6h-3.9v-7.6h-0.1c-1.5,3.1-3.9,5.8-6.9,7.6h-12.9v0.3c5,0,7.4,1.2,6.1,5.4l-5,16.1h-0.1l-5.3-14.5
			c-1.6-4.4-1-6.8,1.8-9.9l-0.2-0.2c-3.3,2.4-6.1,5.3-8.6,8.5l9.1,25c-2.6,5.5-6.4,8.5-11,11.3v0.1l8.3,1.2
			C261.3,521.1,264.2,518.2,268,517.3 M192.9,517.2v-0.2c-1.9,0-2.9-0.5-3.6-1.3l4.7-15h0.1l6.2,17.2c0.6,1.7,1,3.5,1.1,5.3h0.1
			c1.7-3.2,5.3-5.3,8.4-6.1V517c-1.9,0-2.9-0.5-3.6-1.3l5.6-17.2c1.4-4,3.3-5,6.9-5V513c0,4.9,2.3,8.9,7.1,8.9
			c4.3,0,7.6-3.1,10.1-7.6h0c0.4,4.4,2.7,7.6,7,7.6s7.9-3.5,10.4-8.2l-0.4-0.2c-2.4,3.6-4.6,5.6-6.9,5.6s-4.3-2-4.3-5.8v-19
			c2.2,0,4.3,0.5,6.4,1.3h0.1l3.4-5l-0.1-0.1c-3,1.5-6.3,2.4-9.6,2.6v-7.6h-0.1c-2.6,5.5-5.9,7.6-13.1,7.6h-3.9v-7.6h-0.1
			c-1.5,3.1-3.9,5.8-6.9,7.6h-11.9v0.3c3.9,0,6.4,1.2,5,5.4l-5.2,16.1h-0.1l-5.3-15.2c-1.5-4.3-1.6-6.3,3.1-6.3V493h-15.7v0.3
			c3,0,4.4,1.8,5.3,4.4l0.6,1.7l-4.9,15.4h-0.1l-5-14.5c-1.6-4.4-1-6.8,1.8-9.9l-0.2-0.2c-3.3,2.4-6.1,5.3-8.6,8.5l6.7,19.2
			c0.6,1.7,1,3.5,1.1,5.3h0.1C186.2,520.2,189.8,518.1,192.9,517.2 M229.1,519.1c-2.3,0-4.3-2-4.3-5.8v-19H236v19.2
			C233.6,517.1,231.4,519.1,229.1,519.1 M154.2,519.1c-2.3,0-4.3-2-4.3-5.8v-19h11.1v19.2C158.7,517.1,156.5,519.1,154.2,519.1
			 M142.9,493H130v0.3c4.9,0,7.4,1.1,6.1,5.4l-5,16.1h-0.1l-5.3-14.5c-1.6-4.4-1-6.8,1.8-9.9l-0.2-0.2c-3.3,2.4-6.1,5.3-8.6,8.5
			l7.1,19.2c0.7,1.7,1,3.5,1,5.3h0.1c1.7-3.2,5.3-5.3,8.4-6.1V517c-1.9,0-2.9-0.5-3.6-1.3l5.4-17.2c1.4-4,3.3-5,6.9-5V513
			c0,4.9,2.3,8.9,7.1,8.9c4.3,0,7.6-3.1,10.1-7.6h0.1c0.4,4.4,2.7,7.6,7,7.6s7.9-3.5,10.4-8.2l-0.4-0.2c-2.4,3.6-4.6,5.6-6.9,5.6
			s-4.3-2-4.3-5.8v-19c2.2,0,4.3,0.5,6.4,1.3h0.1l3.4-5l-0.1-0.1c-3,1.5-6.4,2.4-9.7,2.6v-7.6H167c-2.7,5.4-6,7.6-13.2,7.6h-3.9
			v-7.6h-0.1C148.3,488.5,145.9,491.2,142.9,493 M96.2,519.1c-2.3,0-4.3-2-4.3-5.8v-19h11.2v19.2C100.7,517.1,98.6,519.1,96.2,519.1
			 M110.2,521.9c4.4,0,7.9-3.5,10.4-8.2l-0.4-0.2c-2.4,3.6-4.6,5.6-6.9,5.6s-4.3-2-4.3-5.8v-19c2.2,0,4.3,0.5,6.4,1.3h0.1l3.4-5
			l-0.1-0.1c-3,1.5-6.3,2.4-9.7,2.5v-7.6H109c-2.6,5.5-5.9,7.6-13.1,7.6H92v-7.6h-0.1c-2.6,4.4-5.5,8.6-8.8,8.6
			c-1.4,0-2.9-0.8-5.3-2.3h-0.1c-1.2,2.3-2.8,4.4-4.7,6.2h-0.1v-6.5h-0.1c-2.6,3.3-6.1,5.7-10.1,7l0.1,0.3c3-0.9,4.1-0.8,4.1,1.9
			v13.9c0,4.2-0.5,6.3-4.1,6.3v0.3h14v-0.3c-3.5,0-4-2.1-4-6.3v-12.2c0-3.8,1.8-4.9,3.4-4.9s3.3,1.2,4.6,2.6h0.1
			c2-2.2,3.3-3.7,4.9-5.8l0.1,0.1V513c0,4.9,2.3,8.9,7.1,8.9c4.3,0,7.6-3.1,10.1-7.6h0.1C103.5,518.6,105.9,521.9,110.2,521.9
			 M28.7,521v-0.3c-3.5,0-4.1-2.1-4.1-6.3v-31.8h7.6c3.5,0,4.1,2.1,4.1,6.3v25.5c0,4.2-0.5,6.3-4.1,6.3v0.3h14v-0.3
			c-3.5,0-4-2.1-4-6.3v-13.8c0-4.1,2.2-6.2,4.9-6.2s4.9,2.2,4.9,6.2v13.9c0,4.2-0.5,6.3-4.1,6.3v0.3h14v-0.3c-3.5,0-4-2.1-4-6.3v-14
			c0-6.2-4.6-8.3-8.2-8.3c-3.1-0.1-6,1.6-7.5,4.3h0v-18.5h-0.1c-1,1.3-2.3,2.6-3.6,3.6H6.2l-1.1,14h0.3c2.3-10.1,6.3-12.8,13-12.8
			v31.8c0,4.2-0.5,6.3-4.1,6.3v0.3L28.7,521z"/>
		<path class="st0" d="M431,453.7l-0.4-0.2c-2.4,3.6-4.6,5.6-6.9,5.6s-4.3-2-4.3-5.8v-19c2.2,0,4.3,0.5,6.4,1.3h0.1l3.4-5l-0.1-0.1
			c-3,1.5-6.3,2.4-9.7,2.5v-7.6h-0.1c-2.7,5.1-5.3,7.6-11.6,7.6h-3.6v-8.7c0-3.7,1.1-5.3,2.8-5.3c2.3,0,3,3.4,3,8.5h0.1
			c2.1-3,4.5-5.8,7.3-8.2l-0.2-0.2c-1,0.7-2.1,1.2-3.4,1.2c-2.5,0-3.5-2.2-7.3-2.2c-2.3-0.1-4.5,0.9-6.1,2.5
			c-2.4-1.7-5.2-2.6-8.1-2.5c-5.8,0-11.1,3.2-11.1,10.9v3.4c-1,0.7-2.2,1.3-3.4,1.7v0.3h3.4v20.1c0,4.2-0.5,6.3-4.1,6.3v0.3h14v-0.3
			c-3.5,0-4-2.1-4-6.3v-20.1h11v20.1c0,4.2-0.5,6.3-4.1,6.3v0.3h14v-0.3c-3.5,0-4-2.1-4-6.3v-20.1h9.4V453c0,4.9,2.3,8.9,7.1,8.9
			c4.4,0,7.9-3.5,10.4-8.2 M398.1,433h-10.9v-6.2c0-4.6,1.7-7.7,5.5-7.7s5.5,3.2,5.5,7.7L398.1,433z M358.9,460.8
			c-3.5,0-4-2.1-4-6.3v-20.1c1.9,0.1,3.7,0.5,5.5,1.3h0.1l3.4-5l-0.1-0.1c-2.7,1.4-5.7,2.3-8.8,2.5v-5c0-6.4,2.3-8.9,5.6-8.9
			s5.6,2.5,5.6,8.9v26.5c0,4.2-0.5,6.3-4.1,6.3v0.3h14v-0.3c-3.5,0-4-2.1-4-6.3v-36.4h-0.1c-0.9,1.2-1.9,2.3-3.1,3.2
			c-3.5-2.1-5.8-3.2-8.9-3.2c-5.5,0-11,3.2-11,10.9v3.4c-1,0.7-2.2,1.3-3.4,1.7v0.3h3.4v20.1c0,4.2-0.5,6.3-4.1,6.3v0.3h14
			L358.9,460.8z M297.1,460.8c-3.5,0-4-2.1-4-6.3v-20.1H304v20.1c0,4.2-0.5,6.3-4.1,6.3v0.3h14v-0.3c-3.5,0-4-2.1-4-6.3v-20.1
			c1.9,0.1,3.7,0.5,5.5,1.3h0.1l3.4-5l-0.1-0.1c-2.7,1.4-5.7,2.3-8.7,2.5v-5c0-6.4,2.3-8.9,5.6-8.9s5.6,2.5,5.6,8.9v26.5
			c0,4.2-0.5,6.3-4.1,6.3v0.3h14v-0.3c-3.5,0-4-2.1-4-6.3v-9h0.1l6.1,9.7c2.3,3.6,2.6,5.5-0.4,5.5v0.3h14v-0.3c-2.8,0-5-2.6-7.1-5.9
			l-8-12.7c3.5-3.6,7.5-6.6,11.9-9V433h-8.3c-1.5,4.8-3.2,8.2-8.3,11.7H327v-26.9h-0.1c-1,1.2-2.1,2.3-3.3,3.3
			c-2.2-2-5.2-3.1-8.2-3.1c-3.1,0-6.1,1.1-8.4,3.2c-2.5-2.1-5.7-3.2-8.9-3.2c-5.8,0-11.1,3.2-11.1,10.9v3.4c-1,0.7-2.2,1.3-3.4,1.7
			v0.3h3.4v20.1c0,4.2-0.5,6.3-4.1,6.3v0.3h14L297.1,460.8z M304,433h-10.9v-6.2c0-4.6,1.7-7.7,5.5-7.7s5.5,3.2,5.5,7.7L304,433z
			 M263.8,477.3c8.2-1.8,14.8-5.9,14.8-18.1v-28.7l-0.1-0.1c-2.6,1.9-10.6,2.5-17,2.5v-6.9c0-4.9,2.3-7.1,5.5-7.1
			c4.1,0,5.7,3.7,5.7,9.4h0.1c2-3.4,4.5-6.4,7.3-9.1l-0.2-0.2c-1,0.8-2.3,1.2-3.6,1.2c-3.1,0-5.2-2.2-9.7-2.2
			c-5.5,0-11.1,3.2-11.1,10.9v3.4c-1.1,0.7-2.2,1.3-3.4,1.7v0.3h3.4v20.1c0,4.2-0.5,6.3-4.1,6.3v0.3h14v-0.3c-3.5,0-4-2.1-4-6.3
			v-20.1h11.2v22.4c0,12.2-3.1,18.4-8.8,20.2L263.8,477.3z M216.2,460.8c-3.5,0-4-2.1-4-6.3v-20.1h10.9v20.1c0,4.2-0.5,6.3-4.1,6.3
			v0.3h14v-0.3c-3.5,0-4-2.1-4-6.3v-20.1h11.3v20.1c0,4.2-0.5,6.3-4.1,6.3v0.3h14v-0.3c-3.5,0-4-2.1-4-6.3v-24l-0.1-0.1
			c-2.6,1.9-10.6,2.5-17,2.5v-6.9c0-4.9,2.3-7.1,5.5-7.1c4.1,0,5.7,3.7,5.7,9.4h0.1c2-3.4,4.5-6.4,7.3-9.1l-0.2-0.2
			c-1,0.8-2.3,1.2-3.6,1.2c-3.1,0-5.2-2.2-9.7-2.2c-3-0.1-5.9,1-8.2,3.1c-2.4-2.1-5.6-3.1-8.8-3.1c-5.8,0-11.1,3.2-11.1,10.9v3.4
			c-1,0.7-2.2,1.3-3.4,1.7v0.3h3.4v20.1c0,4.2-0.5,6.3-4.1,6.3v0.3h14L216.2,460.8z M223.2,433h-10.9v-6.2c0-4.6,1.7-7.7,5.5-7.7
			s5.5,3.2,5.5,7.7L223.2,433z M168.5,460.8c-3.5,0-4-2.1-4-6.3v-20.1c1.9,0.1,3.7,0.5,5.5,1.2h0.1l3.4-5l-0.1-0.1
			c-2.7,1.4-5.7,2.3-8.8,2.5v-5c0-6.4,2.3-8.9,5.6-8.9s5.6,2.5,5.6,8.9v26.5c0,4.2-0.5,6.3-4.1,6.3v0.3h14v-0.3c-3.5,0-4-2.1-4-6.3
			v-13.9c0-4.1,2.2-6.2,4.9-6.2s4.9,2.2,4.9,6.2v13.9c0,4.2-0.5,6.3-4.1,6.3v0.3h14v-0.3c-3.5,0-4-2.1-4-6.3v-14
			c0-6.2-4.6-8.3-8.2-8.3c-3.1-0.1-6,1.6-7.5,4.3h-0.1v-18.5h-0.1c-1,1.2-2.1,2.3-3.3,3.3c-3.3-2-5.6-3.1-8.7-3.1
			c-5.5,0-11,3.2-11,10.9v3.4c-1,0.7-2.1,1.3-3.3,1.7v0.3h3.4v20.1c0,4.2-0.5,6.3-4.1,6.3v0.3h14L168.5,460.8z M134.4,440.9
			c0-4.1,2.2-6.2,5.2-6.2s6.5,2.2,6.5,12.5s-3.9,12.5-7,12.5s-4.8-2.2-4.8-4L134.4,440.9z M111.2,433h-10.9v-6.2
			c0-4.6,1.7-7.7,5.5-7.7s5.5,3.2,5.5,7.7V433z M140.6,461.9c6.1,0,12.1-4.6,12.1-14.8s-5.9-14.8-11.2-14.8c-3,0-5.7,1.6-7,4.3h-0.1
			v-18.8h-0.1c-1,1.2-2.1,2.3-3.3,3.3c-2.2-2-5.2-3.1-8.2-3.1c-3.1,0-6.1,1.1-8.4,3.2c-2.5-2.1-5.7-3.2-8.9-3.2
			c-5.8,0-11.1,3.2-11.1,10.9v3.4c-1.1,0.7-2.2,1.3-3.4,1.7v0.3h3.4v20.1c0,4.2-0.5,6.3-4.1,6.3v0.3h14v-0.3c-3.5,0-4-2.1-4-6.3
			v-20.1h10.9v20.1c0,4.2-0.5,6.3-4.1,6.3v0.3h14v-0.3c-3.5,0-4-2.1-4-6.3v-20.1c1.9,0.1,3.7,0.5,5.5,1.3h0.1l3.4-5l-0.1-0.1
			c-2.7,1.4-5.7,2.3-8.8,2.5v-5c0-6.4,2.3-8.9,5.6-8.9s5.6,2.5,5.6,8.9v20.9c0,6-0.1,10.4-2.1,12.8l0.2,0.2c2.1-1.5,4.5-2.7,7.1-3.4
			c1.7,2.2,4.3,3.5,7.1,3.4 M78.9,459.1c-3.7,0-6.7-3.2-7.7-9.2c4.5-2.1,7-3.2,9.3-3.2c3.5,0,5.5,2.2,5.4,5.2c0.1,3.9-3,7.1-6.9,7.1
			C79,459.1,78.9,459.1,78.9,459.1 M76.9,461.9c7,0,10.2-4.9,10.1-9.4c0.1-4.4-2.9-6.2-5.9-6.4V446c3-0.7,6.1-0.7,9.1-0.1l0.1-0.3
			c-3.4-1.3-3.5-5.6-5.4-8.9c-1.3-2.5-3.7-4.6-8.3-4.6c-3.5-0.2-6.9,1.4-9.1,4.2h-0.1c-1.8-2.7-5.3-4.2-9.1-4.2
			c-6.8,0-12.5,4.9-12.5,14.9s5.6,14.9,12.5,14.9c3.8,0,7.3-1.5,9.1-4.2h0.1C69.3,460.2,72.8,461.8,76.9,461.9 M58.3,433.2
			c4.2,0,5.9,5.5,5.9,13.8s-1.7,13.8-5.9,13.8s-5.9-5.5-5.9-13.8S54.1,433.2,58.3,433.2 M76.4,433.2c3.4,0,4.7,4.3,4.6,7
			c0.1,4.6-3.5,5.8-10,8.6C70.2,441.9,71.5,433.2,76.4,433.2 M47,453.7l-0.4-0.2c-2.4,3.6-4.6,5.6-6.9,5.6s-4.3-2-4.3-5.8v-19
			c2.2,0,4.3,0.5,6.4,1.3H42l3.4-5l-0.1-0.1c-3,1.5-6.4,2.4-9.7,2.6v-7.6h-0.1l-3.2,4.9c-1.5,1.9-3.1,3.7-5,5.2
			c-2-2.2-4.8-3.4-7.8-3.3c-6.8,0-12.8,4.8-12.8,14.8s6.1,14.9,12.3,14.9c4.7,0,8.4-2.9,10.6-6.9h0.1c0.6,4,2.9,6.9,7,6.9
			C41,461.9,44.5,458.4,47,453.7 M20.9,459.1c-4.4,0-7.7-3.8-7.7-12.6c0-7.8,2.6-13.3,6-13.3c2.2,0,3.8,2.3,3.8,4.8
			c0,1.4-0.5,2.9-1.4,4l0.2,0.2c2.2-2.7,4.7-5.1,7.5-7.2h0.1v19.2C27,457.4,23.8,459.1,20.9,459.1"/>
		<path class="st0" d="M420.7,401l3-9.6l-0.2-0.1c-5.2,6.5-9.1,9.1-17.3,9.1l16.4-27.3l-0.1-0.1h-20l-3,9.6l0.2,0.1
			c5-6.2,8.4-9.1,15.8-9.1l-16.4,27.3l0.1,0.1H420.7z M411.4,369.6h0.1c2.5-3.5,5.4-6.8,8.6-9.7l-0.2-0.3l-8.5,5l-8.5-5l-0.2,0.3
			C406,362.8,408.9,366.1,411.4,369.6 M380.6,416.4c3.5-15.3,6.4-18.2,10.3-19.1v-0.2c-1.9,0-2.9-0.5-3.6-1.3l5.8-17.2
			c1.4-4.1,3.7-5.4,7.2-5.4V373h-12.7v0.3c3.5,0,5.9,1.3,4.6,5.4l-5.5,16.1h-0.1l-5.1-15.2c-1.4-4.3-1.5-6.3,2.9-6.3V373h-15v0.3
			c3.5,0,4.3,2.6,5.5,6.3l8.4,24.2c-2.6,5.5-6.4,8.5-11,11.3v0.1L380.6,416.4z M386,364.9c-3-0.1-5.5-2.5-5.6-5.6h-0.3
			c-0.1,3-2.5,5.5-5.6,5.6v0.3c3,0.1,5.5,2.5,5.6,5.6h0.3c0-3.1,2.5-5.6,5.6-5.6c3.1,0,5.6,2.5,5.6,5.6h0.3c0.1-3,2.5-5.5,5.6-5.6
			v-0.3c-3-0.1-5.5-2.5-5.6-5.6h-0.3C391.5,362.3,389.1,364.8,386,364.9 M354.5,411.6l-0.1-0.2c-2.4,0.7-2.6-0.5-2.6-2.3v-9.7h0.2
			c1.6,1.7,3.9,2.6,6.2,2.5c6.1,0,12-4.6,12-14.8s-5.9-14.8-11.2-14.8c-3,0-5.7,1.6-7,4.3h-0.1v-18.5h-0.1c-2.6,3.3-6.1,5.7-10.1,7
			l0.1,0.3c3-0.9,4.1-0.8,4.1,1.9v38.9c0,6-0.1,10.4-2.1,12.9l0.2,0.2C346.8,415.9,350.5,413.2,354.5,411.6 M356.7,399.6
			c-3.1,0-4.8-2.2-4.8-4v-14.8c0-4.1,2.2-6.2,5.2-6.2s6.5,2.2,6.5,12.5S359.8,399.7,356.7,399.6 M316.8,378.7v14.9
			c0,6.2,4.5,8.3,8.7,8.3c2.7,0.1,5.2-1.1,6.8-3.3h0.1v3.3h0.1c3-1.9,6.4-3.2,9.8-4l-0.1-0.4c-2.2,0.4-3.9-0.6-3.9-3.4v-22.8h-0.1
			c-2.8,2.4-6.3,4-10,4.6v0.3c3.4-0.4,4.1,0.4,4.1,2.5v15.7c0,4-2.5,5.3-4.7,5.3c-2.8,0-4.9-2.3-4.9-6.3v-22.1h-0.1
			c-2.8,2.4-6.3,4-10,4.6v0.3C316.1,375.8,316.9,376.6,316.8,378.7 M318.5,369.7l0.2,0.3l8.5-5l8.5,5l0.2-0.3
			c-3.2-2.9-6.1-6.2-8.6-9.7h-0.1C324.6,363.5,321.7,366.7,318.5,369.7 M298.5,401.9c6.8,0,12.5-4.9,12.5-14.9
			c0-6.1-2.1-10.3-5.3-12.7l3.1-5.8l-1-0.5l-2.9,5.7c-1.9-1.1-4.1-1.6-6.3-1.6c-6.9,0-12.5,4.9-12.5,14.9c0,6.4,2.3,10.7,5.8,13
			l-3.3,6.7l1,0.5l3.3-6.6C294.5,401.5,296.5,401.9,298.5,401.9 M298.5,400.8c-1.9,0-3.2-1.1-4.2-3l9.2-19.3h0.1
			c0.6,2.8,0.9,5.6,0.8,8.5C304.3,394.9,302.7,400.8,298.5,400.8 M292.6,387c0-8.1,1.7-13.8,5.9-13.8c2.1,0,3.6,1.4,4.5,3.8
			l-9.2,19.3h-0.1C292.8,393.3,292.5,390.1,292.6,387 M272.4,399.1c-3.7,0-6.7-3.2-7.7-9.2c4.5-2.1,7-3.2,9.3-3.2
			c3.5,0,5.5,2.2,5.4,5.2c0.1,3.9-3,7.1-6.9,7.1C272.5,399.1,272.4,399.1,272.4,399.1 M270.4,401.9c7,0,10.2-4.9,10.1-9.4
			c0.1-4.4-2.9-6.2-5.9-6.4V386c3-0.7,6.1-0.7,9.1-0.1l0.1-0.3c-3.4-1.3-3.5-5.6-5.4-8.9c-1.3-2.5-3.7-4.6-8.3-4.6
			c-3.5-0.2-6.9,1.4-9.1,4.2h-0.1c-1.8-2.7-5.3-4.2-9.1-4.2c-6.8,0-12.5,4.9-12.5,14.9s5.6,14.9,12.5,14.9c3.8,0,7.3-1.5,9.1-4.2
			h0.1C262.8,400.2,266.3,401.8,270.4,401.9 M251.8,373.2c4.2,0,5.9,5.5,5.9,13.8s-1.7,13.8-5.9,13.8s-5.9-5.5-5.9-13.8
			S247.6,373.2,251.8,373.2 M269.9,373.2c3.4,0,4.7,4.3,4.6,7c0.1,4.6-3.5,5.8-10,8.6C263.7,381.9,265,373.1,269.9,373.2
			 M221.4,400.7c-3.5,0-4-2.1-4-6.3v-13.9c0-4.1,2.2-6.2,4.9-6.2s4.9,2.2,4.9,6.2v13.9c0,4.2-0.5,6.3-4.1,6.3v0.3h14v-0.3
			c-3.5,0-4-2.1-4-6.3v-14c0-6.2-4.6-8.3-8.2-8.3c-3.1-0.1-6,1.6-7.5,4.3h-0.1v-5.1h-0.1c-2.6,3.3-6.1,5.7-10.1,7l0.1,0.3
			c3-0.9,4.1-0.8,4.1,1.9v13.9c0,4.2-0.5,6.3-4.1,6.3v0.3h14L221.4,400.7z M227.8,368.5c1.7-2.5,3.6-5,5.6-7.3l-0.5-0.4
			c-2,2.3-3.2,2.9-4.4,2.9c-2.5,0-5.6-2.8-10-2.8c-1.7,2.4-3.5,4.6-5.6,6.7l0.5,0.4c2.2-2.3,3.3-3.1,5-3.1c2.4,0,5.6,1.5,9.4,3.5
			L227.8,368.5z M198.1,387.7c0,7.4-1.7,13.1-5.9,13.1s-5.9-5.6-5.9-13.1s1.7-12.5,5.9-12.5S198.1,380.3,198.1,387.7 M192.2,401.9
			c7,0,12.8-5.2,12.8-17.2c0-7.9-2.6-15.9-8.4-21.1l7.8-3.3l-0.4-0.8l-8.2,3.5c-3.4-2.7-7.5-4.4-11.8-4.9l-0.1,0.2
			c3.5,1.2,6.6,3.2,9.2,5.8l-8.1,3.4l0.4,0.8l8.3-3.5c3.3,3.8,5.3,9.1,5.3,16.2h-0.1c-1.1-5.4-4.3-8.7-8.5-8.7
			c-5.4,0-10.6,5.5-10.6,14.8C179.8,397,185.4,401.9,192.2,401.9 M177.3,401v-0.3c-3.5,0-4-2.1-4-6.3v-23.1h-0.1
			c-2.6,3.3-6.1,5.7-10.1,7l0.1,0.3c3-0.9,4.1-0.8,4.1,1.9v13.9c0,4.2-0.5,6.3-4.1,6.3v0.3L177.3,401z M172.9,359.6
			c-1.3,3.7-3.1,7.2-5.5,10.3v0.1l0.5,0.1h0.1c3.1-3.2,6.6-6.1,10.4-8.4v-0.1L172.9,359.6L172.9,359.6z M152,399.1
			c-3.7,0-6.8-3.2-7.7-9.2c4.4-2.1,6.9-3.2,9.3-3.2c3.4,0,5.4,2.2,5.4,5.2C158.9,395.9,155.8,399,152,399.1 M160,392.5
			c0.2-3.3-2.3-6.2-5.6-6.4c-0.1,0-0.2,0-0.3,0V386c3-0.7,6.1-0.7,9.1-0.1l0.1-0.3c-3.5-1.3-3.6-5.6-5.4-8.9
			c-1.4-2.5-3.8-4.6-8.3-4.6c-7.1,0-12.4,5.3-12.4,14.9c0,10,5.6,14.9,12.5,14.9S160,397,160,392.5 M149.5,373.2
			c3.3,0,4.6,4.3,4.6,7c0,4.6-3.7,5.8-10,8.6C143.1,381.9,144.8,373.2,149.5,373.2 M149.5,364.8c-3-0.1-5.5-2.5-5.6-5.6h-0.3
			c-0.1,3-2.5,5.5-5.6,5.6v0.3c3,0.1,5.5,2.5,5.6,5.6h0.3c0-3.1,2.5-5.6,5.6-5.6s5.6,2.5,5.6,5.6h0.3c0.1-3,2.5-5.5,5.6-5.6v-0.3
			c-3-0.1-5.5-2.5-5.6-5.6H155C154.9,362.3,152.5,364.7,149.5,364.8 M124.4,415.8c3.4,0,5.9-2.3,5.9-5.5c0-3.6-3.1-6.2-7.2-5.8
			l-0.1-0.1l1.2-2.6h0.2c5,0,8.8-3.5,11.3-8.2l-0.4-0.2c-2.5,3.7-6,5.6-8.9,5.6c-4.1,0-7.1-3.8-7.1-12.6c0-7.7,2.2-13.3,5.2-13.3
			s4.9,5.1,2.7,9l0.3,0.2c2.3-3.2,4.8-6.3,7.6-9.2l-0.2-0.2c-0.9,0.7-2,1.1-3.1,1.1c-2.4,0-3-2.1-7.1-2.1c-6.3,0-11.9,4.9-11.9,14.9
			c0,9.3,5,14.2,10.5,14.8l-3.1,6l0.1,0.1c0.8-0.3,1.6-0.5,2.4-0.5c1.9-0.1,3.5,1.3,3.7,3.2c0,0.1,0,0.1,0,0.2
			c0,1.9-1.5,3.4-3.4,3.4c-0.1,0-0.1,0-0.2,0c-1.3,0-2.6-0.5-3.7-1.3l-0.2,0.1C120.1,414.7,122.2,415.8,124.4,415.8 M100.7,392.3
			v1.7c0,3.7-2.2,6-5,6c-3.1,0-5-2.6-5-6.8s2-6.8,5-6.8C98.5,386.3,100.7,388.7,100.7,392.3 M100.8,401.9c3-1.9,6.4-3.2,9.8-4
			l-0.1-0.4c-2.2,0.4-3.9-0.6-3.9-3.4v-13.5c0-6.4-4.6-8.5-8.3-8.5c-6.5,0-7.7,6.7-14.3,5.6l-0.1,0.3c4.1,0.8,7.8,2.8,10.9,5.6v0.1
			c-4.9-0.8-9.6,2.6-10.4,7.5c-0.1,0.6-0.1,1.2-0.1,1.7c0,6,4.6,8.8,9,8.8c2.8,0.1,5.4-1.1,7.2-3.3h0.1v3.3L100.8,401.9z
			 M100.7,388.2h-0.1c-3.4-4.9-7.9-5.9-7.9-10.6c0-2.5,1.3-3.8,3.1-3.8c2.5,0,5,2.6,5,6.9L100.7,388.2z M94,364.9
			c0.1-1.8,1.6-3.2,3.4-3.2s3.2,1.6,3.2,3.4c-0.1,1.8-1.5,3.2-3.3,3.2C95.4,368.3,94,366.8,94,364.9C94,364.9,94,364.9,94,364.9
			 M97.3,369.6c2.6,0,4.7-2.1,4.7-4.7c0-2.6-2.1-4.7-4.7-4.7c-2.6,0-4.7,2.1-4.7,4.7l0,0C92.5,367.5,94.6,369.6,97.3,369.6
			C97.3,369.6,97.3,369.6,97.3,369.6 M71.3,399.1c-3.8,0-7.1-3.2-8-9.2c4.6-2.2,7.4-3.2,9.9-3.2c3.4,0,5.4,2.2,5.4,5.2
			C78.5,395.9,75.3,399.1,71.3,399.1 M56.9,392.3v1.7c0,3.7-2.3,6-5.3,6c-3.2,0-5.3-2.6-5.3-6.8s2.1-6.8,5.3-6.8
			C54.7,386.3,56.9,388.7,56.9,392.3 M79.7,392.5c0.2-3.3-2.3-6.2-5.6-6.4c-0.1,0-0.2,0-0.3,0V386c3-0.7,6.1-0.7,9.1-0.1l0.1-0.3
			c-3.5-1.3-3.6-5.6-5.4-8.9c-1.4-2.5-4-4.6-8.3-4.6c-3.2-0.1-6.2,1.1-8.4,3.4h-0.1c-1.4-2.2-3.9-3.5-6.5-3.4
			c-6.5,0-7.8,6.7-14.5,5.6l-0.1,0.3c4.1,0.8,7.8,2.8,10.9,5.6v0.1c-4.9-0.8-9.5,2.6-10.3,7.5c-0.1,0.6-0.1,1.2-0.1,1.7
			c0,5.9,4.4,8.8,9.8,8.8c4,0.1,7.8-1.7,10.3-4.8h0.1c2.5,2.9,5.3,4.8,9.4,4.8C76.3,401.8,79.7,396.9,79.7,392.5 M56.9,388.2h-0.1
			c-3.4-5-8.5-6-8.5-10.6c0-2.5,1.5-3.8,3.4-3.8c2.6,0,5.3,2.6,5.3,6.9V388.2z M68.9,373.2c3.5,0,4.9,4.3,4.9,7
			c0,4.6-4,5.6-10.6,8.6C62.2,381.9,63.9,373.2,68.9,373.2 M33.8,392.3v-22c-0.2-2.9,0.9-5.8,2.9-7.9l-0.2-0.2
			c-1.1,1-2.6,1.6-4.1,1.6c-3.7,0-3.7-2.9-9.8-2.9c-8.8,0-16.5,6.1-16.5,18.3c0,11.8,7.2,18.2,16.5,18.2c1.6,0,3.2-0.2,4.8-0.5
			c-1,7.6-3.9,11.8-8.4,13.3l0.1,0.3C27.2,408.5,33.8,404.4,33.8,392.3 M24.1,389v-21.4c0-3,0.4-4.7,1.9-4.7s1.9,1.6,1.9,4.7v22.3
			c0,2.2-0.1,4.3-0.3,6.1C25.1,396,24.1,393.6,24.1,389"/>
		<path class="st0" d="M389.9,341h27.7l1.8-15.8h-0.3c-2.8,10.5-6.7,14.6-13.6,14.6h-7.5l20.5-38.4h-26.3l-1.1,14h0.3
			c2.3-10.1,6.3-12.8,13-12.8h6L389.9,341z M404.6,298.1h0.1c2.5-3.5,5.4-6.8,8.6-9.7l-0.2-0.3l-8.5,5l-8.5-5l-0.2,0.3
			C399.2,291.3,402.1,294.6,404.6,298.1 M372.6,312.2c8.4,0,9.2,6,9.2,9s-0.8,9-9.2,9h-3v-18H372.6z M373.6,340.7
			c-3.5,0-4.1-2.1-4.1-6.3v-3h3.8c9.7,0,15.3-3.6,15.3-10.2s-5.5-10.2-15.3-10.2h-3.8v-3c0-4.2,0.5-6.3,4-6.3v-0.3h-14.2v0.3
			c3.5,0,4,2.1,4,6.3v26.4c0,4.2-0.5,6.3-4.1,6.3v0.3h14.4L373.6,340.7z M328.8,326.9c0,10.7,4.3,14.9,12.2,14.9s12.2-4.3,12.2-14.9
			V308c0-4.2,0.7-6.3,5.9-6.3v-0.3h-13v0.3c5.2,0,5.9,2.1,5.9,6.3v19.5c0,9.6-4.4,13-8.5,13s-8.5-3.4-8.5-13V308
			c0-4.2,0.5-6.3,4.1-6.3v-0.3h-14.2v0.3c3.5,0,4,2.1,4,6.3L328.8,326.9z M334,297.5l0.2,0.3l8.5-5l8.5,5l0.2-0.3
			c-3.2-2.9-6.1-6.2-8.6-9.7h-0.1C340.1,291.3,337.2,294.6,334,297.5 M307.5,341.9c8.6,0,15.5-6.7,15.5-20.5
			c0-8.6-2.7-14.5-6.8-17.6l4.1-9.1l-1.1-0.4l-4,8.8c-2.3-1.4-5-2.2-7.7-2.2c-8.6,0-15.5,6.7-15.5,20.5c0,8.6,2.6,14.4,6.7,17.6
			l-4.8,10.2l1.2,0.5l4.6-10C302.1,341.2,304.8,341.9,307.5,341.9 M307.5,340.6c-2.6,0-4.6-1.6-5.9-4.4l12.6-28h0.1
			c1.3,4.3,1.9,8.7,1.8,13.2C316,332.9,313.1,340.5,307.5,340.6 M299,321.4c0-11.6,2.9-19.2,8.5-19.2c2.5,0,4.6,1.6,5.9,4.4
			l-12.6,28.1h-0.1C299.6,331.3,299,326.6,299,321.4 M285.7,301.4h-24.3c-1.7-0.4-3.5-0.6-5.2-0.6c-10,0-17.1,6.7-17.1,20.5
			s7.1,20.5,16.6,20.5c1.9,0,3.9-0.3,5.8-0.8h24.8l1.8-15.8h-0.3c-2.8,10.5-6.7,14.6-13.6,14.6h-3.8v-18.5c3.9,0,6.2,1.1,8.5,5.9
			h0.1l3.6-11.9h-0.1c-3.4,4.6-8,5.2-12.1,5.2v-17.9h3.2c6.7,0,10.6,2.7,13,12.8h0.3L285.7,301.4z M257.2,340.5
			c-8,0-11.2-7.6-11.2-19.2s3.2-19.3,11.2-19.3c3,0,6.8,1.1,6.8,5.7v27.1C264.1,339.4,260.2,340.5,257.2,340.5 M232.2,308
			c0-4.2,0.5-6.3,4.1-6.3v-0.3H227v0.3c3.5,0,4,2.1,4,6.3v25.3h-0.1l-18.1-31.9h-9.6v0.3c3.4,0,4,2.1,4,6.3v26.4
			c0,4.2-0.5,6.3-4.1,6.3v0.3h9.2v-0.3c-3.5,0-4-2.1-4-6.3v-27.3h0.1l16.7,29.2c1.1,1.9,2,4,2.6,6.1h0.1c1.7-3,4.6-5.2,7.9-6.1v-0.2
			c-1.9,0-2.9-0.5-3.6-1.3L232.2,308z M225,296.4c1.7-2.5,3.6-5,5.6-7.3l-0.5-0.4c-2,2.3-3.2,2.9-4.4,2.9c-2.5,0-5.6-2.8-10-2.8
			c-1.7,2.4-3.5,4.6-5.6,6.7l0.5,0.4c2.2-2.3,3.3-3.1,5-3.1c2.4,0,5.6,1.5,9.4,3.5L225,296.4z M180.2,339.8v-18h6.1v-1.2h-6.1v-18
			h2.9c7.8,0,11,7.1,11,18.6s-3.2,18.6-11,18.6H180.2z M184.1,341c9.8,0,17-6.3,17-19.8s-7.2-19.8-17-19.8H170v0.3
			c3.5,0,4,2.1,4,6.3v12.6h-5.3v1.2h5.3v12.6c0,4.2-0.5,6.3-4,6.3v0.3H184.1z M167,301.4h-14.1v0.3c3.5,0,4,2.1,4,6.3v26.4
			c0,4.2-0.5,6.3-4.1,6.3v0.3h14.4v-0.3c-3.5,0-4.1-2.1-4.1-6.3V308c0-4.2,0.5-6.3,4-6.3L167,301.4z M162.6,288.1
			c-1.3,3.7-3.1,7.2-5.5,10.3v0.1l0.5,0.1h0.1c3.1-3.2,6.6-6.1,10.4-8.4v-0.1L162.6,288.1L162.6,288.1z M149.5,325.2h-0.3
			c-2.8,10.5-6.7,14.6-13.6,14.6h-3.8v-18.5c3.9,0,6.2,1.1,8.5,5.9h0.1l3.6-11.9H144c-3.4,4.6-8,5.2-12.1,5.2v-17.9h3.2
			c6.7,0,10.6,2.7,13,12.8h0.3l-1.1-14h-25.6v0.3c3.5,0,4,2.1,4,6.3v26.4c0,4.2-0.5,6.3-4.1,6.3v0.3h26.2L149.5,325.2z M136.7,292.7
			c-3-0.1-5.5-2.5-5.6-5.6h-0.3c-0.1,3-2.5,5.5-5.6,5.6v0.3c3,0.1,5.5,2.5,5.6,5.6h0.3c0-3.1,2.5-5.6,5.6-5.6s5.6,2.5,5.6,5.6h0.3
			c0.1-3.1,2.5-5.5,5.6-5.6v-0.3c-3-0.1-5.5-2.5-5.6-5.6h-0.3C142.2,290.2,139.8,292.6,136.7,292.7 M104.8,355.8
			c3.4,0,5.9-2.3,5.9-5.5c0-3.6-3.1-6.2-7.2-5.8l-0.1-0.1l1.2-2.6c6.9,0,11-4.6,14.1-10.8l-0.5-0.2c-3,4.9-6.7,7.5-10.7,7.5
			c-6.1,0-11.5-5.7-11.5-18.5c0-9.6,3.1-17.7,8.6-17.7c2.8,0,5.7,2.1,5.7,6.7c0,2.1-0.5,4.2-1.4,6.2l0.3,0.2
			c3.1-4.5,6.5-8.8,10.1-12.8l-0.2-0.2c-1.2,1-2.7,1.6-4.3,1.6c-3.2,0-4-2.9-10-2.9c-9,0-15.8,6.7-15.8,20.4
			c0,13.1,6.3,20.1,14.5,20.6l-3.1,5.9l0.1,0.1c0.8-0.3,1.6-0.5,2.4-0.5c1.9-0.1,3.5,1.3,3.7,3.2c0,0.1,0,0.1,0,0.2
			c0,1.9-1.5,3.4-3.4,3.4c-0.1,0-0.1,0-0.2,0c-1.3,0-2.6-0.5-3.7-1.3l-0.2,0.1C100.5,354.8,102.6,355.8,104.8,355.8 M63.4,340.7
			c-3.5,0-6-1.3-4.6-5.4l2.4-6.7h13.7l2,5.8c1.5,4.3,1.5,6.3-2.9,6.3v0.3h15.5v-0.3c-3.5,0-4.2-2.6-5.5-6.3l-10.6-29.1
			c-0.7-1.7-1-3.5-1.1-5.3h-0.1c-1.7,3.2-5.3,5.3-8.4,6.1v0.2c1.9,0,2.9,0.5,3.6,1.3l-9.8,27.7c-1.4,4.1-3.7,5.4-7.2,5.4v0.3h13
			L63.4,340.7z M68,309.2h0.1l6.4,18.2H61.6L68,309.2z M66.3,294.2c0.1-1.8,1.6-3.2,3.4-3.2s3.2,1.6,3.2,3.4
			c-0.1,1.8-1.5,3.2-3.3,3.2C67.8,297.6,66.3,296.1,66.3,294.2C66.3,294.2,66.3,294.2,66.3,294.2 M69.6,299c2.6,0,4.7-2.1,4.7-4.7
			c0-2.6-2.1-4.7-4.7-4.7c-2.6,0-4.7,2.1-4.7,4.7l0,0C64.9,296.8,66.9,299,69.6,299C69.6,299,69.6,299,69.6,299 M13,340.7
			c-3.7,0-6.4-1.8-4.6-5l7.5-13.2h10.6v11.9c0,4.2-0.5,6.3-4.1,6.3v0.3h26.2l1.8-15.8h-0.3c-2.8,10.5-6.7,14.6-13.6,14.6h-3.8v-17.3
			c3.9,0,6.5,0.8,8.5,5h0.1l3.6-11.9h-0.1c-3.6,4.9-8,5.8-12.1,5.8v-18.8h3.2c6.7,0,10.6,2.7,13,12.8h0.3l-1.1-14H22.4v0.3
			c1.7,0,3.7,0.8,2.2,3.2L7.2,335.3c-2.2,3.8-3.7,5.4-7.2,5.4v0.3h13V340.7z M26.3,304.1h0.2v17.3h-10L26.3,304.1z"/>
		<path class="st0" d="M416.6,266.5c0-6.7,1.9-11.6,4.5-12.4v23.6C418.4,276.5,416.6,272.9,416.6,266.5 M433,272.8l-0.4-0.2
			c-2.9,4.3-7.1,6.2-10.3,5.5v-24.1c2.6,0.5,4.3,5.3,2.2,8.9l0.3,0.2c2.3-3.2,4.8-6.3,7.6-9.2l-0.2-0.2c-0.9,0.7-2,1.1-3.1,1.1
			c-2.3,0-2.9-2-6.8-2.1v-5.7h-1.2v5.7c-5.9,0.4-11.1,5.1-11.1,14c0,9.2,5.4,13.7,11.1,14v5.7h1.2V281
			C426.8,280.8,430.6,277.3,433,272.8 M398,248.6c0,1.9-0.5,3.7-1.8,6.6l0.3,0.2c3.1-4.3,6.5-8.5,10.1-12.4l-0.2-0.2
			c-1,0.9-2.3,1.5-3.7,1.6c-2.8,0-4-2.7-9.4-2.9v-5.7H392v5.7c-8,0.3-11.5,5.9-11.5,10.9c0,5.5,4.2,9.1,11.5,11.9v15.5
			c-2.6-0.4-5.1-2.9-5.1-7.3c0.1-2.2,0.5-4.4,1.4-6.5l-0.3-0.2c-3.1,4.3-6.5,8.5-10.1,12.4l0.2,0.2c1-0.9,2.3-1.4,3.6-1.6
			c2.8,0,4.4,3.7,10.3,4.1v5.8h1.2V281c7.1,0,12.5-4.4,12.5-10.4c0-6.3-6.1-10.6-12.5-12.8v-15.1C395.7,243.1,397.9,244.9,398,248.6
			 M399.3,272.9c0,3.5-2.6,6.5-6.1,6.9v-15.1C398.2,267.3,399.3,270.5,399.3,272.9 M386.1,249.4c-0.1-3.4,2.5-6.4,5.9-6.7v14.7
			C387.3,255.1,386.1,251.9,386.1,249.4 M376.8,270.5l-0.5-0.2c-3.4,5.3-8.1,7.8-12.3,7.8c-5.2,0-10.2-3.8-11.5-13.2H363l0.2-1.2
			h-10.8c-0.1-1.4-0.2-3-0.2-4.5h11.5l0.2-1.2h-11.6c0.4-8.7,3.5-15.8,9.1-15.8c3.1,0,6.2,2.1,6.2,6.7c0,2.2-0.5,4.3-1.4,6.2
			l0.3,0.2c3.1-4.5,6.5-8.8,10.1-12.8l-0.2-0.2c-1.2,1-2.7,1.6-4.3,1.6c-3.4,0-4.2-2.9-10.5-2.9c-8.5,0-15.2,5.6-16.3,17.1h-3.3
			l-0.2,1.2h3.4c-0.1,1.4-0.1,2.9,0,4.5h-4l-0.2,1.2h4.3c1.1,11.5,7.8,17,15.7,17C368.4,281.8,373.4,277.1,376.8,270.5 M337.8,265.1
			h-0.3c-2.8,10.5-6.7,14.6-13.6,14.6H315v-0.1c4.3-2.5,9.2-6.8,9.2-15.5h7.9V263h-8c-0.4-5.8-3.6-8.6-3.6-14c0-4.9,2.6-6.4,4.8-6.4
			c2.6,0,4.5,2.2,4.5,6c0,1.9-0.5,3.7-1.8,6.6l0.3,0.2c3.2-4.3,6.6-8.4,10.2-12.4l-0.2-0.2c-1,0.9-2.3,1.5-3.7,1.6
			c-2.9,0-4.1-2.9-9.8-2.9c-6.7,0-10.5,3.8-10.5,9.5c0,4.6,2.5,7.4,3.4,12.1h-5.5v1.2h5.7c0.9,6.6-1.6,16.5-8,16.5v0.3H336
			L337.8,265.1z M300.5,280.7c-3.5,0-4.1-2.1-4.1-6.3v-3.1h8.9v-1.2h-8.9v-4.6h8.9v-1.2h-8.9v-0.1l8.7-17.3c1.7-3.4,3.8-5.2,6.8-5.2
			v-0.3h-12.8v0.3c2.8,0,5.3,0.6,5.3,2.9c-0.1,0.8-0.3,1.6-0.7,2.3l-7.8,15.5h-0.1l-7.7-14.8c-2.1-4-2.3-5.9,2.2-5.9v-0.3h-15.3v0.3
			c3,0,4.4,2.2,6.4,6.1l8.6,16.4v0.1h-8.6v1.2h8.6v4.6h-8.6v1.2h8.6v3.1c0,4.2-0.5,6.3-4.1,6.3v0.3h14.4L300.5,280.7z M267.8,261.3
			c0,11.6-2.3,19.2-6.7,19.2s-6.7-7.6-6.7-19.2s2.3-19.2,6.7-19.2S267.8,249.7,267.8,261.3 M247.4,261.3c0,13.8,6.1,20.5,13.7,20.5
			s13.7-6.7,13.7-20.5s-6.1-20.5-13.7-20.5S247.4,247.5,247.4,261.3 M223.1,253c0-5.9,2.3-10.9,6.5-10.9s6.7,4.9,6.7,10.9
			s-2.5,10.9-6.7,10.9S223.1,258.9,223.1,253 M229.7,240.8c-6.4,0-12.8,4.9-12.8,13.3c0,7.5,5.2,11.8,10.7,11.8
			c4.2,0,7.9-2.7,9.1-6.7h0.1c-0.7,11.9-5.7,19.3-15,22.5l0.1,0.2c14.7-1.7,20.9-12.7,20.9-23.8
			C242.8,247.4,237.1,240.8,229.7,240.8 M201,260.8c4.2,0,5.9,4.6,5.9,10s-1.7,9.7-5.9,9.7s-5.9-4.3-5.9-9.7S196.8,260.8,201,260.8
			 M201,259.7c-3.4,0-4.7-4.1-4.7-8.9s1.3-8.6,4.7-8.6s4.7,3.8,4.7,8.6S204.4,259.7,201,259.7 M201,281.9c6.8,0,12.5-4.2,12.5-11.1
			c0.1-5.2-3.6-9.7-8.8-10.5v-0.1c4.5-1.1,7.6-4.5,7.6-9.4c0-6.3-5.1-10-11.3-10s-11.3,3.7-11.3,10c0,4.9,3.1,8.2,7.6,9.4v0.1
			c-5.1,0.8-8.9,5.3-8.8,10.5C188.5,277.7,194.2,281.9,201,281.9 M174.5,281c-0.2-13.4,3.9-25.3,12.7-39.5l-0.1-0.1h-10.9
			c-3.8,0.1-7.7-0.1-11.5-0.8l-3.2,10.9l0.2,0.1c2.2-3.6,3.8-4.7,9.4-4.7h11.9v0.1c-10.4,15.9-13.8,23.5-15.4,34.1l0.1,0.1H174.5z
			 M155.5,269.7c0,5.9-2.3,10.9-6.5,10.9s-6.7-4.9-6.7-10.9s2.5-10.9,6.7-10.9S155.5,263.7,155.5,269.7 M149,281.9
			c6.4,0,12.8-4.9,12.8-13.3c0-7.5-5.2-11.8-10.7-11.8c-4.2,0-7.9,2.7-9.1,6.7h-0.1c0.7-11.9,5.7-19.3,15-22.5l-0.1-0.2
			c-14.7,1.7-20.9,12.7-20.9,23.8C135.9,275.3,141.6,281.9,149,281.9 M111.5,254.3l1.4-7.5h3.6c3.8-0.1,7.7,0.1,11.5,0.8l2.6-8.8
			l-0.2-0.1c-1.8,2.5-2.8,2.7-8.6,2.7h-8.8l-2.9,15.4c-0.3,1.6-0.7,3.2-1.3,4.7l0.2,0.1c1.6-2.2,4.3-3.5,7-3.4c5.1,0,8.9,4,8.9,9.3
			c0,7.1-6.7,13-14.9,14l0.1,0.2c13.5,0,20.7-7.4,20.7-16c0.2-6.9-5.2-12.6-12.1-12.8c-0.3,0-0.5,0-0.8,0
			C115.6,253,113.5,253.5,111.5,254.3L111.5,254.3z M97.8,266.8v-26.6h-0.1c-2.5,6.1-5.1,10.9-11.5,19.4c-5.3,7.1-7.7,9.5-11.2,11.2
			v0.2h16.6v3.4c0,4.2-0.7,6.3-5,6.3v0.3h16.2v-0.3c-4.3,0-5-2.1-5-6.3V271c2.4-0.1,4.8,0.4,7,1.3l2.3-8l-0.2-0.1
			C105.1,266.7,103.6,266.8,97.8,266.8 M82,266.8L82,266.8l9.5-12.8h0.1v12.8L82,266.8z M50.6,281.9c15.1,0,21.8-6.8,21.8-13.5
			s-7-11.5-14.8-10.7l-0.1-0.1l15.5-16.1l-0.1-0.1h-7.1c-3.8,0.1-7.7-0.1-11.5-0.8l-3.1,10.9l0.2,0.1c2.2-3.6,3.8-4.7,9.4-4.7h5.7
			v0.1l-7.8,8.1c-1.9,2-4.2,3.5-6.8,4.5l0.1,0.4c6.5-1.8,13.5,1.7,13.5,9.4s-6.9,11.3-15,12.4L50.6,281.9z M33.1,262.6
			c-5,0-7.8-4.5-7.8-9.6s2.8-9.6,7.8-9.6s7.8,4.5,7.8,9.6S38.1,262.6,33.1,262.6 M33.3,281c3.8-0.1,7.7,0.1,11.5,0.8l3.3-10.7
			l-0.2-0.1c-2.3,3.7-4.6,4.7-11.2,4.7h-5.5v-0.1c8.5-8,16.3-14.3,16.3-23c0.2-6.3-4.8-11.6-11.2-11.8c-0.2,0-0.4,0-0.6,0
			c-7.4,0-11.5,6-11.5,12c0,5.5,3.4,10.4,8.8,10.4c2.7,0,5.2-1.3,6.7-3.5l0.1,0.1c-1.6,7.2-9.7,15.8-16,21.1l0.1,0.1L33.3,281z
			 M21.7,280.7c-4.3,0-5-2.1-5-6.3v-34.2h-0.1c-3,4.2-7.3,7.3-12.2,8.9l0.1,0.3c1.3-0.5,2.7-0.9,4.1-1c1.4,0,1.8,0.8,1.8,2.9v23.1
			c0,4.2-0.7,6.3-5,6.3v0.3h16.2L21.7,280.7z"/>
		<path class="st0" d="M413.2,221l3-9.6l-0.2-0.1c-5.2,6.5-9.1,9.1-17.3,9.1l16.4-27.3l-0.1,0h-20l-3,9.6l0.2,0.1
			c5-6.2,8.4-9.1,15.8-9.1L391.6,221l0.1,0.1L413.2,221z M373.7,236.4c3.5-15.3,6.4-18.2,10.3-19.1v-0.2c-1.9,0-2.9-0.5-3.6-1.3
			l5.8-17.2c1.4-4.1,3.7-5.4,7.2-5.4V193h-12.7v0.3c3.5,0,5.9,1.3,4.5,5.4l-5.5,16.1h-0.1l-5.1-15.2c-1.4-4.3-1.5-6.3,2.9-6.3V193
			h-15v0.3c3.5,0,4.3,2.6,5.5,6.3l8.4,24.2c-2.6,5.5-6.4,8.5-11,11.3v0.1L373.7,236.4z M342.5,199.2l6,9.2l-4.4,6.7
			c-2.6,3.9-4.9,5.6-8.9,5.6v0.3h12.3v-0.3c-4.1,0-4.7-1.9-1.8-6.3l3.4-5.2h0.1l3.4,5.2c3.1,4.7,2.7,6.3-1.2,6.3v0.3h15.5v-0.3
			c-2.8,0-5-2.7-7.1-5.9l-6.7-10.1l3.8-5.8c2.6-4,4.9-5.6,8.9-5.6V193h-12.3v0.3c4.1,0,4.7,1.9,1.8,6.3l-2.8,4.2h-0.1l-2.7-4.2
			c-3-4.7-2.7-6.3,1.2-6.3V193h-15.5v0.3C338.3,193.3,340.5,196,342.5,199.2 M313.9,217.3v-0.2c-1.9,0-3-0.5-3.6-1.3l5-15h0.1
			l5.9,17.1c0.6,1.7,1,3.5,1.1,5.3h0.1c1.7-3.2,5.3-5.3,8.4-6.1V217c-1.9,0-2.9-0.5-3.6-1.3l5.9-17.2c1.4-4.1,3.7-5.4,7.2-5.4V193
			h-13.2v0.3c3.9,0,6.5,1.3,5,5.4l-5.5,16.1h-0.1l-5-15.2c-1.4-4.3-1.6-6.3,3.1-6.3V193h-14.5v0.3c2.3,0,3.2,1.9,4.1,4.4l0.6,1.7
			l-5.2,15.4h-0.1l-5-15.2c-1.4-4.3-1.6-6.3,3.1-6.3V193h-15.2v0.3c3.5,0,4.3,2.6,5.5,6.3l6.4,18.4c0.6,1.7,1,3.5,1.1,5.3h0.1
			C307.2,220.2,310.8,218.1,313.9,217.3 M281.1,223.3c1.7-3.2,5.3-5.3,8.4-6.1V217c-1.9,0-2.9-0.5-3.6-1.3l5.8-17.2
			c1.4-4.1,3.7-5.4,7.2-5.4V193h-12.7v0.3c3.5,0,6,1.3,4.6,5.4l-5.5,16.1h-0.1l-5.1-15.2c-1.4-4.3-1.5-6.3,2.9-6.3V193h-15v0.3
			c3.5,0,4.3,2.6,5.5,6.3l6.4,18.4c0.7,1.7,1,3.5,1.1,5.3H281.1z M243.7,198.6v14.9c0,6.2,4.5,8.3,8.7,8.3c2.7,0.1,5.2-1.1,6.8-3.3
			h0.1v3.3h0.1c3-1.9,6.4-3.2,9.8-4l-0.1-0.4c-2.2,0.4-3.9-0.6-3.9-3.4v-22.8h-0.1c-2.8,2.4-6.3,4-10,4.6v0.3
			c3.4-0.4,4.1,0.4,4.1,2.5v15.7c0,4-2.5,5.3-4.7,5.3c-2.8,0-4.9-2.3-4.9-6.3v-22.1h-0.1c-2.8,2.4-6.3,4-10,4.6v0.3
			C243,195.8,243.8,196.6,243.7,198.6 M229.2,193v-7.6h-0.1c-1.7,3.7-5.5,7.5-9.3,8.7v0.3h3.4V213c0,4.9,2.3,8.9,7.1,8.9
			c4.4,0,7.9-3.5,10.4-8.2l-0.4-0.2c-2.4,3.6-4.6,5.6-6.9,5.6s-4.3-2-4.3-5.8v-19c2.2,0,4.3,0.5,6.4,1.3h0.1l3.4-5l-0.1-0.1
			C235.9,192,232.6,192.8,229.2,193 M205.9,220.8c-2.4,0.1-4.5-1.8-4.6-4.3c0-0.1,0-0.2,0-0.3c0-2.3,1.4-4.7,3.2-7
			c4.7,1.4,6.3,4.4,6.3,6.8c0,2.7-2.2,4.8-4.8,4.8C205.9,220.8,205.9,220.8,205.9,220.8 M201.3,197.9c-0.2-2.5,1.8-4.7,4.3-4.9
			c0.1,0,0.1,0,0.2,0c2.3,0,4.2,1.9,4.2,4.2c0,0.1,0,0.2,0,0.2c0,2.1-1.1,4.2-3.2,6.8C202.7,202.8,201.4,200.1,201.3,197.9
			 M194.2,220c0.8-0.7,1.9-1.1,2.9-1.2c2.4,0,3.5,3.1,9.2,3.1c6,0,10.7-3.3,10.7-7.9c0-4.3-4.2-7.4-9.2-9.2c2.9-4,6.1-7.9,9.5-11.5
			l-0.2-0.2c-0.9,0.7-2.1,1.1-3.3,1.1c-2.8,0-3.3-2.1-8.1-2.1c-7,0-10.1,4.4-10.1,8.4s2.9,6.7,7.7,8.3c-2.8,3.9-6,7.6-9.4,11
			L194.2,220z M186.5,191.6L186.5,191.6c-1.2,2.3-2.8,4.4-4.8,6.2h-0.1v-6.5h-0.1c-2.6,3.3-6.1,5.7-10.1,7l0.1,0.3
			c3-0.9,4.1-0.8,4.1,1.9v13.9c0,4.2-0.5,6.3-4.1,6.3v0.3h14v-0.3c-3.5,0-4-2.1-4-6.3v-12.2c0-3.8,1.9-4.9,3.7-4.9
			c1.9,0.1,3.7,1.1,4.9,2.6h0.1c2-2.5,3.4-4.1,5.8-6.7l-0.2-0.2c-0.9,0.7-2,1.1-3.1,1.1C191,194.2,189.3,193.2,186.5,191.6
			 M156.9,219.6c-2.9,0-6.8-2.2-6.8-13c0-9.8,3.4-13,6.8-13c2.8,0,5,2.2,5,5c0,0.1,0,0.2,0,0.3v15.6c0.2,2.7-1.9,5-4.6,5.2
			C157.2,219.7,157,219.7,156.9,219.6 M161.3,239.4c2.9-3.9,6.7-6.9,11.2-8.7l-0.1-0.3c-3.3,1.1-4.4,0.5-4.4-2.3v-36.8h-0.1
			c-1.2,2.1-2.9,3.9-5,5.2c-1.4-2.8-4.2-4.5-7.3-4.3c-5.8,0-11.9,4.5-11.9,14.9s5.9,14.9,11.6,14.9c2.6,0.1,5.1-1.2,6.7-3.3l0.1-0.1
			v7.7c0,6-0.1,10.3-0.8,13L161.3,239.4z M121.1,219.4h0.1c1.6,1.7,3.9,2.6,6.2,2.5c6.1,0,12.1-4.6,12.1-14.9s-5.9-14.9-11.2-14.9
			c-3,0-5.7,1.6-7,4.3h-0.1v-5.1H121c-2.6,3.3-6.1,5.8-10.1,7.1l0.1,0.3c3-0.9,4.1-0.8,4.1,1.9v25.7c0,6-0.1,10.4-2.1,12.9l0.2,0.2
			c2.8-3.5,6.5-6.1,10.6-7.8l-0.1-0.2c-2.4,0.7-2.6-0.5-2.6-2.3L121.1,219.4z M121.1,215.7v-15.1c0-4.1,2.2-6.2,5.2-6.2
			s6.7,2.2,6.7,12.7s-3.9,12.7-7,12.7S121.2,217.4,121.1,215.7 M96.6,193.2c4.2,0,5.9,5.5,5.9,13.8s-1.7,13.8-5.9,13.8
			s-5.9-5.5-5.9-13.8S92.4,193.2,96.6,193.2 M96.6,192.1c-6.8,0-12.5,4.9-12.5,14.9s5.6,14.9,12.5,14.9s12.5-4.9,12.5-14.9
			S103.4,192.1,96.6,192.1 M66.2,220.7c-3.5,0-4-2.1-4-6.3v-13.9c0-4.1,2.2-6.2,4.9-6.2s4.9,2.2,4.9,6.2v13.9c0,4.2-0.5,6.3-4.1,6.3
			v0.3h14v-0.3c-3.5,0-4-2.1-4-6.3v-14c0-6.2-4.6-8.3-8.2-8.3c-3.1-0.1-6,1.6-7.5,4.3h-0.1v-5.1H62c-2.6,3.3-6.1,5.7-10.1,7l0.1,0.3
			c3-0.9,4.1-0.8,4.1,1.9v13.9c0,4.2-0.5,6.3-4.1,6.3v0.3h14L66.2,220.7z M19.6,220.7c-3.5,0-4-2.1-4-6.3v-13.9
			c0-4.1,2.2-6.2,4.9-6.2s4.9,2.2,4.9,6.2v13.9c0,4.2-0.5,6.3-4.1,6.3v0.3h14v-0.3c-3.5,0-4-2.1-4-6.3v-13.9c0-4.1,2.2-6.2,4.9-6.2
			s4.9,2.2,4.9,6.2v13.9c0,4.2-0.5,6.3-4.1,6.3v0.3h14v-0.3c-3.5,0-4-2.1-4-6.3v-14c0-6.2-4.6-8.3-8.2-8.3s-7,2-8,5.3h0
			c-1.2-4-4.7-5.3-7.7-5.3c-3.1-0.1-6,1.6-7.5,4.3h-0.1v-5.1h-0.1c-2.6,3.3-6.1,5.7-10.1,7l0.1,0.3c3-0.9,4.1-0.8,4.1,1.9v13.9
			c0,4.2-0.5,6.3-4.1,6.3v0.3h14L19.6,220.7z"/>
		<path class="st0" d="M423.5,161v-0.3c-3.5,0-4-2.1-4-6.3v-36.6h-0.1c-2.6,3.3-6.1,5.7-10.1,7l0.1,0.3c3-0.9,4.1-0.8,4.1,1.9v27.4
			c0,4.2-0.5,6.3-4.1,6.3v0.3L423.5,161z M394.2,160.7c-3.5,0-4-2.1-4-6.3v-8.9h0.1l6.1,9.7c2.3,3.6,2.6,5.5-0.4,5.5v0.3h14v-0.3
			c-2.8,0-5-2.6-7.1-5.9l-8-12.7c3.5-3.6,7.5-6.6,11.9-9V133h-8.3c-1.5,4.8-3.2,8.2-8.3,11.7h-0.1v-26.9h-0.1
			c-2.6,3.3-6.1,5.7-10.1,7l0.1,0.3c3-0.9,4.1-0.8,4.1,1.9v27.4c0,4.2-0.5,6.3-4.1,6.3v0.3h14L394.2,160.7z M375.8,159.1v-27.9h-0.1
			c-2.6,3.3-6.1,5.7-10.1,7l0.1,0.3c3-0.9,4.1-0.8,4.1,1.9v16.3c0,12.2-3.1,18.4-8.8,20.2l0.1,0.3
			C369.2,175.4,375.8,171.3,375.8,159.1 M378.6,124.8c-3-0.1-5.5-2.5-5.6-5.6h-0.3c-0.1,3-2.5,5.5-5.6,5.6v0.3
			c3,0.1,5.5,2.5,5.6,5.6h0.3c0.1-3,2.5-5.5,5.6-5.6V124.8z M364.6,161v-0.3c-3.5,0-4-2.1-4-6.3v-23.1h-0.1c-2.6,3.3-6.1,5.7-10.1,7
			l0.1,0.3c3-0.9,4.1-0.8,4.1,1.9v13.9c0,4.2-0.5,6.3-4.1,6.3v0.3L364.6,161z M363.3,124.8c-3-0.1-5.5-2.5-5.6-5.6h-0.3
			c-0.1,3-2.5,5.5-5.6,5.6v0.3c3,0.1,5.5,2.5,5.6,5.6h0.3c0.1-3,2.5-5.5,5.6-5.6V124.8z M334,160.7c-3.5,0-4-2.1-4-6.3v-13.8
			c0-4.1,2.2-6.2,4.9-6.2s4.9,2.2,4.9,6.2v13.9c0,4.2-0.5,6.3-4.1,6.3v0.3h14v-0.3c-3.5,0-4-2.1-4-6.3v-14c0-6.2-4.6-8.3-8.2-8.3
			c-3.1-0.1-6,1.6-7.5,4.3H330v-18.5h0c-2.6,3.3-6.1,5.7-10.1,7l0.1,0.3c3-0.9,4.1-0.8,4.1,1.9v27.4c0,4.2-0.5,6.3-4.1,6.3v0.3h14
			L334,160.7z M305.2,175.2c-3.7,0-6.8-3-6.8-6.7c0-0.1,0-0.1,0-0.2c0.2-2.5,1.1-5,2.6-7c8.2,1.2,11.4,4.3,11.4,7.7
			C312.4,172.5,308.8,175.2,305.2,175.2 M317.2,166.2c0-5-3.5-7.9-7.6-9.2c-5.4-1.8-11.9-0.9-11.9-3.5c0-2.1,4.3-1.7,6.4-1.7
			c6.4,0,11.1-3.9,11.1-9.5c0-3.6-2-6.9-5.2-8.5l0.1-0.1c2.3,0.3,4.6,1,6.7,2h0.1l3.4-5.1l-0.1-0.1c-2.7,1.5-5.8,2.3-8.9,2.4
			c-2.6,0-4.6-0.7-7.1-0.7c-6.4,0-11.2,4.5-11.2,10.1c0,3.8,2.3,7.6,5.7,8.6v0.1c-4.3,0.5-5.6,2.8-5.6,4.6c0,1.3,0.6,4.1,6.2,5.5
			c-2.6,4.8-6,9-10.1,12.7l0.2,0.2c1.1-1,2.4-1.6,3.8-1.7c3.3,0,4.5,4.1,11.8,4.1C313.1,176.4,317.2,171.5,317.2,166.2 M304.2,133.2
			c3.6,0,4.5,4.6,4.5,8.6s-0.9,9.2-4.5,9.2s-4.5-5.2-4.5-9.2S300.6,133.2,304.2,133.2 M287.7,160.8c-3.5,0-4-2.1-4-6.3v-20.1
			c2.2,0,4.3,0.5,6.4,1.3h0.1l3.4-5l-0.1-0.1c-3,1.5-6.3,2.4-9.7,2.5v-8.7c0-3.7,1.1-5.3,2.8-5.3c2.3,0,3,3.4,3,8.5h0.1
			c2.1-3,4.5-5.8,7.3-8.2l-0.2-0.2c-1,0.7-2.1,1.2-3.4,1.2c-2.7,0-3.5-2.2-7.3-2.2c-4.2,0-8.4,2.7-8.4,9.1v5.2
			c-1,0.7-2.2,1.3-3.4,1.7v0.3h3.4v20.1c0,4.2-0.5,6.3-4.1,6.3v0.3h14L287.7,160.8z M263,159.1c-3.7,0-6.8-3.2-7.7-9.2
			c4.4-2.1,6.9-3.2,9.3-3.2c3.4,0,5.4,2.2,5.4,5.2C269.9,155.9,266.8,159,263,159.1 M271,152.5c0.2-3.3-2.3-6.2-5.6-6.4
			c-0.1,0-0.2,0-0.3,0V146c3-0.7,6.1-0.7,9.1-0.1l0.1-0.3c-3.5-1.3-3.6-5.6-5.4-8.9c-1.4-2.5-3.8-4.6-8.3-4.6
			c-7.1,0-12.4,5.3-12.4,14.9c0,10,5.6,14.9,12.5,14.9S271,157,271,152.5 M260.5,133.2c3.3,0,4.6,4.3,4.6,7c0,4.6-3.7,5.8-10,8.6
			C254.1,141.9,255.8,133.2,260.5,133.2 M236.5,140.6v13.9c0,3.2-1.9,5.2-4.8,5.2s-7-2.2-7-12.7s3.5-12.7,6.5-12.7
			S236.4,136.5,236.5,140.6 M236.4,136.4h-0.1c-1.3-2.6-4-4.3-7-4.3c-5.3,0-11.2,4.6-11.2,14.9s5.9,14.9,11.5,14.9
			c2.6,0.1,5.2-1.2,6.7-3.3l0.1-0.1v3.4h0.1c3-1.9,6.4-3.2,9.8-4l-0.1-0.4c-2.2,0.4-3.9-0.6-3.9-3.4v-36.3h-0.1
			c-2.6,3.3-6.1,5.7-10.1,7l0.1,0.3c3-0.9,4.1-0.8,4.1,1.9L236.4,136.4z M208.8,142.4c2.3-3.2,4.8-6.3,7.6-9.2l-0.2-0.2
			c-0.9,0.7-2,1.1-3.1,1.1c-2.4,0-3-2.1-7.1-2.1c-6.3,0-11.9,4.9-11.9,14.9s5.8,14.9,11.7,14.9c5,0,8.8-3.5,11.3-8.2l-0.4-0.2
			c-2.5,3.7-6,5.6-8.9,5.6c-4.1,0-7.1-3.8-7.1-12.6c0-7.7,2.2-13.3,5.2-13.3s4.9,5.1,2.7,9L208.8,142.4z M171.6,140.6
			c0-4.1,2.5-6.2,5.2-6.2c3,0,6.5,2.5,6.5,12.7c0,10.5-3.9,12.7-7,12.7s-4.8-2.2-4.8-4L171.6,140.6z M165.6,148.9
			c0,6-0.1,10.4-2.1,12.8l0.2,0.2c2.1-1.5,4.5-2.7,7.1-3.4c1.7,2.2,4.3,3.5,7.1,3.4c6.1,0,12.1-4.6,12.1-14.9s-5.9-14.9-11.2-14.9
			c-3,0-5.7,1.6-7,4.3h-0.1v-18.5h-0.1c-2.6,3.3-6.1,5.7-10.1,7l0.1,0.3c3-0.9,4.1-0.8,4.1,1.9L165.6,148.9z M152,152.3v1.7
			c0,3.7-2.2,6-5,6c-3.1,0-5-2.6-5-6.8s2-6.8,5-6.8C149.9,146.3,152,148.7,152,152.3 M152.1,161.9c3-1.9,6.4-3.2,9.8-4l-0.1-0.4
			c-2.2,0.4-3.9-0.6-3.9-3.4v-13.5c0-6.4-4.6-8.5-8.3-8.5c-6.5,0-7.7,6.7-14.3,5.6l-0.1,0.3c4.1,0.8,7.8,2.8,10.9,5.6v0.1
			c-4.9-0.8-9.6,2.6-10.4,7.5c-0.1,0.6-0.1,1.2-0.1,1.7c0,6,4.6,8.8,9,8.8c2.8,0.1,5.4-1.1,7.2-3.3h0.1v3.3L152.1,161.9z M152,148.2
			h-0.1c-3.4-4.9-7.9-5.9-7.9-10.6c0-2.5,1.3-3.8,3.1-3.8c2.5,0,5,2.6,5,6.9L152,148.2z M113,127.6c0-3,2.3-5.4,5.3-5.5
			c0,0,0.1,0,0.1,0c3.2,0,5.7,2.8,5.7,6.4c-0.1,1.9-0.6,3.8-1.4,5.5l0.3,0.2c3.1-4.2,6.4-8.1,10-11.9l-0.2-0.2
			c-1.1,1-2.4,1.5-3.8,1.6c-2.8,0-4.4-2.9-10-2.9c-6.5,0-11.3,4.1-11.3,9.6c0,3,1.4,5.5,4.4,7.5v0.1c-2.8,1.5-4.5,4.4-4.5,7.5
			c0,4.1,3.1,7.4,9.4,9.8c5.7,2.2,8.4,4.9,8.4,8.2c0,3.1-2.5,5.5-5.6,5.5c-0.1,0-0.1,0-0.2,0c-3.3,0-5.8-2.5-5.8-6.3
			c0.1-2,0.5-3.9,1.4-5.6l-0.3-0.2c-3,4.2-6.3,8.1-9.8,11.8l0.2,0.2c1-0.9,2.4-1.5,3.8-1.6c3,0,4.5,3,10.3,3
			c6.6,0,11.5-4.1,11.5-9.5c0-3-1.5-5.5-4.7-7.6v-0.1c2.7-1.5,4.5-4.3,4.5-7.4c0-4.1-3.2-7.6-9.2-9.8
			C115.7,133.7,113.1,130.8,113,127.6 M113.2,142.6c0-1.2,0.4-2.3,1.1-3.2c8,3.2,11,5.7,11,9.2c0,1.2-0.4,2.4-1.1,3.4
			C116.3,148.6,113.2,145.9,113.2,142.6 M85.7,159.1c-4.3,0-7.5-3.8-7.5-8.9c-0.1-3.4,1.6-6.6,4.5-8.3l10.7,12.7
			C91.1,157.6,88.4,159.1,85.7,159.1 M105.9,156.4v-0.2c-2.2,0-3.5-0.7-5.1-2.6l-11.2-13.4h0.5c3,0,6,0.6,8.8,1.7h0.1l3.4-5.7
			l-0.1-0.1c-3.4,1.7-8.9,2.8-13.6,2.9l-4.6-5.6c-1.7-2-2.7-3.9-2.7-6.1c0-2.8,1.6-5.1,4.3-5.1s5.5,2.1,5.5,6.7
			c0,2.2-0.5,4.3-1.4,6.2l0.3,0.2c3.1-4.5,6.5-8.8,10.1-12.8l-0.2-0.2c-1.2,1-2.7,1.6-4.3,1.6c-3.2,0-4.3-2.9-9.8-2.9
			s-10.3,3-10.3,8.4c0,3.1,1.5,5.8,3.8,8.6l1.7,2v0.1c-6,1.7-9.7,5.4-9.7,11c0,7.1,6,11,11.7,11c4.9,0,8.3-2.8,10.7-6.8h0.1l1.2,1.5
			c1.4,1.7,2.3,3.7,2.8,5.9H98C99.7,159.5,102.6,157.2,105.9,156.4 M37.2,161h27.7l1.8-15.8h-0.3c-2.8,10.5-6.7,14.6-13.6,14.6h-7.5
			l20.5-38.4H39.5l-1.1,14h0.3c2.3-10.1,6.3-12.8,13-12.8h6L37.2,161z M26.5,161v-0.3c-3.5,0-4.1-2.1-4.1-6.3v-10.2l8.7-17.3
			c1.7-3.4,3.8-5.2,6.8-5.2v-0.3H25.1v0.3c2.8,0,5.3,0.6,5.3,2.9c-0.1,0.8-0.3,1.6-0.7,2.3L22,142.4h-0.1l-7.7-14.8
			c-2.1-4-2.3-5.9,2.2-5.9v-0.3H1.1v0.3c3,0,4.4,2.2,6.4,6.1l8.6,16.4v10.3c0,4.2-0.5,6.3-4.1,6.3v0.3L26.5,161z"/>
		<path class="st0" d="M376.6,100.7c-4.4,0-6.8-3.1-4.3-7.5l5.3-9.2h0.1l4.4,7.7c3.1,5.3,3.2,9-1.1,9v0.3h17.9v-0.3
			c-4.2,0-6.2-3.1-9.1-8l-8-13.8l5.7-9.4c3.2-5.3,6.1-7.7,10.4-7.7v-0.3h-16v0.3c4.5,0,7.1,2.8,4.2,7.7l-4.9,8.2h-0.1l-4.5-7.7
			c-2.6-4.4-3.5-8.3,2-8.3v-0.3h-18.1v0.3c4.1,0,5.8,2.8,8.8,8l7.6,13.1l-6.1,10.2c-3.1,5.2-5.9,7.7-10.3,7.7v0.3h16L376.6,100.7z
			 M335.6,96.4v-0.2c-1.9,0-2.9-0.5-3.6-1.3l5.9-23.9h0l6,23.6c0.7,2.6,1.3,5.2,1.6,7.9h0.1c1.7-3.2,5.8-5.2,9.1-6.1v-0.2
			c-1.9,0-2.9-0.5-3.6-1.3l7-27.7c1.1-4.2,3.7-5.4,7.2-5.4v-0.3h-13.7v0.3c4.1,0,6.3,1.2,5.3,5.4l-6.4,26.2h-0.1L344.1,68
			c-1.1-4.5-1.7-6.3,3.7-6.3v-0.3h-15.9v0.3c3.6,0,4.5,2.3,5.6,6.7l-6.1,24.9h-0.1L324.9,68c-1.1-4.4-1.3-6.3,3-6.3v-0.3H312v0.3
			c3.9,0,5.2,2.5,6.1,6.3l6.7,26.5c0.7,2.6,1.3,5.2,1.6,7.9h0.1C328.2,99.2,332.2,97.2,335.6,96.4 M293.2,102.4
			c1.7-3.2,5.3-5.3,8.4-6.1v-0.2c-1.9,0-2.9-0.5-3.6-1.3l9.9-27.7c1.4-4.1,3.7-5.4,7.2-5.4v-0.3h-13v0.3c3.5,0,6,1.3,4.6,5.4
			l-9.3,26.2h-0.1L288.4,68c-1.5-4.3-1.5-6.3,2.9-6.3v-0.3h-15.4v0.3c3.5,0,4.2,2.6,5.5,6.3L292,97.1
			C292.7,98.8,293,100.6,293.2,102.4L293.2,102.4z M248.8,86.9c0,10.7,4.3,14.9,12.2,14.9s12.2-4.3,12.2-14.9V68
			c0-4.2,0.7-6.3,5.9-6.3v-0.3h-13v0.3c5.2,0,5.9,2.1,5.9,6.3v19.5c0,9.6-4.4,13-8.5,13s-8.5-3.4-8.5-13V68c0-4.2,0.5-6.3,4.1-6.3
			v-0.3h-14.2v0.3c3.5,0,4,2.1,4,6.3L248.8,86.9z M233.2,100.7c-3.5,0-4.1-2.1-4.1-6.3V62.6c6.7,0,10.6,2.7,13,12.8h0.3l-1.1-14
			h-30.6l-1.1,14h0.3c2.3-10.1,6.3-12.8,13-12.8v31.8c0,4.2-0.5,6.3-4.1,6.3v0.3h14.4L233.2,100.7z M193,100.6
			c-3.3,0-5.9-2.6-5.9-6.5c0-3.5,2-6.7,4.4-10.1c6.3,2.2,8.2,6.5,8.2,9.7C199.9,97.4,196.9,100.5,193,100.6
			C193.1,100.6,193,100.6,193,100.6 M186.5,69.1c-0.2-3.7,2.7-6.7,6.3-6.9c0,0,0.1,0,0.1,0c3.1,0,5.6,2.3,5.6,6.1
			c0,3.1-1.8,5.9-4.4,9.7C187.8,75.6,186.5,71.7,186.5,69.1 M178.5,99.2c1-0.9,2.3-1.5,3.6-1.6c3.1,0,4.7,4.3,11.6,4.3
			c7.1,0,12.4-4.6,12.4-10.9c0-5.9-4.7-9.9-10.9-12.5c3.7-5.7,7.9-11.1,12.4-16.2l-0.2-0.2c-1.2,1-2.7,1.6-4.3,1.6
			c-3.2,0-3.9-2.9-10.1-2.9c-8.4,0-12.1,6-12.1,11.2s3.5,8.9,9.5,11.4c-3.6,5.5-7.7,10.7-12.2,15.5L178.5,99.2z M158.9,100.8
			c-3.5,0-4-2.1-4-6.3V81.5h4.1l6.4,12.9c0.6,1.2,1,2.5,1.1,3.8c0,1.2-0.6,2.5-2.9,2.5v0.3h15.1v-0.3c-3,0-4.4-1.8-6.1-5.3
			l-7.4-14.5c5.2-1.2,9.1-3.8,9.1-9.3c0-6.5-5.5-10.2-15.5-10.2h-14.1v0.3c3.5,0,4,2.1,4,6.3v26.4c0,4.2-0.5,6.3-4.1,6.3v0.3H159
			L158.9,100.8z M155.8,80.4H155V62.6h2.9c8.5,0,9.7,5.6,9.7,9.1c0,2.8-0.8,5.8-3.2,7.4h-0.1c-0.6-1.9-0.8-3.9-0.5-5.8l-0.2-0.1
			C162.2,77.4,159.9,80.4,155.8,80.4 M133.8,81.4c0,10-2,19.3-8.3,19.3c-5.8,0-8.7-7.7-8.7-19.3s2.9-19.2,8.5-19.2
			S133.8,69.8,133.8,81.4 M143.8,116.4c1.8-3.8,4.4-7.1,7.7-9.8l-0.1-0.2c-8.2,3.1-22.3,2.5-32.6,2v-0.1c12.4-5.8,22-10.5,22-26.9
			c0-13.9-6.8-20.6-15.5-20.6s-15.5,6.7-15.5,20.5s7.1,20.5,14.8,20.5c1.2,0,2.4-0.2,3.5-0.7v0.1c-3.7,3.5-9.3,6.4-14.6,8.2l0.1,0.3
			C120.4,108.8,135.8,110.2,143.8,116.4L143.8,116.4z M89.8,62.6c8.2,0,9.3,5.4,9.3,9s-1.1,9-9.3,9h-3v-18L89.8,62.6z M90.8,100.7
			c-3.5,0-4-2.1-4-6.3V81.8h4c9.7,0,15.2-3.2,15.2-10.2s-5.5-10.2-15.2-10.2H76.7v0.3c3.5,0,4,2.1,4,6.3v26.4c0,4.2-0.5,6.3-4.1,6.3
			v0.3h14.2L90.8,100.7z M66.4,81.4c0,11.6-2.9,19.2-8.5,19.2s-8.5-7.6-8.5-19.2s2.9-19.2,8.5-19.2S66.4,69.8,66.4,81.4 M42.4,81.4
			c0,13.8,6.8,20.5,15.5,20.5s15.5-6.7,15.5-20.5s-6.8-20.5-15.5-20.5S42.4,67.6,42.4,81.4 M34.9,68c0-4.2,0.5-6.3,4.1-6.3v-0.3
			h-9.2v0.3c3.5,0,4,2.1,4,6.3v25.3h-0.1L15.4,61.4H5.8v0.3c3.4,0,4,2.1,4,6.3v26.4c0,4.2-0.5,6.3-4.1,6.3v0.3H15v-0.3
			c-3.5,0-4-2.1-4-6.3V67.1h0.1l16.7,29.2c1.1,1.9,2,4,2.6,6.1h0.1c1.7-3,4.6-5.2,7.9-6.1v-0.2c-1.9,0-2.9-0.5-3.6-1.3V68z"/>
		<path class="st0" d="M376.8,40.7c-3.5,0-4-2.1-4-6.3V7.1h0.2l9.2,25.8c0.7,1.7,1,3.5,1.1,5.3h0.1c1.7-3.2,5.3-5.3,8.4-6.1V32
			c-1.9,0-2.9-0.5-3.6-1.3l9-25h0.1v28.8c0,4.2-0.5,6.3-4.1,6.3V41h14.4v-0.3c-3.5,0-4.1-2.1-4.1-6.3V8c0-4.2,0.5-6.3,4-6.3V1.4
			h-9.9l-10,27.9h-0.1l-9.7-27.9h-10.2v0.3c3.4,0,4,2.1,4,6.3v26.4c0,4.2-0.5,6.3-4.1,6.3V41h9.2L376.8,40.7z M366.1,25.2h-0.3
			c-2.8,10.5-6.7,14.6-13.6,14.6h-3.8V8c0-4.2,0.5-6.3,4-6.3V1.4h-14.2v0.3c3.5,0,4,2.1,4,6.3v26.4c0,4.2-0.5,6.3-4.1,6.3V41h26.2
			L366.1,25.2z M318.7,40.7c-3.5,0-4.1-2.1-4.1-6.3v-8.7l3.7-4.9h0.1l6.8,13.6c0.6,1.2,1,2.5,1.1,3.8c0,1.2-0.6,2.5-2.9,2.5V41h15.1
			v-0.3c-3,0-4.4-1.8-6.2-5.3l-9.8-19.6l6.1-8.9c2.4-3.5,4.9-5.2,8.5-5.2V1.4h-13.7v0.3c3.1,0,6.3,1.7,3.9,5.2l-5.2,7.6h-0.1
			c-0.8-1.8-1.3-3.6-1.4-5.6h-0.2c-0.8,6.7-2.5,11.1-5.6,14.9h-0.1V8c0-4.2,0.5-6.3,4-6.3V1.4h-14.2v0.3c3.5,0,4,2.1,4,6.3v26.4
			c0,4.2-0.5,6.3-4.1,6.3V41h14.4L318.7,40.7z M282.7,49.8c8.2-1.8,14.8-5.9,14.8-18.1V8c0-4.2,0.5-6.3,4-6.3V1.4h-14.2v0.3
			c3.5,0,4,2.1,4,6.3v21.3c0,12.2-3,18.4-8.6,20.2L282.7,49.8z M284.2,1.4h-14.2v0.3c3.5,0,4,2.1,4,6.3v26.4c0,4.2-0.5,6.3-4.1,6.3
			V41h14.4v-0.3c-3.5,0-4.1-2.1-4.1-6.3V8c0-4.2,0.5-6.3,4-6.3L284.2,1.4z M248.2,40.7c-3.5,0-4-2.1-4-6.3V20.8h12.6v13.6
			c0,4.2-0.5,6.3-4.1,6.3V41H267v-0.3c-3.5,0-4-2.1-4-6.3V8c0-4.2,0.5-6.3,4.1-6.3V1.4h-14.2v0.3c3.5,0,4,2.1,4,6.3v11.6h-12.6V8
			c0-4.2,0.5-6.3,4.1-6.3V1.4h-14.3v0.3c3.5,0,4,2.1,4,6.3v26.4c0,4.2-0.5,6.3-4.1,6.3V41h14.3L248.2,40.7z M229.7,41.6
			c-1.5-1.9-2.1-5.6-2.1-9.7v-4c0-4.1,0.5-6.2,4-6.2v-0.3h-16.5V22c5,0,6.4,2.6,6.4,7.7v9c-1.5,1.2-3.4,1.9-5.3,1.9
			c-6.4,0-9.1-7.6-9.1-19.2s3.1-19.2,8.6-19.2c2.8,0,5.8,2,5.8,6.7c0,2.2-0.5,4.3-1.4,6.2l0.3,0.2c3.1-4.5,6.5-8.8,10.1-12.9
			l-0.2-0.2c-1.2,1-2.7,1.6-4.3,1.6c-3.2,0-4.2-2.9-10.1-2.9c-9.2,0-15.7,7-15.7,20.5c0,13.8,6.8,20.5,15.1,20.5
			c3.3,0,6.4-1.2,8.9-3.4c1.9,1,3.8,2.1,5.5,3.4L229.7,41.6z M184.7,40.7c-3.5,0-4.1-2.1-4.1-6.3V21.3c3.9,0,6.2,1.1,8.5,5.9h0.1
			l3.6-11.9h-0.1c-3.4,4.6-8,5.2-12.1,5.2V2.6h3.2c6.7,0,10.6,2.7,13,12.8h0.3l-1.1-14h-25.6v0.3c3.5,0,4,2.1,4,6.3v26.4
			c0,4.2-0.5,6.3-4.1,6.3V41h14.4L184.7,40.7z M167,25.2h-0.3c-2.8,10.5-6.7,14.6-13.6,14.6h-3.7V21.3c3.9,0,6.2,1.1,8.5,5.9h0.1
			l3.6-11.9h-0.1c-3.4,4.6-8,5.2-12.1,5.2V2.6h3.2c6.7,0,10.6,2.7,13,12.8h0.3l-1.1-14h-25.6v0.3c3.5,0,4,2.1,4,6.3v26.4
			c0,4.2-0.5,6.3-4.1,6.3V41h26.2L167,25.2z M115,39.8V2.6h2.9c7.8,0,11,7.1,11,18.6s-3.2,18.6-11,18.6H115z M108.7,8v26.4
			c0,4.2-0.5,6.3-4,6.3V41h14.1c9.8,0,17-6.3,17-19.8s-7.2-19.8-17-19.8h-14.1v0.3C108.2,1.7,108.7,3.8,108.7,8 M93.4,15.2
			c3.1-4.5,6.5-8.7,10.1-12.8l-0.2-0.2c-1.2,1-2.7,1.6-4.3,1.6c-3.2,0-4-2.9-10-2.9c-9,0-15.8,6.7-15.8,20.4S80,41.9,88.7,41.9
			c7,0,11-4.6,14.2-10.8l-0.5-0.2c-3,4.9-6.7,7.5-10.7,7.5c-6.1,0-11.5-5.7-11.5-18.5c0-9.6,3.1-17.7,8.6-17.7
			c2.8,0,5.7,2.1,5.7,6.7c0,2.1-0.5,4.2-1.4,6.2L93.4,15.2z M52.4,20.6c6.3,0,10,3.5,10,9.6s-3.7,9.6-10,9.6h-3.5V20.6L52.4,20.6z
			 M52.1,2.6c5.8,0,9,3,9,8.5s-3.2,8.5-9,8.5h-3.2V2.6L52.1,2.6z M38.6,41h14.5c10.3,0,16.1-3.8,16.1-10.4c0-5.5-4-9.4-10.7-10.6V20
			c6-1.3,9.2-4.5,9.2-9.1c0-5.9-5.4-9.4-14.6-9.4H38.7v0.3c3.5,0,4,2.1,4,6.3v26.4c0,4.2-0.5,6.3-4.1,6.3L38.6,41z M13.1,40.7
			c-3.5,0-6-1.3-4.6-5.4l2.4-6.7h13.7l2,5.8c1.5,4.3,1.5,6.3-2.9,6.3V41h15.5v-0.3c-3.5,0-4.2-2.6-5.5-6.3L23.2,5.3
			c-0.7-1.7-1-3.5-1.1-5.3H22c-1.7,3.2-5.3,5.3-8.4,6.1v0.2c1.9,0,2.9,0.5,3.6,1.3L7.4,35.3c-1.4,4.1-3.7,5.4-7.2,5.4V41h13
			L13.1,40.7z M17.8,9.2h0.1l6.4,18.2H11.4L17.8,9.2z"/>
	</g>
</g>
</svg>
