<svg xmlns="http://www.w3.org/2000/svg" viewBox="0 0 423.33 443.1"><defs><style>.cls-1{fill:red;}</style></defs><title>Asset 1</title><g id="Layer_2" data-name="Layer 2"><g id="Layer_1-2" data-name="Layer 1"><path class="cls-1" d="M31.61,443.1,0,372.06l7.7-7.69L80,394.69l-8.4,8.4-21.24-9.43L29.72,414.33l9.77,20.89ZM1.19,372.28l30.75,69.08L38.29,435l-9.78-20.89,21.66-21.65,21.23,9.42L78.26,395,7.93,365.55ZM25.44,407.7l-9.59-21.06A90.47,90.47,0,0,0,9,374.32l.66-.72c3.49,1.94,8.22,4.26,14.05,6.89l20,9ZM10.86,375.42a92,92,0,0,1,5.9,10.8l9,19.76,16.14-16.14L23.25,381.4C18.31,379.17,14.15,377.17,10.86,375.42Z"/><path class="cls-1" d="M85.44,380.82a20.4,20.4,0,0,1-7.78-1.57c-4.43-1.82-9.4-5.48-14.79-10.87L33.28,338.79l7.4-7.41,29.57,29.56c4.33,4.34,8,7.16,10.79,8.39a12.66,12.66,0,0,0,8.69.58,20.29,20.29,0,0,0,8.78-5.48c4.8-4.8,7.16-9.35,7-13.51s-3.36-9.45-9.59-15.68L66.39,305.68l7.4-7.41,29.6,29.6c5.11,5.1,8.64,9.81,10.5,14a21.53,21.53,0,0,1,1.1,13.85c-1.15,5-4.22,10-9.15,14.88s-9.59,7.91-14.3,9.31A21.3,21.3,0,0,1,85.44,380.82Zm-50.75-42,28.89,28.89C68.87,373,73.74,376.55,78,378.32a19.37,19.37,0,0,0,13.22.63c4.55-1.36,9.22-4.4,13.87-9.06,4.8-4.79,7.78-9.64,8.88-14.4a20.48,20.48,0,0,0-1-13.22c-1.81-4.07-5.27-8.68-10.29-13.69l-28.89-28.9-6,6,28.86,28.85c6.41,6.42,9.74,11.92,9.88,16.36s-2.32,9.24-7.33,14.25A21.14,21.14,0,0,1,90,370.88a13.69,13.69,0,0,1-9.36-.63c-3-1.28-6.68-4.18-11.1-8.6L40.68,332.8Z"/><path class="cls-1" d="M148.44,326.27,103.8,281.63,87.12,298.3l-6.68-6.68,40.83-40.82,6.68,6.68L111.2,274.22l44.65,44.65ZM103.8,280.21l44.64,44.65,6-6-44.64-44.65,16.74-16.74-5.26-5.27L81.85,291.62l5.27,5.27Z"/><path class="cls-1" d="M179,295.75l-51.32-51.32L135,237l20.79,20.79,25.6-25.61-20.78-20.78,7.4-7.41,51.32,51.33-7.4,7.4-23.86-23.86-25.6,25.61,23.86,23.85Zm-49.91-51.32L179,294.33l6-6-23.86-23.85,27-27L212,261.33l6-6-49.91-49.91-6,6,20.78,20.78-27,27L135,238.43Z"/><path class="cls-1" d="M230,244.75l-51.33-51.32,37.31-37.31,6.68,6.68-29.9,29.9,14.79,14.8,28-28,6.64,6.64-28,28,16.52,16.52,31.08-31.08,6.68,6.68Zm-49.91-51.32L230,243.34,267,206.27,261.76,201l-31.08,31.07-17.93-17.93,28-28-5.23-5.23-28,28-16.2-16.21,29.9-29.9-5.27-5.26Z"/><path class="cls-1" d="M276.91,197.8l-51.32-51.33,7.41-7.41L298,152,259.05,113l7.13-7.13,51.32,51.32-7.41,7.41-65-12.92,39,39ZM227,146.47l49.91,49.91,5.72-5.71L242,150.08l67.72,13.46,6.32-6.33-49.9-49.91L260.46,113,301,153.57l-67.68-13.43Z"/><path class="cls-1" d="M340.93,133.78,296.28,89.14l-16.67,16.68-6.68-6.68,40.82-40.83L320.43,65,303.69,81.74l44.64,44.64Zm-44.65-46,44.65,44.64,6-6L302.27,81.74,319,65l-5.27-5.27L274.34,99.14l5.27,5.26Z"/><path class="cls-1" d="M372.38,102.33,321.06,51l7.4-7.41,51.33,51.32ZM322.47,51l49.91,49.91,6-6L328.46,45Z"/><path class="cls-1" d="M391.34,73.19a32.07,32.07,0,0,1-12-2.47,49.37,49.37,0,0,1-16.41-11A42.86,42.86,0,0,1,352,42.7a29.84,29.84,0,0,1-.35-17.83A36.2,36.2,0,0,1,361,9.32c5.12-5.11,10.81-8.16,16.93-9A29,29,0,0,1,396.34,4l.46.26-5.56,9-.41-.21c-4.74-2.45-9.07-3.42-12.86-2.88a18.84,18.84,0,0,0-10.66,5.76c-3.79,3.8-6.09,7.93-6.81,12.28a20.49,20.49,0,0,0,1.95,12.71,42.4,42.4,0,0,0,8,11.18,43.63,43.63,0,0,0,13,9.29,19.41,19.41,0,0,0,12.73,1.31A22.78,22.78,0,0,0,407,56.59a20,20,0,0,0,6.14-12.46c.42-4.63-1-9.55-4.28-14.6l-.28-.44,9.27-5.53.25.43c4.14,7,5.85,13.86,5.08,20.48s-3.86,12.68-9.19,18c-5.5,5.5-11.18,8.9-16.89,10.11A27.6,27.6,0,0,1,391.34,73.19ZM381.75,1a25.08,25.08,0,0,0-3.67.27c-5.89.85-11.4,3.8-16.36,8.76a35.17,35.17,0,0,0-9.09,15.12A28.85,28.85,0,0,0,353,42.39,41.89,41.89,0,0,0,363.62,59,48.36,48.36,0,0,0,379.7,69.79a29,29,0,0,0,17.16,1.82c5.52-1.17,11-4.48,16.39-9.84,5.17-5.17,8.16-11,8.9-17.42s-.85-12.78-4.68-19.41L410,29.42c3.19,5.1,4.59,10.08,4.15,14.8a20.92,20.92,0,0,1-6.43,13.08,23.73,23.73,0,0,1-11.21,6.34,20.29,20.29,0,0,1-13.37-1.37,44.33,44.33,0,0,1-13.31-9.49,43.27,43.27,0,0,1-8.22-11.44A21.5,21.5,0,0,1,359.51,28c.76-4.56,3.15-8.88,7.1-12.83a19.8,19.8,0,0,1,11.22-6c3.9-.55,8.28.38,13.05,2.77l4.52-7.3A28.94,28.94,0,0,0,381.75,1Z"/></g></g></svg>