<svg xmlns="http://www.w3.org/2000/svg" viewBox="0 0 426.62 448.32"><defs><style>.cls-1{fill:red;}</style></defs><title>authentic-logo-190311-red</title><g id="Layer_2" data-name="Layer 2"><g id="Layer_1-2" data-name="Layer 1"><path class="cls-1" d="M32.82,448.32,0,373.37l8-8,74.81,33-7.55,7.54L54,396.49,31,419.41l9.48,21.22ZM1.19,373.59l32,73,6.17-6.17-9.48-21.21L53.73,395.3,75,404.7l6-6L8.2,366.58ZM26.6,411.4l-15.46-35,34.8,15.69Zm-13.49-33,13.81,31.3,17.29-17.29Z"/><path class="cls-1" d="M88.54,384.39c-7.44,0-15-3.55-22-10.63L33.05,340.32l7.14-7.15,33.45,33.45c4.81,4.81,9.7,7.32,14.55,7.46s9.45-2,13.88-6.47c9.2-9.2,9-19.13-.57-28.71L68,305.38l7.14-7.14,33.52,33.52c13.8,13.8,14,29.44.5,42.92C102.66,381.16,95.64,384.39,88.54,384.39ZM67.2,373.06c13.59,13.58,28.23,13.91,41.23.92s12.85-28.17-.49-41.51L75.12,299.66l-5.72,5.72,32.81,32.81c9.89,9.9,10.09,20.6.56,30.13-9.3,9.3-19.9,8.95-29.84-1L40.19,334.59l-5.73,5.73Z"/><path class="cls-1" d="M151.78,329.36l-46.89-46.89L86.65,300.72l-7-7,43.56-43.56,7,7L112,275.4l46.89,46.89Zm-46.89-48.3,46.89,46.88,5.65-5.65L110.55,275.4l18.24-18.24-5.58-5.59L81.06,293.72l5.59,5.59Z"/><path class="cls-1" d="M181.54,299.59l-53.88-53.88,7.07-7.08,22.91,22.92,28.29-28.29L163,210.35l7.07-7.07L224,257.16l-7.07,7.07-24-24-28.29,28.29,24,24Zm-52.47-53.88,52.47,52.47,5.66-5.66-24-24,29.7-29.7,24,24,5.66-5.66-52.47-52.47-5.66,5.66,22.91,22.91L157.64,263l-22.91-22.91Z"/><path class="cls-1" d="M232.17,249l-53.88-53.88,37.76-37.76,7,7L192.36,195l15.7,15.7,28.35-28.36,7,7-28.36,28.36,17.11,17.11,31.33-31.33,7.07,7.07ZM179.7,195.08l52.47,52.47,37-37-5.66-5.65-31.33,31.32-18.53-18.52L242,189.35l-5.59-5.59-28.35,28.36L190.94,195l30.69-30.69-5.58-5.59Z"/><path class="cls-1" d="M277.36,203.78l-53.89-53.89,7.33-7.33.26.06,68.47,13.6L258.33,115,265.4,108l53.89,53.88L312,169.11l-.26-.06L243,155.3l41.41,41.41Zm-52.47-53.89,52.47,52.47,5.65-5.65-43-43L311.7,168l6.17-6.18L265.4,109.38,259.75,115l42.81,42.82-71.43-14.2Z"/><path class="cls-1" d="M342.06,139.08,295.17,92.19l-18.24,18.25-7-7,43.56-43.56,7,7L302.24,85.12,349.13,132Zm-46.89-48.3,46.89,46.88,5.65-5.65L300.83,85.12l18.24-18.24-5.58-5.59-42.15,42.15,5.59,5.58Z"/><path class="cls-1" d="M372.88,108.25,319,54.37l7.21-7.22L380.1,101ZM320.41,54.37l52.47,52.47,5.8-5.8L326.21,48.57Z"/><path class="cls-1" d="M389.36,79.7c-9.77,0-19.64-4.16-27.93-12.46h0C344.94,50.75,344.27,26.55,359.87,11,370.62.19,384.87-2.81,399,2.7l.56.22L393.74,12l-.37-.12a25.2,25.2,0,0,0-26.43,6.45C355.55,29.69,356.29,47,368.71,59.39c12.2,12.2,28.51,12.92,39.67,1.77,8.05-8.06,10.1-19.3,5.48-30.07l-.17-.39,8.62-5.49.24.52c7.23,15.69,4.76,30.78-7,42.5C407.94,75.88,398.7,79.7,389.36,79.7ZM362.13,66.53c15.83,15.82,37.52,16.23,52.76,1,11.26-11.27,13.74-25.75,7-40.85L415,31.09c4.57,11,2.39,22.52-5.86,30.77C397.51,73.44,380.62,72.71,368,60.09c-12.82-12.82-13.56-30.69-1.76-42.49,7.42-7.43,17.27-9.9,27.08-6.82L398,3.42c-13.5-5.07-27.12-2.08-37.43,8.24-15.2,15.19-14.53,38.78,1.55,54.87Z"/></g></g></svg>