<svg xmlns="http://www.w3.org/2000/svg" viewBox="0 0 273.27 433"><defs><style>.cls-1{fill:none;stroke:#000;stroke-linecap:round;stroke-linejoin:round;}</style></defs><title>dadras-logo-181113-02</title><g id="Layer_2" data-name="Layer 2"><g id="Layer_1-2" data-name="Layer 1"><path class="cls-1" d="M124.77,81.17v1.31H140.7c8.13-43.27,29.93-63.76,72.21-67C159.9,15.5,124.77,41.81,124.77,81.17Z"/><path class="cls-1" d="M167.38,245.5c36.44,46.85,1,115.48-59.85,115.48-24.73,0-49.45-11.38-70.27-32.85,11.06,30.2,44.24,50.37,81.33,50.37,25,0,48.47-9.11,64.08-26C215.53,316.69,203.82,258.14,167.38,245.5Z"/><path class="cls-1" d="M214.88,252c49.12,64.08-13,163.3-106.38,163.3-40.33,0-80.67-18.54-108-54.33C18.07,404.2,67.84,432.5,125.09,432.5c43.59,0,80-15,102.8-41C263,351.17,255.21,280.26,214.88,252Z"/><path class="cls-1" d="M149.17,132.9c-16.59-14.32-24.4-32.53-24.4-51.73,0-39.36,35.13-65.67,88.15-65.67C188.85,5.38,164.77.5,141.36.5,71.77.5,21,44.42,21,104.27c0,42,25,78.72,70.26,102.47,35.13,18.22,52.38,39.36,52.38,63.76,0,24.72-17.25,44.57-47.5,54.33,50.42-2.28,78.4-33.19,71.24-79.38,36.44,12.69,48.15,71.24,15.29,107C210,328.05,225,290,214.88,251.93c40.33,28.3,48.14,99.21,13,139.55,23.11-23.39,44.89-58.2,44.89-106,0-60.06-34.8-91.13-71-115.95"/><path class="cls-1" d="M91.26,206.74C46.05,183,21,146.23,21,104.27,21,44.42,71.77.5,141.36.5c23.41,0,47.49,4.88,71.56,15-53,0-88.15,26.31-88.15,65.67,0,19.2,7.81,37.41,24.4,51.73C123.47,146.56,104.6,171,91.26,206.74Z"/><path class="cls-1" d="M212.92,15.5c-59.85-6.87-106.69,20.13-117.1,67H49.3C70.12,19.37,133.23-6.66,212.92,15.5Z"/><path class="cls-1" d="M193.15,233.84c-7.16,0-11.06-5.86-11.06-13,0-10.41,8.78-15.61,11.06-35.45,2.27,19.84,11.06,25,11.06,35.45C204.21,228,200.3,233.84,193.15,233.84Z"/><path class="cls-1" d="M156,181.69a32.75,32.75,0,0,0,21.77,8.46,25.53,25.53,0,0,0,15.36-4.78,25.38,25.38,0,0,1-.76-35.34,30.14,30.14,0,0,0-13-4.45c-14-1.62-20.17-4.22-30.25-12.68"/><path class="cls-1" d="M184.63,146.61a33.5,33.5,0,0,0,.89,42.48"/><path class="cls-1" d="M192.39,150a25.38,25.38,0,0,0,.76,35.34,21.9,21.9,0,0,0,8.71-18A20.14,20.14,0,0,0,192.39,150Z"/></g></g></svg>