<svg xmlns="http://www.w3.org/2000/svg" viewBox="0 0 131.91 57.68"><title>Asset 3</title><g id="Layer_2" data-name="Layer 2"><g id="Layer_1-2" data-name="Layer 1"><rect x="41.97" y="6.94" width="47.97" height="0.63"/><rect y="16.94" width="131.91" height="0.63"/><rect x="59.96" y="26.94" width="11.99" height="0.63"/><rect x="20.99" y="36.94" width="89.94" height="0.63"/><path d="M47.4,1.7a.28.28,0,0,1-.32.32.28.28,0,0,1-.31-.32v-1H44V2.35h1.39V1.92a.28.28,0,0,1,.31-.32.28.28,0,0,1,.32.32V3.39a.28.28,0,0,1-.32.32c-.21,0-.31-.1-.31-.32V3H44V5.16h1.23a.28.28,0,0,1,.31.32.28.28,0,0,1-.31.32H42.72a.29.29,0,0,1-.32-.32.29.29,0,0,1,.32-.32h.63V.68h-.61a.28.28,0,0,1-.31-.32A.28.28,0,0,1,42.74,0h4.34a.34.34,0,0,1,.23.1.31.31,0,0,1,.09.22Z"/><path d="M53.71,5.8H52a.29.29,0,0,1-.32-.32A.29.29,0,0,1,52,5.16h.77l-.48-1.22H49.71l-.45,1.22H50a.29.29,0,0,1,.32.32A.29.29,0,0,1,50,5.8H48.29A.28.28,0,0,1,48,5.48a.28.28,0,0,1,.32-.32h.3L50.25.63h-1A.28.28,0,0,1,49,.32.29.29,0,0,1,49.29,0h1.89a.32.32,0,0,1,.17.07.36.36,0,0,1,.12.13l2,5h.25a.28.28,0,0,1,.31.32A.28.28,0,0,1,53.71,5.8ZM52,3.31,51,.63h0L50,3.31Z"/><path d="M59.46,2.9A3,3,0,0,1,58.74,5a2.75,2.75,0,0,1-2.06.76H54.74a.28.28,0,0,1-.32-.32.28.28,0,0,1,.32-.32h.35V.68h-.37A.29.29,0,0,1,54.4.36.29.29,0,0,1,54.72,0h2a2.58,2.58,0,0,1,2.05.84A3,3,0,0,1,59.46,2.9Zm-.64,0a2.3,2.3,0,0,0-.52-1.6A2,2,0,0,0,56.73.68h-1V5.16h1C58.11,5.16,58.82,4.41,58.82,2.9Z"/><path d="M65.21,5.48a.28.28,0,0,1-.1.22.3.3,0,0,1-.22.1H60.57a.28.28,0,0,1-.32-.32.28.28,0,0,1,.32-.32h.67V.68H60.6a.29.29,0,0,1-.32-.32A.29.29,0,0,1,60.6,0h4.29a.3.3,0,0,1,.22.1.28.28,0,0,1,.1.22V1.69a.29.29,0,0,1-.32.32.28.28,0,0,1-.31-.32v-1h-2.7V2.35h1.35V1.93a.32.32,0,1,1,.64,0V3.38a.32.32,0,1,1-.64,0V3H61.88V5.16h2.7V4a.27.27,0,0,1,.31-.31.28.28,0,0,1,.32.31Z"/><path d="M76.73,5.8H73.17a.29.29,0,0,1-.32-.32.29.29,0,0,1,.32-.32h1.45V.67H73.17a.28.28,0,0,1-.32-.31A.28.28,0,0,1,73.17,0h3.56a.28.28,0,0,1,.32.32.28.28,0,0,1-.32.31H75.26V5.16h1.47a.29.29,0,0,1,.32.32A.29.29,0,0,1,76.73,5.8Z"/><path d="M83.33.63h-.28V5.48a.28.28,0,0,1-.1.22.32.32,0,0,1-.22.1h-.2a.3.3,0,0,1-.14-.06.38.38,0,0,1-.13-.1L79.59,1.05V5.16h.86a.29.29,0,0,1,.32.32.29.29,0,0,1-.32.32H78.6a.29.29,0,0,1-.32-.32.29.29,0,0,1,.32-.32H79V.63H78.4a.28.28,0,0,1-.32-.31A.29.29,0,0,1,78.4,0h1.13a.37.37,0,0,1,.15.06.32.32,0,0,1,.12.1l2.61,4.41V.63H81.6a.28.28,0,0,1-.32-.31A.29.29,0,0,1,81.6,0h1.73a.28.28,0,0,1,.31.32A.27.27,0,0,1,83.33.63Z"/><path d="M87.91,2.32a.81.81,0,0,1-.29.62,1,1,0,0,1-.68.25,1,1,0,0,1-.68-.25.83.83,0,0,1,0-1.24,1,1,0,0,1,.68-.25,1,1,0,0,1,.68.25A.81.81,0,0,1,87.91,2.32Zm0,2.68a.79.79,0,0,1-.29.61,1,1,0,0,1-.68.26,1,1,0,0,1-.68-.26.82.82,0,0,1,0-1.23,1,1,0,0,1,.68-.26,1,1,0,0,1,.68.26A.8.8,0,0,1,87.91,5Z"/><path d="M4.78,15.8H1.22a.32.32,0,0,1,0-.64H2.67V10.67H1.22a.28.28,0,0,1-.32-.31A.28.28,0,0,1,1.22,10H4.78a.28.28,0,0,1,.32.32.28.28,0,0,1-.32.31H3.31v4.49H4.78a.32.32,0,1,1,0,.64Z"/><path d="M11.37,10.63H11.1v4.85a.34.34,0,0,1-.32.32h-.2a.37.37,0,0,1-.15-.06.44.44,0,0,1-.12-.1L7.64,11.05v4.11H8.5a.32.32,0,0,1,0,.64H6.65a.32.32,0,0,1,0-.64H7V10.63H6.45a.28.28,0,0,1-.32-.31A.29.29,0,0,1,6.45,10H7.58a.3.3,0,0,1,.14.06.29.29,0,0,1,.13.1l2.61,4.41V10.63H9.65a.28.28,0,0,1-.32-.31A.29.29,0,0,1,9.65,10h1.72a.28.28,0,0,1,.32.32C11.69,10.53,11.59,10.63,11.37,10.63Z"/><path d="M17.46,12.26a.27.27,0,0,1-.31.31c-.22,0-.32-.1-.32-.31V10.63H15.31v4.53h1.1a.32.32,0,0,1,0,.64H13.59a.32.32,0,0,1,0-.64h1.09V10.63H13.16v1.62a.32.32,0,0,1-.64,0V10.32a.3.3,0,0,1,.1-.23.29.29,0,0,1,.22-.09h4.31a.33.33,0,0,1,.22.09.33.33,0,0,1,.09.23Z"/><path d="M22,15a.78.78,0,0,1-.28.61,1,1,0,0,1-.68.26,1,1,0,0,1-.68-.26.82.82,0,0,1,0-1.23,1,1,0,0,1,.68-.26,1,1,0,0,1,.68.26A.79.79,0,0,1,22,15Z"/><path d="M35.72,15.8H34a.32.32,0,1,1,0-.64h.77l-.49-1.22H31.73l-.45,1.22H32a.32.32,0,1,1,0,.64H30.3a.32.32,0,0,1,0-.64h.3l1.66-4.53h-.95c-.22,0-.32-.1-.32-.31a.28.28,0,0,1,.32-.32h1.88a.29.29,0,0,1,.17.07.24.24,0,0,1,.12.13l2,5h.25a.32.32,0,0,1,0,.64Zm-1.67-2.49L33,10.63h0l-1,2.68Z"/><path d="M41.55,15.8H41a.37.37,0,0,1-.15-.06.31.31,0,0,1-.12-.09l-1.09-1.76a1.15,1.15,0,0,0-1-.65h-.85v1.92h.63a.32.32,0,0,1,0,.64H36.59a.32.32,0,0,1,0-.64h.6V10.63h-.6a.28.28,0,0,1-.32-.31.29.29,0,0,1,.32-.32H39a2.34,2.34,0,0,1,1.36.37A1.41,1.41,0,0,1,41,11.61a1.52,1.52,0,0,1-1.25,1.49,4.45,4.45,0,0,1,.8,1.05l.6,1h.39a.32.32,0,0,1,0,.64Zm-1.18-4.19a.83.83,0,0,0-.44-.78,1.8,1.8,0,0,0-.89-.2H37.82v2H39C39.93,12.52,40.37,12.19,40.37,11.61Z"/><path d="M47.44,12.26a.27.27,0,0,1-.31.31.28.28,0,0,1-.32-.31V10.63H45.3v4.53h1.09a.32.32,0,0,1,0,.64H43.57a.32.32,0,1,1,0-.64h1.09V10.63H43.14v1.62a.32.32,0,0,1-.64,0V10.32a.3.3,0,0,1,.1-.23.31.31,0,0,1,.22-.09h4.31a.31.31,0,0,1,.22.09.33.33,0,0,1,.09.23Z"/><path d="M59.39,13.78H59.2v1.38c0,.25-.3.46-.9.61a4.94,4.94,0,0,1-1.09.16,2.62,2.62,0,0,1-2-.88,3,3,0,0,1-.78-2.1,3.39,3.39,0,0,1,.67-2.19,2.37,2.37,0,0,1,2-.89,2.24,2.24,0,0,1,1.49.48v-.14a.32.32,0,0,1,.64,0V11.5a.25.25,0,0,1-.28.28.39.39,0,0,1-.27-.1.38.38,0,0,1-.12-.29.74.74,0,0,0-.49-.7,2.12,2.12,0,0,0-1-.19,1.77,1.77,0,0,0-1.47.66A2.71,2.71,0,0,0,55.07,13a2.37,2.37,0,0,0,.61,1.67,2,2,0,0,0,1.53.67,2.6,2.6,0,0,0,1.35-.3V13.78H57.31a.32.32,0,0,1,0-.64h2.08a.32.32,0,0,1,0,.64Z"/><path d="M65.7,15.8H64a.32.32,0,0,1,0-.64h.77l-.49-1.22H61.71l-.45,1.22H62a.32.32,0,0,1,0,.64H60.28a.32.32,0,0,1,0-.64h.3l1.66-4.53h-1a.28.28,0,0,1-.32-.31.29.29,0,0,1,.32-.32h1.88a.29.29,0,0,1,.17.07.24.24,0,0,1,.12.13l2,5h.25a.32.32,0,1,1,0,.64ZM64,13.31,63,10.63h0l-1,2.68Z"/><path d="M71.48,15.48a.28.28,0,0,1-.1.22.32.32,0,0,1-.22.1h-4.6a.32.32,0,0,1,0-.64h.94V10.63h-.94a.27.27,0,0,1-.31-.31.28.28,0,0,1,.31-.32H69.3a.29.29,0,0,1,.32.32.28.28,0,0,1-.32.31H68.14v4.53h2.7V13.55a.32.32,0,1,1,.64,0Z"/><path d="M77.47,15.48a.31.31,0,0,1-.09.22.34.34,0,0,1-.22.1h-4.6a.32.32,0,1,1,0-.64h.94V10.63h-.94a.28.28,0,0,1-.32-.31.29.29,0,0,1,.32-.32H75.3a.28.28,0,0,1,.31.32.27.27,0,0,1-.31.31H74.13v4.53h2.71V13.55a.28.28,0,0,1,.32-.32.28.28,0,0,1,.31.32Z"/><path d="M83.2,15.48a.31.31,0,0,1-.09.22.34.34,0,0,1-.23.1H78.56a.32.32,0,1,1,0-.64h.67V10.68h-.64a.32.32,0,1,1,0-.64h4.29a.34.34,0,0,1,.23.1.31.31,0,0,1,.09.22v1.33a.29.29,0,0,1-.32.32.28.28,0,0,1-.31-.32v-1h-2.7v1.67h1.35v-.42a.32.32,0,0,1,.64,0v1.45a.32.32,0,1,1-.64,0V13H79.87v2.17h2.7V14a.27.27,0,0,1,.31-.31.28.28,0,0,1,.32.31Z"/><path d="M89.52,15.8H89a.37.37,0,0,1-.15-.06.31.31,0,0,1-.12-.09L87.6,13.89a1.15,1.15,0,0,0-1-.65h-.85v1.92h.63a.32.32,0,1,1,0,.64H84.56a.32.32,0,0,1,0-.64h.6V10.63h-.6a.28.28,0,0,1-.32-.31.29.29,0,0,1,.32-.32H87a2.34,2.34,0,0,1,1.36.37A1.41,1.41,0,0,1,89,11.61a1.52,1.52,0,0,1-1.25,1.49,4.73,4.73,0,0,1,.8,1.05l.6,1h.39a.32.32,0,0,1,0,.64Zm-1.18-4.19a.83.83,0,0,0-.44-.78,1.82,1.82,0,0,0-.9-.2H85.79v2H87C87.9,12.52,88.34,12.19,88.34,11.61Z"/><path d="M95.23,10.63H95L93.24,13.5v1.66h1.08a.32.32,0,0,1,0,.64H91.53a.32.32,0,1,1,0-.64H92.6V13.5l-1.68-2.87h-.3a.28.28,0,0,1-.32-.31.29.29,0,0,1,.32-.32h1.61a.29.29,0,0,1,.32.32.28.28,0,0,1-.32.31h-.57l1.26,2.16,1.29-2.16h-.38a.28.28,0,0,1-.32-.31.29.29,0,0,1,.32-.32h1.4a.29.29,0,0,1,.32.32A.28.28,0,0,1,95.23,10.63Z"/><path d="M106.87,13.85H103a.32.32,0,1,1,0-.64h3.86a.32.32,0,1,1,0,.64Z"/><path d="M119.42,12.9A3,3,0,0,1,118.7,15a2.72,2.72,0,0,1-2,.76h-2a.32.32,0,1,1,0-.64h.36V10.68h-.37a.32.32,0,0,1,0-.64h2a2.57,2.57,0,0,1,2,.84A2.92,2.92,0,0,1,119.42,12.9Zm-.63,0a2.3,2.3,0,0,0-.53-1.6,2,2,0,0,0-1.56-.62h-1v4.48h1C118.07,15.16,118.79,14.41,118.79,12.9Z"/><path d="M125.66,15.8H124a.32.32,0,0,1,0-.64h.77l-.49-1.22h-2.57l-.45,1.22H122a.32.32,0,0,1,0,.64h-1.72a.32.32,0,0,1,0-.64h.3l1.66-4.53h-1a.28.28,0,0,1-.32-.31.29.29,0,0,1,.32-.32h1.88a.29.29,0,0,1,.17.07.32.32,0,0,1,.13.13l2,5h.25a.32.32,0,0,1,0,.64ZM124,13.31l-1.07-2.68h0l-1,2.68Z"/><path d="M131.21,10.63h-.28l-1.71,2.87v1.66h1.08a.32.32,0,0,1,0,.64h-2.79a.32.32,0,1,1,0-.64h1.07V13.5l-1.68-2.87h-.31a.27.27,0,0,1-.31-.31.28.28,0,0,1,.31-.32h1.62a.28.28,0,0,1,.31.32.27.27,0,0,1-.31.31h-.58l1.27,2.16,1.29-2.16h-.38a.28.28,0,0,1-.32-.31.29.29,0,0,1,.32-.32h1.4a.29.29,0,0,1,.32.32A.28.28,0,0,1,131.21,10.63Z"/><path d="M65.26,25.8h-.82a.34.34,0,0,1-.23-.1.31.31,0,0,1-.09-.22v-.24a2.59,2.59,0,0,1-1.78.62,1.89,1.89,0,0,1-1.13-.31,1.18,1.18,0,0,1-.51-1,1.43,1.43,0,0,1,.71-1.27,2.78,2.78,0,0,1,1.53-.38,3.66,3.66,0,0,1,1.18.16V22.9c0-.68-.39-1-1.18-1a2.11,2.11,0,0,0-1.26.34.33.33,0,0,1-.19.06.28.28,0,0,1-.22-.1.34.34,0,0,1-.1-.23.3.3,0,0,1,.14-.25,2.71,2.71,0,0,1,1.63-.46,1.9,1.9,0,0,1,1.33.43,1.58,1.58,0,0,1,.48,1.23v2.26h.51a.32.32,0,1,1,0,.64Zm-1.14-1.55v-.52a2.64,2.64,0,0,0-1.18-.22,2.1,2.1,0,0,0-1.18.28.84.84,0,0,0-.42.74c0,.47.33.7,1,.7a2,2,0,0,0,1-.24A2.86,2.86,0,0,0,64.12,24.25Z"/><path d="M71.31,25.24a4.08,4.08,0,0,1-2,.62c-1.1,0-1.64-.57-1.64-1.71V21.92h-1a.32.32,0,1,1,0-.64h1V20.12A.28.28,0,0,1,68,19.8a.28.28,0,0,1,.31.32v1.16h2.18a.32.32,0,0,1,0,.64H68.29v2.23a1.31,1.31,0,0,0,.2.83,1.07,1.07,0,0,0,.81.24,2.94,2.94,0,0,0,1.66-.5.32.32,0,0,1,.18-.06.27.27,0,0,1,.22.1.3.3,0,0,1,.1.23A.29.29,0,0,1,71.31,25.24Z"/><path d="M26.16,34.18a1.57,1.57,0,0,1-.66,1.34,2.47,2.47,0,0,1-1.48.42,2.57,2.57,0,0,1-1.55-.42v.15a.32.32,0,0,1-.64,0V34.19a.32.32,0,1,1,.64,0c0,.75.52,1.12,1.55,1.12A1.76,1.76,0,0,0,25.13,35a1,1,0,0,0,.4-.82c0-.42-.31-.72-.93-.87l-1.74-.41a1.33,1.33,0,0,1-.93-1.31,1.56,1.56,0,0,1,.56-1.26,2.47,2.47,0,0,1,2.84-.06v-.1a.28.28,0,0,1,.32-.32c.21,0,.31.1.31.32v1.21c0,.22-.1.33-.31.33s-.32-.11-.32-.33a.78.78,0,0,0-.39-.6,1.57,1.57,0,0,0-.94-.3,1.64,1.64,0,0,0-1.1.33,1,1,0,0,0-.34.78c0,.41.32.7.94.85l1.73.41A1.34,1.34,0,0,1,26.16,34.18Z"/><path d="M32.7,31.92h-.09l-1.06,3.73a.32.32,0,0,1-.13.16.27.27,0,0,1-.18.07h-.33a.27.27,0,0,1-.18-.07.25.25,0,0,1-.12-.16L30,33.53l-.59,2.12a.3.3,0,0,1-.12.16.32.32,0,0,1-.19.07h-.32a.29.29,0,0,1-.18-.07.35.35,0,0,1-.13-.15L27.3,31.92h-.09a.32.32,0,0,1,0-.64h1.5a.32.32,0,0,1,0,.64H28L28.91,35l.6-2.16a.34.34,0,0,1,.12-.16.32.32,0,0,1,.19-.07h.31a.32.32,0,0,1,.19.07.42.42,0,0,1,.12.16L31.08,35,32,31.92H31.3a.32.32,0,0,1,0-.64h1.4a.32.32,0,0,1,0,.64Z"/><path d="M38.11,35.8h-4a.32.32,0,0,1,0-.64h1.67V31.92H34.62a.32.32,0,0,1,0-.64h1.44a.3.3,0,0,1,.22.1.28.28,0,0,1,.1.22v3.56h1.73a.32.32,0,0,1,0,.64Zm-1.73-5.63a.32.32,0,0,1-.64,0v-.82a.32.32,0,1,1,.64,0Z"/><path d="M44,34.44a1.31,1.31,0,0,1-.51,1.08,2,2,0,0,1-1.33.41,2.69,2.69,0,0,1-1.68-.46v.12a.32.32,0,0,1-.64,0V34.45c0-.24.11-.36.31-.36a.33.33,0,0,1,.32.27c.19.63.76.94,1.69.94A1.39,1.39,0,0,0,43.1,35a.74.74,0,0,0,.27-.59.52.52,0,0,0-.23-.47,2.6,2.6,0,0,0-1.3-.22,3.23,3.23,0,0,1-1.36-.21,1,1,0,0,1-.57-1,1.16,1.16,0,0,1,.54-1,2.22,2.22,0,0,1,1.26-.32,2.29,2.29,0,0,1,1.47.47v-.13a.27.27,0,0,1,.31-.31.28.28,0,0,1,.32.31v1c0,.24-.09.36-.28.36a.36.36,0,0,1-.31-.2,1.65,1.65,0,0,0-1.51-.85c-.78,0-1.16.23-1.16.7a.46.46,0,0,0,.22.46,2.46,2.46,0,0,0,1.07.15C43.28,33.12,44,33.56,44,34.44Z"/><path d="M50,34.44a1.33,1.33,0,0,1-.5,1.08,2,2,0,0,1-1.33.41,2.69,2.69,0,0,1-1.68-.46v.12a.32.32,0,0,1-.64,0V34.45q0-.36.3-.36a.32.32,0,0,1,.32.27c.2.63.76.94,1.7.94A1.39,1.39,0,0,0,49.1,35a.74.74,0,0,0,.27-.59.52.52,0,0,0-.23-.47,2.64,2.64,0,0,0-1.31-.22,3.26,3.26,0,0,1-1.36-.21,1.05,1.05,0,0,1-.56-1,1.17,1.17,0,0,1,.53-1,2.26,2.26,0,0,1,1.26-.32,2.29,2.29,0,0,1,1.47.47v-.13a.32.32,0,0,1,.64,0v1c0,.24-.1.36-.29.36a.35.35,0,0,1-.3-.2,1.67,1.67,0,0,0-1.52-.85c-.77,0-1.16.23-1.16.7a.47.47,0,0,0,.22.46,2.53,2.53,0,0,0,1.07.15C49.28,33.12,50,33.56,50,34.44Z"/><path d="M61.74,35.8H58.19a.32.32,0,0,1,0-.64h1.45V30.67H58.19c-.22,0-.32-.1-.32-.31a.28.28,0,0,1,.32-.32h3.55a.28.28,0,0,1,.32.32c0,.21-.1.31-.32.31H60.27v4.49h1.47a.32.32,0,0,1,0,.64Z"/><path d="M68.28,35.8H66.81a.32.32,0,1,1,0-.64h.41V32.73a.92.92,0,0,0-.25-.66.94.94,0,0,0-.69-.26,1.37,1.37,0,0,0-1.08.43,1.49,1.49,0,0,0-.38,1.07v1.85h.45a.32.32,0,0,1,0,.64H63.78a.32.32,0,0,1,0-.64h.41V31.92H63.8a.32.32,0,0,1,0-.64h.7a.34.34,0,0,1,.23.1.31.31,0,0,1,.09.22v.11a2,2,0,0,1,1.46-.53,1.51,1.51,0,0,1,1.14.46,1.49,1.49,0,0,1,.44,1.09v2.43h.42a.32.32,0,1,1,0,.64Z"/><path d="M74,34.44a1.33,1.33,0,0,1-.5,1.08,2,2,0,0,1-1.34.41,2.69,2.69,0,0,1-1.68-.46v.12a.29.29,0,0,1-.32.32.28.28,0,0,1-.31-.32V34.45q0-.36.3-.36a.33.33,0,0,1,.32.27c.19.63.76.94,1.69.94a1.39,1.39,0,0,0,.93-.27.74.74,0,0,0,.27-.59.52.52,0,0,0-.23-.47,2.6,2.6,0,0,0-1.3-.22,3.23,3.23,0,0,1-1.36-.21,1,1,0,0,1-.57-1,1.16,1.16,0,0,1,.54-1,2.26,2.26,0,0,1,1.26-.32,2.29,2.29,0,0,1,1.47.47v-.13a.27.27,0,0,1,.31-.31.28.28,0,0,1,.32.31v1c0,.24-.09.36-.28.36a.36.36,0,0,1-.31-.2,1.65,1.65,0,0,0-1.51-.85c-.78,0-1.16.23-1.16.7a.46.46,0,0,0,.22.46,2.46,2.46,0,0,0,1.07.15C73.26,33.12,74,33.56,74,34.44Z"/><path d="M80.31,35.24a4,4,0,0,1-.6.31,3.49,3.49,0,0,1-1.41.31c-1.1,0-1.64-.57-1.64-1.71V31.92h-1a.32.32,0,1,1,0-.64h1V30.12A.28.28,0,0,1,77,29.8a.28.28,0,0,1,.32.32v1.16h2.18a.32.32,0,0,1,0,.64H77.29v2.23a1.31,1.31,0,0,0,.2.83,1.06,1.06,0,0,0,.81.24,2.94,2.94,0,0,0,1.66-.5.32.32,0,0,1,.18-.06.27.27,0,0,1,.22.1.34.34,0,0,1,.1.23A.29.29,0,0,1,80.31,35.24Z"/><path d="M86.08,35.8H82a.32.32,0,1,1,0-.64h1.67V31.92H82.59a.32.32,0,1,1,0-.64H84a.32.32,0,0,1,.22.1.28.28,0,0,1,.1.22v3.56h1.73a.32.32,0,0,1,0,.64Zm-1.73-5.63a.32.32,0,0,1-.64,0v-.82a.32.32,0,0,1,.64,0Z"/><path d="M92.3,35.24a3.7,3.7,0,0,1-.59.31,3.57,3.57,0,0,1-1.42.31c-1.09,0-1.64-.57-1.64-1.71V31.92h-1a.32.32,0,1,1,0-.64h1V30.12A.28.28,0,0,1,89,29.8a.28.28,0,0,1,.31.32v1.16h2.18a.32.32,0,0,1,0,.64H89.28v2.23a1.31,1.31,0,0,0,.2.83,1.09,1.09,0,0,0,.81.24,2.92,2.92,0,0,0,1.66-.5.32.32,0,0,1,.18-.06.27.27,0,0,1,.22.1.3.3,0,0,1,.1.23A.29.29,0,0,1,92.3,35.24Z"/><path d="M98.19,35.8h-.73a.32.32,0,0,1-.22-.1.31.31,0,0,1-.09-.22V35.3a2.36,2.36,0,0,1-1.56.5A1.4,1.4,0,0,1,94,34.21V31.92h-.44a.32.32,0,0,1,0-.64h.76a.32.32,0,0,1,.22.1.31.31,0,0,1,.09.22v2.61a1,1,0,0,0,.22.73,1,1,0,0,0,.72.22q1.56,0,1.56-1.41V31.92h-.81a.32.32,0,0,1,0-.64h1.12a.3.3,0,0,1,.22.1.28.28,0,0,1,.1.22v3.56h.41a.32.32,0,0,1,0,.64Z"/><path d="M104.29,35.24a3.7,3.7,0,0,1-.59.31,3.57,3.57,0,0,1-1.42.31c-1.09,0-1.64-.57-1.64-1.71V31.92h-1a.32.32,0,0,1,0-.64h1V30.12a.32.32,0,1,1,.64,0v1.16h2.17a.32.32,0,1,1,0,.64h-2.17v2.23a1.24,1.24,0,0,0,.2.83,1,1,0,0,0,.8.24,2.92,2.92,0,0,0,1.66-.5.32.32,0,0,1,.18-.06.29.29,0,0,1,.23.1.33.33,0,0,1,.09.23A.29.29,0,0,1,104.29,35.24Z"/><path d="M110.24,33.43a.34.34,0,0,1-.1.23.31.31,0,0,1-.22.09h-3.74a1.53,1.53,0,0,0,1.74,1.49,4.1,4.1,0,0,0,1.92-.53.37.37,0,0,1,.16-.05.28.28,0,0,1,.22.11.32.32,0,0,1,.09.23.26.26,0,0,1-.17.26,4.65,4.65,0,0,1-2.22.61,2.38,2.38,0,0,1-1.77-.63,2.5,2.5,0,0,1-.62-1.81,2.1,2.1,0,0,1,.69-1.67,2.58,2.58,0,0,1,1.78-.59,2.13,2.13,0,0,1,1.65.69A2.22,2.22,0,0,1,110.24,33.43Zm-.76-.31a1.22,1.22,0,0,0-.4-.94,1.56,1.56,0,0,0-1.08-.37c-1.08,0-1.68.43-1.81,1.31Z"/><path d="M17.23,51.73c0,.23-.11.34-.32.34s-.32-.11-.32-.34a1.13,1.13,0,0,0-.35-.86,1.66,1.66,0,0,0-1.1-.34,1.78,1.78,0,0,0-1.45.72A2.73,2.73,0,0,0,13.15,53a2.43,2.43,0,0,0,.55,1.64,1.79,1.79,0,0,0,1.44.66,2.31,2.31,0,0,0,.95-.17,7.29,7.29,0,0,0,.78-.49.35.35,0,0,1,.18-.05.28.28,0,0,1,.22.1.32.32,0,0,1,.09.23.3.3,0,0,1-.14.25,7.92,7.92,0,0,1-.94.57,2.89,2.89,0,0,1-1.14.19A2.39,2.39,0,0,1,13.21,55a3.05,3.05,0,0,1-.7-2,3.37,3.37,0,0,1,.68-2.1,2.36,2.36,0,0,1,2-1,2.24,2.24,0,0,1,1.45.45v-.14a.32.32,0,0,1,.64,0Z"/><path d="M23.35,55.8H21.73a.32.32,0,0,1,0-.64h.48V52.82a1,1,0,0,0-.26-.67.81.81,0,0,0-.62-.29,1.43,1.43,0,0,0-1.06.44,1.4,1.4,0,0,0-.44,1v1.85h.45a.32.32,0,0,1,0,.64H18.75a.32.32,0,0,1,0-.64h.45V50h-.44a.28.28,0,0,1-.32-.31.28.28,0,0,1,.32-.32h.76a.28.28,0,0,1,.22.1.29.29,0,0,1,.09.22v2.11a2.1,2.1,0,0,1,1.5-.6,1.37,1.37,0,0,1,1.09.5,1.59,1.59,0,0,1,.42,1.09v2.34h.51a.32.32,0,0,1,0,.64Z"/><path d="M29.11,55.8h-4a.32.32,0,0,1,0-.64h1.67V51.92H25.62a.32.32,0,0,1,0-.64h1.44a.3.3,0,0,1,.22.1.28.28,0,0,1,.1.22v3.56h1.73a.32.32,0,0,1,0,.64Zm-1.73-5.63a.32.32,0,0,1-.64,0v-.82a.32.32,0,1,1,.64,0Z"/><path d="M35,54.44a1.31,1.31,0,0,1-.51,1.08,2,2,0,0,1-1.33.41,2.69,2.69,0,0,1-1.68-.46v.12a.32.32,0,0,1-.64,0V54.45c0-.24.11-.36.31-.36a.33.33,0,0,1,.32.27c.19.63.76.94,1.69.94A1.39,1.39,0,0,0,34.1,55a.74.74,0,0,0,.27-.59.52.52,0,0,0-.23-.47,2.6,2.6,0,0,0-1.3-.22,3.23,3.23,0,0,1-1.36-.21,1,1,0,0,1-.57-1,1.16,1.16,0,0,1,.54-1,2.22,2.22,0,0,1,1.26-.32,2.29,2.29,0,0,1,1.47.47v-.13a.27.27,0,0,1,.31-.31.28.28,0,0,1,.32.31v1c0,.24-.09.36-.28.36a.36.36,0,0,1-.31-.2,1.65,1.65,0,0,0-1.51-.85c-.78,0-1.16.23-1.16.7a.46.46,0,0,0,.22.46,2.46,2.46,0,0,0,1.07.15C34.28,53.12,35,53.56,35,54.44Z"/><path d="M41.69,51.92H41.6l-1.06,3.73a.32.32,0,0,1-.13.16.27.27,0,0,1-.18.07H39.9a.32.32,0,0,1-.19-.07.28.28,0,0,1-.11-.16L39,53.53l-.59,2.12a.32.32,0,0,1-.13.16.27.27,0,0,1-.18.07h-.33a.27.27,0,0,1-.17-.07.35.35,0,0,1-.13-.15l-1.15-3.74H36.2a.32.32,0,0,1,0-.64h1.5a.32.32,0,0,1,0,.64H37L37.9,55l.6-2.16a.28.28,0,0,1,.12-.16.32.32,0,0,1,.18-.07h.32a.27.27,0,0,1,.18.07.28.28,0,0,1,.12.16L40.06,55l.88-3.08h-.65a.32.32,0,0,1,0-.64h1.4a.32.32,0,0,1,0,.64Z"/><path d="M47.27,53.43a.31.31,0,0,1-.32.32H43.22A1.51,1.51,0,0,0,45,55.24a4.17,4.17,0,0,0,1.93-.53.3.3,0,0,1,.16-.05.31.31,0,0,1,.22.11.32.32,0,0,1,.09.23.27.27,0,0,1-.17.26,4.66,4.66,0,0,1-2.23.61,2.35,2.35,0,0,1-1.76-.63,2.5,2.5,0,0,1-.62-1.81,2.1,2.1,0,0,1,.69-1.67A2.57,2.57,0,0,1,45,51.17a2.14,2.14,0,0,1,1.66.69A2.21,2.21,0,0,1,47.27,53.43Zm-.76-.31a1.22,1.22,0,0,0-.4-.94A1.52,1.52,0,0,0,45,51.81c-1.07,0-1.68.43-1.8,1.31Z"/><path d="M53.05,55.8H49.14a.32.32,0,0,1,0-.64h1.55V50H49.35a.28.28,0,0,1-.32-.31.28.28,0,0,1,.32-.32H51a.28.28,0,0,1,.22.1.29.29,0,0,1,.09.22v5.44h1.73a.32.32,0,0,1,0,.64Z"/><path d="M59,55.8H55.13a.32.32,0,0,1,0-.64h1.56V50H55.35a.28.28,0,0,1-.32-.31.28.28,0,0,1,.32-.32H57a.34.34,0,0,1,.32.32v5.44H59a.32.32,0,0,1,0,.64Z"/><path d="M71.48,55.48a.34.34,0,0,1-.32.32h-4.6a.32.32,0,0,1,0-.64h.94V50.63h-.94a.27.27,0,0,1-.31-.31.28.28,0,0,1,.31-.32H69.3a.28.28,0,0,1,.31.32.27.27,0,0,1-.31.31H68.14v4.53h2.7V53.55a.32.32,0,1,1,.64,0Z"/><path d="M77.25,55.8h-.82a.34.34,0,0,1-.23-.1.31.31,0,0,1-.09-.22v-.24a2.59,2.59,0,0,1-1.78.62,1.91,1.91,0,0,1-1.13-.31,1.17,1.17,0,0,1-.5-1,1.42,1.42,0,0,1,.7-1.27,2.8,2.8,0,0,1,1.53-.38,3.66,3.66,0,0,1,1.18.16V52.9c0-.68-.39-1-1.18-1a2.11,2.11,0,0,0-1.26.34.33.33,0,0,1-.19.06.28.28,0,0,1-.22-.1.34.34,0,0,1-.1-.23.3.3,0,0,1,.14-.25,2.71,2.71,0,0,1,1.63-.46,1.9,1.9,0,0,1,1.33.43,1.58,1.58,0,0,1,.48,1.23v2.26h.51a.32.32,0,1,1,0,.64Zm-1.14-1.55v-.52a2.64,2.64,0,0,0-1.18-.22,2.1,2.1,0,0,0-1.18.28.84.84,0,0,0-.42.74c0,.47.33.7,1,.7a2,2,0,0,0,1-.24A2.86,2.86,0,0,0,76.11,54.25Z"/><path d="M83.27,55.8H81.79a.32.32,0,0,1,0-.64h.42V52.73a.89.89,0,0,0-.94-.92,1.38,1.38,0,0,0-1.09.43,1.48,1.48,0,0,0-.37,1.07v1.85h.44a.32.32,0,1,1,0,.64H78.76a.32.32,0,1,1,0-.64h.41V51.92h-.39a.32.32,0,0,1,0-.64h.71a.34.34,0,0,1,.32.32v.11a2,2,0,0,1,1.46-.53,1.51,1.51,0,0,1,1.14.46,1.49,1.49,0,0,1,.43,1.09v2.43h.43a.32.32,0,0,1,0,.64Z"/><path d="M89.32,51.92h-.43v3.71a1.84,1.84,0,0,1-2.11,2,5.76,5.76,0,0,1-.85-.1.27.27,0,0,1-.27-.29.34.34,0,0,1,.11-.25A.32.32,0,0,1,86,57a5.88,5.88,0,0,0,.74.1,1.53,1.53,0,0,0,1.12-.35,1.39,1.39,0,0,0,.35-1.07v-.71a2.12,2.12,0,0,1-3.6-1.52,2.12,2.12,0,0,1,2.12-2.12,2,2,0,0,1,1.48.61V51.6a.28.28,0,0,1,.1-.22.32.32,0,0,1,.22-.1h.75a.32.32,0,0,1,0,.64ZM88.25,53.4a1.49,1.49,0,1,0-.43,1.05A1.43,1.43,0,0,0,88.25,53.4Z"/><path d="M95.31,55.8H93.69a.32.32,0,0,1,0-.64h.47V52.82a1,1,0,0,0-.26-.67.81.81,0,0,0-.62-.29,1.44,1.44,0,0,0-1.06.44,1.39,1.39,0,0,0-.43,1v1.85h.45a.32.32,0,0,1,0,.64H90.7a.32.32,0,0,1,0-.64h.45V50h-.44a.27.27,0,0,1-.31-.31c0-.22.1-.32.31-.32h.76a.28.28,0,0,1,.22.1.27.27,0,0,1,.1.22v2.11a2.06,2.06,0,0,1,1.49-.6,1.41,1.41,0,0,1,1.1.5,1.59,1.59,0,0,1,.42,1.09v2.34h.51a.32.32,0,1,1,0,.64Z"/><path d="M101.39,53.54a2.18,2.18,0,0,1-.72,1.65,2.54,2.54,0,0,1-3.46,0,2.26,2.26,0,0,1,0-3.31,2.54,2.54,0,0,1,3.46,0A2.18,2.18,0,0,1,101.39,53.54Zm-.63,0a1.63,1.63,0,0,0-.53-1.21,1.91,1.91,0,0,0-2.58,0,1.63,1.63,0,0,0,0,2.41,1.91,1.91,0,0,0,2.58,0A1.62,1.62,0,0,0,100.76,53.54Z"/><path d="M107.4,51.66a.33.33,0,0,1,.09.22.28.28,0,0,1-.1.22.29.29,0,0,1-.23.1.28.28,0,0,1-.22-.1.69.69,0,0,0-.43-.16,2,2,0,0,0-1.18.39,5.16,5.16,0,0,0-.93,1v1.86h1.75a.32.32,0,1,1,0,.64h-3.38a.32.32,0,0,1,0-.64h1V51.92H103a.32.32,0,0,1,0-.64h1.12a.3.3,0,0,1,.22.1.28.28,0,0,1,.1.22v.71a2.83,2.83,0,0,1,2.11-1A1.18,1.18,0,0,1,107.4,51.66Z"/><path d="M113.25,55.8h-1.48a.32.32,0,0,1,0-.64h.42V52.73a.89.89,0,0,0-.94-.92,1.38,1.38,0,0,0-1.09.43,1.48,1.48,0,0,0-.37,1.07v1.85h.44a.32.32,0,1,1,0,.64h-1.49a.32.32,0,0,1,0-.64h.41V51.92h-.38a.32.32,0,0,1,0-.64h.7a.34.34,0,0,1,.32.32v.11a2,2,0,0,1,1.46-.53,1.51,1.51,0,0,1,1.14.46,1.49,1.49,0,0,1,.43,1.09v2.43h.43a.32.32,0,0,1,0,.64Z"/><path d="M119.22,53.43a.33.33,0,0,1-.09.23.31.31,0,0,1-.22.09h-3.74a1.52,1.52,0,0,0,1.73,1.49,4.17,4.17,0,0,0,1.93-.53.33.33,0,0,1,.16-.05.29.29,0,0,1,.22.11.32.32,0,0,1,.09.23.26.26,0,0,1-.17.26,4.66,4.66,0,0,1-2.23.61,2.37,2.37,0,0,1-1.76-.63,2.5,2.5,0,0,1-.62-1.81,2.1,2.1,0,0,1,.69-1.67,2.58,2.58,0,0,1,1.78-.59,2.13,2.13,0,0,1,1.65.69A2.21,2.21,0,0,1,119.22,53.43Zm-.75-.31a1.25,1.25,0,0,0-.4-.94,1.56,1.56,0,0,0-1.08-.37c-1.08,0-1.68.43-1.81,1.31Z"/></g></g></svg>