<svg xmlns="http://www.w3.org/2000/svg" viewBox="0 0 334.83 67.74"><title>Asset 2</title><g id="Layer_2" data-name="Layer 2"><g id="Layer_1-2" data-name="Layer 1"><path d="M5.45,1.7A.28.28,0,0,1,5.14,2a.28.28,0,0,1-.32-.32v-1H2V2.35H3.42V1.92a.28.28,0,0,1,.32-.32.28.28,0,0,1,.31.32V3.39a.28.28,0,0,1-.31.32.28.28,0,0,1-.32-.32V3H2V5.16H3.26a.28.28,0,0,1,.31.32.28.28,0,0,1-.31.32H.77a.29.29,0,0,1-.32-.32.29.29,0,0,1,.32-.32H1.4V.68H.8A.28.28,0,0,1,.48.36.28.28,0,0,1,.8,0H5.14a.32.32,0,0,1,.22.1.31.31,0,0,1,.09.22Z"/><path d="M11.76,5.8H10.05a.28.28,0,0,1-.31-.32.28.28,0,0,1,.31-.32h.78l-.49-1.22H7.76L7.31,5.16h.74a.29.29,0,0,1,.32.32.29.29,0,0,1-.32.32H6.34A.29.29,0,0,1,6,5.48a.29.29,0,0,1,.32-.32h.3L8.3.63h-1A.27.27,0,0,1,7,.32.28.28,0,0,1,7.34,0H9.23A.32.32,0,0,1,9.4.07.36.36,0,0,1,9.52.2l2,5h.25a.29.29,0,0,1,.32.32A.29.29,0,0,1,11.76,5.8ZM10.08,3.31,9,.63H9L8,3.31Z"/><path d="M17.51,2.9A3,3,0,0,1,16.79,5a2.72,2.72,0,0,1-2,.76h-2a.29.29,0,0,1-.32-.32.29.29,0,0,1,.32-.32h.35V.68h-.37a.28.28,0,0,1-.31-.32A.28.28,0,0,1,12.77,0h2a2.57,2.57,0,0,1,2,.84A3,3,0,0,1,17.51,2.9Zm-.63,0a2.3,2.3,0,0,0-.53-1.6A2,2,0,0,0,14.79.68h-1V5.16h1C16.16,5.16,16.88,4.41,16.88,2.9Z"/><path d="M23.26,5.48a.31.31,0,0,1-.09.22.34.34,0,0,1-.23.1H18.62a.29.29,0,0,1-.32-.32.29.29,0,0,1,.32-.32h.67V.68h-.64a.29.29,0,0,1-.32-.32A.29.29,0,0,1,18.65,0h4.29a.34.34,0,0,1,.23.1.31.31,0,0,1,.09.22V1.69a.28.28,0,0,1-.32.32.28.28,0,0,1-.31-.32v-1h-2.7V2.35h1.35V1.93a.32.32,0,1,1,.64,0V3.38a.32.32,0,0,1-.64,0V3H19.93V5.16h2.7V4a.27.27,0,0,1,.31-.31c.22,0,.32.1.32.31Z"/><path d="M34.78,5.8H31.22a.29.29,0,0,1-.32-.32.29.29,0,0,1,.32-.32h1.46V.67H31.22A.28.28,0,0,1,30.9.36.29.29,0,0,1,31.22,0h3.56a.29.29,0,0,1,.32.32.28.28,0,0,1-.32.31H33.31V5.16h1.47a.29.29,0,0,1,.32.32A.29.29,0,0,1,34.78,5.8Z"/><path d="M41.38.63H41.1V5.48a.28.28,0,0,1-.1.22.3.3,0,0,1-.22.1h-.19a.29.29,0,0,1-.15-.06.38.38,0,0,1-.13-.1L37.64,1.05V5.16h.86a.29.29,0,0,1,.32.32.29.29,0,0,1-.32.32H36.65a.29.29,0,0,1-.32-.32.29.29,0,0,1,.32-.32H37V.63h-.56a.28.28,0,0,1-.32-.31A.29.29,0,0,1,36.45,0h1.13a.37.37,0,0,1,.15.06.32.32,0,0,1,.12.1l2.61,4.41V.63h-.81a.27.27,0,0,1-.31-.31A.28.28,0,0,1,39.65,0h1.73a.28.28,0,0,1,.31.32A.27.27,0,0,1,41.38.63Z"/><path d="M46,2.32a.84.84,0,0,1-.28.62,1.06,1.06,0,0,1-1.37,0,.83.83,0,0,1,0-1.24,1.06,1.06,0,0,1,1.37,0A.84.84,0,0,1,46,2.32ZM46,5a.81.81,0,0,1-.28.61,1,1,0,0,1-1.37,0,.82.82,0,0,1,0-1.23,1,1,0,0,1,1.37,0A.82.82,0,0,1,46,5Z"/><path d="M5.27,15.48a.31.31,0,0,1-.09.22.34.34,0,0,1-.22.1H.63a.32.32,0,1,1,0-.64H1.3V10.68H.66a.32.32,0,0,1,0-.64H5a.34.34,0,0,1,.22.1.31.31,0,0,1,.09.22v1.33A.28.28,0,0,1,5,12a.29.29,0,0,1-.32-.32v-1H1.94v1.67H3.3v-.42a.28.28,0,0,1,.31-.32.28.28,0,0,1,.32.32v1.45a.28.28,0,0,1-.32.32c-.21,0-.31-.1-.31-.32V13H1.94v2.17h2.7V14A.28.28,0,0,1,5,13.73a.27.27,0,0,1,.31.31Z"/><path d="M11.32,15.8H9.78a.32.32,0,0,1,0-.64h.57L9,13.37,7.67,15.16h.55a.32.32,0,1,1,0,.64H6.73a.32.32,0,0,1,0-.64h.14l1.74-2.32L7,10.63H6.84a.28.28,0,0,1-.32-.31A.29.29,0,0,1,6.84,10h1.4a.29.29,0,0,1,.32.32.28.28,0,0,1-.32.31H7.76L9,12.31l1.26-1.68H9.8a.27.27,0,0,1-.31-.31A.28.28,0,0,1,9.8,10h1.37a.29.29,0,0,1,.32.32.28.28,0,0,1-.32.31h-.11L9.41,12.84l1.73,2.32h.18a.32.32,0,0,1,0,.64Z"/><path d="M17.49,12.26a.32.32,0,0,1-.64,0V10.63H15.34v4.53h1.1a.32.32,0,0,1,0,.64H13.61a.32.32,0,0,1,0-.64H14.7V10.63H13.18v1.62a.32.32,0,0,1-.64,0V10.32a.3.3,0,0,1,.1-.22.28.28,0,0,1,.22-.1h4.31a.28.28,0,0,1,.22.1.3.3,0,0,1,.1.22Z"/><path d="M22,15a.78.78,0,0,1-.28.61,1,1,0,0,1-1.36,0,.82.82,0,0,1,0-1.23,1,1,0,0,1,1.36,0A.79.79,0,0,1,22,15Z"/><path d="M35.65,15.8H34a.32.32,0,0,1,0-.64h.57V10.63h0l-1.1,3.21a.33.33,0,0,1-.13.14.27.27,0,0,1-.17.07h-.36a.29.29,0,0,1-.17-.07.33.33,0,0,1-.13-.14l-1.12-3.21h0v4.53H32a.32.32,0,0,1,0,.64H30.38a.32.32,0,0,1,0-.64h.36V10.63h-.15a.28.28,0,0,1-.32-.31.29.29,0,0,1,.32-.32h1a.27.27,0,0,1,.17.07.33.33,0,0,1,.13.14L33,13.28l1.06-3.07a.29.29,0,0,1,.12-.14.32.32,0,0,1,.18-.07h1.07a.28.28,0,0,1,.31.32.27.27,0,0,1-.31.31h-.18v4.53h.41a.32.32,0,1,1,0,.64Z"/><path d="M41.74,15.8H40a.32.32,0,0,1,0-.64h.78l-.49-1.22H37.74l-.45,1.22H38a.32.32,0,0,1,0,.64H36.32a.32.32,0,1,1,0-.64h.3l1.66-4.53h-1a.27.27,0,0,1-.31-.31.28.28,0,0,1,.31-.32h1.89a.32.32,0,0,1,.17.07.29.29,0,0,1,.12.13l2,5h.25a.32.32,0,1,1,0,.64Zm-1.68-2.49L39,10.63h0l-1,2.68Z"/><path d="M47.37,10.63h-.28v4.85a.31.31,0,0,1-.09.22.32.32,0,0,1-.22.1h-.2a.37.37,0,0,1-.15-.06.44.44,0,0,1-.12-.1l-2.67-4.59v4.11h.86a.32.32,0,0,1,0,.64H42.65a.32.32,0,1,1,0-.64H43V10.63h-.55a.28.28,0,0,1-.32-.31.29.29,0,0,1,.32-.32h1.12a.59.59,0,0,1,.28.16l2.61,4.41V10.63h-.81a.28.28,0,0,1-.32-.31.29.29,0,0,1,.32-.32h1.72a.29.29,0,0,1,.32.32A.28.28,0,0,1,47.37,10.63Z"/><path d="M53.22,10.67h-.36v4.49h.36a.32.32,0,0,1,0,.64H51.6a.32.32,0,1,1,0-.64h.63V13.08H49.76v2.08h.63a.32.32,0,0,1,0,.64H48.77a.32.32,0,0,1,0-.64h.35V10.67h-.35a.27.27,0,0,1-.31-.31.28.28,0,0,1,.31-.32h1.59a.29.29,0,0,1,.32.32.28.28,0,0,1-.32.31h-.6v1.77h2.47V10.67h-.58c-.22,0-.32-.1-.32-.31a.28.28,0,0,1,.32-.32h1.57a.29.29,0,0,1,.32.32A.28.28,0,0,1,53.22,10.67Z"/><path d="M59.73,15.8H58a.32.32,0,0,1,0-.64h.77l-.48-1.22H55.73l-.45,1.22H56a.32.32,0,0,1,0,.64H54.31a.32.32,0,0,1,0-.64h.3l1.66-4.53h-1a.27.27,0,0,1-.31-.31.28.28,0,0,1,.31-.32H57.2a.32.32,0,0,1,.17.07.36.36,0,0,1,.12.13l2,5h.25a.32.32,0,0,1,0,.64Zm-1.68-2.49L57,10.63h0l-1,2.68Z"/><path d="M65.45,12.26a.27.27,0,0,1-.31.31c-.22,0-.32-.1-.32-.31V10.63H63.31v4.53H64.4a.32.32,0,1,1,0,.64H61.58a.32.32,0,0,1,0-.64h1.09V10.63H61.15v1.62a.32.32,0,0,1-.64,0V10.32a.27.27,0,0,1,.1-.22.28.28,0,0,1,.22-.1h4.31a.28.28,0,0,1,.22.1.29.29,0,0,1,.09.22Z"/><path d="M71.45,12.26a.28.28,0,0,1-.32.31.27.27,0,0,1-.31-.31V10.63H69.3v4.53h1.1a.32.32,0,1,1,0,.64H67.58a.32.32,0,0,1,0-.64h1.09V10.63H67.14v1.62a.27.27,0,0,1-.31.31c-.22,0-.32-.1-.32-.31V10.32a.29.29,0,0,1,.09-.22.3.3,0,0,1,.23-.1h4.3a.34.34,0,0,1,.32.32Z"/><path d="M77.71,15.8H76a.32.32,0,1,1,0-.64h.77l-.49-1.22H73.72l-.45,1.22H74a.32.32,0,1,1,0,.64H72.29a.32.32,0,0,1,0-.64h.31l1.66-4.53h-1a.28.28,0,0,1-.32-.31A.29.29,0,0,1,73.3,10h1.89a.27.27,0,0,1,.16.07.32.32,0,0,1,.13.13l2,5h.24a.32.32,0,0,1,0,.64ZM76,13.31,75,10.63h0l-1,2.68Z"/><path d="M83.35,10.63h-.28v4.85a.31.31,0,0,1-.09.22.34.34,0,0,1-.23.1h-.19a.37.37,0,0,1-.15-.06c-.07,0-.11-.07-.12-.1l-2.68-4.59v4.11h.86a.32.32,0,0,1,0,.64H78.62a.32.32,0,0,1,0-.64H79V10.63h-.56a.27.27,0,0,1-.31-.31.28.28,0,0,1,.31-.32h1.13a.37.37,0,0,1,.15.06.21.21,0,0,1,.12.1l2.62,4.41V10.63h-.81a.28.28,0,0,1-.32-.31.29.29,0,0,1,.32-.32h1.72a.29.29,0,0,1,.32.32A.28.28,0,0,1,83.35,10.63Z"/><path d="M94.9,13.85H91a.32.32,0,1,1,0-.64H94.9a.32.32,0,0,1,0,.64Z"/><path d="M107.33,10.63h-.27v4.85a.34.34,0,0,1-.32.32h-.2a.37.37,0,0,1-.15-.06.44.44,0,0,1-.12-.1l-2.67-4.59v4.11h.86a.32.32,0,0,1,0,.64h-1.85a.32.32,0,0,1,0-.64H103V10.63h-.55a.28.28,0,0,1-.32-.31.29.29,0,0,1,.32-.32h1.13a.3.3,0,0,1,.14.06.29.29,0,0,1,.13.1l2.61,4.41V10.63h-.81a.28.28,0,0,1-.32-.31.29.29,0,0,1,.32-.32h1.72a.28.28,0,0,1,.32.32C107.65,10.53,107.55,10.63,107.33,10.63Z"/><path d="M112.73,15.8h-3.56a.32.32,0,1,1,0-.64h1.45V10.67h-1.45a.28.28,0,0,1-.32-.31.29.29,0,0,1,.32-.32h3.56a.29.29,0,0,1,.32.32.28.28,0,0,1-.32.31h-1.47v4.49h1.47a.32.32,0,1,1,0,.64Z"/><path d="M119.37,13.78h-.19v1.38c0,.25-.3.46-.9.61a4.86,4.86,0,0,1-1.08.16,2.61,2.61,0,0,1-2-.88,3,3,0,0,1-.79-2.1,3.45,3.45,0,0,1,.67-2.19,2.37,2.37,0,0,1,2-.89,2.22,2.22,0,0,1,1.49.48v-.14a.32.32,0,1,1,.64,0V11.5a.25.25,0,0,1-.28.28.4.4,0,0,1-.26-.1.36.36,0,0,1-.13-.29.74.74,0,0,0-.48-.7,2.2,2.2,0,0,0-1-.19,1.79,1.79,0,0,0-1.47.65,2.82,2.82,0,0,0-.53,1.8,2.37,2.37,0,0,0,.61,1.67,2,2,0,0,0,1.54.67,2.58,2.58,0,0,0,1.34-.3V13.78h-1.25a.32.32,0,0,1,0-.64h2.08a.32.32,0,1,1,0,.64Z"/><path d="M125.18,10.67h-.37v4.49h.36a.32.32,0,1,1,0,.64h-1.62a.32.32,0,0,1,0-.64h.63V13.08h-2.47v2.08h.63a.32.32,0,1,1,0,.64h-1.61a.32.32,0,1,1,0-.64h.34V10.67h-.34a.28.28,0,0,1-.32-.31.29.29,0,0,1,.32-.32h1.58a.28.28,0,0,1,.32.32c0,.21-.1.31-.32.31h-.6v1.77h2.47V10.67h-.58a.28.28,0,0,1-.32-.31.29.29,0,0,1,.32-.32h1.58a.28.28,0,0,1,.31.32A.27.27,0,0,1,125.18,10.67Z"/><path d="M131.41,12.26c0,.21-.1.31-.32.31a.27.27,0,0,1-.31-.31V10.63h-1.52v4.53h1.1a.32.32,0,1,1,0,.64h-2.82a.32.32,0,1,1,0-.64h1.09V10.63H127.1v1.62a.27.27,0,0,1-.31.31.28.28,0,0,1-.32-.31V10.32a.34.34,0,0,1,.32-.32h4.3a.3.3,0,0,1,.23.1.29.29,0,0,1,.09.22Z"/><path d="M5.42,30.63H5.11v3.12A1.88,1.88,0,0,1,3,35.91a2,2,0,0,1-1.49-.59A2.17,2.17,0,0,1,1,33.75V30.63H.62c-.22,0-.32-.1-.32-.31A.28.28,0,0,1,.62,30H2.21a.28.28,0,0,1,.31.32.27.27,0,0,1-.31.31H1.62v3.12A1.57,1.57,0,0,0,2,34.88a1.38,1.38,0,0,0,1,.39,1.46,1.46,0,0,0,1.1-.36,1.63,1.63,0,0,0,.34-1.16V30.63H3.81a.28.28,0,0,1-.32-.31A.29.29,0,0,1,3.81,30H5.42a.28.28,0,0,1,.32.32C5.74,30.53,5.64,30.63,5.42,30.63Z"/><path d="M11.34,35.8H9.86a.32.32,0,0,1,0-.64h.42V32.73a.89.89,0,0,0-.94-.92,1.38,1.38,0,0,0-1.09.43,1.48,1.48,0,0,0-.37,1.07v1.85h.45a.32.32,0,0,1,0,.64H6.83a.32.32,0,0,1,0-.64h.41V31.92H6.86a.32.32,0,1,1,0-.64h.7a.34.34,0,0,1,.32.32v.11a2,2,0,0,1,1.46-.53,1.51,1.51,0,0,1,1.14.46,1.49,1.49,0,0,1,.43,1.09v2.43h.43a.32.32,0,0,1,0,.64Z"/><path d="M17.49,35.8h-.75a.3.3,0,0,1-.22-.1.28.28,0,0,1-.1-.22v-.36a2.27,2.27,0,0,1-3.21,0,2.15,2.15,0,0,1-.66-1.58A2.11,2.11,0,0,1,13.21,32a2.27,2.27,0,0,1,3.21,0V30h-.67a.28.28,0,0,1-.32-.31.29.29,0,0,1,.32-.32h1a.31.31,0,0,1,.22.09.34.34,0,0,1,.1.23v5.44h.43a.32.32,0,0,1,0,.64Zm-1.07-2.23A1.53,1.53,0,0,0,16,32.45,1.59,1.59,0,0,0,14.8,32a1.57,1.57,0,0,0-1.14.47,1.55,1.55,0,0,0,0,2.24,1.53,1.53,0,0,0,1.14.47A1.55,1.55,0,0,0,16,34.69,1.53,1.53,0,0,0,16.42,33.57Z"/><path d="M23.31,33.43a.29.29,0,0,1-.09.22.3.3,0,0,1-.23.1H19.26A1.51,1.51,0,0,0,21,35.24a4.17,4.17,0,0,0,1.93-.53.3.3,0,0,1,.16-.05.31.31,0,0,1,.22.11.32.32,0,0,1,.09.23.27.27,0,0,1-.17.26,4.66,4.66,0,0,1-2.23.61,2.35,2.35,0,0,1-1.76-.63,2.5,2.5,0,0,1-.62-1.81,2.1,2.1,0,0,1,.69-1.67,2.57,2.57,0,0,1,1.77-.59,2.14,2.14,0,0,1,1.66.69A2.21,2.21,0,0,1,23.31,33.43Zm-.76-.31a1.22,1.22,0,0,0-.4-.94,1.52,1.52,0,0,0-1.08-.37c-1.07,0-1.68.43-1.8,1.31Z"/><path d="M29.47,31.66a.34.34,0,0,1,.1.22.32.32,0,0,1-.1.22.31.31,0,0,1-.46,0,.67.67,0,0,0-.43-.16,2,2,0,0,0-1.18.39,5.16,5.16,0,0,0-.93,1v1.86h1.75a.32.32,0,0,1,0,.64H24.84a.32.32,0,0,1,0-.64h1V31.92H25a.32.32,0,0,1,0-.64h1.13a.32.32,0,0,1,.22.1.31.31,0,0,1,.09.22v.71a2.87,2.87,0,0,1,2.11-1A1.17,1.17,0,0,1,29.47,31.66Z"/><path d="M35.47,35.8h-.74a.34.34,0,0,1-.23-.1.31.31,0,0,1-.09-.22v-.36a2.27,2.27,0,0,1-3.21,0,2.15,2.15,0,0,1-.66-1.58A2.11,2.11,0,0,1,31.2,32a2.27,2.27,0,0,1,3.21,0V30h-.67c-.22,0-.32-.1-.32-.31a.28.28,0,0,1,.32-.32h1a.31.31,0,0,1,.22.09.33.33,0,0,1,.09.23v5.44h.43a.32.32,0,0,1,0,.64Zm-1.06-2.23a1.53,1.53,0,0,0-.47-1.12A1.59,1.59,0,0,0,32.79,32a1.55,1.55,0,0,0-1.14.47,1.55,1.55,0,0,0,0,2.24,1.52,1.52,0,0,0,1.14.47,1.55,1.55,0,0,0,1.15-.47A1.53,1.53,0,0,0,34.41,33.57Z"/><path d="M41.46,31.66a.3.3,0,0,1,.1.22.32.32,0,0,1-.1.22.29.29,0,0,1-.23.1.28.28,0,0,1-.22-.1.69.69,0,0,0-.43-.16,2,2,0,0,0-1.19.39,5.17,5.17,0,0,0-.92,1v1.86h1.74a.32.32,0,0,1,0,.64H36.84a.32.32,0,0,1,0-.64h1V31.92H37a.32.32,0,0,1,0-.64h1.12a.34.34,0,0,1,.32.32v.71a2.83,2.83,0,0,1,2.11-1A1.14,1.14,0,0,1,41.46,31.66Z"/><path d="M47.29,33.43a.29.29,0,0,1-.09.22.28.28,0,0,1-.22.1H43.24A1.53,1.53,0,0,0,45,35.24a4.13,4.13,0,0,0,1.92-.53.33.33,0,0,1,.16-.05.28.28,0,0,1,.22.11.32.32,0,0,1,.09.23.26.26,0,0,1-.17.26,4.65,4.65,0,0,1-2.22.61,2.38,2.38,0,0,1-1.77-.63,2.5,2.5,0,0,1-.62-1.81,2.1,2.1,0,0,1,.69-1.67,2.58,2.58,0,0,1,1.78-.59,2.13,2.13,0,0,1,1.65.69A2.21,2.21,0,0,1,47.29,33.43Zm-.75-.31a1.22,1.22,0,0,0-.4-.94,1.56,1.56,0,0,0-1.08-.37c-1.08,0-1.68.43-1.81,1.31Z"/><path d="M53,34.44a1.33,1.33,0,0,1-.5,1.08,2,2,0,0,1-1.33.41,2.7,2.7,0,0,1-1.69-.46v.12a.28.28,0,0,1-.32.32.28.28,0,0,1-.31-.32V34.45q0-.36.3-.36c.16,0,.26.09.32.27.19.63.76.94,1.7.94a1.38,1.38,0,0,0,.92-.27.74.74,0,0,0,.27-.59.5.5,0,0,0-.23-.47,2.6,2.6,0,0,0-1.3-.22,3.23,3.23,0,0,1-1.36-.21,1,1,0,0,1-.56-1,1.15,1.15,0,0,1,.53-1,2.26,2.26,0,0,1,1.26-.32,2.29,2.29,0,0,1,1.47.47v-.13a.27.27,0,0,1,.31-.31c.22,0,.32.1.32.31v1c0,.24-.09.36-.28.36a.37.37,0,0,1-.31-.2,1.64,1.64,0,0,0-1.51-.85c-.77,0-1.16.23-1.16.7a.46.46,0,0,0,.22.46,2.49,2.49,0,0,0,1.07.15C52.29,33.12,53,33.56,53,34.44Z"/><path d="M59,34.44a1.3,1.3,0,0,1-.5,1.08,2,2,0,0,1-1.33.41,2.69,2.69,0,0,1-1.68-.46v.12a.32.32,0,0,1-.64,0V34.45c0-.24.1-.36.31-.36a.32.32,0,0,1,.31.27c.2.63.77.94,1.7.94a1.39,1.39,0,0,0,.93-.27.74.74,0,0,0,.27-.59.52.52,0,0,0-.23-.47,2.6,2.6,0,0,0-1.3-.22,3.31,3.31,0,0,1-1.37-.21,1.05,1.05,0,0,1-.56-1,1.17,1.17,0,0,1,.53-1,2.58,2.58,0,0,1,2.73.15v-.13a.32.32,0,0,1,.64,0v1c0,.24-.1.36-.28.36a.36.36,0,0,1-.31-.2,1.66,1.66,0,0,0-1.52-.85c-.77,0-1.15.23-1.15.7a.46.46,0,0,0,.22.46,2.46,2.46,0,0,0,1.07.15Q59,33.12,59,34.44Z"/><path d="M65.28,33.43a.29.29,0,0,1-.09.22.3.3,0,0,1-.22.1H61.23A1.52,1.52,0,0,0,63,35.24a4.17,4.17,0,0,0,1.93-.53.33.33,0,0,1,.16-.05.29.29,0,0,1,.22.11.32.32,0,0,1,.09.23.27.27,0,0,1-.17.26,4.66,4.66,0,0,1-2.23.61,2.35,2.35,0,0,1-1.76-.63,2.5,2.5,0,0,1-.62-1.81,2.1,2.1,0,0,1,.69-1.67,2.58,2.58,0,0,1,1.78-.59,2.13,2.13,0,0,1,1.65.69A2.21,2.21,0,0,1,65.28,33.43Zm-.75-.31a1.25,1.25,0,0,0-.4-.94,1.56,1.56,0,0,0-1.08-.37c-1.08,0-1.68.43-1.81,1.31Z"/><path d="M71.45,35.8H70.7a.32.32,0,0,1-.22-.1.31.31,0,0,1-.09-.22v-.36a2.21,2.21,0,0,1-1.62.68,2.24,2.24,0,0,1-1.6-.65,2.15,2.15,0,0,1-.66-1.58A2.11,2.11,0,0,1,67.17,32a2.28,2.28,0,0,1,3.22,0V30h-.68a.28.28,0,0,1-.32-.31.29.29,0,0,1,.32-.32h1a.29.29,0,0,1,.22.09.3.3,0,0,1,.1.23v5.44h.43a.32.32,0,1,1,0,.64Zm-1.06-2.23a1.5,1.5,0,0,0-.48-1.12A1.55,1.55,0,0,0,68.77,32a1.59,1.59,0,0,0-1.15.47,1.57,1.57,0,0,0,0,2.24,1.55,1.55,0,0,0,1.15.47,1.52,1.52,0,0,0,1.14-.47A1.5,1.5,0,0,0,70.39,33.57Z"/><path d="M83.53,33.53a2.13,2.13,0,0,1-.66,1.58,2.17,2.17,0,0,1-1.59.66,2.2,2.2,0,0,1-1.62-.68v2H81a.32.32,0,1,1,0,.64H78.6a.32.32,0,0,1,0-.64H79V31.92h-.42a.32.32,0,0,1,0-.64h.74a.34.34,0,0,1,.22.1.31.31,0,0,1,.09.22V32a2.25,2.25,0,0,1,3.87,1.56Zm-.64,0a1.55,1.55,0,0,0-.47-1.14,1.59,1.59,0,0,0-1.14-.47,1.55,1.55,0,0,0-1.14.47,1.53,1.53,0,0,0-.48,1.14,1.62,1.62,0,0,0,1.62,1.61,1.6,1.6,0,0,0,1.61-1.61Z"/><path d="M89.27,35.8h-.83a.34.34,0,0,1-.32-.32v-.24a2.57,2.57,0,0,1-1.77.62,1.94,1.94,0,0,1-1.14-.31,1.19,1.19,0,0,1-.5-1,1.43,1.43,0,0,1,.71-1.27A2.76,2.76,0,0,1,87,32.88a3.59,3.59,0,0,1,1.17.16V32.9q0-1-1.17-1a2.07,2.07,0,0,0-1.26.34.35.35,0,0,1-.19.06.27.27,0,0,1-.22-.1.3.3,0,0,1-.1-.23.3.3,0,0,1,.14-.25A2.69,2.69,0,0,1,87,31.24a1.92,1.92,0,0,1,1.33.43,1.58,1.58,0,0,1,.48,1.23v2.26h.51a.32.32,0,0,1,0,.64Zm-1.15-1.55v-.52A2.57,2.57,0,0,0,87,33.51a2.08,2.08,0,0,0-1.18.28.84.84,0,0,0-.42.74c0,.47.33.7,1,.7a2,2,0,0,0,1-.24A2.7,2.7,0,0,0,88.12,34.25Z"/><path d="M95.32,35.24a4.64,4.64,0,0,1-.6.31,3.53,3.53,0,0,1-1.41.31c-1.1,0-1.64-.57-1.64-1.71V31.92h-1a.32.32,0,0,1,0-.64h1V30.12A.28.28,0,0,1,92,29.8a.29.29,0,0,1,.32.32v1.16h2.18a.32.32,0,0,1,0,.64H92.3v2.23a1.31,1.31,0,0,0,.2.83,1.06,1.06,0,0,0,.81.24,3,3,0,0,0,1.66-.5.28.28,0,0,1,.18-.06.28.28,0,0,1,.22.1.33.33,0,0,1,.09.23A.28.28,0,0,1,95.32,35.24Z"/><path d="M101.43,31.66a.33.33,0,0,1,.09.22.28.28,0,0,1-.1.22.29.29,0,0,1-.23.1.28.28,0,0,1-.22-.1.69.69,0,0,0-.43-.16,1.94,1.94,0,0,0-1.18.39,4.86,4.86,0,0,0-.93,1v1.86h1.75a.32.32,0,0,1,0,.64H96.8a.32.32,0,0,1,0-.64h1V31.92H97a.32.32,0,0,1,0-.64h1.12a.32.32,0,0,1,.22.1.28.28,0,0,1,.1.22v.71a2.83,2.83,0,0,1,2.11-1A1.18,1.18,0,0,1,101.43,31.66Z"/><path d="M107.41,33.54a2.18,2.18,0,0,1-.72,1.65,2.54,2.54,0,0,1-3.46,0,2.26,2.26,0,0,1,0-3.31,2.54,2.54,0,0,1,3.46,0A2.18,2.18,0,0,1,107.41,33.54Zm-.63,0a1.63,1.63,0,0,0-.53-1.21,1.91,1.91,0,0,0-2.58,0,1.63,1.63,0,0,0,0,2.41,1.91,1.91,0,0,0,2.58,0A1.62,1.62,0,0,0,106.78,33.54Z"/><path d="M113.27,35.8H111.8a.32.32,0,0,1,0-.64h.41V32.73a.92.92,0,0,0-.25-.66,1,1,0,0,0-.69-.26,1.37,1.37,0,0,0-1.08.43,1.45,1.45,0,0,0-.38,1.07v1.85h.45a.32.32,0,1,1,0,.64h-1.5a.32.32,0,0,1,0-.64h.41V31.92h-.38a.32.32,0,1,1,0-.64h.7a.3.3,0,0,1,.22.1.28.28,0,0,1,.1.22v.11a2,2,0,0,1,1.46-.53,1.51,1.51,0,0,1,1.14.46,1.49,1.49,0,0,1,.44,1.09v2.43h.42a.32.32,0,0,1,0,.64Z"/><path d="M119,34.44a1.3,1.3,0,0,1-.5,1.08,2,2,0,0,1-1.33.41,2.69,2.69,0,0,1-1.68-.46v.12a.32.32,0,0,1-.64,0V34.45c0-.24.1-.36.31-.36a.32.32,0,0,1,.31.27c.2.63.77.94,1.7.94a1.39,1.39,0,0,0,.93-.27.74.74,0,0,0,.27-.59.52.52,0,0,0-.23-.47,2.6,2.6,0,0,0-1.3-.22,3.31,3.31,0,0,1-1.37-.21,1.05,1.05,0,0,1-.56-1,1.16,1.16,0,0,1,.54-1,2.2,2.2,0,0,1,1.25-.32,2.25,2.25,0,0,1,1.47.47v-.13a.32.32,0,0,1,.64,0v1c0,.24-.1.36-.28.36a.36.36,0,0,1-.31-.2,1.66,1.66,0,0,0-1.52-.85c-.77,0-1.15.23-1.15.7a.46.46,0,0,0,.22.46,2.46,2.46,0,0,0,1.07.15Q119,33.12,119,34.44Z"/><path d="M131.07,35.8h-4a.32.32,0,1,1,0-.64h1.67V31.92h-1.12a.32.32,0,0,1,0-.64H129a.34.34,0,0,1,.32.32v3.56h1.73a.32.32,0,1,1,0,.64Zm-1.73-5.63a.32.32,0,0,1-.64,0v-.82a.32.32,0,0,1,.64,0Z"/><path d="M137.26,35.8h-1.48a.32.32,0,0,1,0-.64h.42V32.73a.89.89,0,0,0-.95-.92,1.37,1.37,0,0,0-1.08.43,1.49,1.49,0,0,0-.38,1.07v1.85h.45a.32.32,0,1,1,0,.64h-1.49a.32.32,0,0,1,0-.64h.41V31.92h-.39a.32.32,0,0,1,0-.64h.71a.32.32,0,0,1,.22.1.31.31,0,0,1,.09.22v.11a2,2,0,0,1,1.46-.53,1.52,1.52,0,0,1,1.15.46,1.49,1.49,0,0,1,.43,1.09v2.43h.43a.32.32,0,0,1,0,.64Z"/><path d="M149.38,33.54a2.2,2.2,0,0,1-.71,1.65,2.55,2.55,0,0,1-3.47,0,2.26,2.26,0,0,1,0-3.31,2.55,2.55,0,0,1,3.47,0A2.21,2.21,0,0,1,149.38,33.54Zm-.63,0a1.63,1.63,0,0,0-.53-1.21,1.9,1.9,0,0,0-2.57,0,1.63,1.63,0,0,0,0,2.41,1.9,1.9,0,0,0,2.57,0A1.62,1.62,0,0,0,148.75,33.54Z"/><path d="M155.43,31.92h-.36l-1.66,3.77a.39.39,0,0,1-.13.13.32.32,0,0,1-.16.06h-.49a.32.32,0,0,1-.16-.06c-.07,0-.12-.09-.13-.13l-1.61-3.77h-.29a.32.32,0,0,1,0-.64h1.62a.32.32,0,1,1,0,.64h-.64l1.42,3.33h.08l1.46-3.33h-.75a.32.32,0,0,1,0-.64h1.8a.32.32,0,1,1,0,.64Z"/><path d="M161.22,33.43a.29.29,0,0,1-.09.22.3.3,0,0,1-.23.1h-3.73a1.51,1.51,0,0,0,1.73,1.49,4.17,4.17,0,0,0,1.93-.53.3.3,0,0,1,.16-.05.31.31,0,0,1,.22.11.32.32,0,0,1,.09.23.27.27,0,0,1-.17.26,4.66,4.66,0,0,1-2.23.61,2.35,2.35,0,0,1-1.76-.63,2.5,2.5,0,0,1-.62-1.81,2.1,2.1,0,0,1,.69-1.67,2.57,2.57,0,0,1,1.77-.59,2.14,2.14,0,0,1,1.66.69A2.21,2.21,0,0,1,161.22,33.43Zm-.76-.31a1.22,1.22,0,0,0-.4-.94,1.52,1.52,0,0,0-1.08-.37c-1.07,0-1.68.43-1.8,1.31Z"/><path d="M167.38,31.66a.34.34,0,0,1,.1.22.32.32,0,0,1-.1.22.31.31,0,0,1-.46,0,.67.67,0,0,0-.43-.16,2,2,0,0,0-1.18.39,5.16,5.16,0,0,0-.93,1v1.86h1.75a.32.32,0,1,1,0,.64h-3.38a.32.32,0,0,1,0-.64h1V31.92h-.81a.32.32,0,0,1,0-.64h1.13a.32.32,0,0,1,.22.1.31.31,0,0,1,.09.22v.71a2.87,2.87,0,0,1,2.11-1A1.15,1.15,0,0,1,167.38,31.66Z"/><path d="M173.47,33.53a2.13,2.13,0,0,1-.66,1.58,2.17,2.17,0,0,1-1.59.66,2.21,2.21,0,0,1-1.62-.68v2h1.29a.32.32,0,1,1,0,.64h-2.35a.32.32,0,0,1,0-.64H169V31.92h-.42a.32.32,0,0,1,0-.64h.74a.32.32,0,0,1,.22.1.31.31,0,0,1,.09.22V32a2.25,2.25,0,0,1,3.87,1.56Zm-.64,0a1.55,1.55,0,0,0-.47-1.14,1.59,1.59,0,0,0-1.14-.47,1.55,1.55,0,0,0-1.14.47,1.53,1.53,0,0,0-.48,1.14,1.62,1.62,0,0,0,1.62,1.61,1.6,1.6,0,0,0,1.61-1.61Z"/><path d="M179.38,31.66a.33.33,0,0,1,.09.22.32.32,0,0,1-.1.22.29.29,0,0,1-.23.1.28.28,0,0,1-.22-.1.69.69,0,0,0-.43-.16,2,2,0,0,0-1.19.39,5.17,5.17,0,0,0-.92,1v1.86h1.74a.32.32,0,1,1,0,.64h-3.37a.32.32,0,0,1,0-.64h1V31.92h-.8a.32.32,0,0,1,0-.64h1.12a.34.34,0,0,1,.32.32v.71a2.83,2.83,0,0,1,2.11-1A1.18,1.18,0,0,1,179.38,31.66Z"/><path d="M185,35.8h-4a.32.32,0,0,1,0-.64h1.68V31.92h-1.13a.32.32,0,0,1,0-.64H183a.34.34,0,0,1,.23.1.31.31,0,0,1,.09.22v3.56H185a.32.32,0,1,1,0,.64Zm-1.73-5.63a.28.28,0,0,1-.32.31.27.27,0,0,1-.31-.31v-.82A.28.28,0,0,1,183,29a.29.29,0,0,1,.32.32Z"/><path d="M191.05,32.8a.29.29,0,0,1-.32.33c-.21,0-.31-.11-.31-.33a.76.76,0,0,0-.42-.61,1.9,1.9,0,0,0-1.12-.31,1.78,1.78,0,0,0-1.31.48,1.59,1.59,0,0,0-.46,1.18,1.63,1.63,0,0,0,.49,1.23,1.77,1.77,0,0,0,1.28.47,2.27,2.27,0,0,0,1.63-.69.3.3,0,0,1,.22-.1.34.34,0,0,1,.23.1.33.33,0,0,1,.09.23.28.28,0,0,1-.1.22,2.86,2.86,0,0,1-2.07.87,2.39,2.39,0,0,1-1.73-.65,2.25,2.25,0,0,1-.68-1.68,2.22,2.22,0,0,1,.65-1.63,2.4,2.4,0,0,1,1.76-.66,2.66,2.66,0,0,1,1.54.45v-.14a.27.27,0,0,1,.31-.31.28.28,0,0,1,.32.31Z"/><path d="M197.2,33.43a.27.27,0,0,1-.1.22.28.28,0,0,1-.22.1h-3.74a1.53,1.53,0,0,0,1.74,1.49,4.1,4.1,0,0,0,1.92-.53.37.37,0,0,1,.16-.05.28.28,0,0,1,.22.11.29.29,0,0,1,.1.23.27.27,0,0,1-.18.26,4.62,4.62,0,0,1-2.22.61,2.35,2.35,0,0,1-1.76-.63,2.46,2.46,0,0,1-.62-1.81,2.09,2.09,0,0,1,.68-1.67,2.6,2.6,0,0,1,1.78-.59,2.15,2.15,0,0,1,1.66.69A2.25,2.25,0,0,1,197.2,33.43Zm-.76-.31a1.22,1.22,0,0,0-.4-.94,1.56,1.56,0,0,0-1.08-.37c-1.08,0-1.68.43-1.81,1.31Z"/><path d="M203.36,35.8h-.74a.3.3,0,0,1-.22-.1.28.28,0,0,1-.1-.22v-.36a2.27,2.27,0,0,1-3.21,0,2.15,2.15,0,0,1-.66-1.58,2.11,2.11,0,0,1,.66-1.57,2.27,2.27,0,0,1,3.21,0V30h-.67a.28.28,0,0,1-.32-.31.29.29,0,0,1,.32-.32h1a.31.31,0,0,1,.22.09.33.33,0,0,1,.09.23v5.44h.43a.32.32,0,1,1,0,.64Zm-1.06-2.23a1.53,1.53,0,0,0-.47-1.12,1.59,1.59,0,0,0-1.15-.47,1.55,1.55,0,0,0-1.14.47,1.55,1.55,0,0,0,0,2.24,1.52,1.52,0,0,0,1.14.47,1.55,1.55,0,0,0,1.15-.47A1.53,1.53,0,0,0,202.3,33.57Z"/><path d="M215.35,31.66a.33.33,0,0,1,.09.22.31.31,0,0,1-.09.22.31.31,0,0,1-.46,0,.67.67,0,0,0-.43-.16,2,2,0,0,0-1.18.39,5.16,5.16,0,0,0-.93,1v1.86h1.75a.32.32,0,1,1,0,.64h-3.38a.32.32,0,0,1,0-.64h1V31.92h-.81a.32.32,0,0,1,0-.64H212a.34.34,0,0,1,.22.1.31.31,0,0,1,.09.22v.71a2.87,2.87,0,0,1,2.11-1A1.17,1.17,0,0,1,215.35,31.66Z"/><path d="M221.18,33.43a.29.29,0,0,1-.09.22.3.3,0,0,1-.23.1h-3.73a1.51,1.51,0,0,0,1.73,1.49,4.17,4.17,0,0,0,1.93-.53.33.33,0,0,1,.16-.05.31.31,0,0,1,.22.11.32.32,0,0,1,.09.23.27.27,0,0,1-.17.26,4.66,4.66,0,0,1-2.23.61,2.35,2.35,0,0,1-1.76-.63,2.5,2.5,0,0,1-.62-1.81,2.1,2.1,0,0,1,.69-1.67,2.58,2.58,0,0,1,1.78-.59,2.13,2.13,0,0,1,1.65.69A2.21,2.21,0,0,1,221.18,33.43Zm-.76-.31a1.22,1.22,0,0,0-.4-.94,1.52,1.52,0,0,0-1.07-.37c-1.08,0-1.68.43-1.81,1.31Z"/><path d="M226.9,34.44a1.3,1.3,0,0,1-.5,1.08,2,2,0,0,1-1.33.41,2.69,2.69,0,0,1-1.68-.46v.12a.32.32,0,0,1-.64,0V34.45c0-.24.1-.36.31-.36a.32.32,0,0,1,.31.27c.2.63.77.94,1.7.94A1.39,1.39,0,0,0,226,35a.74.74,0,0,0,.27-.59A.52.52,0,0,0,226,34a2.6,2.6,0,0,0-1.3-.22,3.31,3.31,0,0,1-1.37-.21,1.05,1.05,0,0,1-.56-1,1.17,1.17,0,0,1,.53-1,2.58,2.58,0,0,1,2.73.15v-.13a.32.32,0,0,1,.64,0v1c0,.24-.1.36-.28.36a.36.36,0,0,1-.31-.2,1.66,1.66,0,0,0-1.52-.85c-.77,0-1.15.23-1.15.7a.46.46,0,0,0,.22.46,2.46,2.46,0,0,0,1.07.15Q226.9,33.12,226.9,34.44Z"/><path d="M233.23,35.24a4.64,4.64,0,0,1-.6.31,3.53,3.53,0,0,1-1.41.31c-1.1,0-1.64-.57-1.64-1.71V31.92h-1a.32.32,0,0,1,0-.64h1V30.12a.28.28,0,0,1,.31-.32.29.29,0,0,1,.32.32v1.16h2.18a.32.32,0,1,1,0,.64h-2.18v2.23a1.31,1.31,0,0,0,.2.83,1.06,1.06,0,0,0,.81.24,3,3,0,0,0,1.66-.5.3.3,0,0,1,.18-.06.28.28,0,0,1,.22.1.33.33,0,0,1,.09.23A.28.28,0,0,1,233.23,35.24Z"/><path d="M239.17,35.8h-.83a.34.34,0,0,1-.22-.1.31.31,0,0,1-.09-.22v-.24a2.59,2.59,0,0,1-1.78.62,1.89,1.89,0,0,1-1.13-.31,1.18,1.18,0,0,1-.51-1,1.43,1.43,0,0,1,.71-1.27,2.78,2.78,0,0,1,1.53-.38A3.66,3.66,0,0,1,238,33V32.9c0-.68-.39-1-1.18-1a2.11,2.11,0,0,0-1.26.34.33.33,0,0,1-.19.06.28.28,0,0,1-.22-.1.3.3,0,0,1-.1-.23.3.3,0,0,1,.14-.25,2.71,2.71,0,0,1,1.63-.46,1.9,1.9,0,0,1,1.33.43,1.58,1.58,0,0,1,.48,1.23v2.26h.51a.32.32,0,1,1,0,.64ZM238,34.25v-.52a2.64,2.64,0,0,0-1.18-.22,2.1,2.1,0,0,0-1.18.28.84.84,0,0,0-.42.74c0,.47.33.7,1,.7a2,2,0,0,0,1-.24A2.86,2.86,0,0,0,238,34.25Z"/><path d="M245.12,35.8h-.74a.34.34,0,0,1-.22-.1.31.31,0,0,1-.09-.22V35.3a2.34,2.34,0,0,1-1.56.5,1.4,1.4,0,0,1-1.57-1.59V31.92h-.44a.32.32,0,0,1,0-.64h.76a.32.32,0,0,1,.22.1.28.28,0,0,1,.1.22v2.61a1,1,0,0,0,.21.73,1,1,0,0,0,.72.22q1.56,0,1.56-1.41V31.92h-.8a.32.32,0,0,1,0-.64h1.11a.34.34,0,0,1,.23.1.31.31,0,0,1,.09.22v3.56h.42a.32.32,0,0,1,0,.64Z"/><path d="M251.33,31.66a.33.33,0,0,1,.09.22.28.28,0,0,1-.1.22.29.29,0,0,1-.23.1.28.28,0,0,1-.22-.1.69.69,0,0,0-.43-.16,2,2,0,0,0-1.18.39,5.16,5.16,0,0,0-.93,1v1.86h1.75a.32.32,0,0,1,0,.64H246.7a.32.32,0,1,1,0-.64h1V31.92h-.81a.32.32,0,1,1,0-.64H248a.34.34,0,0,1,.23.1.31.31,0,0,1,.09.22v.71a2.85,2.85,0,0,1,2.11-1A1.18,1.18,0,0,1,251.33,31.66Z"/><path d="M257.16,35.8h-.83a.32.32,0,0,1-.22-.1.31.31,0,0,1-.09-.22v-.24a2.61,2.61,0,0,1-1.78.62,1.89,1.89,0,0,1-1.13-.31,1.18,1.18,0,0,1-.51-1,1.43,1.43,0,0,1,.71-1.27,2.76,2.76,0,0,1,1.53-.38A3.7,3.7,0,0,1,256,33V32.9c0-.68-.4-1-1.18-1a2.11,2.11,0,0,0-1.26.34.35.35,0,0,1-.19.06.27.27,0,0,1-.22-.1.3.3,0,0,1-.1-.23.3.3,0,0,1,.14-.25,2.69,2.69,0,0,1,1.63-.46,1.9,1.9,0,0,1,1.33.43,1.58,1.58,0,0,1,.48,1.23v2.26h.51a.32.32,0,0,1,0,.64ZM256,34.25v-.52a2.64,2.64,0,0,0-1.18-.22,2.08,2.08,0,0,0-1.18.28.84.84,0,0,0-.42.74c0,.47.33.7,1,.7a2,2,0,0,0,1-.24A2.86,2.86,0,0,0,256,34.25Z"/><path d="M263.17,35.8H261.7a.32.32,0,1,1,0-.64h.41V32.73a.92.92,0,0,0-.25-.66.94.94,0,0,0-.69-.26,1.37,1.37,0,0,0-1.08.43,1.49,1.49,0,0,0-.38,1.07v1.85h.45a.32.32,0,0,1,0,.64h-1.49a.32.32,0,1,1,0-.64h.41V31.92h-.39a.32.32,0,1,1,0-.64h.7a.34.34,0,0,1,.23.1.31.31,0,0,1,.09.22v.11a2,2,0,0,1,1.46-.53,1.51,1.51,0,0,1,1.14.46,1.49,1.49,0,0,1,.44,1.09v2.43h.42a.32.32,0,0,1,0,.64Z"/><path d="M269.2,35.24a3.7,3.7,0,0,1-.59.31,3.57,3.57,0,0,1-1.42.31c-1.09,0-1.64-.57-1.64-1.71V31.92h-1a.32.32,0,1,1,0-.64h1V30.12a.32.32,0,1,1,.64,0v1.16h2.17a.32.32,0,0,1,0,.64h-2.17v2.23a1.24,1.24,0,0,0,.2.83,1,1,0,0,0,.8.24,2.92,2.92,0,0,0,1.66-.5.32.32,0,0,1,.18-.06.29.29,0,0,1,.23.1.33.33,0,0,1,.09.23A.29.29,0,0,1,269.2,35.24Z"/><path d="M274.87,34.44a1.3,1.3,0,0,1-.5,1.08,2,2,0,0,1-1.33.41,2.69,2.69,0,0,1-1.68-.46v.12a.32.32,0,0,1-.64,0V34.45c0-.24.1-.36.31-.36a.32.32,0,0,1,.31.27c.2.63.76.94,1.7.94A1.39,1.39,0,0,0,274,35a.74.74,0,0,0,.27-.59A.52.52,0,0,0,274,34a2.6,2.6,0,0,0-1.3-.22,3.31,3.31,0,0,1-1.37-.21,1.05,1.05,0,0,1-.56-1,1.17,1.17,0,0,1,.53-1,2.58,2.58,0,0,1,2.73.15v-.13a.32.32,0,0,1,.64,0v1c0,.24-.1.36-.29.36a.35.35,0,0,1-.3-.2,1.66,1.66,0,0,0-1.52-.85c-.77,0-1.15.23-1.15.7a.46.46,0,0,0,.22.46,2.46,2.46,0,0,0,1.07.15Q274.87,33.12,274.87,34.44Z"/><path d="M279.8,35a.78.78,0,0,1-.28.61,1,1,0,0,1-.68.26,1,1,0,0,1-.68-.26.82.82,0,0,1,0-1.23,1,1,0,0,1,.68-.26,1,1,0,0,1,.68.26A.79.79,0,0,1,279.8,35Z"/><path d="M293.09,35.48a.34.34,0,0,1-.32.32h-4.33a.32.32,0,1,1,0-.64h.68V30.68h-.64a.32.32,0,1,1,0-.64h4.29a.34.34,0,0,1,.32.32v1.33a.32.32,0,1,1-.64,0v-1h-2.7v1.67h1.36v-.42a.28.28,0,0,1,.32-.32.28.28,0,0,1,.31.32v1.45c0,.22-.1.32-.31.32a.28.28,0,0,1-.32-.32V33h-1.36v2.17h2.7V34a.32.32,0,0,1,.64,0Z"/><path d="M299.15,35.8h-1.47a.32.32,0,1,1,0-.64h.41V32.73a.89.89,0,0,0-.94-.92,1.41,1.41,0,0,0-1.09.43,1.48,1.48,0,0,0-.37,1.07v1.85h.45a.32.32,0,0,1,0,.64h-1.5a.32.32,0,0,1,0-.64h.41V31.92h-.38a.32.32,0,1,1,0-.64h.7a.3.3,0,0,1,.22.1.28.28,0,0,1,.1.22v.11a2,2,0,0,1,1.46-.53,1.51,1.51,0,0,1,1.14.46,1.49,1.49,0,0,1,.44,1.09v2.43h.42a.32.32,0,0,1,0,.64Z"/><path d="M305.28,33.54a2.18,2.18,0,0,1-.72,1.65,2.54,2.54,0,0,1-3.46,0,2.26,2.26,0,0,1,0-3.31,2.54,2.54,0,0,1,3.46,0A2.18,2.18,0,0,1,305.28,33.54Zm-.63,0a1.63,1.63,0,0,0-.53-1.21,1.9,1.9,0,0,0-2.57,0,1.63,1.63,0,0,0,0,2.41,1.9,1.9,0,0,0,2.57,0A1.62,1.62,0,0,0,304.65,33.54Z"/><path d="M311.29,31.66a.33.33,0,0,1,.09.22.28.28,0,0,1-.1.22.29.29,0,0,1-.23.1.3.3,0,0,1-.22-.1.69.69,0,0,0-.43-.16,2,2,0,0,0-1.18.39,5.16,5.16,0,0,0-.93,1v1.86H310a.32.32,0,0,1,0,.64h-3.38a.32.32,0,1,1,0-.64h1V31.92h-.81a.32.32,0,1,1,0-.64H308a.34.34,0,0,1,.23.1.31.31,0,0,1,.09.22v.71a2.85,2.85,0,0,1,2.11-1A1.18,1.18,0,0,1,311.29,31.66Z"/><path d="M317.65,35.8H317a.34.34,0,0,1-.23-.1.31.31,0,0,1-.09-.22V32.65a1.76,1.76,0,0,0-.06-.55.39.39,0,0,0-.4-.29c-.65,0-1,.38-1,1.15v2.2h.34a.32.32,0,0,1,0,.64h-.66a.34.34,0,0,1-.32-.32V32.61c0-.53-.16-.8-.49-.8-.63,0-.95.39-.95,1.16v2.19h.43a.32.32,0,0,1,0,.64h-1.46a.32.32,0,1,1,0-.64h.4V31.92h-.43a.32.32,0,0,1,0-.64h.75a.3.3,0,0,1,.28.18,1.58,1.58,0,0,1,1-.28,1,1,0,0,1,.91.5,1.5,1.5,0,0,1,1.19-.5c.73,0,1.09.49,1.09,1.47v2.51h.34a.32.32,0,0,1,0,.64Z"/><path d="M323.27,33.54a2.18,2.18,0,0,1-.72,1.65,2.54,2.54,0,0,1-3.46,0,2.26,2.26,0,0,1,0-3.31,2.54,2.54,0,0,1,3.46,0A2.18,2.18,0,0,1,323.27,33.54Zm-.63,0a1.63,1.63,0,0,0-.53-1.21,1.91,1.91,0,0,0-2.58,0,1.63,1.63,0,0,0,0,2.41,1.91,1.91,0,0,0,2.58,0A1.62,1.62,0,0,0,322.64,33.54Z"/><path d="M329.06,35.8h-.73a.32.32,0,0,1-.22-.1.28.28,0,0,1-.1-.22V35.3a2.33,2.33,0,0,1-1.55.5,1.4,1.4,0,0,1-1.57-1.59V31.92h-.44a.32.32,0,1,1,0-.64h.76a.34.34,0,0,1,.22.1.31.31,0,0,1,.09.22v2.61a1,1,0,0,0,.22.73,1,1,0,0,0,.72.22c1,0,1.55-.47,1.55-1.41V31.92h-.8a.32.32,0,1,1,0-.64h1.12a.3.3,0,0,1,.22.1.28.28,0,0,1,.1.22v3.56h.41a.32.32,0,0,1,0,.64Z"/><path d="M334.83,34.44a1.3,1.3,0,0,1-.5,1.08,2,2,0,0,1-1.33.41,2.69,2.69,0,0,1-1.68-.46v.12a.32.32,0,1,1-.64,0V34.45c0-.24.1-.36.31-.36a.32.32,0,0,1,.31.27c.2.63.77.94,1.7.94a1.39,1.39,0,0,0,.93-.27.74.74,0,0,0,.27-.59A.52.52,0,0,0,334,34a2.6,2.6,0,0,0-1.3-.22,3.31,3.31,0,0,1-1.37-.21,1.05,1.05,0,0,1-.56-1,1.17,1.17,0,0,1,.53-1,2.58,2.58,0,0,1,2.73.15v-.13a.32.32,0,0,1,.64,0v1c0,.24-.1.36-.28.36a.36.36,0,0,1-.31-.2,1.66,1.66,0,0,0-1.52-.85c-.77,0-1.15.23-1.15.7a.46.46,0,0,0,.22.46,2.46,2.46,0,0,0,1.07.15Q334.83,33.12,334.83,34.44Z"/><path d="M5.1,45.8H1.19a.32.32,0,0,1,0-.64H2.74V40H1.41c-.22,0-.32-.1-.32-.31a.28.28,0,0,1,.32-.32H3.06a.29.29,0,0,1,.22.09.3.3,0,0,1,.1.23v5.44H5.1a.32.32,0,0,1,0,.64Z"/><path d="M11.15,45.8H7.1a.32.32,0,0,1,0-.64H8.78V41.92H7.66a.32.32,0,0,1,0-.64H9.1a.34.34,0,0,1,.22.1.31.31,0,0,1,.09.22v3.56h1.74a.32.32,0,0,1,0,.64ZM9.41,40.17a.27.27,0,0,1-.31.31.28.28,0,0,1-.32-.31v-.82A.29.29,0,0,1,9.1,39a.28.28,0,0,1,.31.32Z"/><path d="M17.33,45.8H15.86a.32.32,0,0,1,0-.64h.41V42.73a.92.92,0,0,0-.25-.66.94.94,0,0,0-.69-.26,1.37,1.37,0,0,0-1.08.43,1.49,1.49,0,0,0-.38,1.07v1.85h.45a.32.32,0,1,1,0,.64H12.83a.32.32,0,0,1,0-.64h.41V41.92h-.39a.32.32,0,0,1,0-.64h.7a.34.34,0,0,1,.23.1.31.31,0,0,1,.09.22v.11a2,2,0,0,1,1.46-.53,1.51,1.51,0,0,1,1.14.46,1.49,1.49,0,0,1,.44,1.09v2.43h.42a.32.32,0,0,1,0,.64Z"/><path d="M23.31,43.43a.29.29,0,0,1-.09.22.3.3,0,0,1-.23.1H19.26A1.51,1.51,0,0,0,21,45.24a4.17,4.17,0,0,0,1.93-.53.3.3,0,0,1,.16-.05.31.31,0,0,1,.22.11.32.32,0,0,1,.09.23.27.27,0,0,1-.17.26,4.66,4.66,0,0,1-2.23.61,2.35,2.35,0,0,1-1.76-.63,2.5,2.5,0,0,1-.62-1.81,2.1,2.1,0,0,1,.69-1.67,2.57,2.57,0,0,1,1.77-.59,2.14,2.14,0,0,1,1.66.69A2.21,2.21,0,0,1,23.31,43.43Zm-.76-.31a1.22,1.22,0,0,0-.4-.94,1.52,1.52,0,0,0-1.08-.37c-1.07,0-1.68.43-1.8,1.31Z"/><path d="M29,44.44a1.3,1.3,0,0,1-.5,1.08,2,2,0,0,1-1.33.41,2.69,2.69,0,0,1-1.68-.46v.12a.32.32,0,0,1-.64,0V44.45c0-.24.1-.36.31-.36a.32.32,0,0,1,.31.27c.2.63.76.94,1.7.94a1.39,1.39,0,0,0,.93-.27.74.74,0,0,0,.27-.59.52.52,0,0,0-.23-.47,2.6,2.6,0,0,0-1.3-.22,3.31,3.31,0,0,1-1.37-.21,1.05,1.05,0,0,1-.56-1,1.17,1.17,0,0,1,.53-1,2.58,2.58,0,0,1,2.73.15v-.13a.32.32,0,0,1,.64,0v1c0,.24-.1.36-.29.36a.35.35,0,0,1-.3-.2,1.66,1.66,0,0,0-1.52-.85c-.77,0-1.15.23-1.15.7a.46.46,0,0,0,.22.46,2.46,2.46,0,0,0,1.07.15Q29,43.12,29,44.44Z"/><path d="M41.46,43.54a2.21,2.21,0,0,1-.72,1.65,2.55,2.55,0,0,1-3.47,0,2.26,2.26,0,0,1,0-3.31,2.55,2.55,0,0,1,3.47,0A2.22,2.22,0,0,1,41.46,43.54Zm-.64,0a1.63,1.63,0,0,0-.53-1.21,1.9,1.9,0,0,0-2.57,0,1.63,1.63,0,0,0,0,2.41,1.9,1.9,0,0,0,2.57,0A1.62,1.62,0,0,0,40.82,43.54Z"/><path d="M47.25,45.8h-.74a.32.32,0,0,1-.22-.1.31.31,0,0,1-.09-.22V45.3a2.34,2.34,0,0,1-1.56.5,1.4,1.4,0,0,1-1.57-1.59V41.92h-.44a.32.32,0,0,1,0-.64h.76a.34.34,0,0,1,.32.32v2.61a1,1,0,0,0,.21.73,1,1,0,0,0,.72.22q1.56,0,1.56-1.41V41.92h-.8a.32.32,0,0,1,0-.64h1.11a.34.34,0,0,1,.23.1.31.31,0,0,1,.09.22v3.56h.42a.32.32,0,0,1,0,.64Z"/><path d="M53.34,45.24a3.7,3.7,0,0,1-.59.31,3.57,3.57,0,0,1-1.42.31c-1.09,0-1.64-.57-1.64-1.71V41.92h-1a.32.32,0,0,1,0-.64h1V40.12a.32.32,0,0,1,.64,0v1.16H52.5a.32.32,0,0,1,0,.64H50.33v2.23a1.24,1.24,0,0,0,.2.83,1,1,0,0,0,.8.24,2.92,2.92,0,0,0,1.66-.5.32.32,0,0,1,.18-.06.29.29,0,0,1,.23.1.33.33,0,0,1,.09.23A.29.29,0,0,1,53.34,45.24Z"/><path d="M59,44.44a1.3,1.3,0,0,1-.5,1.08,2,2,0,0,1-1.33.41,2.69,2.69,0,0,1-1.68-.46v.12a.32.32,0,0,1-.64,0V44.45c0-.24.1-.36.31-.36a.32.32,0,0,1,.31.27c.2.63.77.94,1.7.94a1.39,1.39,0,0,0,.93-.27.74.74,0,0,0,.27-.59.52.52,0,0,0-.23-.47,2.6,2.6,0,0,0-1.3-.22,3.31,3.31,0,0,1-1.37-.21,1.05,1.05,0,0,1-.56-1,1.17,1.17,0,0,1,.53-1,2.58,2.58,0,0,1,2.73.15v-.13a.32.32,0,0,1,.64,0v1c0,.24-.1.36-.28.36a.36.36,0,0,1-.31-.2,1.66,1.66,0,0,0-1.52-.85c-.77,0-1.15.23-1.15.7a.46.46,0,0,0,.22.46,2.46,2.46,0,0,0,1.07.15Q59,43.12,59,44.44Z"/><path d="M65.11,45.8h-4a.32.32,0,0,1,0-.64h1.67V41.92H61.62a.32.32,0,0,1,0-.64h1.44a.3.3,0,0,1,.22.1.28.28,0,0,1,.1.22v3.56h1.73a.32.32,0,0,1,0,.64Zm-1.73-5.63a.32.32,0,0,1-.64,0v-.82a.32.32,0,1,1,.64,0Z"/><path d="M71.45,45.8H70.7a.32.32,0,0,1-.22-.1.31.31,0,0,1-.09-.22v-.36a2.21,2.21,0,0,1-1.62.68,2.24,2.24,0,0,1-1.6-.65,2.15,2.15,0,0,1-.66-1.58A2.11,2.11,0,0,1,67.17,42a2.28,2.28,0,0,1,3.22,0V40h-.68a.28.28,0,0,1-.32-.31.29.29,0,0,1,.32-.32h1a.29.29,0,0,1,.22.09.3.3,0,0,1,.1.23v5.44h.43a.32.32,0,1,1,0,.64Zm-1.06-2.23a1.5,1.5,0,0,0-.48-1.12A1.55,1.55,0,0,0,68.77,42a1.59,1.59,0,0,0-1.15.47,1.57,1.57,0,0,0,0,2.24,1.55,1.55,0,0,0,1.15.47,1.52,1.52,0,0,0,1.14-.47A1.5,1.5,0,0,0,70.39,43.57Z"/><path d="M77.28,43.43a.3.3,0,0,1-.1.22.28.28,0,0,1-.22.1H73.22A1.53,1.53,0,0,0,75,45.24a4.1,4.1,0,0,0,1.92-.53.33.33,0,0,1,.16-.05.28.28,0,0,1,.22.11.32.32,0,0,1,.09.23.26.26,0,0,1-.17.26,4.65,4.65,0,0,1-2.22.61,2.38,2.38,0,0,1-1.77-.63,2.5,2.5,0,0,1-.62-1.81,2.1,2.1,0,0,1,.69-1.67A2.58,2.58,0,0,1,75,41.17a2.13,2.13,0,0,1,1.65.69A2.22,2.22,0,0,1,77.28,43.43Zm-.76-.31a1.22,1.22,0,0,0-.4-.94A1.56,1.56,0,0,0,75,41.81c-1.08,0-1.68.43-1.81,1.31Z"/><path d="M89.8,45.8h-.65a.34.34,0,0,1-.23-.1.31.31,0,0,1-.09-.22V42.65a1.76,1.76,0,0,0-.06-.55.4.4,0,0,0-.41-.29c-.64,0-1,.38-1,1.15v2.2h.34a.32.32,0,0,1,0,.64h-.66a.32.32,0,0,1-.22-.1.28.28,0,0,1-.1-.22V42.61c0-.53-.16-.8-.5-.8-.62,0-.94.39-.94,1.16v2.19h.43a.32.32,0,0,1,0,.64H84.29a.32.32,0,1,1,0-.64h.4V41.92h-.43a.32.32,0,0,1,0-.64H85a.31.31,0,0,1,.29.18,1.57,1.57,0,0,1,1-.28,1,1,0,0,1,.92.5,1.49,1.49,0,0,1,1.18-.5c.74,0,1.1.49,1.1,1.47v2.51h.34a.32.32,0,0,1,0,.64Z"/><path d="M95.09,45.8h-4a.32.32,0,0,1,0-.64h1.67V41.92H91.6a.32.32,0,0,1,0-.64H93a.3.3,0,0,1,.22.1.28.28,0,0,1,.1.22v3.56h1.73a.32.32,0,1,1,0,.64Zm-1.73-5.63a.32.32,0,0,1-.64,0v-.82a.32.32,0,0,1,.64,0Z"/><path d="M101.11,42.8a.32.32,0,1,1-.64,0,.77.77,0,0,0-.41-.61,1.92,1.92,0,0,0-1.12-.31,1.78,1.78,0,0,0-1.31.48,1.59,1.59,0,0,0-.46,1.18,1.63,1.63,0,0,0,.49,1.23,1.77,1.77,0,0,0,1.28.47,2.27,2.27,0,0,0,1.63-.69.3.3,0,0,1,.22-.1.34.34,0,0,1,.23.1.33.33,0,0,1,.09.23.28.28,0,0,1-.1.22,2.86,2.86,0,0,1-2.07.87,2.39,2.39,0,0,1-1.73-.65,2.25,2.25,0,0,1-.68-1.68,2.22,2.22,0,0,1,.65-1.63,2.38,2.38,0,0,1,1.76-.66,2.61,2.61,0,0,1,1.53.45v-.14a.32.32,0,0,1,.64,0Z"/><path d="M107.42,41.66a.33.33,0,0,1,.09.22.31.31,0,0,1-.09.22.31.31,0,0,1-.46,0,.67.67,0,0,0-.43-.16,2,2,0,0,0-1.18.39,5.16,5.16,0,0,0-.93,1v1.86h1.75a.32.32,0,1,1,0,.64h-3.38a.32.32,0,0,1,0-.64h1V41.92H103a.32.32,0,0,1,0-.64h1.13a.34.34,0,0,1,.22.1.31.31,0,0,1,.09.22v.71a2.87,2.87,0,0,1,2.11-1A1.17,1.17,0,0,1,107.42,41.66Z"/><path d="M113.41,43.54a2.18,2.18,0,0,1-.72,1.65,2.54,2.54,0,0,1-3.46,0,2.26,2.26,0,0,1,0-3.31,2.54,2.54,0,0,1,3.46,0A2.18,2.18,0,0,1,113.41,43.54Zm-.64,0a1.59,1.59,0,0,0-.53-1.21,1.9,1.9,0,0,0-2.57,0,1.63,1.63,0,0,0,0,2.41,1.9,1.9,0,0,0,2.57,0A1.59,1.59,0,0,0,112.77,43.54Z"/><path d="M119,44.44a1.3,1.3,0,0,1-.5,1.08,2,2,0,0,1-1.33.41,2.69,2.69,0,0,1-1.68-.46v.12a.32.32,0,0,1-.64,0V44.45c0-.24.1-.36.31-.36a.32.32,0,0,1,.31.27c.2.63.77.94,1.7.94a1.39,1.39,0,0,0,.93-.27.74.74,0,0,0,.27-.59.52.52,0,0,0-.23-.47,2.6,2.6,0,0,0-1.3-.22,3.31,3.31,0,0,1-1.37-.21,1.05,1.05,0,0,1-.56-1,1.16,1.16,0,0,1,.54-1,2.2,2.2,0,0,1,1.25-.32,2.25,2.25,0,0,1,1.47.47v-.13a.32.32,0,0,1,.64,0v1c0,.24-.1.36-.28.36a.36.36,0,0,1-.31-.2,1.66,1.66,0,0,0-1.52-.85c-.77,0-1.15.23-1.15.7a.46.46,0,0,0,.22.46,2.46,2.46,0,0,0,1.07.15Q119,43.12,119,44.44Z"/><path d="M125.09,42.8c0,.22-.1.33-.31.33s-.32-.11-.32-.33a.76.76,0,0,0-.42-.61,1.9,1.9,0,0,0-1.12-.31,1.78,1.78,0,0,0-1.31.48,1.63,1.63,0,0,0-.46,1.18,1.67,1.67,0,0,0,.49,1.23,1.79,1.79,0,0,0,1.28.47,2.3,2.3,0,0,0,1.64-.69.27.27,0,0,1,.22-.1.34.34,0,0,1,.22.1.3.3,0,0,1,.1.23.32.32,0,0,1-.1.22,2.9,2.9,0,0,1-2.08.87,2.36,2.36,0,0,1-1.72-.65,2.41,2.41,0,0,1,0-3.31,2.42,2.42,0,0,1,1.76-.66,2.66,2.66,0,0,1,1.54.45v-.14c0-.21.1-.31.32-.31a.27.27,0,0,1,.31.31Z"/><path d="M131.4,43.54a2.18,2.18,0,0,1-.72,1.65,2.55,2.55,0,0,1-3.47,0,2.26,2.26,0,0,1,0-3.31,2.55,2.55,0,0,1,3.47,0A2.18,2.18,0,0,1,131.4,43.54Zm-.64,0a1.63,1.63,0,0,0-.53-1.21,1.9,1.9,0,0,0-2.57,0,1.63,1.63,0,0,0,0,2.41,1.9,1.9,0,0,0,2.57,0A1.62,1.62,0,0,0,130.76,43.54Z"/><path d="M137.49,43.53a2.13,2.13,0,0,1-.66,1.58,2.25,2.25,0,0,1-3.2,0v2h1.29a.32.32,0,0,1,0,.64h-2.35a.32.32,0,0,1,0-.64H133V41.92h-.41a.32.32,0,0,1,0-.64h.73a.3.3,0,0,1,.22.1.28.28,0,0,1,.1.22V42a2.25,2.25,0,0,1,3.86,1.56Zm-.63,0a1.53,1.53,0,0,0-.48-1.14,1.55,1.55,0,0,0-1.14-.47,1.59,1.59,0,0,0-1.14.47,1.55,1.55,0,0,0-.47,1.14,1.6,1.6,0,0,0,1.61,1.61,1.62,1.62,0,0,0,1.62-1.61Z"/><path d="M143.06,45.8h-4a.32.32,0,0,1,0-.64h1.67V41.92h-1.12a.32.32,0,0,1,0-.64H141a.32.32,0,0,1,.22.1.28.28,0,0,1,.1.22v3.56h1.73a.32.32,0,1,1,0,.64Zm-1.73-5.63a.32.32,0,0,1-.64,0v-.82a.32.32,0,0,1,.64,0Z"/><path d="M149.08,42.8a.32.32,0,1,1-.64,0,.77.77,0,0,0-.41-.61,1.94,1.94,0,0,0-1.12-.31,1.78,1.78,0,0,0-1.31.48,1.59,1.59,0,0,0-.46,1.18,1.67,1.67,0,0,0,.48,1.23,1.81,1.81,0,0,0,1.29.47,2.27,2.27,0,0,0,1.63-.69.28.28,0,0,1,.22-.1.32.32,0,0,1,.22.1.3.3,0,0,1,.1.23.28.28,0,0,1-.1.22,2.89,2.89,0,0,1-2.07.87,2.37,2.37,0,0,1-1.73-.65,2.25,2.25,0,0,1-.68-1.68,2.22,2.22,0,0,1,.65-1.63,2.38,2.38,0,0,1,1.76-.66,2.61,2.61,0,0,1,1.53.45v-.14a.32.32,0,0,1,.64,0Z"/><path d="M161.45,43.58a2.24,2.24,0,0,1-2.24,2.22,2.21,2.21,0,0,1-1.61-.67v.35a.31.31,0,0,1-.09.22.34.34,0,0,1-.22.1h-.7a.32.32,0,0,1,0-.64H157V40h-.39a.28.28,0,0,1-.32-.31.29.29,0,0,1,.32-.32h.71a.33.33,0,0,1,.22.09.33.33,0,0,1,.09.23V42a2.21,2.21,0,0,1,1.61-.67,2.16,2.16,0,0,1,1.58.65A2.12,2.12,0,0,1,161.45,43.58Zm-.63,0a1.53,1.53,0,0,0-.47-1.12,1.56,1.56,0,0,0-1.14-.46,1.55,1.55,0,0,0-1.14.46,1.57,1.57,0,0,0,0,2.24,1.55,1.55,0,0,0,1.14.46,1.56,1.56,0,0,0,1.14-.46A1.53,1.53,0,0,0,160.82,43.58Z"/><path d="M167.22,45.8h-.83a.34.34,0,0,1-.32-.32v-.24a2.57,2.57,0,0,1-1.77.62,1.94,1.94,0,0,1-1.14-.31,1.19,1.19,0,0,1-.5-1,1.44,1.44,0,0,1,.7-1.27,2.82,2.82,0,0,1,1.54-.38,3.63,3.63,0,0,1,1.17.16V42.9q0-1-1.17-1a2.07,2.07,0,0,0-1.26.34.35.35,0,0,1-.19.06.27.27,0,0,1-.22-.1.3.3,0,0,1-.1-.23.28.28,0,0,1,.14-.25,2.69,2.69,0,0,1,1.63-.46,1.92,1.92,0,0,1,1.33.43,1.58,1.58,0,0,1,.48,1.23v2.26h.51a.32.32,0,0,1,0,.64Zm-1.15-1.55v-.52a2.57,2.57,0,0,0-1.17-.22,2.08,2.08,0,0,0-1.18.28.84.84,0,0,0-.42.74c0,.47.33.7,1,.7a2,2,0,0,0,1-.24A2.7,2.7,0,0,0,166.07,44.25Z"/><path d="M172.94,44.44a1.33,1.33,0,0,1-.5,1.08,2,2,0,0,1-1.33.41,2.72,2.72,0,0,1-1.69-.46v.12a.28.28,0,0,1-.31.32.29.29,0,0,1-.32-.32V44.45q0-.36.3-.36c.16,0,.26.09.32.27.19.63.76.94,1.7.94A1.41,1.41,0,0,0,172,45a.73.73,0,0,0,.26-.59.51.51,0,0,0-.22-.47,2.64,2.64,0,0,0-1.31-.22,3.26,3.26,0,0,1-1.36-.21,1,1,0,0,1-.56-1,1.15,1.15,0,0,1,.53-1,2.26,2.26,0,0,1,1.26-.32,2.29,2.29,0,0,1,1.47.47v-.13a.28.28,0,0,1,.32-.31.27.27,0,0,1,.31.31v1c0,.24-.09.36-.28.36a.38.38,0,0,1-.31-.2,1.64,1.64,0,0,0-1.51-.85c-.77,0-1.16.23-1.16.7a.47.47,0,0,0,.22.46,2.49,2.49,0,0,0,1.07.15C172.22,43.12,172.94,43.56,172.94,44.44Z"/><path d="M179.21,43.43a.34.34,0,0,1-.32.32h-3.73a1.51,1.51,0,0,0,1.73,1.49,4.1,4.1,0,0,0,1.92-.53.37.37,0,0,1,.16-.05.28.28,0,0,1,.22.11.29.29,0,0,1,.1.23.27.27,0,0,1-.17.26,4.66,4.66,0,0,1-2.23.61,2.35,2.35,0,0,1-1.76-.63,2.46,2.46,0,0,1-.62-1.81,2.1,2.1,0,0,1,.69-1.67,2.56,2.56,0,0,1,1.77-.59,2.14,2.14,0,0,1,1.66.69A2.25,2.25,0,0,1,179.21,43.43Zm-.76-.31a1.22,1.22,0,0,0-.4-.94,1.54,1.54,0,0,0-1.08-.37c-1.07,0-1.68.43-1.8,1.31Z"/><path d="M185.74,45.8h-.66a.32.32,0,0,1-.22-.1.31.31,0,0,1-.09-.22V42.65a1.76,1.76,0,0,0-.06-.55.4.4,0,0,0-.41-.29c-.64,0-1,.38-1,1.15v2.2h.35a.32.32,0,0,1,0,.64H183a.3.3,0,0,1-.22-.1.28.28,0,0,1-.1-.22V42.61c0-.53-.17-.8-.5-.8-.63,0-.94.39-.94,1.16v2.19h.42a.32.32,0,1,1,0,.64h-1.46a.32.32,0,0,1,0-.64h.4V41.92h-.42a.32.32,0,0,1,0-.64h.74a.32.32,0,0,1,.29.18,1.57,1.57,0,0,1,1-.28,1,1,0,0,1,.92.5,1.49,1.49,0,0,1,1.18-.5c.73,0,1.1.49,1.1,1.47v2.51h.34a.32.32,0,0,1,0,.64Z"/><path d="M191.2,43.43a.29.29,0,0,1-.09.22.3.3,0,0,1-.23.1h-3.73a1.51,1.51,0,0,0,1.73,1.49,4.17,4.17,0,0,0,1.93-.53.33.33,0,0,1,.16-.05.31.31,0,0,1,.22.11.32.32,0,0,1,.09.23.27.27,0,0,1-.17.26,4.66,4.66,0,0,1-2.23.61,2.35,2.35,0,0,1-1.76-.63,2.5,2.5,0,0,1-.62-1.81,2.1,2.1,0,0,1,.69-1.67,2.57,2.57,0,0,1,1.77-.59,2.14,2.14,0,0,1,1.66.69A2.21,2.21,0,0,1,191.2,43.43Zm-.76-.31a1.22,1.22,0,0,0-.4-.94,1.52,1.52,0,0,0-1.08-.37c-1.07,0-1.67.43-1.8,1.31Z"/><path d="M197.22,45.8h-1.48a.32.32,0,0,1,0-.64h.42V42.73a.89.89,0,0,0-.95-.92,1.37,1.37,0,0,0-1.08.43,1.49,1.49,0,0,0-.38,1.07v1.85h.45a.32.32,0,1,1,0,.64h-1.49a.32.32,0,0,1,0-.64h.41V41.92h-.39a.32.32,0,0,1,0-.64h.71a.32.32,0,0,1,.22.1.31.31,0,0,1,.09.22v.11a2,2,0,0,1,1.46-.53,1.52,1.52,0,0,1,1.15.46,1.49,1.49,0,0,1,.43,1.09v2.43h.43a.32.32,0,0,1,0,.64Z"/><path d="M203.25,45.24a4.64,4.64,0,0,1-.6.31,3.53,3.53,0,0,1-1.41.31q-1.65,0-1.65-1.71V41.92h-1a.32.32,0,0,1,0-.64h1V40.12a.32.32,0,1,1,.64,0v1.16h2.18a.32.32,0,0,1,0,.64h-2.18v2.23a1.31,1.31,0,0,0,.2.83,1.06,1.06,0,0,0,.81.24,3,3,0,0,0,1.66-.5.28.28,0,0,1,.18-.06.28.28,0,0,1,.22.1.33.33,0,0,1,.09.23A.3.3,0,0,1,203.25,45.24Z"/><path d="M215,42.8c0,.22-.1.33-.31.33s-.32-.11-.32-.33a.76.76,0,0,0-.42-.61,1.89,1.89,0,0,0-1.11-.31,1.8,1.8,0,0,0-1.32.48,1.63,1.63,0,0,0-.46,1.18,1.67,1.67,0,0,0,.49,1.23,1.79,1.79,0,0,0,1.29.47,2.29,2.29,0,0,0,1.63-.69.28.28,0,0,1,.22-.1.32.32,0,0,1,.22.1.3.3,0,0,1,.1.23.32.32,0,0,1-.1.22,2.89,2.89,0,0,1-2.07.87,2.37,2.37,0,0,1-1.73-.65,2.41,2.41,0,0,1,0-3.31,2.42,2.42,0,0,1,1.77-.66,2.61,2.61,0,0,1,1.53.45v-.14c0-.21.1-.31.32-.31a.27.27,0,0,1,.31.31Z"/><path d="M221,45.8h-3.91a.32.32,0,0,1,0-.64h1.55V40h-1.33c-.22,0-.32-.1-.32-.31a.28.28,0,0,1,.32-.32h1.65a.31.31,0,0,1,.22.09.3.3,0,0,1,.1.23v5.44H221a.32.32,0,0,1,0,.64Z"/><path d="M227.13,45.8h-.73a.34.34,0,0,1-.23-.1.31.31,0,0,1-.09-.22V45.3a2.34,2.34,0,0,1-1.56.5A1.4,1.4,0,0,1,223,44.21V41.92h-.44a.32.32,0,0,1,0-.64h.76a.3.3,0,0,1,.22.1.28.28,0,0,1,.1.22v2.61a1,1,0,0,0,.21.73,1,1,0,0,0,.72.22q1.56,0,1.56-1.41V41.92h-.8a.32.32,0,1,1,0-.64h1.12a.32.32,0,0,1,.22.1.31.31,0,0,1,.09.22v3.56h.42a.32.32,0,0,1,0,.64Z"/><path d="M233.4,43.58a2.17,2.17,0,0,1-.65,1.57,2.26,2.26,0,0,1-3.19,0v.35a.34.34,0,0,1-.32.32h-.7a.32.32,0,1,1,0-.64h.38V40h-.39a.28.28,0,0,1-.32-.31.29.29,0,0,1,.32-.32h.71a.31.31,0,0,1,.22.09.34.34,0,0,1,.1.23V42a2.26,2.26,0,0,1,3.19,0A2.15,2.15,0,0,1,233.4,43.58Zm-.63,0a1.53,1.53,0,0,0-.47-1.12,1.55,1.55,0,0,0-1.14-.46,1.58,1.58,0,0,0-1.14.46,1.59,1.59,0,0,0,0,2.24,1.58,1.58,0,0,0,1.14.46,1.55,1.55,0,0,0,1.14-.46A1.53,1.53,0,0,0,232.77,43.58Z"/><path d="M238.9,44.44a1.33,1.33,0,0,1-.5,1.08,2,2,0,0,1-1.33.41,2.7,2.7,0,0,1-1.69-.46v.12a.29.29,0,0,1-.32.32.28.28,0,0,1-.31-.32V44.45q0-.36.3-.36c.16,0,.26.09.32.27.19.63.76.94,1.7.94A1.38,1.38,0,0,0,238,45a.74.74,0,0,0,.27-.59A.52.52,0,0,0,238,44a2.6,2.6,0,0,0-1.3-.22,3.23,3.23,0,0,1-1.36-.21,1,1,0,0,1-.57-1,1.16,1.16,0,0,1,.54-1,2.26,2.26,0,0,1,1.26-.32,2.29,2.29,0,0,1,1.47.47v-.13a.27.27,0,0,1,.31-.31.28.28,0,0,1,.32.31v1c0,.24-.09.36-.28.36a.36.36,0,0,1-.31-.2,1.65,1.65,0,0,0-1.51-.85c-.77,0-1.16.23-1.16.7a.46.46,0,0,0,.22.46,2.46,2.46,0,0,0,1.07.15C238.17,43.12,238.9,43.56,238.9,44.44Z"/><path d="M243.83,45a.81.81,0,0,1-.28.61,1,1,0,0,1-1.37,0,.82.82,0,0,1,0-1.23,1,1,0,0,1,1.37,0A.82.82,0,0,1,243.83,45Z"/><path d="M257.21,41.78a1.61,1.61,0,0,1-.62,1.32,2.24,2.24,0,0,1-1.47.47H254v1.59h1.26a.32.32,0,1,1,0,.64h-2.66a.32.32,0,0,1,0-.64h.76V40.63h-.73a.28.28,0,0,1-.32-.31.29.29,0,0,1,.32-.32H255a2.49,2.49,0,0,1,1.58.46A1.57,1.57,0,0,1,257.21,41.78Zm-.64,0a1,1,0,0,0-.38-.82,1.85,1.85,0,0,0-1.19-.33h-1v2.31h1.15a1.63,1.63,0,0,0,1.07-.33A1,1,0,0,0,256.57,41.78Z"/><path d="M263.15,45.8h-.82a.32.32,0,0,1-.22-.1.28.28,0,0,1-.1-.22v-.24a2.59,2.59,0,0,1-1.78.62,1.93,1.93,0,0,1-1.13-.31,1.19,1.19,0,0,1-.5-1,1.42,1.42,0,0,1,.7-1.27,2.8,2.8,0,0,1,1.53-.38A3.66,3.66,0,0,1,262,43V42.9c0-.68-.39-1-1.18-1a2.06,2.06,0,0,0-1.25.34.39.39,0,0,1-.2.06.3.3,0,0,1-.22-.1.33.33,0,0,1-.09-.23.29.29,0,0,1,.13-.25,2.71,2.71,0,0,1,1.63-.46,1.94,1.94,0,0,1,1.34.43,1.58,1.58,0,0,1,.48,1.23v2.26h.5a.32.32,0,0,1,0,.64ZM262,44.25v-.52a2.61,2.61,0,0,0-1.18-.22,2.07,2.07,0,0,0-1.17.28.83.83,0,0,0-.43.74c0,.47.34.7,1,.7a2,2,0,0,0,1-.24A2.59,2.59,0,0,0,262,44.25Z"/><path d="M269,42.8a.32.32,0,1,1-.64,0,.75.75,0,0,0-.41-.61,1.92,1.92,0,0,0-1.12-.31,1.78,1.78,0,0,0-1.31.48,1.59,1.59,0,0,0-.46,1.18,1.63,1.63,0,0,0,.49,1.23,1.77,1.77,0,0,0,1.28.47,2.27,2.27,0,0,0,1.63-.69.3.3,0,0,1,.22-.1.34.34,0,0,1,.23.1.33.33,0,0,1,.09.23.28.28,0,0,1-.1.22,2.86,2.86,0,0,1-2.07.87,2.39,2.39,0,0,1-1.73-.65,2.25,2.25,0,0,1-.68-1.68,2.22,2.22,0,0,1,.65-1.63,2.38,2.38,0,0,1,1.76-.66,2.61,2.61,0,0,1,1.53.45v-.14a.32.32,0,0,1,.64,0Z"/><path d="M275.37,45.8h-1.64a.32.32,0,1,1,0-.64h.2l-1.5-1.59-.54.48v1.43a.31.31,0,0,1-.09.22.32.32,0,0,1-.22.1h-.95a.32.32,0,1,1,0-.64h.63V40h-.64a.28.28,0,0,1-.32-.31.29.29,0,0,1,.32-.32h1a.31.31,0,0,1,.22.09.33.33,0,0,1,.09.23V43.2l1.46-1.28h0a.32.32,0,1,1,0-.64H275a.32.32,0,0,1,0,.64h-.64l0,0-1.38,1.21,1.88,2h.58a.32.32,0,0,1,0,.64Z"/><path d="M281.14,43.43a.29.29,0,0,1-.09.22.3.3,0,0,1-.22.1h-3.74a1.51,1.51,0,0,0,1.73,1.49,4.17,4.17,0,0,0,1.93-.53.33.33,0,0,1,.16-.05.29.29,0,0,1,.22.11.32.32,0,0,1,.09.23.27.27,0,0,1-.17.26,4.66,4.66,0,0,1-2.23.61,2.35,2.35,0,0,1-1.76-.63,2.5,2.5,0,0,1-.62-1.81,2.1,2.1,0,0,1,.69-1.67,2.58,2.58,0,0,1,1.78-.59,2.13,2.13,0,0,1,1.65.69A2.21,2.21,0,0,1,281.14,43.43Zm-.75-.31a1.25,1.25,0,0,0-.4-.94,1.56,1.56,0,0,0-1.08-.37c-1.08,0-1.68.43-1.81,1.31Z"/><path d="M287.31,45.8h-.75a.32.32,0,0,1-.22-.1.31.31,0,0,1-.09-.22v-.36a2.21,2.21,0,0,1-1.62.68,2.24,2.24,0,0,1-1.6-.65,2.15,2.15,0,0,1-.66-1.58A2.11,2.11,0,0,1,283,42a2.28,2.28,0,0,1,3.22,0V40h-.68a.28.28,0,0,1-.32-.31.29.29,0,0,1,.32-.32h1a.29.29,0,0,1,.22.09.3.3,0,0,1,.1.23v5.44h.43a.32.32,0,0,1,0,.64Zm-1.06-2.23a1.5,1.5,0,0,0-.48-1.12,1.55,1.55,0,0,0-1.14-.47,1.59,1.59,0,0,0-1.15.47,1.57,1.57,0,0,0,0,2.24,1.55,1.55,0,0,0,1.15.47,1.52,1.52,0,0,0,1.14-.47A1.5,1.5,0,0,0,286.25,43.57Z"/><path d="M299.38,43.53a2.12,2.12,0,0,1-.65,1.58,2.17,2.17,0,0,1-1.59.66,2.2,2.2,0,0,1-1.62-.68v2h1.29a.32.32,0,0,1,0,.64h-2.35a.32.32,0,0,1,0-.64h.43V41.92h-.42a.32.32,0,0,1,0-.64h.74a.34.34,0,0,1,.22.1.31.31,0,0,1,.09.22V42a2.24,2.24,0,0,1,3.86,1.56Zm-.63,0a1.55,1.55,0,0,0-.47-1.14,1.59,1.59,0,0,0-1.14-.47,1.55,1.55,0,0,0-1.14.47,1.53,1.53,0,0,0-.48,1.14,1.62,1.62,0,0,0,1.62,1.61,1.6,1.6,0,0,0,1.61-1.61Z"/><path d="M305.13,45.8h-.83a.34.34,0,0,1-.32-.32v-.24a2.57,2.57,0,0,1-1.77.62,1.94,1.94,0,0,1-1.14-.31,1.19,1.19,0,0,1-.5-1,1.44,1.44,0,0,1,.7-1.27,2.82,2.82,0,0,1,1.54-.38A3.59,3.59,0,0,1,304,43V42.9q0-1-1.17-1a2.07,2.07,0,0,0-1.26.34.35.35,0,0,1-.19.06.27.27,0,0,1-.22-.1A.3.3,0,0,1,301,42a.28.28,0,0,1,.14-.25,2.69,2.69,0,0,1,1.63-.46,1.92,1.92,0,0,1,1.33.43,1.58,1.58,0,0,1,.48,1.23v2.26h.51a.32.32,0,0,1,0,.64ZM304,44.25v-.52a2.57,2.57,0,0,0-1.17-.22,2.08,2.08,0,0,0-1.18.28.84.84,0,0,0-.42.74c0,.47.33.7,1,.7a2,2,0,0,0,1-.24A2.7,2.7,0,0,0,304,44.25Z"/><path d="M311.29,41.66a.33.33,0,0,1,.09.22.28.28,0,0,1-.1.22.29.29,0,0,1-.23.1.3.3,0,0,1-.22-.1.69.69,0,0,0-.43-.16,2,2,0,0,0-1.18.39,5.16,5.16,0,0,0-.93,1v1.86H310a.32.32,0,0,1,0,.64h-3.38a.32.32,0,1,1,0-.64h1V41.92h-.81a.32.32,0,1,1,0-.64H308a.34.34,0,0,1,.23.1.31.31,0,0,1,.09.22v.71a2.85,2.85,0,0,1,2.11-1A1.18,1.18,0,0,1,311.29,41.66Z"/><path d="M317.17,45.24a3.7,3.7,0,0,1-.59.31,3.57,3.57,0,0,1-1.42.31c-1.09,0-1.64-.57-1.64-1.71V41.92h-1a.32.32,0,1,1,0-.64h1V40.12a.32.32,0,0,1,.64,0v1.16h2.17a.32.32,0,0,1,0,.64h-2.17v2.23a1.24,1.24,0,0,0,.2.83,1,1,0,0,0,.8.24,2.92,2.92,0,0,0,1.66-.5.32.32,0,0,1,.18-.06.29.29,0,0,1,.23.1.33.33,0,0,1,.09.23A.29.29,0,0,1,317.17,45.24Z"/><path d="M322.94,45.8h-4a.32.32,0,1,1,0-.64h1.68V41.92h-1.13a.32.32,0,0,1,0-.64h1.44a.34.34,0,0,1,.23.1.31.31,0,0,1,.09.22v3.56h1.73a.32.32,0,0,1,0,.64Zm-1.73-5.63a.28.28,0,0,1-.32.31.27.27,0,0,1-.31-.31v-.82a.28.28,0,0,1,.31-.32.29.29,0,0,1,.32.32Z"/><path d="M329.11,43.43a.29.29,0,0,1-.09.22.3.3,0,0,1-.23.1h-3.73a1.51,1.51,0,0,0,1.73,1.49,4.17,4.17,0,0,0,1.93-.53.33.33,0,0,1,.16-.05.31.31,0,0,1,.22.11.32.32,0,0,1,.09.23.27.27,0,0,1-.17.26,4.66,4.66,0,0,1-2.23.61,2.35,2.35,0,0,1-1.76-.63,2.5,2.5,0,0,1-.62-1.81,2.1,2.1,0,0,1,.69-1.67,2.58,2.58,0,0,1,1.78-.59,2.13,2.13,0,0,1,1.65.69A2.21,2.21,0,0,1,329.11,43.43Zm-.76-.31a1.22,1.22,0,0,0-.4-.94,1.52,1.52,0,0,0-1.07-.37c-1.08,0-1.68.43-1.81,1.31Z"/><path d="M334.83,44.44a1.3,1.3,0,0,1-.5,1.08,2,2,0,0,1-1.33.41,2.69,2.69,0,0,1-1.68-.46v.12a.32.32,0,1,1-.64,0V44.45c0-.24.1-.36.31-.36a.32.32,0,0,1,.31.27c.2.63.77.94,1.7.94a1.39,1.39,0,0,0,.93-.27.74.74,0,0,0,.27-.59A.52.52,0,0,0,334,44a2.6,2.6,0,0,0-1.3-.22,3.31,3.31,0,0,1-1.37-.21,1.05,1.05,0,0,1-.56-1,1.17,1.17,0,0,1,.53-1,2.58,2.58,0,0,1,2.73.15v-.13a.32.32,0,0,1,.64,0v1c0,.24-.1.36-.28.36a.36.36,0,0,1-.31-.2,1.66,1.66,0,0,0-1.52-.85c-.77,0-1.15.23-1.15.7a.46.46,0,0,0,.22.46,2.46,2.46,0,0,0,1.07.15Q334.83,43.12,334.83,44.44Z"/><path d="M5.15,55.8h-4a.32.32,0,0,1,0-.64H2.78V51.92H1.66a.32.32,0,0,1,0-.64H3.1a.32.32,0,0,1,.22.1.28.28,0,0,1,.1.22v3.56H5.15a.32.32,0,0,1,0,.64ZM3.42,50.17a.28.28,0,0,1-.32.31.28.28,0,0,1-.32-.31v-.82A.29.29,0,0,1,3.1,49a.29.29,0,0,1,.32.32Z"/><path d="M11.34,55.8H9.86a.32.32,0,0,1,0-.64h.42V52.73a.89.89,0,0,0-.94-.92,1.38,1.38,0,0,0-1.09.43,1.48,1.48,0,0,0-.37,1.07v1.85h.45a.32.32,0,0,1,0,.64H6.83a.32.32,0,0,1,0-.64h.41V51.92H6.86a.32.32,0,0,1,0-.64h.7a.34.34,0,0,1,.32.32v.11a2,2,0,0,1,1.46-.53,1.51,1.51,0,0,1,1.14.46,1.49,1.49,0,0,1,.43,1.09v2.43h.43a.32.32,0,0,1,0,.64Z"/><path d="M23.73,51.92h-.1l-1.06,3.73a.25.25,0,0,1-.12.16.32.32,0,0,1-.18.07h-.34a.32.32,0,0,1-.18-.07.25.25,0,0,1-.12-.16L21,53.53l-.58,2.12a.37.37,0,0,1-.13.16.32.32,0,0,1-.18.07h-.33a.37.37,0,0,1-.3-.22l-1.15-3.74h-.1a.32.32,0,0,1,0-.64h1.5a.32.32,0,0,1,0,.64H19l1,3.08.59-2.16a.37.37,0,0,1,.13-.16.27.27,0,0,1,.18-.07h.32a.32.32,0,0,1,.18.07.25.25,0,0,1,.12.16L22.1,55,23,51.92h-.65a.32.32,0,0,1,0-.64h1.41a.32.32,0,0,1,0,.64Z"/><path d="M29.31,55.8h-.83a.34.34,0,0,1-.32-.32v-.24a2.57,2.57,0,0,1-1.77.62,1.94,1.94,0,0,1-1.14-.31,1.19,1.19,0,0,1-.5-1,1.44,1.44,0,0,1,.7-1.27A2.82,2.82,0,0,1,27,52.88a3.63,3.63,0,0,1,1.17.16V52.9q0-1-1.17-1a2.07,2.07,0,0,0-1.26.34.35.35,0,0,1-.19.06.27.27,0,0,1-.22-.1.3.3,0,0,1-.1-.23.28.28,0,0,1,.14-.25A2.69,2.69,0,0,1,27,51.24a1.92,1.92,0,0,1,1.33.43,1.58,1.58,0,0,1,.48,1.23v2.26h.51a.32.32,0,0,1,0,.64Zm-1.15-1.55v-.52A2.57,2.57,0,0,0,27,53.51a2.08,2.08,0,0,0-1.18.28.84.84,0,0,0-.42.74c0,.47.33.7,1,.7a2,2,0,0,0,1-.24A2.7,2.7,0,0,0,28.16,54.25Z"/><path d="M35.47,51.66a.33.33,0,0,1,.09.22.28.28,0,0,1-.1.22.29.29,0,0,1-.23.1.3.3,0,0,1-.22-.1.69.69,0,0,0-.43-.16,2,2,0,0,0-1.18.39,5.16,5.16,0,0,0-.93,1v1.86h1.75a.32.32,0,0,1,0,.64H30.84a.32.32,0,0,1,0-.64h1V51.92H31a.32.32,0,0,1,0-.64h1.12a.34.34,0,0,1,.23.1.31.31,0,0,1,.09.22v.71a2.85,2.85,0,0,1,2.11-1A1.18,1.18,0,0,1,35.47,51.66Z"/><path d="M41.3,53.43a.34.34,0,0,1-.32.32H37.25A1.51,1.51,0,0,0,39,55.24a4.1,4.1,0,0,0,1.92-.53.37.37,0,0,1,.16-.05.28.28,0,0,1,.22.11.29.29,0,0,1,.1.23.27.27,0,0,1-.17.26,4.66,4.66,0,0,1-2.23.61,2.35,2.35,0,0,1-1.76-.63,2.46,2.46,0,0,1-.62-1.81,2.1,2.1,0,0,1,.69-1.67,2.56,2.56,0,0,1,1.77-.59,2.14,2.14,0,0,1,1.66.69A2.25,2.25,0,0,1,41.3,53.43Zm-.76-.31a1.22,1.22,0,0,0-.4-.94,1.56,1.56,0,0,0-1.08-.37c-1.07,0-1.68.43-1.8,1.31Z"/><path d="M47.36,55.8H45.74a.32.32,0,0,1,0-.64h.48V52.82a1,1,0,0,0-.26-.67.83.83,0,0,0-.62-.29,1.46,1.46,0,0,0-1.07.44,1.43,1.43,0,0,0-.43,1v1.85h.45a.32.32,0,0,1,0,.64H42.76a.32.32,0,0,1,0-.64h.45V50h-.44a.28.28,0,0,1-.32-.31.29.29,0,0,1,.32-.32h.76a.33.33,0,0,1,.22.09.33.33,0,0,1,.09.23v2.11a2.08,2.08,0,0,1,1.5-.6,1.39,1.39,0,0,1,1.09.5,1.59,1.59,0,0,1,.42,1.09v2.34h.51a.32.32,0,0,1,0,.64Z"/><path d="M53.45,53.54a2.18,2.18,0,0,1-.72,1.65,2.55,2.55,0,0,1-3.47,0,2.26,2.26,0,0,1,0-3.31,2.55,2.55,0,0,1,3.47,0A2.18,2.18,0,0,1,53.45,53.54Zm-.64,0a1.59,1.59,0,0,0-.53-1.21,1.9,1.9,0,0,0-2.57,0,1.63,1.63,0,0,0,0,2.41,1.9,1.9,0,0,0,2.57,0A1.59,1.59,0,0,0,52.81,53.54Z"/><path d="M59.24,55.8h-.73a.34.34,0,0,1-.23-.1.31.31,0,0,1-.09-.22V55.3a2.34,2.34,0,0,1-1.56.5,1.4,1.4,0,0,1-1.57-1.59V51.92h-.44a.32.32,0,0,1,0-.64h.76a.3.3,0,0,1,.22.1.28.28,0,0,1,.1.22v2.61a1,1,0,0,0,.21.73,1,1,0,0,0,.72.22q1.56,0,1.56-1.41V51.92h-.8a.32.32,0,0,1,0-.64h1.12a.32.32,0,0,1,.22.1.31.31,0,0,1,.09.22v3.56h.42a.32.32,0,0,1,0,.64Z"/><path d="M65,54.44a1.33,1.33,0,0,1-.5,1.08,2,2,0,0,1-1.33.41,2.72,2.72,0,0,1-1.69-.46v.12a.28.28,0,0,1-.31.32.29.29,0,0,1-.32-.32V54.45q0-.36.3-.36c.16,0,.26.09.32.27.19.63.76.94,1.7.94a1.41,1.41,0,0,0,.93-.27.74.74,0,0,0,.27-.59.52.52,0,0,0-.23-.47,2.64,2.64,0,0,0-1.31-.22,3.26,3.26,0,0,1-1.36-.21,1,1,0,0,1-.56-1,1.15,1.15,0,0,1,.53-1,2.26,2.26,0,0,1,1.26-.32,2.29,2.29,0,0,1,1.47.47v-.13a.28.28,0,0,1,.32-.31.27.27,0,0,1,.31.31v1c0,.24-.09.36-.28.36a.38.38,0,0,1-.31-.2,1.64,1.64,0,0,0-1.51-.85c-.77,0-1.16.23-1.16.7a.47.47,0,0,0,.22.46,2.49,2.49,0,0,0,1.07.15C64.29,53.12,65,53.56,65,54.44Z"/><path d="M71.28,53.43a.34.34,0,0,1-.32.32H67.23A1.51,1.51,0,0,0,69,55.24a4.1,4.1,0,0,0,1.92-.53.37.37,0,0,1,.16-.05.28.28,0,0,1,.22.11.29.29,0,0,1,.1.23.27.27,0,0,1-.17.26,4.66,4.66,0,0,1-2.23.61,2.35,2.35,0,0,1-1.76-.63,2.46,2.46,0,0,1-.62-1.81,2.1,2.1,0,0,1,.69-1.67A2.57,2.57,0,0,1,69,51.17a2.14,2.14,0,0,1,1.66.69A2.25,2.25,0,0,1,71.28,53.43Zm-.76-.31a1.22,1.22,0,0,0-.4-.94A1.54,1.54,0,0,0,69,51.81c-1.07,0-1.68.43-1.8,1.31Z"/><path d="M77,54.44a1.33,1.33,0,0,1-.5,1.08,2,2,0,0,1-1.33.41,2.69,2.69,0,0,1-1.68-.46v.12a.32.32,0,1,1-.64,0V54.45q0-.36.3-.36a.32.32,0,0,1,.32.27c.2.63.76.94,1.7.94A1.39,1.39,0,0,0,76.1,55a.74.74,0,0,0,.27-.59.52.52,0,0,0-.23-.47,2.62,2.62,0,0,0-1.31-.22,3.26,3.26,0,0,1-1.36-.21,1.05,1.05,0,0,1-.56-1,1.17,1.17,0,0,1,.53-1,2.26,2.26,0,0,1,1.26-.32,2.29,2.29,0,0,1,1.47.47v-.13a.32.32,0,0,1,.64,0v1c0,.24-.1.36-.29.36a.35.35,0,0,1-.3-.2,1.67,1.67,0,0,0-1.52-.85c-.77,0-1.16.23-1.16.7a.47.47,0,0,0,.22.46,2.53,2.53,0,0,0,1.07.15C76.28,53.12,77,53.56,77,54.44Z"/><path d="M89.27,55.8h-.83a.34.34,0,0,1-.32-.32v-.24a2.57,2.57,0,0,1-1.77.62,1.94,1.94,0,0,1-1.14-.31,1.19,1.19,0,0,1-.5-1,1.43,1.43,0,0,1,.71-1.27A2.76,2.76,0,0,1,87,52.88a3.59,3.59,0,0,1,1.17.16V52.9q0-1-1.17-1a2.07,2.07,0,0,0-1.26.34.35.35,0,0,1-.19.06.27.27,0,0,1-.22-.1.3.3,0,0,1-.1-.23.3.3,0,0,1,.14-.25A2.69,2.69,0,0,1,87,51.24a1.92,1.92,0,0,1,1.33.43,1.58,1.58,0,0,1,.48,1.23v2.26h.51a.32.32,0,0,1,0,.64Zm-1.15-1.55v-.52A2.57,2.57,0,0,0,87,53.51a2.08,2.08,0,0,0-1.18.28.84.84,0,0,0-.42.74c0,.47.33.7,1,.7a2,2,0,0,0,1-.24A2.7,2.7,0,0,0,88.12,54.25Z"/><path d="M95.28,55.8H93.81a.32.32,0,1,1,0-.64h.41V52.73a.92.92,0,0,0-.25-.66.94.94,0,0,0-.69-.26,1.37,1.37,0,0,0-1.08.43,1.49,1.49,0,0,0-.38,1.07v1.85h.45a.32.32,0,0,1,0,.64H90.78a.32.32,0,1,1,0-.64h.41V51.92H90.8a.32.32,0,0,1,0-.64h.7a.34.34,0,0,1,.23.1.31.31,0,0,1,.09.22v.11a2,2,0,0,1,1.46-.53,1.51,1.51,0,0,1,1.14.46,1.49,1.49,0,0,1,.44,1.09v2.43h.42a.32.32,0,1,1,0,.64Z"/><path d="M101.43,55.8h-.75a.32.32,0,0,1-.22-.1.31.31,0,0,1-.09-.22v-.36a2.27,2.27,0,0,1-3.21,0,2.12,2.12,0,0,1-.67-1.58A2.08,2.08,0,0,1,97.16,52a2.27,2.27,0,0,1,3.21,0V50h-.68a.27.27,0,0,1-.31-.31.28.28,0,0,1,.31-.32h1a.31.31,0,0,1,.32.32v5.44h.43a.32.32,0,1,1,0,.64Zm-1.06-2.23a1.5,1.5,0,0,0-.48-1.12A1.55,1.55,0,0,0,98.75,52a1.59,1.59,0,0,0-1.15.47,1.57,1.57,0,0,0,0,2.24,1.55,1.55,0,0,0,1.15.47,1.52,1.52,0,0,0,1.14-.47A1.5,1.5,0,0,0,100.37,53.57Z"/><path d="M113,55.8h-3.91a.32.32,0,1,1,0-.64h1.55V50h-1.33c-.22,0-.32-.1-.32-.31a.28.28,0,0,1,.32-.32H111a.29.29,0,0,1,.22.09.3.3,0,0,1,.1.23v5.44H113a.32.32,0,1,1,0,.64Z"/><path d="M119.4,53.54a2.18,2.18,0,0,1-.72,1.65,2.54,2.54,0,0,1-3.46,0,2.26,2.26,0,0,1,0-3.31,2.54,2.54,0,0,1,3.46,0A2.18,2.18,0,0,1,119.4,53.54Zm-.63,0a1.63,1.63,0,0,0-.53-1.21,1.9,1.9,0,0,0-2.57,0,1.63,1.63,0,0,0,0,2.41,1.9,1.9,0,0,0,2.57,0A1.62,1.62,0,0,0,118.77,53.54Z"/><path d="M125,49.58a.28.28,0,0,1,.22.28.29.29,0,0,1-.33.33h-.1a6,6,0,0,0-1-.15c-.67,0-1,.31-1,.92v.33h1.85a.32.32,0,1,1,0,.64H122.8v3.24h1.78a.32.32,0,0,1,0,.64h-3.44a.32.32,0,1,1,0-.64h1V51.92h-1a.32.32,0,1,1,0-.64h1V51c0-1,.55-1.55,1.65-1.55A3.69,3.69,0,0,1,125,49.58Z"/><path d="M131.29,55.24a3.7,3.7,0,0,1-.59.31,3.57,3.57,0,0,1-1.42.31c-1.09,0-1.64-.57-1.64-1.71V51.92h-1a.32.32,0,0,1,0-.64h1V50.12a.32.32,0,1,1,.64,0v1.16h2.17a.32.32,0,1,1,0,.64h-2.17v2.23a1.24,1.24,0,0,0,.2.83,1,1,0,0,0,.8.24,2.92,2.92,0,0,0,1.66-.5.32.32,0,0,1,.18-.06.29.29,0,0,1,.23.1.33.33,0,0,1,.09.23A.29.29,0,0,1,131.29,55.24Z"/><path d="M137,54.44a1.3,1.3,0,0,1-.5,1.08,2,2,0,0,1-1.33.41,2.69,2.69,0,0,1-1.68-.46v.12a.32.32,0,0,1-.64,0V54.45c0-.24.1-.36.31-.36a.32.32,0,0,1,.31.27c.2.63.76.94,1.7.94a1.39,1.39,0,0,0,.93-.27.74.74,0,0,0,.27-.59.52.52,0,0,0-.23-.47,2.62,2.62,0,0,0-1.31-.22,3.29,3.29,0,0,1-1.36-.21,1.05,1.05,0,0,1-.56-1,1.17,1.17,0,0,1,.53-1,2.58,2.58,0,0,1,2.73.15v-.13a.32.32,0,0,1,.64,0v1c0,.24-.1.36-.29.36a.35.35,0,0,1-.3-.2,1.67,1.67,0,0,0-1.52-.85c-.77,0-1.15.23-1.15.7a.46.46,0,0,0,.22.46,2.44,2.44,0,0,0,1.06.15C136.24,53.12,137,53.56,137,54.44Z"/><path d="M141.89,55a.78.78,0,0,1-.28.61,1,1,0,0,1-.68.26,1,1,0,0,1-.68-.26.82.82,0,0,1,0-1.23,1,1,0,0,1,.68-.26,1,1,0,0,1,.68.26A.79.79,0,0,1,141.89,55Z"/><path d="M155.38,50.63h-1V54a1.9,1.9,0,0,1-.51,1.38,2,2,0,0,1-1.47.53,2.65,2.65,0,0,1-1-.2,1.84,1.84,0,0,1-.84-.61.33.33,0,0,1-.06-.19V53.63a.28.28,0,0,1,.32-.32.28.28,0,0,1,.31.32v1.2a1.71,1.71,0,0,0,1.29.49c.89,0,1.34-.43,1.34-1.28V50.63h-1.68c-.22,0-.32-.1-.32-.31a.28.28,0,0,1,.32-.32h3.32a.28.28,0,0,1,.31.32A.27.27,0,0,1,155.38,50.63Z"/><path d="M161.17,55.8h-.73a.3.3,0,0,1-.22-.1.28.28,0,0,1-.1-.22V55.3a2.34,2.34,0,0,1-1.56.5A1.39,1.39,0,0,1,157,54.21V51.92h-.44a.32.32,0,0,1,0-.64h.75a.34.34,0,0,1,.23.1.31.31,0,0,1,.09.22v2.61a1,1,0,0,0,.22.73.94.94,0,0,0,.71.22q1.56,0,1.56-1.41V51.92h-.8a.32.32,0,0,1,0-.64h1.12a.32.32,0,0,1,.22.1.28.28,0,0,1,.1.22v3.56h.41a.32.32,0,1,1,0,.64Z"/><path d="M166.94,54.44a1.3,1.3,0,0,1-.5,1.08,2,2,0,0,1-1.33.41,2.69,2.69,0,0,1-1.68-.46v.12a.32.32,0,1,1-.64,0V54.45c0-.24.1-.36.31-.36a.32.32,0,0,1,.31.27c.2.63.76.94,1.7.94A1.39,1.39,0,0,0,166,55a.74.74,0,0,0,.27-.59.52.52,0,0,0-.23-.47,2.6,2.6,0,0,0-1.3-.22,3.31,3.31,0,0,1-1.37-.21,1.05,1.05,0,0,1-.56-1,1.17,1.17,0,0,1,.53-1,2.58,2.58,0,0,1,2.73.15v-.13a.32.32,0,0,1,.64,0v1c0,.24-.1.36-.29.36a.35.35,0,0,1-.3-.2,1.66,1.66,0,0,0-1.52-.85c-.77,0-1.15.23-1.15.7a.46.46,0,0,0,.22.46,2.46,2.46,0,0,0,1.07.15Q166.94,53.12,166.94,54.44Z"/><path d="M173.27,55.24a4.64,4.64,0,0,1-.6.31,3.54,3.54,0,0,1-1.42.31c-1.09,0-1.64-.57-1.64-1.71V51.92h-1a.32.32,0,0,1,0-.64h1V50.12a.32.32,0,1,1,.64,0v1.16h2.18a.32.32,0,0,1,0,.64h-2.18v2.23a1.31,1.31,0,0,0,.2.83,1,1,0,0,0,.8.24,3,3,0,0,0,1.67-.5.28.28,0,0,1,.18-.06.28.28,0,0,1,.22.1.33.33,0,0,1,.09.23A.3.3,0,0,1,173.27,55.24Z"/><path d="M185.21,55.8h-.83a.32.32,0,0,1-.22-.1.28.28,0,0,1-.1-.22v-.24a2.59,2.59,0,0,1-1.77.62,1.94,1.94,0,0,1-1.14-.31,1.19,1.19,0,0,1-.5-1,1.42,1.42,0,0,1,.7-1.27,2.82,2.82,0,0,1,1.54-.38,3.63,3.63,0,0,1,1.17.16V52.9q0-1-1.17-1a2.07,2.07,0,0,0-1.26.34.38.38,0,0,1-.19.06.3.3,0,0,1-.23-.1.33.33,0,0,1-.09-.23.29.29,0,0,1,.13-.25,2.74,2.74,0,0,1,1.64-.46,1.92,1.92,0,0,1,1.33.43,1.58,1.58,0,0,1,.48,1.23v2.26h.51a.32.32,0,0,1,0,.64Zm-1.15-1.55v-.52a2.6,2.6,0,0,0-1.17-.22,2.08,2.08,0,0,0-1.18.28.83.83,0,0,0-.43.74c0,.47.34.7,1,.7a2,2,0,0,0,1-.24A2.7,2.7,0,0,0,184.06,54.25Z"/><path d="M191.22,55.8h-1.47a.32.32,0,0,1,0-.64h.41V52.73a.92.92,0,0,0-.25-.66,1,1,0,0,0-.69-.26,1.41,1.41,0,0,0-1.09.43,1.48,1.48,0,0,0-.37,1.07v1.85h.45a.32.32,0,1,1,0,.64h-1.5a.32.32,0,0,1,0-.64h.41V51.92h-.38a.32.32,0,0,1,0-.64h.7a.3.3,0,0,1,.22.1.28.28,0,0,1,.1.22v.11a2,2,0,0,1,1.46-.53,1.51,1.51,0,0,1,1.14.46,1.49,1.49,0,0,1,.44,1.09v2.43h.42a.32.32,0,1,1,0,.64Z"/><path d="M203.19,55.8h-.82a.3.3,0,0,1-.22-.1.28.28,0,0,1-.1-.22v-.24a2.59,2.59,0,0,1-1.78.62,1.91,1.91,0,0,1-1.13-.31,1.19,1.19,0,0,1-.5-1,1.42,1.42,0,0,1,.7-1.27,2.8,2.8,0,0,1,1.53-.38,3.66,3.66,0,0,1,1.18.16V52.9c0-.68-.39-1-1.18-1a2.11,2.11,0,0,0-1.26.34.33.33,0,0,1-.19.06.28.28,0,0,1-.22-.1.33.33,0,0,1-.09-.23.29.29,0,0,1,.13-.25,2.71,2.71,0,0,1,1.63-.46,1.9,1.9,0,0,1,1.33.43,1.55,1.55,0,0,1,.49,1.23v2.26h.5a.32.32,0,0,1,0,.64Zm-1.14-1.55v-.52a2.64,2.64,0,0,0-1.18-.22,2.12,2.12,0,0,0-1.18.28.84.84,0,0,0-.42.74c0,.47.34.7,1,.7a2,2,0,0,0,1-.24A2.86,2.86,0,0,0,202.05,54.25Z"/><path d="M209.39,51.92H209l-1.66,3.77s-.05.08-.12.13a.35.35,0,0,1-.17.06h-.48a.35.35,0,0,1-.17-.06.39.39,0,0,1-.13-.13l-1.61-3.77h-.29a.32.32,0,0,1,0-.64H206a.32.32,0,0,1,0,.64h-.64l1.42,3.33h.07l1.46-3.33h-.75a.32.32,0,0,1,0-.64h1.8a.32.32,0,1,1,0,.64Z"/><path d="M215.19,53.43a.3.3,0,0,1-.1.22.28.28,0,0,1-.22.1h-3.74a1.53,1.53,0,0,0,1.74,1.49,4.1,4.1,0,0,0,1.92-.53.33.33,0,0,1,.16-.05.28.28,0,0,1,.22.11.32.32,0,0,1,.09.23.26.26,0,0,1-.17.26,4.65,4.65,0,0,1-2.22.61,2.38,2.38,0,0,1-1.77-.63,2.5,2.5,0,0,1-.62-1.81,2.1,2.1,0,0,1,.69-1.67,2.58,2.58,0,0,1,1.78-.59,2.13,2.13,0,0,1,1.65.69A2.22,2.22,0,0,1,215.19,53.43Zm-.76-.31a1.22,1.22,0,0,0-.4-.94,1.56,1.56,0,0,0-1.08-.37c-1.08,0-1.68.43-1.81,1.31Z"/><path d="M221.35,51.66a.33.33,0,0,1,.09.22.28.28,0,0,1-.1.22.29.29,0,0,1-.23.1.28.28,0,0,1-.22-.1.69.69,0,0,0-.43-.16,2,2,0,0,0-1.18.39,5.16,5.16,0,0,0-.93,1v1.86h1.75a.32.32,0,0,1,0,.64h-3.38a.32.32,0,1,1,0-.64h1V51.92h-.8a.32.32,0,1,1,0-.64H218a.3.3,0,0,1,.22.1.28.28,0,0,1,.1.22v.71a2.83,2.83,0,0,1,2.11-1A1.18,1.18,0,0,1,221.35,51.66Z"/><path d="M227.18,55.8h-.83a.32.32,0,0,1-.22-.1.31.31,0,0,1-.09-.22v-.24a2.61,2.61,0,0,1-1.78.62,1.94,1.94,0,0,1-1.14-.31,1.19,1.19,0,0,1-.5-1,1.43,1.43,0,0,1,.71-1.27,2.76,2.76,0,0,1,1.53-.38A3.7,3.7,0,0,1,226,53V52.9c0-.68-.4-1-1.18-1a2.09,2.09,0,0,0-1.26.34.35.35,0,0,1-.19.06.27.27,0,0,1-.22-.1.3.3,0,0,1-.1-.23.3.3,0,0,1,.14-.25,2.69,2.69,0,0,1,1.63-.46,1.92,1.92,0,0,1,1.33.43,1.58,1.58,0,0,1,.48,1.23v2.26h.51a.32.32,0,0,1,0,.64ZM226,54.25v-.52a2.64,2.64,0,0,0-1.18-.22,2.08,2.08,0,0,0-1.18.28.84.84,0,0,0-.42.74c0,.47.33.7,1,.7a2,2,0,0,0,1-.24A2.86,2.86,0,0,0,226,54.25Z"/><path d="M233.25,51.92h-.43v3.71a1.84,1.84,0,0,1-2.11,2,5.76,5.76,0,0,1-.85-.1.27.27,0,0,1-.27-.29.34.34,0,0,1,.11-.25A.32.32,0,0,1,230,57a4.42,4.42,0,0,0,.74.1,1.53,1.53,0,0,0,1.12-.35,1.39,1.39,0,0,0,.35-1.07v-.71a2.12,2.12,0,0,1-3.6-1.52,2.12,2.12,0,0,1,2.12-2.12,2,2,0,0,1,1.48.61V51.6a.28.28,0,0,1,.1-.22.32.32,0,0,1,.22-.1h.75a.32.32,0,0,1,0,.64Zm-1.07,1.48a1.49,1.49,0,1,0-.43,1.05A1.43,1.43,0,0,0,232.18,53.4Z"/><path d="M239.17,53.43a.29.29,0,0,1-.09.22.3.3,0,0,1-.23.1h-3.73a1.51,1.51,0,0,0,1.73,1.49,4.1,4.1,0,0,0,1.92-.53.37.37,0,0,1,.17-.05.31.31,0,0,1,.22.11.32.32,0,0,1,.09.23.27.27,0,0,1-.17.26,4.66,4.66,0,0,1-2.23.61,2.35,2.35,0,0,1-1.76-.63,2.46,2.46,0,0,1-.62-1.81,2.1,2.1,0,0,1,.69-1.67,2.57,2.57,0,0,1,1.77-.59,2.14,2.14,0,0,1,1.66.69A2.21,2.21,0,0,1,239.17,53.43Zm-.76-.31a1.22,1.22,0,0,0-.4-.94,1.52,1.52,0,0,0-1.08-.37c-1.07,0-1.68.43-1.8,1.31Z"/><path d="M251.18,55.8h-1.47a.32.32,0,0,1,0-.64h.41V52.73a.92.92,0,0,0-.25-.66,1,1,0,0,0-.69-.26,1.37,1.37,0,0,0-1.08.43,1.45,1.45,0,0,0-.38,1.07v1.85h.45a.32.32,0,1,1,0,.64h-1.5a.32.32,0,0,1,0-.64h.41V51.92h-.38a.32.32,0,1,1,0-.64h.7a.3.3,0,0,1,.22.1.28.28,0,0,1,.1.22v.11a2,2,0,0,1,1.46-.53,1.51,1.51,0,0,1,1.14.46,1.49,1.49,0,0,1,.44,1.09v2.43h.42a.32.32,0,0,1,0,.64Z"/><path d="M257,55.8h-4.05a.32.32,0,0,1,0-.64h1.68V51.92H253.5a.32.32,0,1,1,0-.64h1.44a.34.34,0,0,1,.22.1.31.31,0,0,1,.09.22v3.56H257a.32.32,0,0,1,0,.64Zm-1.74-5.63a.27.27,0,0,1-.31.31.28.28,0,0,1-.32-.31v-.82a.29.29,0,0,1,.32-.32.28.28,0,0,1,.31.32Z"/><path d="M263.23,51.92h-.43v3.71a1.84,1.84,0,0,1-2.11,2,5.76,5.76,0,0,1-.85-.1.27.27,0,0,1-.26-.29.33.33,0,0,1,.1-.25A.32.32,0,0,1,260,57a4.42,4.42,0,0,0,.74.1,1.53,1.53,0,0,0,1.12-.35,1.39,1.39,0,0,0,.35-1.07v-.71a2.12,2.12,0,0,1-3.6-1.52,2.12,2.12,0,0,1,2.12-2.12,2,2,0,0,1,1.48.61V51.6a.28.28,0,0,1,.1-.22.32.32,0,0,1,.22-.1h.75a.32.32,0,0,1,0,.64Zm-1.07,1.48a1.49,1.49,0,1,0-.43,1.05A1.43,1.43,0,0,0,262.16,53.4Z"/><path d="M269.22,55.8H267.6a.32.32,0,1,1,0-.64h.47V52.82a.93.93,0,0,0-.26-.67.81.81,0,0,0-.62-.29,1.44,1.44,0,0,0-1.06.44,1.39,1.39,0,0,0-.43,1v1.85h.45a.32.32,0,0,1,0,.64h-1.54a.32.32,0,0,1,0-.64h.45V50h-.44a.27.27,0,0,1-.31-.31.28.28,0,0,1,.31-.32h.76a.29.29,0,0,1,.22.09.3.3,0,0,1,.1.23v2.11a2.06,2.06,0,0,1,1.49-.6,1.39,1.39,0,0,1,1.1.5,1.59,1.59,0,0,1,.42,1.09v2.34h.51a.32.32,0,0,1,0,.64Z"/><path d="M275.2,55.24a4.08,4.08,0,0,1-2,.62c-1.1,0-1.64-.57-1.64-1.71V51.92h-1a.32.32,0,1,1,0-.64h1V50.12a.28.28,0,0,1,.32-.32.28.28,0,0,1,.31.32v1.16h2.18a.32.32,0,0,1,0,.64h-2.18v2.23a1.31,1.31,0,0,0,.2.83,1.07,1.07,0,0,0,.81.24,2.94,2.94,0,0,0,1.66-.5.32.32,0,0,1,.18-.06.27.27,0,0,1,.22.1.3.3,0,0,1,.1.23A.29.29,0,0,1,275.2,55.24Z"/><path d="M287,55.8h-4.05a.32.32,0,0,1,0-.64h1.68V51.92h-1.12a.32.32,0,1,1,0-.64h1.44a.32.32,0,0,1,.22.1.31.31,0,0,1,.09.22v3.56H287a.32.32,0,0,1,0,.64Zm-1.74-5.63a.27.27,0,0,1-.31.31.28.28,0,0,1-.32-.31v-.82a.29.29,0,0,1,.32-.32.28.28,0,0,1,.31.32Z"/><path d="M293.15,55.8h-1.47a.32.32,0,1,1,0-.64h.41V52.73a.92.92,0,0,0-.25-.66.94.94,0,0,0-.69-.26,1.37,1.37,0,0,0-1.08.43,1.49,1.49,0,0,0-.38,1.07v1.85h.45a.32.32,0,0,1,0,.64h-1.49a.32.32,0,1,1,0-.64h.41V51.92h-.39a.32.32,0,1,1,0-.64h.71a.34.34,0,0,1,.22.1.31.31,0,0,1,.09.22v.11a2,2,0,0,1,1.46-.53,1.54,1.54,0,0,1,1.58,1.55v2.43h.42a.32.32,0,0,1,0,.64Z"/><path d="M305.18,55.24a4.08,4.08,0,0,1-2,.62c-1.09,0-1.64-.57-1.64-1.71V51.92h-1a.32.32,0,1,1,0-.64h1V50.12a.28.28,0,0,1,.32-.32.28.28,0,0,1,.31.32v1.16h2.18a.32.32,0,0,1,0,.64h-2.18v2.23a1.31,1.31,0,0,0,.2.83,1.07,1.07,0,0,0,.81.24,2.94,2.94,0,0,0,1.66-.5.32.32,0,0,1,.18-.06.27.27,0,0,1,.22.1.3.3,0,0,1,.1.23A.29.29,0,0,1,305.18,55.24Z"/><path d="M311.19,55.8h-1.62a.32.32,0,1,1,0-.64H310V52.82a1,1,0,0,0-.25-.67.83.83,0,0,0-.62-.29,1.46,1.46,0,0,0-1.07.44,1.43,1.43,0,0,0-.43,1v1.85h.45a.32.32,0,0,1,0,.64h-1.53a.32.32,0,1,1,0-.64H307V50h-.44a.28.28,0,0,1-.32-.31.29.29,0,0,1,.32-.32h.75a.31.31,0,0,1,.32.32v2.11a2.07,2.07,0,0,1,1.5-.6,1.39,1.39,0,0,1,1.09.5,1.59,1.59,0,0,1,.42,1.09v2.34h.51a.32.32,0,0,1,0,.64Z"/><path d="M317.12,53.43a.34.34,0,0,1-.32.32h-3.73a1.51,1.51,0,0,0,1.73,1.49,4.1,4.1,0,0,0,1.92-.53.37.37,0,0,1,.16-.05.28.28,0,0,1,.22.11.29.29,0,0,1,.1.23.27.27,0,0,1-.17.26,4.66,4.66,0,0,1-2.23.61,2.35,2.35,0,0,1-1.76-.63,2.46,2.46,0,0,1-.62-1.81,2.1,2.1,0,0,1,.69-1.67,2.56,2.56,0,0,1,1.77-.59,2.14,2.14,0,0,1,1.66.69A2.25,2.25,0,0,1,317.12,53.43Zm-.76-.31a1.22,1.22,0,0,0-.4-.94,1.54,1.54,0,0,0-1.08-.37c-1.07,0-1.68.43-1.8,1.31Z"/><path d="M5.85,65.8H5.2a.34.34,0,0,1-.32-.32V62.65a1.76,1.76,0,0,0-.06-.55.39.39,0,0,0-.4-.29c-.65,0-1,.38-1,1.15v2.2h.34a.32.32,0,1,1,0,.64H3.13a.34.34,0,0,1-.22-.1.31.31,0,0,1-.09-.22V62.61c0-.53-.17-.8-.5-.8-.63,0-.94.39-.94,1.16v2.19H1.8a.32.32,0,0,1,0,.64H.34a.32.32,0,0,1,0-.64h.4V61.92H.32a.32.32,0,0,1,0-.64h.74a.29.29,0,0,1,.28.18,1.6,1.6,0,0,1,1-.28,1,1,0,0,1,.91.5,1.51,1.51,0,0,1,1.19-.5c.73,0,1.1.49,1.1,1.47v2.51h.33a.32.32,0,1,1,0,.64Z"/><path d="M11.47,63.54a2.18,2.18,0,0,1-.72,1.65A2.39,2.39,0,0,1,9,65.87a2.41,2.41,0,0,1-1.73-.68,2.26,2.26,0,0,1,0-3.31A2.41,2.41,0,0,1,9,61.2a2.39,2.39,0,0,1,1.73.68A2.18,2.18,0,0,1,11.47,63.54Zm-.63,0a1.63,1.63,0,0,0-.53-1.21,1.9,1.9,0,0,0-2.57,0,1.63,1.63,0,0,0,0,2.41,1.9,1.9,0,0,0,2.57,0A1.62,1.62,0,0,0,10.84,63.54Z"/><path d="M17,64.44a1.33,1.33,0,0,1-.5,1.08,2,2,0,0,1-1.33.41,2.69,2.69,0,0,1-1.68-.46v.12a.32.32,0,0,1-.64,0V64.45q0-.36.3-.36a.32.32,0,0,1,.32.27c.2.63.76.94,1.7.94a1.39,1.39,0,0,0,.93-.27.74.74,0,0,0,.27-.59.52.52,0,0,0-.23-.47,2.64,2.64,0,0,0-1.31-.22,3.26,3.26,0,0,1-1.36-.21,1.05,1.05,0,0,1-.56-1,1.17,1.17,0,0,1,.53-1,2.26,2.26,0,0,1,1.26-.32,2.29,2.29,0,0,1,1.47.47v-.13a.32.32,0,0,1,.64,0v1c0,.24-.1.36-.29.36a.38.38,0,0,1-.31-.2,1.64,1.64,0,0,0-1.51-.85c-.77,0-1.16.23-1.16.7a.47.47,0,0,0,.22.46,2.53,2.53,0,0,0,1.07.15C16.32,63.12,17,63.56,17,64.44Z"/><path d="M23.36,65.24a3.7,3.7,0,0,1-.59.31,3.57,3.57,0,0,1-1.42.31c-1.09,0-1.64-.57-1.64-1.71V61.92h-1a.32.32,0,0,1,0-.64h1V60.12a.32.32,0,1,1,.64,0v1.16h2.17a.32.32,0,0,1,0,.64H20.35v2.23a1.24,1.24,0,0,0,.2.83,1,1,0,0,0,.8.24,2.92,2.92,0,0,0,1.66-.5.32.32,0,0,1,.18-.06.29.29,0,0,1,.23.1.33.33,0,0,1,.09.23A.29.29,0,0,1,23.36,65.24Z"/><path d="M35.3,63.43a.29.29,0,0,1-.09.22.3.3,0,0,1-.22.1H31.25A1.51,1.51,0,0,0,33,65.24a4.17,4.17,0,0,0,1.93-.53.33.33,0,0,1,.16,0,.29.29,0,0,1,.22.11.32.32,0,0,1,.09.23.27.27,0,0,1-.17.26,4.66,4.66,0,0,1-2.23.61,2.35,2.35,0,0,1-1.76-.63,2.5,2.5,0,0,1-.62-1.81,2.1,2.1,0,0,1,.69-1.67,2.58,2.58,0,0,1,1.78-.59,2.13,2.13,0,0,1,1.65.69A2.21,2.21,0,0,1,35.3,63.43Zm-.75-.31a1.25,1.25,0,0,0-.4-.94,1.56,1.56,0,0,0-1.08-.37c-1.08,0-1.68.43-1.81,1.31Z"/><path d="M41.38,65.16a.28.28,0,0,1,.31.32.29.29,0,0,1-.32.32H39.9a.32.32,0,1,1,0-.64h.56l-1.34-1.27L37.9,65.16h.36a.32.32,0,0,1,0,.64H36.71a.32.32,0,1,1,0-.64H37l1.64-1.71-1.6-1.53h-.24a.32.32,0,0,1,0-.64h1.46a.32.32,0,0,1,0,.64H38L39.1,63l1-1.07h-.34a.32.32,0,0,1,0-.64h1.48a.32.32,0,0,1,0,.64H41l-1.45,1.51Z"/><path d="M47.14,62.8c0,.22-.1.33-.31.33s-.32-.11-.32-.33a.76.76,0,0,0-.42-.61A1.89,1.89,0,0,0,45,61.88a1.78,1.78,0,0,0-1.32.48,1.63,1.63,0,0,0-.46,1.18,1.67,1.67,0,0,0,.49,1.23,1.79,1.79,0,0,0,1.29.47,2.29,2.29,0,0,0,1.63-.69.28.28,0,0,1,.22-.1.32.32,0,0,1,.22.1.3.3,0,0,1,.1.23.32.32,0,0,1-.1.22,2.89,2.89,0,0,1-2.07.87,2.37,2.37,0,0,1-1.73-.65,2.41,2.41,0,0,1,0-3.31A2.42,2.42,0,0,1,45,61.25a2.61,2.61,0,0,1,1.53.45v-.14c0-.21.1-.31.32-.31a.27.27,0,0,1,.31.31Z"/><path d="M53.12,65.8h-4a.32.32,0,1,1,0-.64h1.67V61.92H49.63a.32.32,0,0,1,0-.64h1.44a.34.34,0,0,1,.32.32v3.56h1.73a.32.32,0,1,1,0,.64Zm-1.73-5.63a.32.32,0,0,1-.64,0v-.82a.32.32,0,0,1,.64,0Z"/><path d="M59.34,65.24a3.7,3.7,0,0,1-.59.31,3.57,3.57,0,0,1-1.42.31c-1.09,0-1.64-.57-1.64-1.71V61.92h-1a.32.32,0,0,1,0-.64h1V60.12A.28.28,0,0,1,56,59.8a.28.28,0,0,1,.31.32v1.16H58.5a.32.32,0,0,1,0,.64H56.32v2.23a1.31,1.31,0,0,0,.2.83,1.07,1.07,0,0,0,.81.24,2.94,2.94,0,0,0,1.66-.5.32.32,0,0,1,.18-.06.27.27,0,0,1,.22.1.3.3,0,0,1,.1.23A.29.29,0,0,1,59.34,65.24Z"/><path d="M65.11,65.8h-4a.32.32,0,1,1,0-.64h1.67V61.92H61.62a.32.32,0,0,1,0-.64h1.44a.3.3,0,0,1,.22.1.28.28,0,0,1,.1.22v3.56h1.73a.32.32,0,1,1,0,.64Zm-1.73-5.63a.32.32,0,0,1-.64,0v-.82a.32.32,0,1,1,.64,0Z"/><path d="M71.3,65.8H69.82a.32.32,0,0,1,0-.64h.42V62.73a.89.89,0,0,0-.94-.92,1.38,1.38,0,0,0-1.09.43,1.48,1.48,0,0,0-.37,1.07v1.85h.45a.32.32,0,0,1,0,.64h-1.5a.32.32,0,1,1,0-.64h.41V61.92h-.38a.32.32,0,0,1,0-.64h.7a.32.32,0,0,1,.22.1.28.28,0,0,1,.1.22v.11a2,2,0,0,1,1.46-.53,1.51,1.51,0,0,1,1.14.46,1.49,1.49,0,0,1,.43,1.09v2.43h.43a.32.32,0,1,1,0,.64Z"/><path d="M77.35,61.92h-.43v3.71a1.84,1.84,0,0,1-2.11,2.05,5.76,5.76,0,0,1-.85-.1.27.27,0,0,1-.26-.29.33.33,0,0,1,.1-.25.32.32,0,0,1,.27-.09,4.42,4.42,0,0,0,.74.1,1.53,1.53,0,0,0,1.12-.35,1.39,1.39,0,0,0,.35-1.07v-.71a2,2,0,0,1-1.48.6,2.12,2.12,0,0,1-2.11-2.12,2.11,2.11,0,0,1,3.59-1.51V61.6a.34.34,0,0,1,.32-.32h.75a.32.32,0,0,1,0,.64ZM76.28,63.4a1.48,1.48,0,0,0-2.53-1,1.5,1.5,0,0,0,0,2.1,1.48,1.48,0,0,0,2.53-1.05Z"/><path d="M89.12,62.8a.32.32,0,1,1-.64,0,.77.77,0,0,0-.41-.61A1.94,1.94,0,0,0,87,61.88a1.82,1.82,0,0,0-1.32.48,1.62,1.62,0,0,0-.45,1.18,1.67,1.67,0,0,0,.48,1.23,1.81,1.81,0,0,0,1.29.47,2.29,2.29,0,0,0,1.63-.69.28.28,0,0,1,.22-.1.32.32,0,0,1,.22.1.3.3,0,0,1,.1.23A.28.28,0,0,1,89,65a2.89,2.89,0,0,1-2.07.87,2.37,2.37,0,0,1-1.73-.65,2.25,2.25,0,0,1-.68-1.68,2.22,2.22,0,0,1,.65-1.63A2.38,2.38,0,0,1,87,61.25a2.61,2.61,0,0,1,1.53.45v-.14a.32.32,0,0,1,.64,0Z"/><path d="M95.09,65.8h-4a.32.32,0,1,1,0-.64h1.67V61.92H91.6a.32.32,0,0,1,0-.64H93a.3.3,0,0,1,.22.1.28.28,0,0,1,.1.22v3.56h1.73a.32.32,0,1,1,0,.64Zm-1.73-5.63a.32.32,0,0,1-.64,0v-.82a.32.32,0,0,1,.64,0Z"/><path d="M101.31,65.24a3.7,3.7,0,0,1-.59.31,3.57,3.57,0,0,1-1.42.31c-1.09,0-1.64-.57-1.64-1.71V61.92h-1a.32.32,0,1,1,0-.64h1V60.12a.32.32,0,0,1,.64,0v1.16h2.17a.32.32,0,0,1,0,.64H98.3v2.23a1.24,1.24,0,0,0,.2.83,1,1,0,0,0,.8.24,2.92,2.92,0,0,0,1.66-.5.32.32,0,0,1,.18-.06.29.29,0,0,1,.23.1.33.33,0,0,1,.09.23A.29.29,0,0,1,101.31,65.24Z"/><path d="M107.33,61.92h-.18l-2.61,5.18h.52a.32.32,0,1,1,0,.64h-2.38a.32.32,0,1,1,0-.64h1.14l.83-1.63-1.79-3.55h-.32a.32.32,0,0,1,0-.64h1.61a.32.32,0,1,1,0,.64h-.58L105,64.77l1.44-2.85h-.55a.32.32,0,0,1,0-.64h1.44a.32.32,0,0,1,0,.64Z"/><path d="M119.08,65.8h-4a.32.32,0,0,1,0-.64h1.68V61.92h-1.12a.32.32,0,1,1,0-.64H117a.34.34,0,0,1,.22.1.31.31,0,0,1,.09.22v3.56h1.74a.32.32,0,0,1,0,.64Zm-1.74-5.63a.27.27,0,0,1-.31.31.28.28,0,0,1-.32-.31v-.82A.29.29,0,0,1,117,59a.28.28,0,0,1,.31.32Z"/><path d="M125.26,65.8h-1.47a.32.32,0,1,1,0-.64h.41V62.73a.92.92,0,0,0-.25-.66.94.94,0,0,0-.69-.26,1.37,1.37,0,0,0-1.08.43,1.49,1.49,0,0,0-.38,1.07v1.85h.45a.32.32,0,1,1,0,.64h-1.49a.32.32,0,1,1,0-.64h.41V61.92h-.39a.32.32,0,1,1,0-.64h.7a.34.34,0,0,1,.23.1.31.31,0,0,1,.09.22v.11a2,2,0,0,1,1.46-.53,1.51,1.51,0,0,1,1.14.46,1.49,1.49,0,0,1,.44,1.09v2.43h.42a.32.32,0,1,1,0,.64Z"/><path d="M137.29,65.24a4.08,4.08,0,0,1-2,.62c-1.1,0-1.64-.57-1.64-1.71V61.92h-1a.32.32,0,0,1,0-.64h1V60.12a.28.28,0,0,1,.32-.32.28.28,0,0,1,.31.32v1.16h2.18a.32.32,0,1,1,0,.64h-2.18v2.23a1.31,1.31,0,0,0,.2.83,1.07,1.07,0,0,0,.81.24,2.94,2.94,0,0,0,1.66-.5.32.32,0,0,1,.18-.06.27.27,0,0,1,.22.1.3.3,0,0,1,.1.23A.29.29,0,0,1,137.29,65.24Z"/><path d="M143.3,65.8h-1.62a.32.32,0,1,1,0-.64h.47V62.82a.93.93,0,0,0-.26-.67.81.81,0,0,0-.62-.29,1.44,1.44,0,0,0-1.06.44,1.39,1.39,0,0,0-.43,1v1.85h.45a.32.32,0,0,1,0,.64H138.7a.32.32,0,1,1,0-.64h.45V60h-.44a.28.28,0,0,1-.32-.31.29.29,0,0,1,.32-.32h.75a.29.29,0,0,1,.22.09.3.3,0,0,1,.1.23v2.11a2.06,2.06,0,0,1,1.49-.6,1.39,1.39,0,0,1,1.1.5,1.59,1.59,0,0,1,.42,1.09v2.34h.51a.32.32,0,1,1,0,.64Z"/><path d="M149.23,63.43a.34.34,0,0,1-.32.32h-3.73a1.51,1.51,0,0,0,1.73,1.49,4.1,4.1,0,0,0,1.92-.53.37.37,0,0,1,.16,0,.28.28,0,0,1,.22.11.29.29,0,0,1,.1.23.27.27,0,0,1-.17.26,4.66,4.66,0,0,1-2.23.61,2.35,2.35,0,0,1-1.76-.63,2.46,2.46,0,0,1-.62-1.81,2.13,2.13,0,0,1,.68-1.67,2.6,2.6,0,0,1,1.78-.59,2.14,2.14,0,0,1,1.66.69A2.25,2.25,0,0,1,149.23,63.43Zm-.76-.31a1.22,1.22,0,0,0-.4-.94,1.56,1.56,0,0,0-1.08-.37c-1.07,0-1.68.43-1.8,1.31Z"/><path d="M161.64,61.92h-.1l-1.06,3.73a.25.25,0,0,1-.12.16.32.32,0,0,1-.18.07h-.34a.32.32,0,0,1-.18-.07.25.25,0,0,1-.12-.16l-.63-2.12-.58,2.12a.37.37,0,0,1-.13.16.32.32,0,0,1-.18.07h-.33a.37.37,0,0,1-.3-.22l-1.15-3.74h-.1a.32.32,0,0,1,0-.64h1.5a.32.32,0,1,1,0,.64h-.74l.95,3.08.59-2.16a.37.37,0,0,1,.13-.16.27.27,0,0,1,.18-.07h.32a.32.32,0,0,1,.18.07.25.25,0,0,1,.12.16L160,65l.87-3.08h-.65a.32.32,0,0,1,0-.64h1.41a.32.32,0,0,1,0,.64Z"/><path d="M167.37,63.54a2.18,2.18,0,0,1-.72,1.65,2.54,2.54,0,0,1-3.46,0,2.26,2.26,0,0,1,0-3.31,2.54,2.54,0,0,1,3.46,0A2.18,2.18,0,0,1,167.37,63.54Zm-.63,0a1.63,1.63,0,0,0-.53-1.21,1.9,1.9,0,0,0-2.57,0,1.63,1.63,0,0,0,0,2.41,1.9,1.9,0,0,0,2.57,0A1.62,1.62,0,0,0,166.74,63.54Z"/><path d="M173.38,61.66a.33.33,0,0,1,.09.22.28.28,0,0,1-.1.22.29.29,0,0,1-.23.1.3.3,0,0,1-.22-.1.69.69,0,0,0-.43-.16,2,2,0,0,0-1.18.39,5.16,5.16,0,0,0-.93,1v1.86h1.75a.32.32,0,1,1,0,.64h-3.38a.32.32,0,1,1,0-.64h1V61.92h-.81a.32.32,0,0,1,0-.64h1.12a.34.34,0,0,1,.23.1.31.31,0,0,1,.09.22v.71a2.85,2.85,0,0,1,2.11-1A1.18,1.18,0,0,1,173.38,61.66Z"/><path d="M179,65.8h-3.91a.32.32,0,0,1,0-.64h1.55V60h-1.34a.27.27,0,0,1-.31-.31.28.28,0,0,1,.31-.32H177a.31.31,0,0,1,.22.09.34.34,0,0,1,.1.23v5.44H179a.32.32,0,1,1,0,.64Z"/><path d="M185.38,65.8h-.75a.3.3,0,0,1-.22-.1.28.28,0,0,1-.1-.22v-.36a2.18,2.18,0,0,1-1.61.68,2.2,2.2,0,0,1-1.6-.65,2.15,2.15,0,0,1-.66-1.58A2.11,2.11,0,0,1,181.1,62a2.16,2.16,0,0,1,1.6-.65,2.14,2.14,0,0,1,1.61.68V60h-.67a.28.28,0,0,1-.32-.31.29.29,0,0,1,.32-.32h1a.31.31,0,0,1,.22.09.3.3,0,0,1,.1.23v5.44h.43a.32.32,0,0,1,0,.64Zm-1.07-2.23a1.53,1.53,0,0,0-.47-1.12,1.63,1.63,0,0,0-2.29,0,1.55,1.55,0,0,0,0,2.24,1.62,1.62,0,0,0,2.76-1.12Z"/><path d="M189.86,65a.78.78,0,0,1-.28.61,1,1,0,0,1-.68.26,1,1,0,0,1-.68-.26.82.82,0,0,1,0-1.23,1,1,0,0,1,.68-.26,1,1,0,0,1,.68.26A.79.79,0,0,1,189.86,65Z"/></g></g></svg>