<svg xmlns="http://www.w3.org/2000/svg" viewBox="0 0 601.71 82.44"><title>harmless</title><g id="Layer_2" data-name="Layer 2"><g id="Layer_1-2" data-name="Layer 1"><path d="M.65,32.86A1.26,1.26,0,0,1,.16,31.8c-.16-2.57,0-5.14-.08-8V18c-.16-2.33,0-4.78-.08-7.23V8.83c0-1,0-2.33,0-3.63,0-1.56,0-2.45,0-3.76A.75.75,0,0,1,.41.71L.82.58C1.22.58,1.47.5,1.88.5s.81,0,1.47,0C4.49.5,5.14.5,5.47.54a2.4,2.4,0,0,0,.45,0c.24,0,.57.25.57.9V2.87c0,.57,0,1.1,0,1.26s0,1.15,0,2.17,0,2.12,0,2.53,0,1.18,0,1.91,0,1.51,0,1.64A.73.73,0,0,0,7.1,13H9c.89,0,1.71-.08,1.95-.08s1,0,1.8,0,1.55,0,1.67,0c.37,0,.7-.12.7-1.14V2.71a12.22,12.22,0,0,1,0-1.51c.12-.21.32-.57.69-.57A15.58,15.58,0,0,1,18.48.42a4.84,4.84,0,0,1,.74,0c.49,0,1.1,0,1.79.12.29.13.45.25.49.41l.08.17V2.87c0,.16,0,.37,0,.73a15.36,15.36,0,0,0,0,2c.08,2.74,0,4.49,0,5.55,0,1.8.08,4.2.08,6.69v6.86c0,.65.05,2.16.09,3.75A21.75,21.75,0,0,1,21.62,32a1.06,1.06,0,0,1-1,.94c-.53.08-1.19,0-1.88,0s-1,0-1.35,0A8.1,8.1,0,0,1,16,32.86a1.06,1.06,0,0,1-.61-.86c-.08-.45,0-.94-.08-1.3s0-1.76-.08-3-.08-2.53-.08-3c0-.17,0-.66.08-1.19a7.85,7.85,0,0,0,0-1.1c0-.16,0-.85,0-1.63a4,4,0,0,0-.29-2c-.28-.32-1.71-.41-3.22-.41s-3.1.13-3.59.17c-1.31.08-1.55.32-1.59,1.26,0,.53,0,1.39,0,2.12,0,1.51.08,3,0,4.78,0,1.43,0,2.85,0,3.87v1.11a1.65,1.65,0,0,1-.25.81A2.93,2.93,0,0,1,4.16,33C3,33,1.63,33.23.65,32.86Z"/><path d="M48.23,28.41A23.06,23.06,0,0,1,48.15,32a1,1,0,0,1-1,.94c-.53.08-1.18,0-1.88,0s-1,0-1.34,0a7.85,7.85,0,0,1-1.43-.12,1,1,0,0,1-.61-.86c-.08-.45,0-.94-.08-1.3s0-1.76-.09-3-.08-2.53-.08-3c0-.17,0-.45.08-1a10.38,10.38,0,0,0,0-1.27c0-.16,0-.81,0-1.59A3.5,3.5,0,0,0,41.38,19c-.29-.33-1.68-.49-3.19-.49a22.12,22.12,0,0,0-3.54.2,2.16,2.16,0,0,0-1.19.53c-.24.25-.24.53-.28,1s-.13,1-.13,1.72c0,1.55.09,2.89,0,4.69,0,1.43-.08,2.85-.08,3.87v1.11a1.41,1.41,0,0,1-.2.81,2.9,2.9,0,0,1-2.08.49,10.42,10.42,0,0,1-3.43-.12,1.17,1.17,0,0,1-.49-1.06c-.16-2.49-.12-5.14-.12-8v-3c0-.73,0-2,0-2.77-.12-2.37,0-4.82,0-7.27a13.1,13.1,0,0,1,.2-2.57A11.79,11.79,0,0,1,28,4.54c.45-.69.74-1.18,1.11-1.67a6,6,0,0,1,1.51-1.31A8.06,8.06,0,0,1,34,.3,23.73,23.73,0,0,1,37.38,0a19,19,0,0,1,3.26.33,8.43,8.43,0,0,1,3.14,1.1,15.14,15.14,0,0,1,2,1.72A8.87,8.87,0,0,1,46.93,5a15.5,15.5,0,0,1,.93,3.59A16.45,16.45,0,0,1,48,11.11c.12,1.8.2,4.2.2,6.69s0,5.06,0,6.86C48.15,25.31,48.19,26.82,48.23,28.41ZM41.83,9.85a4,4,0,0,0-1.6-3.55,5.13,5.13,0,0,0-2.89-.82A4.44,4.44,0,0,0,33.79,7a4.71,4.71,0,0,0-1,3.18c0,.94.08,1.8.08,2.08a.86.86,0,0,0,.45.53c.41.29,1.22.49,2.9.29,1.83,0,3,0,3.75,0H41a1,1,0,0,0,.82-.65C42.07,11.85,41.83,11.11,41.83,9.85Z"/><path d="M74.51,33.06H71.29c-.33,0-.82,0-1.31,0s-.89,0-1,0c-.77,0-1-.61-1.38-1.14-.08-.12-.37-.61-.78-1.23s-.81-1.34-1.22-2c-.66-1.15-1.31-2.25-1.88-3.15s-1-1.55-1-1.67c-.82-1.55-1.75-3.06-2.53-4.45a10.45,10.45,0,0,1-.69-.89,9,9,0,0,0,0,.93c0,.66,0,1.47,0,2.33s0,1.67,0,2.33,0,1.42.08,2.53c0,1.79.08,3.87.08,5.3,0,.61,0,.94-.86,1.06s-1.43.08-2.32.12c-.7,0-1.47-.08-1.92-.08a1,1,0,0,1-1-.61,1.86,1.86,0,0,1-.25-1.06v-3c0-1.55,0-3.51,0-5.18V19.6c0-.49,0-1.67,0-3.14s0-3.15,0-4.53V8.83c0-.74,0-1.84,0-2.74a4.67,4.67,0,0,1,.09-1.26,4.89,4.89,0,0,1,.4-1.59A5.08,5.08,0,0,1,55.13,1.4,7.45,7.45,0,0,1,57.78.3c.13,0,.37,0,.74-.08a9.63,9.63,0,0,1,1-.08C60.64.05,62,0,63.21,0a18.08,18.08,0,0,1,3.35.17A10,10,0,0,1,71.45,2a6.56,6.56,0,0,1,2.45,3.8A15.75,15.75,0,0,1,74,10.7a7.86,7.86,0,0,1-.73,3.06,9.31,9.31,0,0,1-2.12,2.57,8.32,8.32,0,0,1-2.45,1.31,6.76,6.76,0,0,1-2.12.24c0,.17.12.33.2.58.08.08.16.32.29.44a3.36,3.36,0,0,1,.32.66c0,.12.49.81,1,1.67s1.06,1.71,1.23,2,.61,1.1,1,1.8.78,1.34.86,1.46.49.66.82,1.15c.36.65.61,1.1.73,1.34a11.09,11.09,0,0,0,.86,1.47c.41.66.77,1.43,1,1.72C75.29,32.74,74.8,33.06,74.51,33.06Zm-14-27.54a1.81,1.81,0,0,0-1.14,1.76c0,.53,0,1.06,0,1.79l0,3.18c0,.66.08,1,1,1,1.14,0,2,.17,2.69.08a14.43,14.43,0,0,1,1.47-.08,2.08,2.08,0,0,0,.65-.08,2.85,2.85,0,0,0,1-.28,5.22,5.22,0,0,0,1.18-1.68,4.08,4.08,0,0,0,.41-2.53,8.39,8.39,0,0,0-.45-1.79,2.3,2.3,0,0,0-1.3-1.39A6.54,6.54,0,0,0,64.6,5.2a10.93,10.93,0,0,0-1.14-.09c-.29,0-.66,0-1.23.09A6.86,6.86,0,0,0,60.52,5.52Z"/><path d="M99.41,30.57v1.11c0,.32-.09.69-.25.81a2.14,2.14,0,0,1-1.79.49c-1.07-.08-2.21.25-3.06-.12a1.5,1.5,0,0,1-.45-1.06c-.17-2.57-.13-5.14-.13-8V20.78c0-.73.09-2,0-2.77,0-1.35,0-3.31,0-4.7a.17.17,0,0,0-.32-.08c-.62,1.47-1.27,3.43-2,4.78-.25.4-.33.45-.61.57-.53,0-1.27,0-2,0A7.93,7.93,0,0,1,87,18.5c-.2-.09-.41-.09-.61-.37-.74-1.59-1.43-3-2.16-4.73,0-.13-.29-.13-.29,0v8.36c0,1.55.12,3.14,0,4.94,0,1.43,0,2.85,0,3.87v1.11c0,.32-.08.69-.24.81a2.2,2.2,0,0,1-1.8.49,8.63,8.63,0,0,1-3.1-.12,1.38,1.38,0,0,1-.45-1.06c-.12-2.57-.12-5.14-.12-8V20.78c0-.73,0-2,0-2.77-.16-2.33,0-4.78,0-7.27V8.83c0-1,0-2.37,0-3.68,0-1.55,0-2.36,0-3.18A3,3,0,0,1,78.31.91c.08-.28.37-.45.86-.45s.61,0,.9,0h1c1,0,1.18,0,1.51,0a2.38,2.38,0,0,0,.44,0l.37,0c.29,0,.49,0,.65.33s.41,1.1.49,1.26l.49,1c.21.53.45,1.11.49,1.27a9.78,9.78,0,0,1,.41,1c.16.37.29.81.33.86.69,1.59,1.14,2.44,1.34,2.89a2.25,2.25,0,0,1,.21.53c.16.33.53,1.1.69,1.47s.7.21.78,0c.16-.41.4-.94.49-1.18s.2-.49.32-.78.66-1.34,1.1-2.45c.21-.48.41-.81.7-1.46.16-.49.45-.9.49-1.15a7.31,7.31,0,0,0,.45-1c.16-.4.28-.77.32-.85a11.27,11.27,0,0,0,.45-1.1A.92.92,0,0,1,94.35.5a3.47,3.47,0,0,1,1.1-.08h1.14c1.1,0,1.55.08,1.88.08a2.07,2.07,0,0,0,.41,0c.28,0,.53.29.53.9,0,.29,0,.86,0,1.39V6.26c0,1.06,0,2.12,0,2.53a18,18,0,0,1,0,2v1.64c0,3.42,0,5.18,0,6.12a6.28,6.28,0,0,1,0,1.06c0,.49,0,1.43,0,2.16,0,1.55.12,3.14,0,4.94C99.41,28.13,99.41,29.55,99.41,30.57Z"/><path d="M122.34,32a1,1,0,0,1,0,.41.51.51,0,0,1-.49.57c-.37,0-1.22,0-1.47,0-.08,0-.65,0-1.18,0s-1.14,0-1.39,0-.69,0-1.1,0h-.9c-1.88.08-2.86,0-3.39,0a1.9,1.9,0,0,1-.57,0,6.2,6.2,0,0,0-1.22,0c-.53,0-1,0-1.59,0-.29,0-.53,0-.78,0-1-.08-1.55.08-2.41,0-1.06-.08-1.22-.57-1.22-2.41V27.35c0-1.06-.12-2.08-.12-3.51v-3c0-.73,0-2,0-2.77-.12-2.37,0-4.82,0-7.31V8.83c0-1,0-2.37,0-3.68V1.4a.75.75,0,0,1,.37-.73c.12,0,.24-.09.4-.13a8.59,8.59,0,0,0,1-.08c.29,0,.62,0,1.15,0,1.14,0,1.83.08,2.2.08a2.4,2.4,0,0,0,.41,0c.28,0,.57.29.57.9V2.83c0,.57,0,1.1,0,1.26s0,1.15.08,2.21,0,2.12,0,2.53,0,1.22,0,1.95-.08,1.51-.08,1.64c0,3.42.08,5.22.08,6.16a6.5,6.5,0,0,1,0,1.06,20.46,20.46,0,0,0,0,2.16c0,1.23,0,2.94,0,4.33a.79.79,0,0,0,.25.53.55.55,0,0,0,.53.28c.36-.08.81,0,1.22,0,1.31-.12,2.61.08,4,0,.16,0,1.55-.08,3.06,0,.82,0,1.35,0,2.08,0,.25,0,.29.17.41.37s0,.24,0,.41c0,.73.12.69.08,2.08C122.34,31,122.34,31.63,122.34,32Z"/><path d="M147.8,31c0,.29-.08.61-.12,1.27-.12.36-.45.45-.81.53s-.82,0-1.19,0-1.59.08-2.73.12h-5.06a2.84,2.84,0,0,1-.74,0c-.73,0-2,0-4.73,0-.12,0-1.06,0-2,0s-2,0-2.49,0c-.94,0-1.43-.33-1.63-.77a2.4,2.4,0,0,1-.2-1.23v-8c0-1.63,0-3,0-3.38s0-1.72,0-3.23,0-3.14,0-4.57V6.34c0-1,0-1.27,0-2.9a2.28,2.28,0,0,1,1.14-2.28A8.08,8.08,0,0,1,130.91.5h1.76c2.53-.12,4.77,0,7.5,0,.53,0,2,0,3.43-.08a25,25,0,0,1,3.31.08,1.07,1.07,0,0,1,.85.9c.08.41,0,1,.08,1.59s0,.78,0,1-.08.45-.12,1.1a.88.88,0,0,1-.81.57,9.8,9.8,0,0,1-1.19.05c-.41,0-1.59.08-2.73.08s-2.37.08-2.78.08c-.16,0-.61,0-1.1,0h-6.16a.3.3,0,0,0-.16,0,.34.34,0,0,0-.29.28c0,.29,0,.58,0,1.47,0,1.19,0,2.45,0,5.06,0,.29.08.37.37.37h5.38c.37,0,1.31,0,2.25,0s1.79,0,2.16,0a7.08,7.08,0,0,0,.9,0,.69.69,0,0,1,.69.45c0,.65,0,.94,0,1.14s0,.53,0,1.1a12.43,12.43,0,0,1,0,1.47.86.86,0,0,1-.65.78,15.84,15.84,0,0,1-2.65.08c-1.14,0-2.25-.08-2.69-.08-1,0-1.84,0-2.66,0s-1.51,0-2.44,0a.58.58,0,0,0-.62.33.33.33,0,0,0,0,.28v8.53c0,.08,0,.16.12.2s.33.21.82.13c1.31-.05,2.29-.05,3.31-.05s2,.05,3.42.05c.53,0,2-.09,3.43-.09a15.13,15.13,0,0,1,3.31.09c.57.12.77.36.85.77s0,.86.08,1.47S147.8,30.7,147.8,31Z"/><path d="M172.74,24.86a8.13,8.13,0,0,1-.9,3.27c-.16.32-.57.89-.9,1.51a6.63,6.63,0,0,1-1.38,1.46,4.13,4.13,0,0,1-.94.66c-.57.28-1.23.57-1.76.85a12.08,12.08,0,0,1-4.2.78,20.58,20.58,0,0,1-4.61-.29,9,9,0,0,1-3.18-1.26A5.81,5.81,0,0,1,153,30.25a9.71,9.71,0,0,1-1.76-4.86c-.12-.9-.08-1.67.33-1.75a13,13,0,0,1,2-.25c.57,0,1.1-.08,1.63-.08a4.09,4.09,0,0,1,1.39,0c.24,0,.33.37.41.86a4.5,4.5,0,0,0,.61,1.63,4.09,4.09,0,0,0,2.41,2,7.31,7.31,0,0,0,1.51.29,7.4,7.4,0,0,0,2.81-.37,3,3,0,0,0,1.51-1,5,5,0,0,0,.9-2.86,5.72,5.72,0,0,0-.33-2.32,3.58,3.58,0,0,0-1.92-2,6.39,6.39,0,0,0-2.61-.57,23.3,23.3,0,0,1-3.14-.21,9.2,9.2,0,0,1-2.08-.57A11,11,0,0,1,154.5,17a6.81,6.81,0,0,1-1.63-1.68,8.54,8.54,0,0,1-1-1.67,10.35,10.35,0,0,1-.66-3.26,8.42,8.42,0,0,1-.08-2,7.83,7.83,0,0,1,.78-3.14c.16-.33.49-.82.81-1.39a7.49,7.49,0,0,1,1.43-1.55,8.84,8.84,0,0,1,1.06-.69c.45-.29,1-.58,1.47-.82A13.35,13.35,0,0,1,161,.1a18.79,18.79,0,0,1,4.28.16,9.45,9.45,0,0,1,3.39,1.18A7.79,7.79,0,0,1,170.62,3a4.78,4.78,0,0,1,1.18,2.12c.16.7.41,1.76.53,2.61s.12,1.72-.25,1.8a12.69,12.69,0,0,1-2.57.24,15.47,15.47,0,0,1-1.95-.12c-.66-.08-.74-.28-.9-.73a7.72,7.72,0,0,0-.25-1.06A2.7,2.7,0,0,0,164.74,6a9.49,9.49,0,0,0-3.43-.49,9.18,9.18,0,0,0-2,.41,2.31,2.31,0,0,0-1,.73,3.5,3.5,0,0,0-.81,2,5.24,5.24,0,0,0,.57,2.86,3,3,0,0,0,1.26,1.1,5.52,5.52,0,0,0,2.41.49,19.21,19.21,0,0,1,3.18.37,15,15,0,0,1,4,1.43,7.78,7.78,0,0,1,2.12,1.71,7,7,0,0,1,1.76,4.61A28.29,28.29,0,0,1,172.74,24.86Z"/><path d="M198.08,24.86a8.13,8.13,0,0,1-.9,3.27c-.16.32-.57.89-.9,1.51a6.41,6.41,0,0,1-1.38,1.46,4.13,4.13,0,0,1-.94.66c-.57.28-1.23.57-1.76.85a12,12,0,0,1-4.2.78,20.62,20.62,0,0,1-4.61-.29,9,9,0,0,1-3.18-1.26,5.91,5.91,0,0,1-1.92-1.59,9.61,9.61,0,0,1-1.75-4.86c-.13-.9-.09-1.67.32-1.75a13,13,0,0,1,2-.25c.57,0,1.1-.08,1.63-.08a4.09,4.09,0,0,1,1.39,0c.25,0,.33.37.41.86a4.5,4.5,0,0,0,.61,1.63,4.09,4.09,0,0,0,2.41,2,7.31,7.31,0,0,0,1.51.29,7.4,7.4,0,0,0,2.81-.37,3,3,0,0,0,1.51-1,5,5,0,0,0,.9-2.86,5.72,5.72,0,0,0-.33-2.32,3.59,3.59,0,0,0-1.91-2,6.46,6.46,0,0,0-2.61-.57,23.34,23.34,0,0,1-3.15-.21,9.2,9.2,0,0,1-2.08-.57A11,11,0,0,1,179.84,17a7,7,0,0,1-1.63-1.68,8.54,8.54,0,0,1-1-1.67,10.25,10.25,0,0,1-.65-3.26,7.88,7.88,0,0,1-.08-2,7.8,7.8,0,0,1,.77-3.14c.16-.33.49-.82.82-1.39a7.17,7.17,0,0,1,1.42-1.55,9.29,9.29,0,0,1,1.07-.69c.44-.29,1-.58,1.46-.82A13.35,13.35,0,0,1,186.37.1a18.76,18.76,0,0,1,4.28.16A9.45,9.45,0,0,1,194,1.44,7.61,7.61,0,0,1,196,3a4.78,4.78,0,0,1,1.18,2.12c.16.7.41,1.76.53,2.61s.12,1.72-.24,1.8a12.83,12.83,0,0,1-2.57.24,15.51,15.51,0,0,1-2-.12c-.66-.08-.74-.28-.9-.73a7.72,7.72,0,0,0-.25-1.06A2.7,2.7,0,0,0,190.08,6a9.49,9.49,0,0,0-3.43-.49,9.18,9.18,0,0,0-2,.41,2.37,2.37,0,0,0-1,.73,3.5,3.5,0,0,0-.81,2,5.24,5.24,0,0,0,.57,2.86,3,3,0,0,0,1.26,1.1,5.55,5.55,0,0,0,2.41.49,19.21,19.21,0,0,1,3.18.37,15,15,0,0,1,4,1.43,7.78,7.78,0,0,1,2.12,1.71A6.91,6.91,0,0,1,198,21.23,28.29,28.29,0,0,1,198.08,24.86Z"/><path d="M234.64,24.86a8.1,8.1,0,0,1-.89,3.27c-.17.32-.58.89-.9,1.51a6.67,6.67,0,0,1-1.39,1.46,3.9,3.9,0,0,1-.94.66c-.57.28-1.22.57-1.75.85a12.14,12.14,0,0,1-4.21.78A20.62,20.62,0,0,1,220,33.1a9.1,9.1,0,0,1-3.18-1.26,5.91,5.91,0,0,1-1.92-1.59,9.61,9.61,0,0,1-1.75-4.86c-.12-.9-.08-1.67.33-1.75a12.86,12.86,0,0,1,2-.25c.58,0,1.11-.08,1.64-.08a4,4,0,0,1,1.38,0c.25,0,.33.37.41.86a4.71,4.71,0,0,0,.61,1.63,4.12,4.12,0,0,0,2.41,2,7.31,7.31,0,0,0,1.51.29,7.45,7.45,0,0,0,2.82-.37,3,3,0,0,0,1.51-1,5.3,5.3,0,0,0,.61-1.18,4.89,4.89,0,0,0,.28-1.68,5.72,5.72,0,0,0-.32-2.32,3.61,3.61,0,0,0-1.92-2,6.39,6.39,0,0,0-2.61-.57,23.06,23.06,0,0,1-3.14-.21,9.05,9.05,0,0,1-2.08-.57A11.09,11.09,0,0,1,216.4,17a7,7,0,0,1-1.63-1.68,9.07,9.07,0,0,1-1-1.67,10.25,10.25,0,0,1-.65-3.26,8.42,8.42,0,0,1-.08-2,7.8,7.8,0,0,1,.77-3.14c.17-.33.49-.82.82-1.39a7.49,7.49,0,0,1,1.43-1.55,8.84,8.84,0,0,1,1.06-.69c.45-.29,1-.58,1.47-.82A13.28,13.28,0,0,1,222.93.1a18.86,18.86,0,0,1,4.29.16,9.4,9.4,0,0,1,3.38,1.18A7.44,7.44,0,0,1,232.52,3a4.78,4.78,0,0,1,1.18,2.12c.17.7.41,1.76.53,2.61s.13,1.72-.24,1.8a12.69,12.69,0,0,1-2.57.24,15.63,15.63,0,0,1-2-.12c-.65-.08-.73-.28-.9-.73a8.64,8.64,0,0,0-.24-1.06A2.72,2.72,0,0,0,226.65,6a9.51,9.51,0,0,0-3.43-.49,9.18,9.18,0,0,0-2,.41,2.26,2.26,0,0,0-1,.73,3.51,3.51,0,0,0-.82,2,5.24,5.24,0,0,0,.57,2.86,3.07,3.07,0,0,0,1.27,1.1,5.52,5.52,0,0,0,2.41.49,19.21,19.21,0,0,1,3.18.37,15.17,15.17,0,0,1,4,1.43,7.93,7.93,0,0,1,2.12,1.71,7,7,0,0,1,1.75,4.61A28.29,28.29,0,0,1,234.64,24.86Z"/><path d="M260.56,28.41a21.56,21.56,0,0,1-.09,3.63,1,1,0,0,1-1,.94c-.54.08-1.19,0-1.88,0s-1,0-1.35,0a8,8,0,0,1-1.43-.12,1.06,1.06,0,0,1-.61-.86c-.08-.45,0-.94-.08-1.3s0-1.76-.08-3-.08-2.53-.08-3c0-.17,0-.45.08-1a10.38,10.38,0,0,0,0-1.27c0-.16,0-.81,0-1.59A3.39,3.39,0,0,0,253.7,19c-.28-.33-1.67-.49-3.18-.49a22.37,22.37,0,0,0-3.55.2,2.12,2.12,0,0,0-1.18.53c-.25.25-.25.53-.29,1s-.12,1-.12,1.72c0,1.55.08,2.89,0,4.69,0,1.43-.08,2.85-.08,3.87v1.11a1.41,1.41,0,0,1-.21.81,2.9,2.9,0,0,1-2.08.49,10.43,10.43,0,0,1-3.43-.12,1.17,1.17,0,0,1-.49-1.06c-.16-2.49-.12-5.14-.12-8v-3c0-.73,0-2,0-2.77-.12-2.37,0-4.82,0-7.27a12.65,12.65,0,0,1,.21-2.57,11.53,11.53,0,0,1,1.14-3.67c.45-.69.73-1.18,1.1-1.67a6.23,6.23,0,0,1,1.51-1.31A8.11,8.11,0,0,1,246.36.3,23.61,23.61,0,0,1,249.7,0,19.13,19.13,0,0,1,253,.34a8.56,8.56,0,0,1,3.14,1.1,15.82,15.82,0,0,1,2,1.72A8.87,8.87,0,0,1,259.25,5a15.57,15.57,0,0,1,.94,3.59,17.3,17.3,0,0,1,.12,2.49c.12,1.8.2,4.2.2,6.69s0,5.06,0,6.86C260.47,25.31,260.51,26.82,260.56,28.41ZM254.15,9.85a4,4,0,0,0-1.59-3.55,5.18,5.18,0,0,0-2.9-.82A4.45,4.45,0,0,0,246.11,7a4.76,4.76,0,0,0-1,3.18c0,.94.08,1.8.08,2.08a.9.9,0,0,0,.45.53c.41.29,1.23.49,2.9.29,1.84,0,3,0,3.75,0h1.06a1,1,0,0,0,.82-.65C254.39,11.85,254.15,11.11,254.15,9.85Z"/><path d="M286.71,32a.74.74,0,0,1-.77.82c-.37,0-.65,0-1,.08s-.61,0-2.08,0c-.78,0-1.14,0-1.39-.53-.16-.29-.41-.78-.65-1.31s-.49-1-.57-1.18-.57-1-1.06-2a25.9,25.9,0,0,1-1.23-2.29A10,10,0,0,1,277,23.8a14,14,0,0,0-.85-1.47c-1.55-3.1-2.9-5.06-3.39-5.91a10.51,10.51,0,0,0-1.31-2.13c0,.66.05,1.11.05,1.47,0,.86,0,1.76,0,2.41s0,1.51,0,1.63a18.19,18.19,0,0,0,0,2.16c0,1.51.08,2.94,0,4.74,0,1.38-.08,2.85-.08,3.87v1.11a1.39,1.39,0,0,1-.25.81,2.58,2.58,0,0,1-1.92.53,9.74,9.74,0,0,1-3.14-.16,1.26,1.26,0,0,1-.49-1.06c-.12-2.49-.12-5.18-.12-7.92v-3c0-.77,0-2,0-2.77-.12-2.37,0-4.78,0-7.26V9c0-1,0-2.37,0-3.67V1.52a.71.71,0,0,1,.33-.69.68.68,0,0,1,.4-.12,16,16,0,0,1,2-.13c.57.05,1.06.05,1.39.09a2.32,2.32,0,0,1,1.34.49,1,1,0,0,1,.29.32c1.31,2.25,2.61,4.65,4,7.22.16.37.53,1,.82,1.51.85,1.6,1.55,2.74,2.12,3.84.69,1.35,1.14,1.79,2.49,4.57,0-3.8-.09-5.43,0-7.22,0-1.59-.09-2.86-.05-4.65.05-1.39.05-2.82.05-3.84,0-.29,0-.69,0-1.1A1.45,1.45,0,0,1,281,1a2.58,2.58,0,0,1,1.92-.53c.57,0,1.22,0,1.83,0a3.66,3.66,0,0,1,1.39.21,1.32,1.32,0,0,1,.49,1.06c.12,2.49.08,5.18.08,7.91v3c0,.78,0,2,0,2.78.13,2.36,0,4.77,0,7.26v1.87c0,1,0,2.37,0,3.68C286.63,29.72,286.71,30.66,286.71,32Z"/><path d="M312.67,24.86a8.13,8.13,0,0,1-.9,3.27c-.16.32-.57.89-.9,1.51a6.67,6.67,0,0,1-1.39,1.46,3.76,3.76,0,0,1-.93.66c-.58.28-1.23.57-1.76.85a12.08,12.08,0,0,1-4.2.78A20.58,20.58,0,0,1,298,33.1a9,9,0,0,1-3.18-1.26,5.81,5.81,0,0,1-1.92-1.59,9.71,9.71,0,0,1-1.76-4.86c-.12-.9-.08-1.67.33-1.75a13,13,0,0,1,2-.25c.57,0,1.1-.08,1.63-.08a4.09,4.09,0,0,1,1.39,0c.24,0,.32.37.41.86a4.5,4.5,0,0,0,.61,1.63,4.09,4.09,0,0,0,2.41,2,7.31,7.31,0,0,0,1.51.29,7.4,7.4,0,0,0,2.81-.37,3,3,0,0,0,1.51-1,5,5,0,0,0,.9-2.86,5.72,5.72,0,0,0-.33-2.32,3.61,3.61,0,0,0-1.92-2,6.39,6.39,0,0,0-2.61-.57,23.3,23.3,0,0,1-3.14-.21,9.2,9.2,0,0,1-2.08-.57A11,11,0,0,1,294.43,17a7,7,0,0,1-1.63-1.68,8.54,8.54,0,0,1-1-1.67,10.25,10.25,0,0,1-.65-3.26,8.25,8.25,0,0,1-.09-2,7.83,7.83,0,0,1,.78-3.14c.16-.33.49-.82.81-1.39a7.49,7.49,0,0,1,1.43-1.55,8.84,8.84,0,0,1,1.06-.69c.45-.29,1-.58,1.47-.82A13.35,13.35,0,0,1,301,.1a18.79,18.79,0,0,1,4.28.16,9.45,9.45,0,0,1,3.39,1.18A7.79,7.79,0,0,1,310.55,3a4.78,4.78,0,0,1,1.18,2.12c.16.7.41,1.76.53,2.61s.12,1.72-.25,1.8a12.69,12.69,0,0,1-2.57.24,15.47,15.47,0,0,1-1.95-.12c-.66-.08-.74-.28-.9-.73a7.72,7.72,0,0,0-.25-1.06A2.7,2.7,0,0,0,304.67,6a9.49,9.49,0,0,0-3.43-.49,9.18,9.18,0,0,0-2,.41,2.31,2.31,0,0,0-1,.73,3.5,3.5,0,0,0-.81,2,5.24,5.24,0,0,0,.57,2.86,3,3,0,0,0,1.26,1.1,5.52,5.52,0,0,0,2.41.49,19.21,19.21,0,0,1,3.18.37,15,15,0,0,1,4,1.43,7.78,7.78,0,0,1,2.12,1.71,7,7,0,0,1,1.76,4.61A28.29,28.29,0,0,1,312.67,24.86Z"/><path d="M349.56,33.06h-3.23c-.32,0-.81,0-1.3,0s-.9,0-1,0c-.78,0-1-.61-1.39-1.14-.08-.12-.37-.61-.77-1.23s-.82-1.34-1.23-2c-.65-1.15-1.3-2.25-1.87-3.15s-1-1.55-1-1.67c-.82-1.55-1.76-3.06-2.53-4.45a9.77,9.77,0,0,1-.7-.89,9,9,0,0,0,0,.93c0,.66,0,1.47,0,2.33s0,1.67,0,2.33,0,1.42.08,2.53c0,1.79.08,3.87.08,5.3,0,.61,0,.94-.85,1.06s-1.43.08-2.33.12c-.69,0-1.47-.08-1.92-.08a1,1,0,0,1-1-.61,1.93,1.93,0,0,1-.24-1.06v-3c0-1.55,0-3.51,0-5.18V19.6c0-.49,0-1.67,0-3.14s0-3.15,0-4.53V8.83c0-.74,0-1.84,0-2.74a5,5,0,0,1,.08-1.26,4.68,4.68,0,0,1,.41-1.59,5,5,0,0,1,1.43-1.84A7.45,7.45,0,0,1,332.83.3c.12,0,.37,0,.73-.08s.7-.08,1-.08C335.68.05,337,0,338.25,0a18.08,18.08,0,0,1,3.35.17A10,10,0,0,1,346.5,2,6.56,6.56,0,0,1,349,5.81,16.39,16.39,0,0,1,349,10.7a7.89,7.89,0,0,1-.74,3.06,9.14,9.14,0,0,1-2.12,2.57,8.2,8.2,0,0,1-2.45,1.31,6.76,6.76,0,0,1-2.12.24c0,.17.12.33.2.58.09.08.17.32.29.44a4.06,4.06,0,0,1,.33.66c0,.12.49.81,1,1.67s1.06,1.71,1.22,2,.61,1.1,1,1.8.78,1.34.86,1.46.49.66.81,1.15c.37.65.61,1.1.74,1.34a11.91,11.91,0,0,0,.85,1.47c.41.66.78,1.43,1,1.72C350.33,32.74,349.84,33.06,349.56,33.06Zm-14-27.54a1.81,1.81,0,0,0-1.14,1.76c0,.53,0,1.06,0,1.79l0,3.18c0,.66.08,1,1,1,1.14,0,2,.17,2.69.08a14.55,14.55,0,0,1,1.47-.08,2.1,2.1,0,0,0,.66-.08,2.91,2.91,0,0,0,1-.28,5.38,5.38,0,0,0,1.18-1.68,4.08,4.08,0,0,0,.41-2.53,9,9,0,0,0-.45-1.79,2.35,2.35,0,0,0-1.31-1.39,6.45,6.45,0,0,0-1.51-.28,10.73,10.73,0,0,0-1.14-.09c-.29,0-.65,0-1.22.09A6.92,6.92,0,0,0,335.56,5.52Z"/><path d="M374.9,31c0,.29-.08.61-.12,1.27-.12.36-.45.45-.82.53s-.81,0-1.18,0-1.59.08-2.74.12H365a2.74,2.74,0,0,1-.73,0c-.73,0-2,0-4.73,0-.13,0-1.06,0-2,0s-2,0-2.49,0c-.94,0-1.43-.33-1.63-.77a2.32,2.32,0,0,1-.21-1.23v-8c0-1.63,0-3,0-3.38s0-1.72,0-3.23,0-3.14,0-4.57V6.34c0-1,0-1.27,0-2.9a2.29,2.29,0,0,1,1.15-2.28A8,8,0,0,1,358,.5h1.75c2.53-.12,4.78,0,7.51,0,.53,0,2,0,3.43-.08A24.91,24.91,0,0,1,374,.5a1.08,1.08,0,0,1,.86.9c.08.41,0,1,.08,1.59s0,.78,0,1-.08.45-.12,1.1a.88.88,0,0,1-.82.57,9.64,9.64,0,0,1-1.18.05c-.41,0-1.59.08-2.74.08s-2.36.08-2.77.08c-.16,0-.61,0-1.1,0H360a.35.35,0,0,0-.17,0,.34.34,0,0,0-.28.28c0,.29,0,.58,0,1.47,0,1.19,0,2.45,0,5.06,0,.29.08.37.37.37h5.38c.37,0,1.31,0,2.25,0s1.79,0,2.16,0a7.16,7.16,0,0,0,.9,0,.69.69,0,0,1,.69.45c0,.65,0,.94,0,1.14s0,.53,0,1.1,0,1.11,0,1.47a.86.86,0,0,1-.65.78,15.92,15.92,0,0,1-2.66.08c-1.14,0-2.24-.08-2.69-.08-1,0-1.83,0-2.65,0s-1.51,0-2.45,0a.57.57,0,0,0-.61.33.33.33,0,0,0,0,.28v8.53c0,.08,0,.16.12.2s.33.21.82.13c1.3-.05,2.28-.05,3.3-.05s2,.05,3.43.05c.53,0,2-.09,3.43-.09a15.06,15.06,0,0,1,3.3.09c.57.12.78.36.86.77s0,.86.08,1.47S374.9,30.7,374.9,31Z"/><path d="M399.51,19.27c0,2,0,4.12,0,5.14a8.63,8.63,0,0,1,0,1.76,8.79,8.79,0,0,1-1.06,3.42,8.68,8.68,0,0,1-1.88,2.33,8.75,8.75,0,0,1-4.86,1.47,47.24,47.24,0,0,1-5.46-.12,8.51,8.51,0,0,1-3.06-1,8.52,8.52,0,0,1-2.57-1.76,4,4,0,0,1-1.11-1.75c-.24-.53-.4-1.06-.61-1.67a19.68,19.68,0,0,1-.77-5.68,14.27,14.27,0,0,1-.09-2.24c0-.78,0-1.47,0-1.59s0-.74,0-1.39,0-1.3,0-1.59V12.74a26.51,26.51,0,0,1,.09-4.32,6.56,6.56,0,0,1,1-3.18c.16-.29.45-.82.81-1.35a5.55,5.55,0,0,1,1.35-1.55c.12-.08.49-.33,1-.61s1.1-.61,1.59-.86A13.55,13.55,0,0,1,388.2.14a19.61,19.61,0,0,1,4.37.16A12.12,12.12,0,0,1,396,1.48,8.16,8.16,0,0,1,397.83,3,5.52,5.52,0,0,1,399,5c.16.78.4,1.84.49,2.74s0,1.63-.41,1.71a9.76,9.76,0,0,1-2.86.12,7.49,7.49,0,0,1-1.38-.08c-.41-.08-.74-.12-.78-.37a4.4,4.4,0,0,0-.29-1.55,2.93,2.93,0,0,0-2-1.92,7.05,7.05,0,0,0-3.3-.36,4.66,4.66,0,0,0-2,.49c-.45.24-.69.65-1.39,1.34a5.19,5.19,0,0,0-.93,3.19c-.09,1.51-.09,3.26-.09,4.65v2.49a20.2,20.2,0,0,0,.09,2c0,1,.08,2.08.12,2.53a9.05,9.05,0,0,0,.65,3.55,3.4,3.4,0,0,0,1.92,2,6.6,6.6,0,0,0,2.53.36,9.31,9.31,0,0,0,3.18-.61A2.93,2.93,0,0,0,394,25.51c.2-.65.2-1.22.24-1.22,0-.29,0-.78.09-1.39s0-1.18,0-1.63a17.83,17.83,0,0,1,0-2.24c0-.49-.25-.57-1.11-.57h-1.71a6,6,0,0,1-1.22-.09c-.13,0-.17-.57-.21-1.22V14.42a2.59,2.59,0,0,1,.08-.9c.09-.25,0-.25.53-.33a4.8,4.8,0,0,1,1-.08h3.15c.61,0,1.42,0,2.24.08s1.47.08,1.8.08c.57,0,.48.09.61.45s0,1.15,0,1.8C399.55,15.76,399.55,17.44,399.51,19.27Z"/><path d="M425.5,23.43c0,4-.65,5.92-1.63,7.18a10.09,10.09,0,0,1-3.43,2.21,9.6,9.6,0,0,1-4.08.65,28.72,28.72,0,0,1-5.06-.53,10.24,10.24,0,0,1-3.38-1.06c-2-1.43-3.47-3.22-3.63-5.67a6,6,0,0,1,0-1.8.48.48,0,0,1-.09-.24c-.12-2-.08-4-.08-6.12V13.68c-.16-1.79,0-3.55-.08-5.47V6.79c0-.74,0-1.72,0-2.7,0-1.14,0-2.12,0-2.49s.12-1,1.18-1a3.71,3.71,0,0,0,.82-.05,10.32,10.32,0,0,1,1.31,0c.89,0,1.46,0,1.75,0a.77.77,0,0,1,.37.05,1,1,0,0,1,1,1c0,.41,0,1.43,0,1.68s0,.85.08,1.63,0,1.59,0,1.88,0,.93,0,1.51-.08,1.1-.08,1.18c0,2.61.08,3.88.08,4.61a3.09,3.09,0,0,1,0,.78,11.63,11.63,0,0,0,0,1.63c0,1.22.08,2.4,0,3.87,0,1.06-.08,1.59-.08,2.37a7.18,7.18,0,0,0,.28,1.75,3.19,3.19,0,0,0,1.8,2.21,8.36,8.36,0,0,0,3.67.36,4,4,0,0,0,2.49-.85,5.29,5.29,0,0,0,.53-2c0-.61,0-1.27,0-1.63,0-.78,0-1.39,0-2V9.81c0-.13,0-.41,0-1.31V7c0-.78,0-1.75,0-2.77V3c0-.33,0-.61,0-1.1,0-.9,0-1.35,1.14-1.35a2.64,2.64,0,0,0,.69-.08h1.23c.73,0,1.18,0,1.43,0s.28,0,.32,0c.53,0,.9,0,1.11.29s.32.81.32,1.83c0,.41,0,.49,0,.78,0,.12,0,.86,0,1.67s0,1.63,0,2,0,.94,0,1.47v5a9.3,9.3,0,0,0,0,1.06v.57a6.12,6.12,0,0,0,0,1.22v.37c0,1.23.08,2.41,0,3.88C425.5,21.6,425.5,22.7,425.5,23.43Z"/><path d="M448.4,32a.84.84,0,0,1,0,.41.51.51,0,0,1-.49.57l-1.46,0c-.09,0-.66,0-1.19,0s-1.14,0-1.38,0-.7,0-1.11,0h-.89c-1.88.08-2.86,0-3.39,0a1.86,1.86,0,0,1-.57,0,6.3,6.3,0,0,0-1.23,0c-.53,0-1,0-1.59,0-.28,0-.53,0-.77,0-1-.08-1.55.08-2.41,0-1.06-.08-1.22-.57-1.22-2.41V27.35c0-1.06-.13-2.08-.13-3.51v-3c0-.73,0-2,0-2.77-.12-2.37,0-4.82,0-7.31V8.83c0-1,0-2.37,0-3.68V1.4a.76.76,0,0,1,.37-.73c.12,0,.25-.09.41-.13a8.76,8.76,0,0,0,1-.08c.28,0,.61,0,1.14,0,1.14,0,1.84.08,2.21.08a2.32,2.32,0,0,0,.4,0c.29,0,.57.29.57.9V2.83c0,.57,0,1.1,0,1.26s0,1.15.08,2.21.05,2.12.05,2.53-.05,1.22-.05,1.95-.08,1.51-.08,1.64c0,3.42.08,5.22.08,6.16a6.5,6.5,0,0,1,0,1.06,20.46,20.46,0,0,0,0,2.16c0,1.23.05,2.94.05,4.33a.82.82,0,0,0,.24.53.56.56,0,0,0,.53.28c.37-.08.82,0,1.22,0,1.31-.12,2.62.08,4,0,.17,0,1.56-.08,3.06,0,.82,0,1.35,0,2.09,0,.24,0,.28.17.4.37s0,.24,0,.41a19.92,19.92,0,0,1,.09,2.08C448.4,31,448.4,31.63,448.4,32Z"/><path d="M473.7,28.41a21.56,21.56,0,0,1-.09,3.63,1,1,0,0,1-1,.94c-.53.08-1.18,0-1.87,0s-1,0-1.35,0a7.91,7.91,0,0,1-1.43-.12,1.06,1.06,0,0,1-.61-.86c-.08-.45,0-.94-.08-1.3s0-1.76-.08-3-.08-2.53-.08-3c0-.17,0-.45.08-1a10.38,10.38,0,0,0,0-1.27c0-.16,0-.81,0-1.59a3.39,3.39,0,0,0-.37-1.79c-.29-.33-1.67-.49-3.18-.49a22.37,22.37,0,0,0-3.55.2,2.19,2.19,0,0,0-1.19.53c-.24.25-.24.53-.28,1s-.12,1-.12,1.72c0,1.55.08,2.89,0,4.69,0,1.43-.08,2.85-.08,3.87v1.11a1.41,1.41,0,0,1-.21.81,2.9,2.9,0,0,1-2.08.49,10.43,10.43,0,0,1-3.43-.12,1.17,1.17,0,0,1-.49-1.06c-.16-2.49-.12-5.14-.12-8v-3c0-.73,0-2,0-2.77-.12-2.37,0-4.82,0-7.27a12.65,12.65,0,0,1,.21-2.57,11.28,11.28,0,0,1,1.14-3.67c.45-.69.73-1.18,1.1-1.67a6.23,6.23,0,0,1,1.51-1.31A8.06,8.06,0,0,1,459.5.3,23.61,23.61,0,0,1,462.84,0a19.13,19.13,0,0,1,3.27.33,8.56,8.56,0,0,1,3.14,1.1,15.82,15.82,0,0,1,2,1.72A8.87,8.87,0,0,1,472.39,5a15.57,15.57,0,0,1,.94,3.59,17.3,17.3,0,0,1,.12,2.49c.12,1.8.2,4.2.2,6.69s0,5.06,0,6.86C473.61,25.31,473.65,26.82,473.7,28.41ZM467.29,9.85A4,4,0,0,0,465.7,6.3a5.18,5.18,0,0,0-2.9-.82A4.45,4.45,0,0,0,459.25,7a4.76,4.76,0,0,0-1,3.18c0,.94.08,1.8.08,2.08a.9.9,0,0,0,.45.53c.41.29,1.23.49,2.9.29,1.84,0,3,0,3.75,0h1.06a1,1,0,0,0,.82-.65C467.53,11.85,467.29,11.11,467.29,9.85Z"/><path d="M500,33.06h-3.23c-.32,0-.81,0-1.3,0s-.9,0-1,0c-.78,0-1-.61-1.39-1.14-.08-.12-.37-.61-.77-1.23s-.82-1.34-1.23-2c-.65-1.15-1.3-2.25-1.88-3.15s-1-1.55-1-1.67c-.81-1.55-1.75-3.06-2.53-4.45-.08-.12-.36-.4-.69-.89a9,9,0,0,0,0,.93c0,.66,0,1.47,0,2.33s0,1.67,0,2.33,0,1.42.08,2.53c0,1.79.08,3.87.08,5.3,0,.61,0,.94-.86,1.06s-1.42.08-2.32.12c-.69,0-1.47-.08-1.92-.08a1,1,0,0,1-1-.61,1.93,1.93,0,0,1-.24-1.06v-3c0-1.55,0-3.51,0-5.18V19.6c0-.49,0-1.67,0-3.14s0-3.15,0-4.53V8.83c0-.74,0-1.84,0-2.74a5,5,0,0,1,.08-1.26,4.68,4.68,0,0,1,.41-1.59,5.06,5.06,0,0,1,1.42-1.84A7.51,7.51,0,0,1,483.25.3c.12,0,.36,0,.73-.08a9.63,9.63,0,0,1,1-.08C486.1.05,487.45,0,488.67,0A18.08,18.08,0,0,1,492,.18,10,10,0,0,1,496.92,2a6.54,6.54,0,0,1,2.44,3.8,16,16,0,0,1,.09,4.89,8.08,8.08,0,0,1-.74,3.06,9.14,9.14,0,0,1-2.12,2.57,8.32,8.32,0,0,1-2.45,1.31,6.76,6.76,0,0,1-2.12.24c0,.17.12.33.2.58.09.08.17.32.29.44a4.06,4.06,0,0,1,.33.66c0,.12.49.81,1,1.67s1.06,1.71,1.22,2,.61,1.1,1,1.8.77,1.34.86,1.46.48.66.81,1.15c.37.65.61,1.1.74,1.34a10.69,10.69,0,0,0,.85,1.47c.41.66.78,1.43,1,1.72C500.75,32.74,500.26,33.06,500,33.06ZM486,5.52a1.81,1.81,0,0,0-1.14,1.76c0,.53,0,1.06,0,1.79l0,3.18c0,.66.08,1,1,1,1.14,0,2,.17,2.69.08a14.55,14.55,0,0,1,1.47-.08,2,2,0,0,0,.65-.08,2.79,2.79,0,0,0,1-.28,5.22,5.22,0,0,0,1.19-1.68,4.08,4.08,0,0,0,.41-2.53,9,9,0,0,0-.45-1.79,2.35,2.35,0,0,0-1.31-1.39,6.45,6.45,0,0,0-1.51-.28,10.73,10.73,0,0,0-1.14-.09c-.29,0-.65,0-1.23.09A6.94,6.94,0,0,0,486,5.52Z"/><path d="M.65,81.83a1.26,1.26,0,0,1-.49-1.06C0,78.2.08,75.63.08,72.81V67C.08,64.65,0,62.2,0,59.76v-2c0-1,0-2.33,0-3.63,0-1.56,0-2.45,0-3.76a.75.75,0,0,1,.37-.73l.41-.13c.4,0,.65-.08,1.06-.08.61,0,1.51,0,2.69,0,1.8.08,2.82,0,3.35.08a2.38,2.38,0,0,0,.44,0c.25,0,.58.25.58.9v1.39c0,.57,0,1.1,0,1.26s0,1.15,0,2.17,0,2.12,0,2.53,0,1.18,0,1.91,0,1.07.61,1.07h1.87a5.76,5.76,0,0,0,.74-.09c.24,0,1,0,1.79,0a3.36,3.36,0,0,1,.45.05c.37,0,.7-.13.7-1.15v-8a12.22,12.22,0,0,1,0-1.51c.12-.21.32-.57.69-.57a26,26,0,0,1,3.88-.21,4.72,4.72,0,0,1,.73,0c.82.08,1.88,0,3,.12A.87.87,0,0,1,24,50l.08.17v1.71c0,.16,0,.37,0,.73a15.36,15.36,0,0,0,0,2c.08,2.74,0,4.49,0,5.55,0,1.8.08,4.2.08,6.69v6.86c0,.65,0,2.16.08,3.75A21,21,0,0,1,24.07,81a1.07,1.07,0,0,1-1,.94c-.85.12-1.95,0-3.1,0s-1.87,0-2.57,0A8.1,8.1,0,0,1,16,81.83a1.06,1.06,0,0,1-.61-.86c-.08-.45,0-.94-.08-1.3s0-1.76-.08-3c0-1-.08-2-.08-2.41,0-.16,0-.65.08-1.18a7.94,7.94,0,0,0,0-1.11c0-.16,0-.85,0-1.63A2.36,2.36,0,0,0,14.89,69a3.19,3.19,0,0,0-2-.41c-1,0-2,.12-2.36.16C9.22,68.81,9,69.06,8.94,70c0,.36,0,1,0,1.51,0,1.3.08,2.65,0,4.16s0,2.85,0,3.87v1.11a1.39,1.39,0,0,1-.25.81A2.93,2.93,0,0,1,6.61,82C4.61,81.91,2.2,82.44.65,81.83Z"/><path d="M53.13,77.38A23.06,23.06,0,0,1,53.05,81a1,1,0,0,1-1,.94c-.86.12-2,0-3.1,0-.66,0-1,0-1.35,0A11,11,0,0,1,45,81.83a1,1,0,0,1-.61-.86c-.09-.45,0-.94-.09-1.3s0-1.76-.08-3-.08-2.37-.08-2.82c-.08-.65,0-2.12-.28-2.57a3,3,0,0,0-2-.49,16.24,16.24,0,0,0-2.17,0,2.52,2.52,0,0,0-1.34.7,1.2,1.2,0,0,0-.37.93c0,.25,0,.45,0,.78,0,.77.08,1.51,0,2.45,0,1.43-.08,2.85-.08,3.87v1.11a1.41,1.41,0,0,1-.2.81c-.78.78-3.19.57-4.53.49a10.42,10.42,0,0,1-3.43-.12,1.15,1.15,0,0,1-.49-1.06c-.16-2.49-.12-5.14-.12-8v-3c0-.73,0-2,0-2.77-.13-2.37,0-4.82,0-7.26a13.15,13.15,0,0,1,.2-2.58,10.93,10.93,0,0,1,1.14-3.67c.45-.69.74-1.18,1.1-1.67a7.47,7.47,0,0,1,1.76-1.31,9.83,9.83,0,0,1,4-1.38A18.11,18.11,0,0,1,41.05,49a18.16,18.16,0,0,1,3.27.33,27.41,27.41,0,0,1,3.55.73,6.75,6.75,0,0,1,2.85,2.09A8.47,8.47,0,0,1,51.82,54a15.57,15.57,0,0,1,.94,3.59,17.3,17.3,0,0,1,.12,2.49c.13,1.8.21,4.2.21,6.69s0,5.06,0,6.86C53.05,74.28,53.09,75.79,53.13,77.38ZM44.36,59.31a2.54,2.54,0,0,0-1.15-2.08,3.78,3.78,0,0,0-2.2-.66,3.06,3.06,0,0,0-2.45.86,2.86,2.86,0,0,0-.9,2.2c-.08,1.76-.08,2.49.53,2.9a2.16,2.16,0,0,0,1.68.29c1.22,0,2,0,2.53,0h1.06a1,1,0,0,0,.81-.66A9.48,9.48,0,0,0,44.36,59.31Z"/><path d="M81.86,82H77.41c-.57,0-1.43,0-2.33,0-.49,0-.89,0-1,0-.69,0-.89-.61-1.26-1.14a14.56,14.56,0,0,0-.78-1.35c-.4-.65-.81-1.43-1.22-2.12-.61-1.06-1.14-2.16-1.67-3-.61-1.06-1.06-1.75-1.14-1.92-.45-.73-.9-1.42-1.31-2V73c0,.57,0,1.42.08,2.53,0,1.79.08,3.87.08,5.3,0,.61,0,.77-2.08,1.06-.94.08-1.43.08-2.32.12-1.15,0-2.41-.08-3.15-.08a1,1,0,0,1-1-.61,1.86,1.86,0,0,1-.25-1.06v-3c0-1.55,0-3.51,0-5.18V68.57c0-.49,0-1.67,0-3.14s0-3.15,0-4.53V57.8c0-.74,0-1.84,0-2.74a5,5,0,0,1,.08-1.26,4.92,4.92,0,0,1,.41-1.59A5.08,5.08,0,0,1,60,50.37c.81-.65,2.2-.65,3.87-1.1.13,0,.37,0,.74-.08a9.63,9.63,0,0,1,1-.08C66.76,49,68.11,49,69.33,49a18.08,18.08,0,0,1,3.35.17c1.87.28,4.12.53,5.71,1.83a6.56,6.56,0,0,1,2.45,3.8,16.3,16.3,0,0,1,.28,5.71,7.86,7.86,0,0,1-.73,3.06,8.76,8.76,0,0,1-2.12,2.57,6.91,6.91,0,0,1-2,1,10.63,10.63,0,0,1-2,.57c.28.53.57.94,1.43,2.49.49.86,1.06,1.71,1.22,2s.61,1.1,1,1.8.77,1.34.86,1.46.49.66.81,1.15c.37.65.61,1.1.74,1.34a10.69,10.69,0,0,0,.85,1.47c.41.66.78,1.43,1,1.72C82.63,81.71,82.14,82,81.86,82ZM67.45,56.57a1.63,1.63,0,0,0-.93,1.68c0,.49,0,1,0,1.67l0,1.79c0,.62.08.9.94.9.53,0,1,.12,1.3.08s.53-.08.61-.08a1.88,1.88,0,0,0,.62-.08,2.33,2.33,0,0,0,.89-.25A3,3,0,0,0,72,61.14a2.53,2.53,0,0,0,.37-1.59A6.81,6.81,0,0,0,72,57.88a1.93,1.93,0,0,0-1.18-1.27,5.65,5.65,0,0,0-1.39-.28,6.57,6.57,0,0,0-1.26,0A2,2,0,0,0,67.45,56.57Z"/><path d="M110.42,79.54v1.11a1.15,1.15,0,0,1-.24.81,2.16,2.16,0,0,1-1.8.49c-1.92-.12-4.08.49-5.51-.12a1.54,1.54,0,0,1-.44-1.06c-.17-2.57-.13-5.14-.13-8V71.67c0-1.35,0-3.31,0-4.69a.17.17,0,0,0-.32-.08c-.66,1.51-1.64,3.34-2.37,4.77-.25.41-.33.45-.61.57s-.61,0-.94,0a2.46,2.46,0,0,1-.86-.12c-.2-.08-.41-.08-.61-.37-.78-1.63-1.8-3-2.57-4.73,0-.12-.29-.12-.29,0v3.67c0,1.55.13,3.14,0,4.94,0,1.43,0,2.85,0,3.87v1.11a1.15,1.15,0,0,1-.24.81,2.19,2.19,0,0,1-1.8.49c-2,0-3.91.49-5.55-.12a1.38,1.38,0,0,1-.44-1.06c-.13-2.57-.13-5.14-.13-8V69.75c0-.73,0-2,0-2.77-.16-2.33,0-4.78,0-7.27V57.8c0-1,0-2.37,0-3.68,0-1.55,0-2.36,0-3.18a2.76,2.76,0,0,1,.13-1.06c.08-.28.36-.45.85-.45s.61,0,.9,0h1.22c1.84,0,2.17-.08,2.74,0a8.5,8.5,0,0,0,1.22.08c.29,0,.49,0,.66.33s.4.86,1,2.16c.2.45.53,1,.57,1.1a8.66,8.66,0,0,1,.69,1.27c.16.37.29.81.33.86.69,1.59,1.14,2.44,1.34,2.89a2.25,2.25,0,0,1,.21.53c.16.33.53,1.1.65,1.43.24-.49.65-1.1,1-1.92.2-.4.65-1.34,1.1-2.44.21-.54.37-.78.7-1.47.16-.49.44-.9.48-1.15a5.51,5.51,0,0,0,.45-1c.17-.4.29-.77.33-.85a11.27,11.27,0,0,0,.45-1.1c.16-.45.77-.45,1.35-.62a4.81,4.81,0,0,1,1.3-.08h2.37c1.1,0,1.55.08,1.87.08a2.19,2.19,0,0,0,.41,0c.29,0,.53.29.53.9v4.82c0,1.06,0,2.12,0,2.53s0,1.22,0,2v1.63c0,3.42,0,5.18,0,6.12a6.21,6.21,0,0,1,0,1.06c0,.49,0,1.43,0,2.16,0,1.55.13,3.14,0,4.94C110.42,77.1,110.42,78.52,110.42,79.54Z"/><path d="M134.58,81a1,1,0,0,1,0,.41.51.51,0,0,1-.49.57c-.37,0-1.22,0-1.47,0-.08,0-.65,0-1.18,0s-1.14,0-1.39,0-.69,0-1.1,0H128c-1.87,0-2.85,0-3.38,0a1.86,1.86,0,0,1-.57,0,6.3,6.3,0,0,0-1.23,0c-.53,0-1,0-1.59,0-.29,0-.53,0-.78,0-1.55-.12-2.36.13-3.63,0-1.06-.08-1.22-.57-1.22-2.41V76.32c0-1.06-.12-2.08-.12-3.51v-3c0-.73,0-2,0-2.77-.13-2.37,0-4.82,0-7.31V57.8c0-1,0-2.37,0-3.68V50.37a.76.76,0,0,1,.36-.73c.13,0,.25-.09.41-.13a8.59,8.59,0,0,0,1-.08c.9,0,1.92,0,3.59,0,1.15,0,1.84.08,2.21.08a2.32,2.32,0,0,0,.4,0c.29,0,.58.29.58.9V51.8c0,.57,0,1.1,0,1.26s0,1.15.09,2.21,0,2.12,0,2.53,0,1.22,0,2-.09,1.5-.09,1.63c0,3.42.09,5.22.09,6.16,0,.53,0,.9,0,3.22,0,.53,0,1.27,0,1.88a.88.88,0,0,0,.16.61c.33.41,1.14.29,1.84.2.89-.08,1.83.05,2.81,0,.16,0,1.55-.08,3.06,0,.82.05,1.35,0,2.08,0,.25,0,.29.17.41.37s0,.25,0,.41c0,1.59.16,1.51.08,4.53C134.58,80,134.58,80.6,134.58,81Z"/><path d="M161.31,80c0,.29-.08.61-.12,1.27-.12.36-.45.45-.82.53s-.81,0-1.18,0-1.59.08-2.73.12H151.4a2.88,2.88,0,0,1-.74,0c-.73,0-2,0-4.73,0-.12,0-2.29,0-3.22,0s-2,0-2.49,0c-.94,0-1.43-.33-1.64-.77a2.4,2.4,0,0,1-.2-1.23v-8c0-1.63,0-3,0-3.38s0-1.72,0-3.23,0-3.14,0-4.57V55.31c0-1,0-1.27,0-2.9a2.3,2.3,0,0,1,1.14-2.28c.82-.45,3.19-.62,4.86-.66h1.75c2.53-.12,4.78,0,7.51,0,.53,0,2,0,3.43-.08a24.85,24.85,0,0,1,3.3.08,1.08,1.08,0,0,1,.86.9c.08.41,0,1,.08,1.59s0,3.23,0,3.47-.08.45-.12,1.1a.88.88,0,0,1-.82.57c-.41,0-.81,0-1.18,0s-1.59.09-2.73.09-2.37.08-2.78.08c-.16,0-.61,0-1.1,0h-4.94a.3.3,0,0,0-.16,0,.35.35,0,0,0-.29.28c0,.29,0,.57,0,1.47,0,1.18,0-.41,0,2.2,0,.29.08.37.37.37h4.16c.37,0,1.31,0,2.25,0s1.79,0,2.16,0a7.16,7.16,0,0,0,.9,0,.7.7,0,0,1,.69.45c0,.65,0,.94,0,1.14s0,3,0,3.55,0,1.11,0,1.47a.86.86,0,0,1-.65.78,15.84,15.84,0,0,1-2.65.08c-1.15,0-2.25-.08-2.7-.08-1,0-.61,0-1.43,0s-1.5,0-2.44,0a.58.58,0,0,0-.62.33.33.33,0,0,0,0,.28v4c0,.08,0,.16.13.2s.32.21.81.13c1.31,0,2.29,0,3.31,0s.81,0,2.2,0c.53,0,2-.08,3.43-.08a14.57,14.57,0,0,1,3.3.08c.57.12.78.36.86.77s0,3.31.08,3.92S161.31,79.67,161.31,80Z"/><path d="M187.59,74a7.52,7.52,0,0,1-.94,3.15c-.16.32-.57.89-.89,1.51a7,7,0,0,1-1.39,1.47,4.31,4.31,0,0,1-.94.65c-.69.37-1.63.49-2.24.81a12.14,12.14,0,0,1-4.21.78,22.89,22.89,0,0,1-4.69-.2A10.22,10.22,0,0,1,168.66,81a5.79,5.79,0,0,1-1.92-1.59,9.59,9.59,0,0,1-2-4.77c-.16-1.35-.28-1.72.61-2a17.85,17.85,0,0,1,2.25-.33c1.1,0,3.51-.61,4.45-.45.36,0,.16.66.69,1.59a3.14,3.14,0,0,0,1.59,1.35c.41,0,.69.12,1.1.16a6.43,6.43,0,0,0,2.08-.24,2.31,2.31,0,0,0,1.55-1.39,2.41,2.41,0,0,0,.25-1.1,2.46,2.46,0,0,0-1.8-2.65,5.81,5.81,0,0,0-1.91-.33,17,17,0,0,1-3.88-.49,20.19,20.19,0,0,1-3.26-1.67,8.59,8.59,0,0,1-1.88-2.37,8.54,8.54,0,0,1-1-1.67,10.25,10.25,0,0,1-.65-3.26,8.25,8.25,0,0,1-.09-2,10.64,10.64,0,0,1,.94-3.59c.17-.33.49-.82.82-1.39a7.49,7.49,0,0,1,1.43-1.55,13.5,13.5,0,0,1,3-1.59,17.07,17.07,0,0,1,4.32-.62,18.66,18.66,0,0,1,4.28.17A9.45,9.45,0,0,1,183,50.41,7.61,7.61,0,0,1,184.94,52a4.78,4.78,0,0,1,1.18,2.12c.17.7.41,1.76.53,2.62s.29,1.91-.08,2a12,12,0,0,1-2.57.25,34.07,34.07,0,0,1-3.47,0,1.45,1.45,0,0,1-1.3-1c-.21-.86-.78-2-3.23-1.92a2.11,2.11,0,0,0-2.28,2c0,.9.24,2.57,2.85,2.86a18.33,18.33,0,0,1,2.74.33,16.73,16.73,0,0,1,3.92,1.42,8.87,8.87,0,0,1,2.44,1.68,8.63,8.63,0,0,1,2.17,5.75A22.1,22.1,0,0,1,187.59,74Z"/><path d="M214.48,74a7.63,7.63,0,0,1-.93,3.15c-.17.32-.58.89-.9,1.51a7,7,0,0,1-1.39,1.47,4.31,4.31,0,0,1-.94.65c-.69.37-1.63.49-2.24.81a12.13,12.13,0,0,1-4.2.78,23,23,0,0,1-4.7-.2A10.22,10.22,0,0,1,195.55,81a5.79,5.79,0,0,1-1.92-1.59,9.59,9.59,0,0,1-2-4.77c-.16-1.35-.28-1.72.62-2a17.68,17.68,0,0,1,2.24-.33c1.1,0,3.51-.61,4.45-.45.37,0,.16.66.69,1.59a3.14,3.14,0,0,0,1.59,1.35c.41,0,.7.12,1.1.16a6.55,6.55,0,0,0,2.09-.24A2.36,2.36,0,0,0,206,73.3a2.58,2.58,0,0,0,.24-1.1,2.46,2.46,0,0,0-1.79-2.65,5.87,5.87,0,0,0-1.92-.33,17.08,17.08,0,0,1-3.88-.49,20.19,20.19,0,0,1-3.26-1.67,8.59,8.59,0,0,1-1.88-2.37,9.07,9.07,0,0,1-1-1.67,10.25,10.25,0,0,1-.65-3.26,7.88,7.88,0,0,1-.08-2,10.18,10.18,0,0,1,.94-3.59c.16-.33.49-.82.81-1.39a7.49,7.49,0,0,1,1.43-1.55,13.5,13.5,0,0,1,3-1.59,17.07,17.07,0,0,1,4.32-.62,18.75,18.75,0,0,1,4.29.17,9.4,9.4,0,0,1,3.38,1.18A7.44,7.44,0,0,1,211.83,52,4.91,4.91,0,0,1,213,54.08c.16.7.4,1.76.53,2.62s.28,1.91-.09,2a12,12,0,0,1-2.57.25,33.9,33.9,0,0,1-3.46,0,1.46,1.46,0,0,1-1.31-1c-.2-.86-.78-2-3.22-1.92a2.11,2.11,0,0,0-2.29,2c0,.9.25,2.57,2.86,2.86a18.2,18.2,0,0,1,2.73.33,16.57,16.57,0,0,1,3.92,1.42,8.93,8.93,0,0,1,2.45,1.68,8.63,8.63,0,0,1,2.16,5.75A21.13,21.13,0,0,1,214.48,74Z"/><path d="M252.6,74a7.67,7.67,0,0,1-.94,3.15c-.16.32-.57.89-.9,1.51a6.91,6.91,0,0,1-1.38,1.47,4.6,4.6,0,0,1-.94.65c-.7.37-1.64.49-2.25.81a12.08,12.08,0,0,1-4.2.78,22.85,22.85,0,0,1-4.69-.2A10.22,10.22,0,0,1,233.67,81a5.69,5.69,0,0,1-1.92-1.59,9.5,9.5,0,0,1-2-4.77c-.16-1.35-.29-1.72.61-2a17.58,17.58,0,0,1,2.25-.33c1.1,0,3.5-.61,4.44-.45.37,0,.17.66.7,1.59a3.1,3.1,0,0,0,1.59,1.35c.41,0,.69.12,1.1.16a6.48,6.48,0,0,0,2.08-.24,2.34,2.34,0,0,0,1.55-1.39,2.71,2.71,0,0,0,.25-1.1,2.47,2.47,0,0,0-1.8-2.65,5.82,5.82,0,0,0-1.92-.33,17,17,0,0,1-3.87-.49,20.68,20.68,0,0,1-3.27-1.67,8.75,8.75,0,0,1-1.87-2.37,8.54,8.54,0,0,1-1-1.67,10.35,10.35,0,0,1-.66-3.26,8.42,8.42,0,0,1-.08-2,10.41,10.41,0,0,1,.94-3.59c.16-.33.49-.82.82-1.39a7.17,7.17,0,0,1,1.42-1.55,14,14,0,0,1,3-1.59,17.16,17.16,0,0,1,4.33-.62,18.69,18.69,0,0,1,4.28.17A9.45,9.45,0,0,1,248,50.41,7.61,7.61,0,0,1,250,52a4.78,4.78,0,0,1,1.18,2.12c.16.7.41,1.76.53,2.62s.29,1.91-.08,2a12,12,0,0,1-2.57.25,34.07,34.07,0,0,1-3.47,0,1.47,1.47,0,0,1-1.31-1c-.2-.86-.77-2-3.22-1.92a2.11,2.11,0,0,0-2.28,2c0,.9.24,2.57,2.85,2.86a18.33,18.33,0,0,1,2.74.33,16.49,16.49,0,0,1,3.91,1.42,8.78,8.78,0,0,1,2.45,1.68,8.58,8.58,0,0,1,2.16,5.75A22.33,22.33,0,0,1,252.6,74Z"/><path d="M281.16,77.38a20.79,20.79,0,0,1-.08,3.63,1,1,0,0,1-1,.94c-.85.12-2,0-3.1,0-.65,0-1,0-1.34,0a11,11,0,0,1-2.66-.12,1.06,1.06,0,0,1-.61-.86c-.08-.45,0-.94-.08-1.3s0-1.76-.08-3-.08-2.37-.08-2.82c-.08-.65,0-2.12-.29-2.57a3,3,0,0,0-2-.49,16.07,16.07,0,0,0-2.16,0,2.6,2.6,0,0,0-1.35.7,1.23,1.23,0,0,0-.36.93c0,.25,0,.45,0,.78,0,.77.08,1.51,0,2.45,0,1.43-.08,2.85-.08,3.87v1.11a1.41,1.41,0,0,1-.21.81c-.77.78-3.18.57-4.53.49a10.43,10.43,0,0,1-3.43-.12,1.17,1.17,0,0,1-.49-1.06c-.16-2.49-.12-5.14-.12-8v-3c0-.73,0-2,0-2.77-.12-2.37,0-4.82,0-7.26a12.69,12.69,0,0,1,.21-2.58,10.71,10.71,0,0,1,1.14-3.67c.45-.69.73-1.18,1.1-1.67a7.6,7.6,0,0,1,1.75-1.31,9.83,9.83,0,0,1,4-1.38,24.12,24.12,0,0,1,7,.16,27.06,27.06,0,0,1,3.55.73,6.72,6.72,0,0,1,2.86,2.09,8.87,8.87,0,0,1,1.1,1.87,16.09,16.09,0,0,1,.94,3.59,17.3,17.3,0,0,1,.12,2.49c.12,1.8.2,4.2.2,6.69s0,5.06,0,6.86C281.08,74.28,281.12,75.79,281.16,77.38Zm-8.77-18.07a2.55,2.55,0,0,0-1.14-2.08,3.8,3.8,0,0,0-2.2-.66,3,3,0,0,0-2.45.86,2.79,2.79,0,0,0-.9,2.2c-.08,1.76-.08,2.49.53,2.9a2.14,2.14,0,0,0,1.67.29c1.23,0,2,0,2.53,0h1.06a1,1,0,0,0,.82-.66A9.94,9.94,0,0,0,272.39,59.31Z"/><path d="M309.77,80.93a.74.74,0,0,1-.77.82c-.37,0-.66,0-1,.08-.54,0-1,0-3.31,0-1.47,0-2.33.12-2.61-.53-.16-.29-.41-.78-.65-1.31s-.49-1-.58-1.18-.57-1-1.06-2-1.06-1.92-1.22-2.29a9.39,9.39,0,0,1-.94-1.71,13.33,13.33,0,0,0-.86-1.47c-.93-1.87-1.63-3.3-2.16-4.32,0,.85,0,1.67,0,1.79a20.61,20.61,0,0,0,0,2.16c0,1.51.08,2.94,0,4.74,0,1.39-.08,2.85-.08,3.87v1.11a1.39,1.39,0,0,1-.24.81c-.62.65-2.29.49-3.14.53a14,14,0,0,1-4.37-.16c-.29-.08-.45-.41-.49-1.06-.12-2.49-.12-5.18-.12-7.92v-3c0-.77,0-2,0-2.77-.13-2.37,0-4.78,0-7.26V57.92c0-1,0-2.37,0-3.67v-3.1a1.11,1.11,0,0,1,.65-1.23,2.19,2.19,0,0,1,1.35-.32c.65,0,.73-.09,1.91-.05.57.05,1.07.05,1.39.09.53,0,2.29.08,2.57.49a1.33,1.33,0,0,1,.29.32c1.3,2.25,2.61,4.65,4,7.22.16.37.53,1,.81,1.51.86,1.6,1.55,2.74,2.12,3.8V60.37c.05-1.59-.08-2.86,0-4.65,0-1.39,0-2.82,0-3.84a9,9,0,0,1,.05-1.1,1.45,1.45,0,0,1,.2-.82c.61-.65,2.28-.61,3.14-.53.57,0,1.23,0,1.84,0a7.62,7.62,0,0,1,2.61.21,1.35,1.35,0,0,1,.49,1.06c.12,2.49.08,5.18.08,7.91v3c0,.78,0,2,0,2.78.12,2.36,0,4.77,0,7.26v1.88c0,1,0,2.36,0,3.67C309.69,78.69,309.77,79.63,309.77,80.93Z"/><path d="M337.07,74a7.52,7.52,0,0,1-.94,3.15c-.16.32-.57.89-.89,1.51a7,7,0,0,1-1.39,1.47,4.31,4.31,0,0,1-.94.65c-.69.37-1.63.49-2.24.81a12.14,12.14,0,0,1-4.21.78,22.89,22.89,0,0,1-4.69-.2A10.22,10.22,0,0,1,318.14,81a5.79,5.79,0,0,1-1.92-1.59,9.59,9.59,0,0,1-2-4.77c-.16-1.35-.28-1.72.61-2a17.85,17.85,0,0,1,2.25-.33c1.1,0,3.51-.61,4.45-.45.36,0,.16.66.69,1.59a3.14,3.14,0,0,0,1.59,1.35c.41,0,.69.12,1.1.16a6.43,6.43,0,0,0,2.08-.24,2.31,2.31,0,0,0,1.55-1.39,2.41,2.41,0,0,0,.25-1.1,2.46,2.46,0,0,0-1.8-2.65,5.81,5.81,0,0,0-1.91-.33,17,17,0,0,1-3.88-.49,20.19,20.19,0,0,1-3.26-1.67,8.59,8.59,0,0,1-1.88-2.37,8.54,8.54,0,0,1-1-1.67,10.25,10.25,0,0,1-.65-3.26,8.25,8.25,0,0,1-.09-2,10.64,10.64,0,0,1,.94-3.59c.17-.33.49-.82.82-1.39a7.49,7.49,0,0,1,1.43-1.55,13.5,13.5,0,0,1,3-1.59,17.07,17.07,0,0,1,4.32-.62,18.78,18.78,0,0,1,4.29.17,9.47,9.47,0,0,1,3.38,1.18A7.61,7.61,0,0,1,334.42,52a4.78,4.78,0,0,1,1.18,2.12c.17.7.41,1.76.53,2.62s.29,1.91-.08,2a12,12,0,0,1-2.57.25A34.07,34.07,0,0,1,330,59a1.45,1.45,0,0,1-1.3-1c-.21-.86-.78-2-3.23-1.92a2.11,2.11,0,0,0-2.28,2c0,.9.24,2.57,2.85,2.86a18.33,18.33,0,0,1,2.74.33,16.73,16.73,0,0,1,3.92,1.42,8.87,8.87,0,0,1,2.44,1.68,8.63,8.63,0,0,1,2.17,5.75A22.1,22.1,0,0,1,337.07,74Z"/><path d="M375.8,80c0,.29-.08.61-.12,1.27-.13.36-.45.45-.82.53s-.82,0-1.18,0-1.59.08-2.74.12h-5.06a2.74,2.74,0,0,1-.73,0c-.73,0-2,0-4.73,0-.13,0-2.29,0-3.23,0s-2,0-2.49,0c-.93,0-1.42-.33-1.63-.77a2.4,2.4,0,0,1-.2-1.23v-8c0-1.63,0-3,0-3.38s0-1.72,0-3.23,0-3.14,0-4.57V55.31c0-1,0-1.27,0-2.9a2.3,2.3,0,0,1,1.14-2.28c.82-.45,3.18-.62,4.86-.66h1.75c2.53-.12,4.77,0,7.51,0,.53,0,2,0,3.43-.08a24.91,24.91,0,0,1,3.3.08,1.08,1.08,0,0,1,.86.9c.08.41,0,1,.08,1.59s0,3.23,0,3.47-.08.45-.12,1.1a.89.89,0,0,1-.82.57c-.41,0-.82,0-1.18,0s-1.59.09-2.74.09-2.36.08-2.77.08c-.17,0-.61,0-1.1,0h-4.94a.3.3,0,0,0-.16,0,.34.34,0,0,0-.29.28c0,.29,0,.57,0,1.47,0,1.18,0-.41,0,2.2,0,.29.08.37.37.37h4.16c.37,0,1.31,0,2.24,0s1.8,0,2.17,0a6.93,6.93,0,0,0,.89,0,.71.71,0,0,1,.7.45c0,.65,0,.94,0,1.14s0,3,0,3.55,0,1.11,0,1.47a.87.87,0,0,1-.65.78,15.92,15.92,0,0,1-2.66.08c-1.14,0-2.24-.08-2.69-.08-1,0-.61,0-1.43,0s-1.51,0-2.44,0c-.33,0-.5.08-.62.33a.33.33,0,0,0,0,.28v4c0,.08,0,.16.12.2s.33.21.82.13c1.31,0,2.29,0,3.3,0s.82,0,2.21,0c.53,0,2-.08,3.43-.08a14.59,14.59,0,0,1,3.3.08c.57.12.78.36.86.77s0,3.31.08,3.92S375.8,79.67,375.8,80Z"/><path d="M402.08,80.65a1.48,1.48,0,0,1,.16.85c-.12.29-.69.45-1.34.45h-6.61a1.08,1.08,0,0,1-1.07-.61,9.36,9.36,0,0,1-.61-1.1c-.73-1.35-1.38-2.74-2.2-4.45-.29.49-.49.94-.69,1.35-.53,1.14-1.06,2.16-1.47,3.18a11.41,11.41,0,0,1-.66,1.1,1,1,0,0,1-1,.61,37.65,37.65,0,0,1-4.86,0c-.45,0-1.18,0-1.84,0s-1.22-.12-1.34-.41,0-.53.16-.89.29-.7.41-1,.53-1.06,1-2,1.06-2.21,1.55-3.23.94-2,1.1-2.36c.73-1.68,1.63-3,2.29-4.37a2,2,0,0,1,.12-.28c0-.13.2-.49.53-1.31-.94-2-1.55-3.43-2.21-4.81-.08-.13-.4-.78-.81-1.72s-1-2.12-1.51-3.34c-.33-.7-.82-1.84-1.35-2.9s-1-2.12-1.26-2.73a.71.71,0,0,1,0-.82c.08-.12.2-.16.33-.29a10,10,0,0,1,2.69-.08c2.61.12,3.87,0,4.57,0h.45c.81,0,.73.45,1,1,.12.25.28.74.49,1.14l.49,1c.08.17.49,1.07,1,2a15.24,15.24,0,0,0,.78,1.72c.2-.45.49-1.06.82-1.72.4-.85.77-1.67.85-1.83s.25-.53.45-.94.37-.82.49-1.06c.25-.53.74-1.23,1.47-1.23h3.22c1.88,0,3.51-.2,4.13.13.28.2.65.44.36,1.06s-.85,1.75-1.47,3-1.14,2.48-1.47,3.14c-1.1,2.45-1.91,4.28-2,4.57-.65,1.22-1.34,2.61-2.32,4.69.37.77.81,1.63,1.26,2.45.66,1.38,1.35,2.73,2.13,4.4.24.66,1,2.13,1.67,3.51s1.43,2.78,1.67,3.23A7.45,7.45,0,0,1,402.08,80.65Z"/><path d="M427.34,56.82v.45a.55.55,0,0,1-.57.57c-.25,0-.61,0-.94,0h-3.06c-1,0-2.12-.13-2.33.08s-.16,1.34-.24,1.79a14.08,14.08,0,0,0,0,1.72c0,3.42.08,5.22.08,6.16,0,.53,0,.9,0,1.06a12.89,12.89,0,0,0,0,2.16c0,1.55,0,3.1,0,4.9-.08,1.39-.08,2.85-.08,3.87,0,.29,0,.7,0,1.11s0,.69-.21.81a2.69,2.69,0,0,1-2,.49c-2,0-4.28.49-5.87-.12a1.38,1.38,0,0,1-.49-1.06c-.16-2.49-.12-5.14-.12-8v-3c0-.73,0-2,0-2.77-.13-2.37,0-4.9,0-7.43V57.84c-.7,0-1.39.08-2.17,0-1.34,0-2.65-.08-3.59-.08-.28,0-.85.08-1.06-.21a3,3,0,0,1-.32-1.87c.08-2-.29-4,.08-5.68a.81.81,0,0,1,.73-.49c1.92-.16,3.88-.08,6-.08H415c1.51-.16,3.18,0,4.85-.08h1.22c.7,0,1.56,0,2.41,0,1.31,0,2.16,0,3.35,0a.49.49,0,0,1,.45.37,1.19,1.19,0,0,1,.08.41,8.36,8.36,0,0,0,0,1,10.08,10.08,0,0,1,0,1.22C427.42,54.74,427.34,56.08,427.34,56.82Z"/><path d="M454.27,82h-4.45c-.57,0-1.42,0-2.32,0-.49,0-.9,0-1,0-.69,0-.9-.61-1.27-1.14a13.48,13.48,0,0,0-.77-1.35c-.41-.65-.82-1.43-1.23-2.12-.61-1.06-1.14-2.16-1.67-3-.61-1.06-1.06-1.75-1.14-1.92-.45-.73-.9-1.42-1.31-2V73c0,.57,0,1.42.09,2.53,0,1.79.08,3.87.08,5.3,0,.61,0,.77-2.08,1.06-.94.08-1.43.08-2.33.12-1.14,0-2.41-.08-3.14-.08a1,1,0,0,1-1-.61,1.93,1.93,0,0,1-.24-1.06v-3c0-1.55,0-3.51,0-5.18V68.57c0-.49,0-1.67,0-3.14s0-3.15,0-4.53V57.8c0-.74,0-1.84,0-2.74a4.58,4.58,0,0,1,.08-1.26,4.89,4.89,0,0,1,.4-1.59,5.08,5.08,0,0,1,1.43-1.84c.82-.65,2.21-.65,3.88-1.1.12,0,.37,0,.73-.08s.7-.08,1-.08c1.14-.09,2.49-.13,3.72-.13a18,18,0,0,1,3.34.17c1.88.28,4.12.53,5.71,1.83a6.51,6.51,0,0,1,2.45,3.8,16.53,16.53,0,0,1,.29,5.71,7.89,7.89,0,0,1-.74,3.06,8.61,8.61,0,0,1-2.12,2.57,6.65,6.65,0,0,1-2,1,10.43,10.43,0,0,1-2,.57c.29.53.57.94,1.43,2.49.49.86,1.06,1.71,1.22,2s.62,1.1,1,1.8.78,1.34.86,1.46.49.66.82,1.15c.36.65.61,1.1.73,1.34a11.09,11.09,0,0,0,.86,1.47c.41.66.77,1.43,1,1.72C455.05,81.71,454.56,82,454.27,82Zm-14.4-25.46a1.64,1.64,0,0,0-.94,1.68c0,.49,0,1,0,1.67l0,1.79c0,.62.08.9.94.9.53,0,1,.12,1.31.08s.53-.08.61-.08a1.85,1.85,0,0,0,.61-.08,2.41,2.41,0,0,0,.9-.25,3.2,3.2,0,0,0,1.06-1.14,2.6,2.6,0,0,0,.37-1.59,7.29,7.29,0,0,0-.41-1.67,2,2,0,0,0-1.19-1.27,5.68,5.68,0,0,0-1.38-.28,6.68,6.68,0,0,0-1.27,0A2,2,0,0,0,439.87,56.57Z"/><path d="M481.9,77.38a23.06,23.06,0,0,1-.08,3.63,1,1,0,0,1-1,.94c-.86.12-2,0-3.1,0-.66,0-1,0-1.35,0a11,11,0,0,1-2.65-.12,1,1,0,0,1-.61-.86c-.08-.45,0-.94-.08-1.3s-.05-1.76-.09-3-.08-2.37-.08-2.82c-.08-.65,0-2.12-.28-2.57a3,3,0,0,0-2-.49,16,16,0,0,0-2.16,0,2.52,2.52,0,0,0-1.35.7,1.2,1.2,0,0,0-.37.93c0,.25,0,.45,0,.78,0,.77.08,1.51,0,2.45,0,1.43-.08,2.85-.08,3.87v1.11a1.41,1.41,0,0,1-.2.81c-.78.78-3.19.57-4.53.49a10.42,10.42,0,0,1-3.43-.12,1.17,1.17,0,0,1-.49-1.06c-.16-2.49-.12-5.14-.12-8v-3c0-.73,0-2,0-2.77-.12-2.37,0-4.82,0-7.26a13.15,13.15,0,0,1,.2-2.58,11.17,11.17,0,0,1,1.14-3.67c.45-.69.74-1.18,1.11-1.67a7.18,7.18,0,0,1,1.75-1.31,9.83,9.83,0,0,1,4-1.38,24.15,24.15,0,0,1,7,.16,27.41,27.41,0,0,1,3.55.73,6.68,6.68,0,0,1,2.85,2.09,8.47,8.47,0,0,1,1.1,1.87,15.57,15.57,0,0,1,.94,3.59,15.82,15.82,0,0,1,.12,2.49c.13,1.8.21,4.2.21,6.69s0,5.06,0,6.86C481.82,74.28,481.86,75.79,481.9,77.38Zm-8.77-18.07A2.54,2.54,0,0,0,472,57.23a3.78,3.78,0,0,0-2.2-.66,3.06,3.06,0,0,0-2.45.86,2.81,2.81,0,0,0-.89,2.2c-.09,1.76-.09,2.49.53,2.9a2.12,2.12,0,0,0,1.67.29c1.22,0,2,0,2.53,0h1.06a1,1,0,0,0,.82-.66A9.94,9.94,0,0,0,473.13,59.31Z"/><path d="M521.89,70.57a20.22,20.22,0,0,1,.16,3.38A8.29,8.29,0,0,1,521,77.54a8.71,8.71,0,0,1-2.81,2.7,9.31,9.31,0,0,1-4.78,1.59c-1.55.12-3.14.12-4.57.12h-3.34c-2.37,0-3.84,0-4.74,0a9.27,9.27,0,0,1-1,0,1.44,1.44,0,0,1-1.19-.61,2,2,0,0,1-.45-1.06v-3c0-1.59,0-3.55,0-5.22s0-3.06,0-3.55,0-1.76,0-3.26,0-3.15,0-4.57,0-2.74,0-3c.08-.74-.08-1.84,0-2.74a7.2,7.2,0,0,1,0-1.26,5.32,5.32,0,0,1,.45-1.59c.78-1.35,1.68-2,4.29-2.74.28,0,1-.2,1.83-.28a9,9,0,0,1,1-.08c1.15-.09,2.45-.13,3.72-.13a13.73,13.73,0,0,1,2.77.25,11.13,11.13,0,0,1,4.9,1.83c1.83,1.39,2.77,2.33,3.22,3.72a17.92,17.92,0,0,1,.41,5A6.16,6.16,0,0,1,518.26,65a5.06,5.06,0,0,1,3,3.18A11.82,11.82,0,0,1,521.89,70.57Zm-15.22-10c0,.08.12.33.21.33.32,0,.85,0,1.3,0s.7,0,.86,0c.9-.08,1.26-.08,1.51-.12a2,2,0,0,0,.61-.08,2.07,2.07,0,0,0,1.22-1.31,1.69,1.69,0,0,0,0-1.55c-.2-.45-.45-.57-.85-.86a3.1,3.1,0,0,0-1.55-.36c-.29,0-.58,0-1.55,0a3.16,3.16,0,0,0-1,.2,1.18,1.18,0,0,0-.82,1C506.55,58.61,506.71,59.22,506.67,60.61Zm0,12.94v0Zm6.77-1.84A2.4,2.4,0,0,0,513,70c-.9-.94-1.64-1-3.06-1.11-.62,0-1.43-.12-3-.12-.12,0-.29.08-.29.53l0,1.84c0,1.06,0,2,0,2.81.12.37.61.29,1.59.25.21,0,.62,0,1,0a6.19,6.19,0,0,0,2.37-.33A3.26,3.26,0,0,0,513,73.1,1.68,1.68,0,0,0,513.44,71.71Z"/><path d="M549.72,58.78a66.08,66.08,0,0,1,.21,10.65,28,28,0,0,1-1.27,7.87c-.65,1.63-2.41,2.94-4.12,3.84a13.91,13.91,0,0,1-6.16,1.3,15.18,15.18,0,0,1-4.73-.49,9.52,9.52,0,0,1-4.17-2.24,10.88,10.88,0,0,1-3.1-6.33,51.62,51.62,0,0,1-.2-7.59,62.22,62.22,0,0,1,.12-6.61,13,13,0,0,1,1.63-5.71,8.83,8.83,0,0,1,5.1-3.79,21.17,21.17,0,0,1,10.08-.17,9.59,9.59,0,0,1,4.45,2.57C548.66,53.27,549.31,55.76,549.72,58.78Zm-8.44,12.56c.08-.69.12-1.51.12-1.75,0-.82,0-1.67,0-2.16s0-1.84,0-3.15l-.08-2.53a18.73,18.73,0,0,0-.17-2A2.75,2.75,0,0,0,540.5,58a2.71,2.71,0,0,0-2.12-1,2.64,2.64,0,0,0-2.61,1.1c-.82,1-.94,1.84-.9,3.59,0,.66,0,2.41,0,4.12,0,1.47,0,2.86,0,3.39V70.4a6.11,6.11,0,0,0,.41,2.17c.41,1,.69,1.38,1.22,1.59a3.42,3.42,0,0,0,2.13.32,2.63,2.63,0,0,0,2-1.46A4.91,4.91,0,0,0,541.28,71.34Z"/><path d="M573.72,81a1,1,0,0,1,0,.41.52.52,0,0,1-.49.57c-.37,0-1.23,0-1.47,0-.08,0-.65,0-1.18,0s-1.15,0-1.39,0-.7,0-1.1,0h-.9c-1.88,0-2.86,0-3.39,0a1.9,1.9,0,0,1-.57,0A6.2,6.2,0,0,0,562,82c-.53,0-1,0-1.59,0-.29,0-.54,0-.78,0-1.55-.12-2.37.13-3.63,0-1.06-.08-1.22-.57-1.22-2.41V76.32c0-1.06-.13-2.08-.13-3.51v-3c0-.73,0-2,0-2.77-.12-2.37,0-4.82,0-7.31V57.8c0-1,0-2.37,0-3.68V50.37a.76.76,0,0,1,.37-.73,4.06,4.06,0,0,1,.41-.13,8.93,8.93,0,0,0,1-.08c.9,0,1.92,0,3.59,0,1.14,0,1.83.08,2.2.08a2.48,2.48,0,0,0,.41,0c.29,0,.57.29.57.9V51.8c0,.57,0,1.1,0,1.26s0,1.15.08,2.21,0,2.12,0,2.53,0,1.22,0,2-.08,1.5-.08,1.63c0,3.42.08,5.22.08,6.16,0,.53,0,.9,0,3.22,0,.53,0,1.27,0,1.88a.84.84,0,0,0,.17.61c.32.41,1.14.29,1.83.2.9-.08,1.84.05,2.82,0,.16,0,1.55-.08,3.06,0,.81.05,1.34,0,2.08,0,.24,0,.28.17.41.37s0,.25,0,.41c0,1.59.16,1.51.08,4.53C573.72,80,573.72,80.6,573.72,81Z"/><path d="M601.63,62.94c0,1.14.08,2.36.08,3.51v2.4c0,.09,0,1-.08,2.29a18.72,18.72,0,0,1-.82,4.45,7.61,7.61,0,0,1-2.4,3.87,10,10,0,0,1-1.88,1.43c-1.35.65-3.51,1.1-7,1.14-1.26,0-2,0-2.65,0s-1.22,0-2,0c-2.37,0-3.83,0-4.73,0h-.94a1.79,1.79,0,0,1-1.23-.57,1.54,1.54,0,0,1-.44-1v-3c0-1.59,0-3.55,0-5.22s0-3.06,0-3.55,0-1.67,0-3.14V60.9c0-1.63,0-2.82,0-3.14a19.66,19.66,0,0,1,0-2.74c0-.24,0-.73,0-1.22a3.83,3.83,0,0,1,.45-1.63,4.31,4.31,0,0,1,1.46-1.8,9.56,9.56,0,0,1,2.7-1c.2,0,1-.16,1.87-.24.45,0,.86-.13,1.23-.17a32.08,32.08,0,0,1,4.85,0c.94.17,1.64.21,2.29.37A17.46,17.46,0,0,1,595,50a11.22,11.22,0,0,1,3.47,2,11.35,11.35,0,0,1,1.71,2.12,8.5,8.5,0,0,1,1.18,3.11,21.09,21.09,0,0,1,.21,3.34C601.59,60.9,601.59,61.84,601.63,62.94Zm-8.28,1c0-.61-.09-1.19-.09-1.63a8.39,8.39,0,0,0-.4-2.62A4,4,0,0,0,591,57.35a6.73,6.73,0,0,0-3.67-.57c-1,0-1.27.36-1.27.89,0,.09,0,1.35,0,3.19,0,1.3-.08,3-.08,4.73,0,1.59,0,3.22,0,4.49a24.82,24.82,0,0,0,.21,3.87c0,.13.53.17,1,.21.2,0,.32,0,.48,0a9.62,9.62,0,0,0,2.74-.29,3.75,3.75,0,0,0,2-1.1,2.69,2.69,0,0,0,.86-2c.08-1.26,0-2.61,0-3.3Z"/></g></g></svg>