<svg xmlns="http://www.w3.org/2000/svg" viewBox="0 0 480 245.78"><title>wall</title><g id="Layer_2" data-name="Layer 2"><g id="Layer_1-2" data-name="Layer 1"><polygon points="95.14 0 109.68 140.73 110.34 140.73 129.5 0 167.16 0 125.53 245.78 98.44 245.78 83.91 133.79 83.25 133.79 68.71 245.78 41.62 245.78 0 0 37.66 0 56.82 140.73 57.48 140.73 72.02 0 95.14 0"/><path d="M246.44,0h-58.8L154.27,245.78h39.32l5.28-48.23h35l5.28,48.23h40.64Zm-43.6,160.22L216.05,37h.66l13.21,123.22Z"/><polygon points="338.94 0 338.94 207.79 380.89 207.79 380.89 245.78 296.66 245.78 296.66 0 338.94 0"/><polygon points="438.05 0 438.05 207.79 480 207.79 480 245.78 395.76 245.78 395.76 0 438.05 0"/></g></g></svg>